<?xml version="1.0" encoding="UTF-8"?>
<svg width="116px" height="39px" viewBox="0 0 116 39" version="1.1" xmlns="http://www.w3.org/2000/svg" xmlns:xlink="http://www.w3.org/1999/xlink">
    <!-- Generator: Sketch 48.2 (47327) - http://www.bohemiancoding.com/sketch -->
    <title>Group 5 Copy 2</title>
    <desc>Created with Sketch.</desc>
    <defs>
        <rect id="path-1" x="0" y="0" width="113.646234" height="36.617184" rx="1.75157895"></rect>
    </defs>
    <g id="Desktop-HD-Copy-3" stroke="none" stroke-width="1" fill="none" fill-rule="evenodd" transform="translate(-1193.000000, -278.000000)">
        <g id="Group-10" transform="translate(1127.000000, 187.000000)">
            <g id="Group-18" transform="translate(0.000000, 42.000000)">
                <g id="Group-5-Copy-2" transform="translate(67.000000, 50.000000)">
                    <g id="Rectangle-3">
                        <use fill="#FFFFFF" fill-rule="evenodd" xlink:href="#path-1"></use>
                        <rect stroke="#4A4A4A" stroke-width="0.875789474" x="-0.437894737" y="-0.437894737" width="114.522023" height="37.4929735" rx="1.75157895"></rect>
                    </g>
                    <g id="Group-17" transform="translate(4.000000, 9.000000)" fill="#4A4A4A" fill-rule="nonzero">
                        <g id="Group" transform="translate(18.000000, 0.000000)">
                            <path d="M5.32970797,16.459893 L5.28295614,15.775964 C4.39467148,16.459893 3.45963499,16.8246552 2.52459851,16.8246552 C1.82332115,16.8246552 1.26229925,16.6422741 0.841532837,16.2319167 C0.420766418,15.8215592 0.233759121,15.3200113 0.233759121,14.6360822 C0.233759121,13.9065578 0.467518243,13.3138193 0.981788309,12.9034619 C1.49605838,12.4931044 2.19733574,12.2651281 3.0856204,12.2651281 C3.78689776,12.2651281 4.48817513,12.4019139 5.28295614,12.6298902 L5.28295614,11.3988179 C5.28295614,10.8060794 5.14270067,10.3501267 4.8154379,10.076555 C4.53492695,9.80298339 4.02065689,9.66619758 3.31937952,9.66619758 C2.57135033,9.66619758 1.77656932,9.80298339 0.981788309,10.076555 C0.841532837,10.1221503 0.701277364,10.0309598 0.701277364,9.89417394 L0.701277364,9.57500704 C0.701277364,9.48381649 0.748029188,9.43822122 0.841532837,9.39262595 C1.21554743,9.25584014 1.58956202,9.11905432 2.05708027,9.02786378 C2.57135033,8.93667323 3.03886858,8.89107796 3.50638682,8.89107796 C4.39467148,8.89107796 5.09594884,9.07345905 5.51671526,9.43822122 C5.93748168,9.80298339 6.1712408,10.3501267 6.1712408,11.1252463 L6.1712408,16.459893 C6.1712408,16.5510836 6.07773715,16.6878694 5.93748168,16.6878694 L5.56346709,16.6878694 C5.42321161,16.6422741 5.32970797,16.5966789 5.32970797,16.459893 Z M2.61810216,16.0495356 C2.99211675,16.0495356 3.41288317,15.9583451 3.88040141,15.8215592 C4.34791966,15.6847734 4.76868607,15.4567971 5.23620432,15.1832254 L5.23620432,13.3138193 C4.53492695,13.1314382 3.88040141,13.0402477 3.22587587,13.0402477 C1.77656932,13.0402477 1.07529196,13.5873909 1.07529196,14.6816775 C1.07529196,15.1376302 1.21554743,15.5023923 1.44930655,15.7303687 C1.7298175,15.9127498 2.10383209,16.0495356 2.61810216,16.0495356 Z" id="Shape"></path>
                            <path d="M18.6072261,16.6422741 C18.5137224,16.6422741 18.3734669,16.5510836 18.3734669,16.4142978 L18.3734669,11.5356037 C18.3734669,10.8972699 18.2332115,10.3957219 17.9994523,10.1221503 C17.7656932,9.84857867 17.3916786,9.66619758 16.8774086,9.66619758 C15.8956202,9.66619758 14.9605838,9.98536448 14.0722991,10.6236983 C14.1190509,10.8516746 14.1190509,11.079651 14.1190509,11.3076274 L14.1190509,16.459893 C14.1190509,16.5510836 14.0255473,16.6878694 13.8852918,16.6878694 L13.4177736,16.6878694 C13.3242699,16.6878694 13.1840144,16.5966789 13.1840144,16.459893 L13.1840144,11.5356037 C13.1840144,10.8972699 13.043759,10.3957219 12.8099998,10.1221503 C12.5762407,9.84857867 12.2022261,9.66619758 11.6879561,9.66619758 C10.7529196,9.66619758 9.81788309,9.98536448 8.92959843,10.578103 L8.92959843,16.459893 C8.92959843,16.5510836 8.83609478,16.6878694 8.69583931,16.6878694 L8.22832107,16.6878694 C8.13481742,16.6878694 7.99456195,16.5966789 7.99456195,16.459893 L7.99456195,9.30143541 C7.99456195,9.21024486 8.0880656,9.07345905 8.22832107,9.07345905 L8.60233566,9.07345905 C8.69583931,9.07345905 8.78934296,9.16464959 8.78934296,9.25584014 L8.88284661,9.89417394 C9.35036485,9.57500704 9.81788309,9.30143541 10.3321532,9.11905432 C10.8464232,8.93667323 11.3139415,8.84548269 11.8282115,8.84548269 C12.8099998,8.84548269 13.4177736,9.21024486 13.7450363,9.98536448 C14.2125546,9.62060231 14.7268246,9.34703068 15.2878465,9.11905432 C15.8488684,8.93667323 16.3631385,8.79988742 16.9241604,8.79988742 C17.6254377,8.79988742 18.1864596,8.98226851 18.5604742,9.39262595 C18.9344888,9.80298339 19.1214961,10.3501267 19.1214961,11.079651 L19.1214961,16.3687025 C19.1214961,16.459893 19.0279925,16.5966789 18.887737,16.5966789 L18.6072261,16.5966789 L18.6072261,16.6422741 Z" id="Shape"></path>
                            <path d="M25.9472625,16.459893 L25.9005106,15.775964 C25.012226,16.459893 24.0771895,16.8246552 23.142153,16.8246552 C22.4408756,16.8246552 21.8798538,16.6422741 21.4590873,16.2319167 C21.0383209,15.8215592 20.8513136,15.3200113 20.8513136,14.6360822 C20.8513136,13.9065578 21.0850727,13.3138193 21.5993428,12.9034619 C22.1136129,12.4931044 22.8148902,12.2651281 23.7031749,12.2651281 C24.4044523,12.2651281 25.1057296,12.4019139 25.9005106,12.6298902 L25.9005106,11.3988179 C25.9005106,10.8060794 25.7602552,10.3501267 25.4329924,10.076555 C25.1524814,9.80298339 24.6382114,9.66619758 23.936934,9.66619758 C23.1889048,9.66619758 22.3941238,9.80298339 21.5993428,10.076555 C21.4590873,10.1221503 21.3188319,10.0309598 21.3188319,9.89417394 L21.3188319,9.57500704 C21.3188319,9.48381649 21.3655837,9.43822122 21.4590873,9.39262595 C21.8331019,9.25584014 22.2071165,9.11905432 22.6746348,9.02786378 C23.1889048,8.93667323 23.6564231,8.89107796 24.1239413,8.89107796 C25.012226,8.89107796 25.7135033,9.07345905 26.1342698,9.43822122 C26.5550362,9.80298339 26.7887953,10.3501267 26.7887953,11.1252463 L26.7887953,16.459893 C26.7887953,16.5510836 26.6952916,16.6878694 26.5550362,16.6878694 L26.1810216,16.6878694 C26.0407661,16.6422741 25.9940143,16.5966789 25.9472625,16.459893 Z M23.2356567,16.0495356 C23.6096712,16.0495356 24.0304377,15.9583451 24.4979559,15.8215592 C24.9654742,15.6847734 25.3862406,15.4567971 25.8537588,15.1832254 L25.8537588,13.3138193 C25.1524814,13.1314382 24.4979559,13.0402477 23.8434304,13.0402477 C22.3941238,13.0402477 21.6928465,13.5873909 21.6928465,14.6816775 C21.6928465,15.1376302 21.8331019,15.5023923 22.066861,15.7303687 C22.3941238,15.9127498 22.7681384,16.0495356 23.2356567,16.0495356 Z" id="Shape"></path>
                            <path d="M28.2381018,16.459893 L28.2381018,15.9583451 C28.2381018,15.9127498 28.2381018,15.8671545 28.2848537,15.8215592 L33.1002916,9.84857867 L28.6121164,9.84857867 C28.5186128,9.84857867 28.3783573,9.75738812 28.3783573,9.62060231 L28.3783573,9.30143541 C28.3783573,9.21024486 28.471861,9.07345905 28.6121164,9.07345905 L33.8950726,9.07345905 C33.9885762,9.07345905 34.1288317,9.16464959 34.1288317,9.30143541 L34.1288317,9.80298339 C34.1288317,9.84857867 34.1288317,9.89417394 34.0820799,9.93976921 L29.2198902,15.9127498 L33.9418244,15.9127498 C34.0353281,15.9127498 34.1755835,16.0039403 34.1755835,16.1407261 L34.1755835,16.459893 C34.1755835,16.5510836 34.0820799,16.6878694 33.9418244,16.6878694 L28.471861,16.6878694 C28.3316055,16.6422741 28.2381018,16.5510836 28.2381018,16.459893 Z" id="Shape"></path>
                            <path d="M38.6637587,16.8702505 C37.5417149,16.8702505 36.6534302,16.5054883 36.0456565,15.8215592 C35.4378828,15.1376302 35.11062,14.1345342 35.11062,12.8578666 C35.11062,11.581199 35.4378828,10.6236983 36.0456565,9.89417394 C36.6534302,9.21024486 37.5417149,8.84548269 38.6637587,8.84548269 C39.7858024,8.84548269 40.6740871,9.21024486 41.2818608,9.89417394 C41.8896345,10.578103 42.2168973,11.581199 42.2168973,12.8578666 C42.2168973,14.1345342 41.8896345,15.0920349 41.2818608,15.8215592 C40.6273353,16.5510836 39.7858024,16.8702505 38.6637587,16.8702505 Z M38.6637587,16.0951309 C40.440328,16.0951309 41.3286126,15.0008444 41.3286126,12.8578666 C41.3286126,10.7148888 40.440328,9.66619758 38.6637587,9.66619758 C36.8871893,9.66619758 35.9989047,10.7148888 35.9989047,12.8578666 C35.9989047,15.0464396 36.8871893,16.0951309 38.6637587,16.0951309 Z" id="Shape"></path>
                            <path d="M49.6036855,16.6422741 C49.5101819,16.6422741 49.3699264,16.5510836 49.3699264,16.4142978 L49.3699264,11.5356037 C49.3699264,10.8972699 49.2296709,10.3957219 48.9959118,10.1221503 C48.7621527,9.84857867 48.3413863,9.66619758 47.7803644,9.66619758 C46.7518243,9.66619758 45.7700359,9.98536448 44.7882476,10.6236983 L44.7882476,16.459893 C44.7882476,16.5510836 44.694744,16.6878694 44.5544885,16.6878694 L44.0869703,16.6878694 C43.9934666,16.6878694 43.8532112,16.5966789 43.8532112,16.459893 L43.8532112,9.30143541 C43.8532112,9.21024486 43.9467148,9.07345905 44.0869703,9.07345905 L44.4609849,9.07345905 C44.5544885,9.07345905 44.6479922,9.16464959 44.6479922,9.25584014 L44.7414958,9.93976921 C45.2557659,9.57500704 45.7700359,9.30143541 46.3310578,9.11905432 C46.8920797,8.93667323 47.4063498,8.84548269 47.9673717,8.84548269 C48.7154009,8.84548269 49.2764228,9.02786378 49.6971892,9.43822122 C50.0712038,9.80298339 50.3049629,10.3957219 50.3049629,11.1252463 L50.3049629,16.4142978 C50.3049629,16.5054883 50.2114592,16.6422741 50.0712038,16.6422741 L49.6036855,16.6422741 Z" id="Shape"></path>
                            <path d="M60.7306197,16.459893 L60.6838679,15.775964 C59.7955832,16.459893 58.8605467,16.8246552 57.9255103,16.8246552 C57.2242329,16.8246552 56.663211,16.6422741 56.2424446,16.2319167 C55.8216782,15.8215592 55.6346709,15.3200113 55.6346709,14.6360822 C55.6346709,13.9065578 55.86843,13.3138193 56.3827001,12.9034619 C56.8969701,12.4931044 57.5982475,12.2651281 58.4865321,12.2651281 C59.1878095,12.2651281 59.8890869,12.4019139 60.6838679,12.6298902 L60.6838679,11.3988179 C60.6838679,10.8060794 60.5436124,10.3501267 60.2163496,10.076555 C59.9358387,9.80298339 59.4215686,9.66619758 58.7202913,9.66619758 C57.9722621,9.66619758 57.1774811,9.80298339 56.3359482,10.076555 C56.1956928,10.1221503 56.0554373,10.0309598 56.0554373,9.89417394 L56.0554373,9.57500704 C56.0554373,9.48381649 56.1021891,9.43822122 56.1956928,9.39262595 C56.5697073,9.25584014 56.9437219,9.11905432 57.4112402,9.02786378 C57.9255103,8.93667323 58.3930285,8.89107796 58.8605467,8.89107796 C59.7488314,8.89107796 60.4501088,9.07345905 60.8708752,9.43822122 C61.2916416,9.80298339 61.5254007,10.3501267 61.5254007,11.1252463 L61.5254007,16.459893 C61.5254007,16.5510836 61.4318971,16.6422741 61.3383934,16.6422741 L60.917627,16.6422741 C60.8241234,16.6422741 60.7306197,16.5966789 60.7306197,16.459893 Z M58.0190139,16.0495356 C58.3930285,16.0495356 58.8137949,15.9583451 59.2813132,15.8215592 C59.7488314,15.6847734 60.1695978,15.4567971 60.6371161,15.1832254 L60.6371161,13.3138193 C59.9358387,13.1314382 59.2813132,13.0402477 58.6267876,13.0402477 C57.1774811,13.0402477 56.4762037,13.5873909 56.4762037,14.6816775 C56.4762037,15.1376302 56.6164592,15.5023923 56.8502183,15.7303687 C57.1307292,15.9127498 57.5047438,16.0495356 58.0190139,16.0495356 Z" id="Shape"></path>
                            <path d="M65.6863131,16.459893 C65.6863131,16.5510836 65.6395613,16.6422741 65.5460576,16.6422741 C65.3122985,16.6878694 65.1252912,16.7334647 64.9382839,16.7334647 C64.5175175,16.7334647 64.1902547,16.5966789 63.9564956,16.3687025 C63.7227365,16.1407261 63.6292328,15.8215592 63.6292328,15.3656065 L63.6292328,5.74500422 C63.6292328,5.65381368 63.7227365,5.56262314 63.8162401,5.56262314 L64.2837583,5.56262314 C64.377262,5.56262314 64.4707656,5.65381368 64.4707656,5.74500422 L64.4707656,15.3656065 C64.4707656,15.5935829 64.5175175,15.7303687 64.6110211,15.8215592 C64.7045248,15.9127498 64.8447802,15.9583451 65.0785394,15.9583451 C65.172043,15.9583451 65.3122985,15.9583451 65.452554,15.9583451 C65.5928094,15.9583451 65.6863131,16.0495356 65.6863131,16.1407261 L65.6863131,16.459893 Z" id="Shape"></path>
                            <path d="M79.3845976,16.5966789 L77.0470064,13.3594146 L74.756167,16.5966789 C74.7094152,16.6422741 74.6626633,16.6878694 74.5691597,16.6878694 L74.1016414,16.6878694 C73.9146341,16.6878694 73.8211305,16.5054883 73.9146341,16.3687025 L76.5794881,12.766676 L74.1951451,9.43822122 C74.1016414,9.30143541 74.1951451,9.11905432 74.3821524,9.11905432 L74.8964225,9.11905432 C74.9431743,9.11905432 75.0366779,9.16464959 75.0834298,9.21024486 L77.14051,12.082747 L79.1975903,9.21024486 C79.2443421,9.16464959 79.2910939,9.11905432 79.3845976,9.11905432 L79.8521158,9.11905432 C80.0391231,9.11905432 80.1326268,9.30143541 80.0391231,9.43822122 L77.6547801,12.6754855 L80.3196341,16.3687025 C80.4131377,16.5054883 80.3196341,16.6878694 80.1326268,16.6878694 L79.5716049,16.6878694 C79.4781012,16.6422741 79.4313494,16.6422741 79.3845976,16.5966789 Z" id="Shape"></path>
                            <path d="M86.1636121,16.459893 L86.1168603,15.775964 C85.2285756,16.459893 84.2935391,16.8246552 83.3585026,16.8246552 C82.6572253,16.8246552 82.0962034,16.6422741 81.675437,16.2319167 C81.2546706,15.8215592 81.0676633,15.3200113 81.0676633,14.6360822 C81.0676633,13.9065578 81.3014224,13.3138193 81.8156924,12.9034619 C82.3299625,12.4931044 83.0312399,12.2651281 83.9195245,12.2651281 C84.6208019,12.2651281 85.3220793,12.4019139 86.1168603,12.6298902 L86.1168603,11.3988179 C86.1168603,10.8060794 85.9766048,10.3501267 85.649342,10.076555 C85.3688311,9.80298339 84.854561,9.66619758 84.1532837,9.66619758 C83.4052545,9.66619758 82.6104735,9.80298339 81.7689406,10.076555 C81.6286851,10.1221503 81.4884297,10.0309598 81.4884297,9.89417394 L81.4884297,9.57500704 C81.4884297,9.48381649 81.5351815,9.43822122 81.6286851,9.39262595 C82.0026997,9.25584014 82.3767143,9.11905432 82.8442326,9.02786378 C83.3585026,8.93667323 83.8260209,8.89107796 84.2935391,8.89107796 C85.1818238,8.89107796 85.8831012,9.07345905 86.3038676,9.43822122 C86.724634,9.80298339 86.9583931,10.3501267 86.9583931,11.1252463 L86.9583931,16.459893 C86.9583931,16.5510836 86.8648895,16.6422741 86.7713858,16.6422741 L86.3506194,16.6422741 C86.2571157,16.6422741 86.1636121,16.5966789 86.1636121,16.459893 Z M83.4520063,16.0495356 C83.8260209,16.0495356 84.2467873,15.9583451 84.7143055,15.8215592 C85.1818238,15.6847734 85.6025902,15.4567971 86.0701085,15.1832254 L86.0701085,13.3138193 C85.3688311,13.1314382 84.7143055,13.0402477 84.05978,13.0402477 C82.6104735,13.0402477 81.9091961,13.5873909 81.9091961,14.6816775 C81.9091961,15.1376302 82.0494516,15.5023923 82.2832107,15.7303687 C82.6104735,15.9127498 82.9844881,16.0495356 83.4520063,16.0495356 Z" id="Shape"></path>
                            <path d="M67.8836488,15.3656065 C67.5096342,14.9552491 67.2758751,14.4537011 67.2291233,13.5417957 C67.7433933,13.6785815 68.8186853,13.9065578 69.5667145,13.9065578 C71.0627729,13.9065578 72.7458385,13.4506051 72.7458385,11.4444132 C72.7458385,9.75738812 71.5770429,8.98226851 69.8472254,8.98226851 C68.7251817,8.98226851 67.836897,9.34703068 67.2291233,10.0309598 C66.6213496,10.7148888 66.2940868,11.7179848 66.2940868,12.9490571 C66.2940868,14.27132 66.6213496,15.274416 67.2291233,15.9583451 C67.836897,16.6422741 68.7719335,16.961441 69.9874809,16.961441 C70.9225174,16.961441 71.7172984,16.7790599 72.4185758,16.459893 C72.5120794,16.4142978 72.5588312,16.3231072 72.5588312,16.1863214 L72.5588312,15.9583451 C72.5588312,15.8215592 72.4185758,15.7303687 72.2783203,15.775964 C71.5302911,16.0495356 70.7822619,16.1863214 70.0342327,16.1863214 C69.0524444,16.0951309 68.3511671,15.8671545 67.8836488,15.3656065 Z M69.7537218,9.66619758 C70.9225174,9.66619758 71.8575539,10.076555 71.8575539,11.3988179 C71.8575539,12.766676 70.6420064,13.1314382 69.4732108,13.1314382 C68.7251817,13.1314382 67.6966415,12.9946524 67.1823715,12.9034619 C67.1823715,12.8578666 67.1823715,12.766676 67.1823715,12.7210808 C67.2758751,10.7148888 68.1641598,9.66619758 69.7537218,9.66619758 Z" id="Shape"></path>
                            <path d="M0.420766418,3.64762173 C0.65452554,3.693217 0.888284661,3.73881227 1.07529196,3.73881227 C1.30905108,3.73881227 1.44930655,3.693217 1.5428102,3.55643118 C1.63631385,3.46524064 1.68306567,3.28285956 1.68306567,3.00928793 L1.68306567,0.319166901 L2.38434304,0.319166901 L2.38434304,3.00928793 C2.38434304,3.41964537 2.29083939,3.73881227 2.05708027,3.96678863 C1.87007297,4.19476499 1.5428102,4.28595553 1.12204378,4.28595553 C0.888284661,4.28595553 0.65452554,4.24036026 0.374014594,4.14916972 L0.374014594,3.64762173 L0.420766418,3.64762173 Z" id="Shape"></path>
                            <path d="M6.26474445,0.319166901 L6.96602181,0.319166901 L6.96602181,2.78131157 C6.96602181,3.28285956 6.82576634,3.64762173 6.5452554,3.92119336 C6.26474445,4.19476499 5.89072986,4.3315508 5.37645979,4.3315508 C4.86218972,4.3315508 4.4414233,4.19476499 4.20766418,3.92119336 C3.92715324,3.64762173 3.78689776,3.28285956 3.78689776,2.78131157 L3.78689776,0.319166901 L4.48817513,0.319166901 L4.48817513,2.82690684 C4.48817513,3.10047847 4.58167878,3.32845483 4.72193425,3.51083591 C4.86218972,3.693217 5.09594884,3.73881227 5.37645979,3.73881227 C5.65697073,3.73881227 5.89072986,3.64762173 6.03098533,3.51083591 C6.1712408,3.3740501 6.26474445,3.14607374 6.26474445,2.82690684 L6.26474445,0.319166901 Z" id="Shape"></path>
                            <path d="M9.11660573,2.41654939 C8.78934296,2.27976358 8.55558384,2.14297777 8.41532837,2.00619195 C8.27507289,1.82381086 8.18156924,1.64142978 8.18156924,1.36785815 C8.18156924,1.00309598 8.32182472,0.729524346 8.55558384,0.547143259 C8.78934296,0.364762173 9.16335755,0.227976358 9.58412397,0.227976358 C9.95813857,0.227976358 10.2854013,0.27357163 10.6594159,0.410357444 L10.6594159,0.957500704 C10.2854013,0.86631016 9.95813857,0.775119617 9.67762762,0.775119617 C9.16335755,0.775119617 8.92959843,0.957500704 8.92959843,1.2766676 C8.92959843,1.41345342 8.97635026,1.50464396 9.06985391,1.59583451 C9.16335755,1.68702505 9.30361303,1.77821559 9.53737215,1.82381086 L10.0048904,2.00619195 C10.3321532,2.14297777 10.5659123,2.27976358 10.7061678,2.41654939 C10.8464232,2.55333521 10.9399269,2.78131157 10.9399269,3.0548832 C10.9399269,3.41964537 10.7996714,3.73881227 10.5191605,3.96678863 C10.2386495,4.19476499 9.86463492,4.28595553 9.39711668,4.28595553 C9.21010938,4.28595553 8.97635026,4.28595553 8.78934296,4.24036026 C8.60233566,4.19476499 8.41532837,4.14916972 8.27507289,4.05797917 L8.27507289,3.51083591 C8.46208019,3.55643118 8.64908749,3.60202646 8.83609478,3.64762173 C9.02310208,3.693217 9.21010938,3.693217 9.39711668,3.693217 C9.67762762,3.693217 9.86463492,3.64762173 10.0048904,3.55643118 C10.1451459,3.46524064 10.2386495,3.32845483 10.2386495,3.14607374 C10.2386495,3.00928793 10.1918977,2.91809738 10.098394,2.82690684 C10.0048904,2.7357163 9.86463492,2.64452575 9.6308758,2.59893048 L9.11660573,2.41654939 Z" id="Shape"></path>
                            <polygon id="Shape" points="12.9970071 4.24036026 12.9970071 0.911905432 11.7347079 0.911905432 11.7347079 0.364762173 14.9138319 0.364762173 14.9138319 0.911905432 13.6515327 0.911905432 13.6515327 4.24036026"></polygon>
                            <path d="M20.4305472,4.24036026 L20.1032844,3.28285956 L18.5137224,3.28285956 L18.1864596,4.24036026 L17.4851823,4.24036026 L18.9344888,0.364762173 L19.682518,0.364762173 L21.1318246,4.24036026 L20.4305472,4.24036026 Z M18.7007297,2.7357163 L19.963029,2.7357163 L19.3085034,0.957500704 L18.7007297,2.7357163 Z" id="Shape"></path>
                            <path d="M22.8616421,2.41654939 C22.5343793,2.27976358 22.3006202,2.14297777 22.1603647,2.00619195 C22.0201092,1.82381086 21.9266056,1.64142978 21.9266056,1.36785815 C21.9266056,1.00309598 22.066861,0.729524346 22.3006202,0.547143259 C22.5343793,0.364762173 22.9083939,0.227976358 23.3291603,0.227976358 C23.7031749,0.227976358 24.0304377,0.27357163 24.4044523,0.410357444 L24.4044523,0.957500704 C24.0304377,0.86631016 23.7031749,0.775119617 23.422664,0.775119617 C22.9083939,0.775119617 22.6746348,0.957500704 22.6746348,1.2766676 C22.6746348,1.41345342 22.7213866,1.50464396 22.8148902,1.59583451 C22.9083939,1.68702505 23.0486494,1.77821559 23.2824085,1.82381086 L23.7499267,2.00619195 C24.0771895,2.14297777 24.3109486,2.27976358 24.4512041,2.41654939 C24.5914596,2.55333521 24.6849632,2.78131157 24.6849632,3.0548832 C24.6849632,3.41964537 24.5447077,3.73881227 24.2641968,3.96678863 C23.9836858,4.19476499 23.6096712,4.28595553 23.142153,4.28595553 C22.9551457,4.28595553 22.7213866,4.28595553 22.5343793,4.24036026 C22.347372,4.19476499 22.1603647,4.14916972 22.0201092,4.05797917 L22.0201092,3.51083591 C22.2071165,3.55643118 22.3941238,3.60202646 22.5811311,3.64762173 C22.7681384,3.693217 22.9551457,3.693217 23.142153,3.693217 C23.422664,3.693217 23.6096712,3.64762173 23.7499267,3.55643118 C23.8901822,3.46524064 23.9836858,3.32845483 23.9836858,3.14607374 C23.9836858,3.00928793 23.936934,2.91809738 23.8434304,2.82690684 C23.7499267,2.7357163 23.6096712,2.64452575 23.3759121,2.59893048 L22.8616421,2.41654939 Z" id="Shape"></path>
                            <polygon id="Shape" points="25.9005106 4.24036026 25.9005106 0.364762173 26.601788 0.364762173 26.601788 2.09738249 28.1445982 0.364762173 28.9393792 0.364762173 27.2563135 2.18857304 29.1263865 4.24036026 28.2381018 4.24036026 26.5550362 2.37095412 26.5550362 4.24036026"></polygon>
                        </g>
                        <path d="M7.5,1 C3.34870849,1 0,4.37912088 0,8.5 C0,12.6208791 3.34870849,16 7.5,16 C11.6512915,16 15,12.6208791 15,8.5 C15,4.37912088 11.6512915,1 7.5,1 Z M6.33763838,15.9175824 L6.33763838,14.4340659 C6.33763838,13.9120879 6.00553506,13.4450549 5.53505535,13.2252747 C3.70848708,12.456044 2.40774908,10.6153846 2.40774908,8.5 C2.40774908,5.6978022 4.67712177,3.39010989 7.5,3.39010989 C10.3228782,3.39010989 12.6199262,5.6978022 12.6199262,8.5 C12.6199262,11.8241758 10.0461255,14.956044 6.33763838,15.9175824 Z" id="Shape"></path>
                    </g>
                </g>
            </g>
        </g>
    </g>
</svg>