<?xml version="1.0" encoding="UTF-8"?>
<svg width="30px" height="25px" viewBox="0 0 30 25" version="1.1" xmlns="http://www.w3.org/2000/svg" xmlns:xlink="http://www.w3.org/1999/xlink">
    <!-- Generator: Sketch 48.2 (47327) - http://www.bohemiancoding.com/sketch -->
    <title>8800</title>
    <desc>Created with Sketch.</desc>
    <defs></defs>
    <g id="V5---Mobile" stroke="none" stroke-width="1" fill="none" fill-rule="evenodd">
        <g id="8800" fill="#00D1FF" fill-rule="nonzero">
            <path d="M30,2.95789338 C28.8958315,3.45983557 27.7110747,3.80024702 26.4662687,3.95222271 C27.7373002,3.17137345 28.710243,1.93283701 29.1713712,0.461559506 C27.9791143,1.1846761 26.6630828,1.70975159 25.2608256,1.99439168 C24.1379316,0.765460584 22.5407231,0 20.7691516,0 C17.3704205,0 14.6146807,2.82713998 14.6146807,6.31201986 C14.6146807,6.80626771 14.6690436,7.28899921 14.7740437,7.75060901 C9.66001578,7.48709062 5.12525347,4.97345706 2.09019949,1.15389876 C1.55965941,2.0847624 1.25784519,3.16941215 1.25784519,4.32723352 C1.25784519,6.5178056 2.34515089,8.4506426 3.99485947,9.58145836 C2.98627939,9.546859 2.03769941,9.26221891 1.20725687,8.78909275 L1.20725687,8.86794711 C1.20725687,11.9258668 3.32936819,14.4779721 6.14319631,15.0588189 C5.62765625,15.201139 5.08402792,15.2799933 4.52162504,15.2799933 C4.12422243,15.2799933 3.73990807,15.2396106 3.36309373,15.1626673 C4.14667344,17.6724788 6.418785,19.4975951 9.1107992,19.5476335 C7.00555066,21.2400854 4.35103652,22.2459311 1.46784554,22.2459311 C0.971080018,22.2459311 0.481765493,22.2151537 0,22.1593824 C2.723877,23.9537716 5.95765679,25 9.43325071,25 C20.7542496,25 26.942495,15.3800197 26.942495,7.03709776 L26.9218577,6.21973813 C28.1309773,5.33499021 29.1770085,4.22338515 30,2.95789338 Z" id="Shape"></path>
        </g>
    </g>
</svg>