<?xml version="1.0" encoding="UTF-8"?>
<svg width="100px" height="100px" viewBox="0 0 100 100" version="1.1" xmlns="http://www.w3.org/2000/svg" xmlns:xlink="http://www.w3.org/1999/xlink">
    <!-- Generator: Sketch 42 (36781) - http://www.bohemiancoding.com/sketch -->
    <title>Donner</title>
    <desc>Created with Sketch.</desc>
    <defs></defs>
    <g id="Logo" stroke="none" stroke-width="1" fill="none" fill-rule="evenodd">
        <g id="Donner" fill="#4A4A4A">
            <g id="DONNER" transform="translate(10.000000, 6.000000)">
                <path d="M61.956274,24.43397 C61.956274,20.86557 61.9321644,17.29827 61.9738082,13.72987 C61.9836712,12.83117 61.6899726,12.52317 60.8012055,12.55067 C59.0981918,12.60127 57.3929863,12.55617 55.6888767,12.56717 C52.8910685,12.58477 51.3414795,13.95977 51.3173699,16.72517 C51.256,23.81137 51.3042192,30.89867 51.2823014,37.98597 C51.2790137,38.88247 51.6242192,39.19157 52.4932603,39.16957 C54.1480548,39.12777 55.8050411,39.17947 57.4598356,39.15417 C60.3223014,39.11127 61.9453151,37.44587 61.9540822,34.55177 C61.9650411,31.17917 61.956274,27.80657 61.956274,24.43397 L61.956274,24.43397 Z M72.4779178,-0.00033 C72.6883288,7.51707 72.8998356,15.03337 73.1113425,22.55077 C73.2395616,27.13887 73.345863,31.72697 73.5036712,36.31397 C73.6954521,41.87337 71.6801096,46.31297 67.0138082,49.43477 C66.4066849,49.84067 65.9792877,50.15087 66.3223014,51.05837 C68.456,56.70907 70.5875068,62.36197 72.5907945,68.05997 C74.7913425,74.31567 76.8538082,80.62087 78.9743562,86.90517 C79.0642192,87.17247 79.1299726,87.44857 79.2735342,87.95457 L74.5414795,87.95457 C72.8373699,87.95457 71.1332603,87.96447 69.4280548,87.95127 C66.0472329,87.92707 63.825863,86.26827 62.8439452,83.02987 C60.1118904,74.02307 57.3875068,65.01517 54.6620274,56.00837 C54.3365479,54.93477 53.9694247,53.86997 53.7151781,52.77987 C53.4949041,51.83167 52.9140822,51.33337 52.0768219,51.69637 C51.6713425,51.87237 51.3272329,52.69517 51.3239452,53.22757 C51.2790137,62.17167 51.2910685,71.11577 51.2910685,80.05987 C51.2910685,82.11247 51.3294247,84.16617 51.2549041,86.21657 C51.2406575,86.60597 50.7825753,87.30667 50.5206575,87.30997 C46.1590137,87.37927 41.796274,87.35947 37.1836712,87.35947 C37.786411,86.20887 38.2642192,85.26837 38.766137,84.34107 C40.5305205,81.08177 42.2806575,77.81477 44.0735342,74.57197 C49.2812055,65.15707 48.7650411,55.57497 44.8680548,45.92357 C43.5540822,42.67197 41.8138082,39.57657 40.7036712,36.26227 C38.456,29.55117 39.3732603,22.98967 42.2390137,16.60527 C44.6894247,11.14817 47.796274,6.09147 51.226411,1.21847 C51.5047671,0.82247 51.755726,0.40667 52.0198356,-0.00033 L72.4779178,-0.00033 Z" id="Fill-1"></path>
                <path d="M12.2521644,12.62074 L12.2521644,75.69914 C14.5053151,75.69914 16.645589,75.81024 18.7650411,75.64084 C19.5343562,75.57924 20.5623014,75.02374 20.9217534,74.38354 C21.4839452,73.38034 21.8280548,72.11314 21.8324384,70.95704 C21.886137,53.06774 21.8718904,35.17734 21.8609315,17.28804 C21.8609315,16.60934 21.8138082,15.91414 21.6614795,15.25634 C21.3107945,13.73834 20.0954521,12.68564 18.5414795,12.63614 C16.5053151,12.57234 14.4647671,12.62074 12.2521644,12.62074 L12.2521644,12.62074 Z M22.795726,0.00044 C23.0543562,0.10054 23.3053151,0.24134 23.5738082,0.29634 C26.1118904,0.81774 28.3299726,1.96064 30.2686027,3.68214 C32.8023014,5.93054 32.8494247,6.14614 31.3020274,9.10074 C28.9677808,13.55684 26.6729863,18.05364 25.755726,23.04874 C24.4329863,30.26144 25.5595616,37.24094 28.2970959,43.97294 C29.5266849,46.99464 31.096,49.88434 32.2127123,52.94454 C34.2565479,58.54574 34.3365479,64.15464 31.3020274,69.49184 C28.0242192,75.25474 24.6554521,80.96484 21.2877808,86.67494 C21.0894247,87.01154 20.5447671,87.33494 20.1590137,87.33714 C13.5420274,87.37784 6.92394521,87.36574 0.0494246575,87.36574 L0.0494246575,85.45834 C0.0494246575,57.45894 0.0494246575,29.45954 0.0472328767,1.46014 C0.0472328767,0.97284 0.0165479452,0.48664 0.000109589041,0.00044 L22.795726,0.00044 Z" id="Fill-4"></path>
            </g>
        </g>
    </g>
</svg>