<?xml version="1.0" encoding="UTF-8"?>
<svg width="100px" height="100px" viewBox="0 0 100 100" version="1.1" xmlns="http://www.w3.org/2000/svg" xmlns:xlink="http://www.w3.org/1999/xlink">
    <!-- Generator: Sketch 42 (36781) - http://www.bohemiancoding.com/sketch -->
    <title>Hevenly</title>
    <desc>Created with Sketch.</desc>
    <defs>
        <path d="M38.1814763,1.9602127 C36.5643008,2.28827607 34.9729893,2.74293652 33.3707876,3.14042409 C33.383039,3.19895822 33.393929,3.25749235 33.4061804,3.31602648 L33.9506839,3.31602648 C39.0472369,3.31602648 44.1451512,3.32691655 49.2430654,3.30241389 C49.8624382,3.29969137 50.2218105,3.51613152 50.5594027,4.00890722 C51.7858969,5.80032382 52.1561593,7.77006533 51.7464204,9.86095887 C51.4047444,11.6006476 50.9378327,13.3158337 50.5022298,15.0364649 C48.5025406,22.963075 46.4919614,30.8856013 44.4868271,38.8108501 C44.1505962,40.1408 44.3466175,40.3844653 45.6997087,40.4116905 C47.8001311,40.4552508 49.9019147,40.5205912 52.0009758,40.5627902 C53.2288313,40.5886542 53.4439101,40.4130518 53.732497,39.2423692 C55.6110342,31.5907334 57.4922939,23.9377363 59.3721923,16.2861005 C59.6498891,15.1589782 59.9997326,14.8771976 61.1785827,14.8744751 C66.6004766,14.8608625 72.0210092,14.8499724 77.4429031,14.8431661 C78.7592404,14.8418049 79.1213352,15.2760464 78.8273033,16.5324883 C76.5022733,26.481929 74.1745207,36.432731 71.8426843,46.3835329 C68.706344,59.7619846 65.5631974,73.139075 62.4282183,86.5175266 C61.874186,88.8806719 62.2648673,91.0450735 63.8316762,92.9535583 C63.9419381,92.9236106 64.0195299,92.9086368 64.0930379,92.8827729 C72.7029999,89.817218 79.9666769,84.7900892 85.6363199,77.6339516 C92.4630329,69.0171833 95.9151852,59.3563295 95.961468,48.7167305 L95.961468,48.277044 C95.9546617,46.6408109 95.8675412,44.9800751 95.6987451,43.2975592 C95.140629,37.6932566 93.5438724,32.3843473 91.0064859,27.3694698 C86.9962175,19.4455822 81.208145,13.1130062 73.6912738,8.38399305 C66.276497,3.71759783 58.1443368,1.35309126 49.4173066,0.993718937 C48.8442166,0.970577537 48.2711266,0.958326207 47.6980367,0.958326207 C44.4990785,0.958326207 41.3246229,1.32178231 38.1814763,1.9602127 Z" id="path-1"></path>
        <path d="M4.18587086,65.7066018 C14.8050509,91.8060171 42.4358824,99.6604805 61.7507837,93.8465441 C61.4254429,93.8465441 61.2743431,93.8479054 61.1218821,93.8465441 C56.1628163,93.8016226 51.2023891,93.7607848 46.2433233,93.6981669 C45.9207049,93.6927219 45.5096048,93.6110463 45.2918034,93.404135 C43.648764,91.8454937 42.7952547,89.9506214 43.2839466,87.6705129 C44.1238433,83.7514487 45.0358867,79.8487197 45.9343175,75.9432681 C47.9843733,67.0338292 50.0453192,58.1243902 52.10082,49.2163125 C52.3499303,48.1422793 52.0504534,47.7298179 50.9736977,47.7298179 C50.1324397,47.7298179 49.292543,47.7352629 48.4526463,47.7393467 C47.0804974,47.7475143 45.7083486,47.7556818 44.3375609,47.7393467 C43.6215388,47.7325404 43.3261456,48.0823839 43.1777684,48.7058405 C42.4222698,51.8707672 41.6599648,55.0329715 40.9031049,58.196537 C39.7011134,63.2182207 38.5045669,68.242627 37.2984916,73.2629495 C37.0180723,74.4309096 36.8479149,74.5561454 35.6309495,74.5425328 C35.1477027,74.5384491 34.665817,74.459496 34.1825702,74.4567735 C31.1878008,74.4404384 28.1957539,74.4390772 25.2009845,74.4268258 C22.8010852,74.417297 20.3998246,74.4091295 17.9999253,74.380543 C16.9136408,74.3682917 16.6073576,73.9599141 16.8469391,72.9008547 C17.1246359,71.6689155 17.4118615,70.4383375 17.708616,69.210482 C22.2701942,50.3379898 26.8317725,31.4668588 31.4069634,12.5984504 C31.8480113,10.7811698 32.272724,8.9706956 31.7608907,7.1098548 C31.5185867,6.22231405 31.1660206,5.36608226 30.8638212,4.4921541 C7.29906978,13.7568816 -5.9827325,40.7166125 4.18587086,65.7066018 Z" id="path-3"></path>
    </defs>
    <g id="Logo" stroke="none" stroke-width="1" fill="none" fill-rule="evenodd">
        <g id="Hevenly">
            <g id="HEVENLY" transform="translate(2.000000, 2.000000)">
                <g id="Group">
                    <mask id="mask-2" fill="white">
                        <use xlink:href="#path-1"></use>
                    </mask>
                    <use id="Clip-2" fill="#4A4A4A" xlink:href="#path-1"></use>
                    <mask id="mask-4" fill="white">
                        <use xlink:href="#path-3"></use>
                    </mask>
                    <use id="Clip-5" fill="#4A4A4A" xlink:href="#path-3"></use>
                </g>
            </g>
        </g>
    </g>
</svg>