<?xml version="1.0" encoding="UTF-8"?>
<svg width="54px" height="52px" viewBox="0 0 54 52" version="1.1" xmlns="http://www.w3.org/2000/svg" xmlns:xlink="http://www.w3.org/1999/xlink">
    <!-- Generator: Sketch 42 (36781) - http://www.bohemiancoding.com/sketch -->
    <title>Artboard 2 Copy 11</title>
    <desc>Created with Sketch.</desc>
    <defs></defs>
    <g id="V5---Mobile" stroke="none" stroke-width="1" fill="none" fill-rule="evenodd">
        <g id="Artboard-2-Copy-11">
            <g id="Group-3" transform="translate(2.000000, 2.000000)">
                <path d="M1.4576428,8.38194471 C3.47006521,11.7129736 4.27965593,15.2755438 3.6255599,19.1697921 C3.23192725,21.5152861 1.96407763,23.4752736 1.06596853,25.5991211 C-2.05097533,32.9680727 1.88065101,41.4112177 10.0803519,43.3842665 C14.8944204,44.5427648 19.8612418,45.1158791 24.3615792,47.3861716 C24.8844644,47.6497725 25.312956,47.5907987 25.7371393,47.3596532 C29.5344213,45.2900298 33.7421781,44.6381519 37.8876586,43.8291425 C42.1099072,43.0050928 45.7399444,41.3352246 48.0664895,37.4726401 C50.6029721,33.2609626 50.5547962,28.942024 48.4413218,24.6183358 C47.1789556,22.0361551 46.0007994,19.4852424 46.0901012,16.4953907 C46.1809696,13.464376 47.0947457,10.7321882 48.4374051,8.57746851 C45.911106,5.74870621 43.4768504,2.99633276 41.0046024,0.279581058 C40.5678856,-0.200520897 39.9525653,0.0329994276 39.4531806,0.274831492 C34.943443,2.45646544 30.4474141,2.40817818 25.9290597,0.285518015 C25.4010827,0.0377489935 24.8002544,-0.0327029009 24.1684838,0.25425004 C19.6759799,2.29695918 15.1768175,2.55224835 10.6467129,0.299370916 C10.1645619,0.0599136344 9.52534946,-0.203291477 8.87869524,0.444628473 C6.35357121,2.97535551 3.5554502,5.2345657 1.4576428,8.18404613" id="Stroke-1" stroke="#4A4A4A" stroke-width="3" stroke-linecap="round" stroke-linejoin="round"></path>
                <text id="80" font-family="Lato-Semibold, Lato" font-size="28.56" font-weight="500" fill="#4A4A4A">
                    <tspan x="8" y="34.5684211">80</tspan>
                </text>
            </g>
        </g>
    </g>
</svg>