<?xml version="1.0" encoding="UTF-8"?>
<svg width="100px" height="100px" viewBox="0 0 100 100" version="1.1" xmlns="http://www.w3.org/2000/svg" xmlns:xlink="http://www.w3.org/1999/xlink">
    <!-- Generator: Sketch 42 (36781) - http://www.bohemiancoding.com/sketch -->
    <title>Northstar</title>
    <desc>Created with Sketch.</desc>
    <defs></defs>
    <g id="Logo" stroke="none" stroke-width="1" fill="none" fill-rule="evenodd">
        <g id="Northstar" fill="#4A4A4A">
            <g id="NORTHSTAR" transform="translate(5.000000, 3.000000)">
                <path d="M41.1340909,-0.000204347826 C41.7804545,3.10792609 42.4718182,6.20788261 43.065,9.32623043 C44.5888636,17.3244043 41.3181818,22.3697522 33.7336364,25.210187 C30.4772727,26.4281 27.5809091,28.6166652 24.2018182,30.5457087 C24.2018182,23.0502304 24.1609091,15.9123609 24.2734091,8.77653478 C24.2836364,8.13079565 25.1734091,7.31340435 25.8525,6.89653478 C28.6465909,5.18205652 31.5163636,3.59223043 34.9322727,1.62436087 L34.9322727,19.515013 C35.4211364,19.6989261 35.9120455,19.8807957 36.4009091,20.0647087 C37.1843182,18.5709261 38.5527273,17.1118826 38.6468182,15.575187 C38.9577273,10.3990565 38.8165909,5.19431739 38.8472727,-0.000204347826 L41.1340909,-0.000204347826 Z" id="Fill-1"></path>
                <path d="M54.3544773,92.0470478 L54.3544773,48.3452217 C51.3701591,48.6578739 50.7994773,50.2824391 50.8158409,52.7366565 C50.8997045,64.915787 50.8547045,77.0949174 50.8547045,89.2740478 L50.8547045,93.295613 C47.6372045,93.0973957 46.7412955,91.1765261 46.7331136,88.7550043 C46.6778864,75.435613 46.6737955,62.1141783 46.7658409,48.7927435 C46.7740227,47.8527435 47.45925,46.5244826 48.2406136,46.0483522 C53.7387955,42.6909174 59.3453864,39.5092217 65.3487955,36.0210043 C65.4469773,37.506613 65.5758409,38.5630913 65.5778864,39.6195696 C65.5901591,53.7011783 65.5124318,67.7848304 65.6515227,81.8643957 C65.6781136,84.514787 64.8824318,86.0698739 62.5322045,87.2346565 C59.9631136,88.5057 57.5678864,90.1323087 54.3544773,92.0470478" id="Fill-4"></path>
                <path d="M26.7545455,32.4065 C40.9438636,24.2203261 54.5338636,16.3508913 68.1811364,8.58158696 C68.9645455,8.13815217 70.3902273,8.15858696 71.2145455,8.56932609 C74.3768182,10.1387174 77.4143182,11.9553696 81.0961364,14.0151957 C68.2220455,21.4473261 55.8020455,28.6199348 43.3431818,35.8150217 C45.9163636,38.379587 45.9245455,38.3959348 48.555,36.8858043 C60.2938636,30.146413 72.0286364,23.3947609 83.7634091,16.6471957 C84.1581818,16.8515435 84.5529545,17.0538478 84.9477273,17.2581957 C84.2072727,18.8030652 83.8861364,21.0447609 82.6609091,21.7824565 C70.7215909,28.9755 58.6452273,35.9396739 46.5525,42.8731957 C45.8938636,43.2491957 44.5765909,43.0775435 43.8586364,42.6606739 C38.2868182,39.413587 32.7865909,36.0459348 26.7545455,32.4065" id="Fill-7"></path>
                <path d="M38.0491364,51.7966565 C39.0923182,48.8663087 37.9427727,47.5625696 35.7377727,46.3221783 C25.2466364,40.4185696 14.8475455,34.3453522 4.41981818,28.3232217 C3.23345455,27.636613 2.07572727,26.8989174 0.680727273,26.046787 C2.43981818,23.7642217 4.44231818,23.6947435 6.47140909,24.8615696 C18.2307273,31.6173087 29.9614091,38.4241348 41.6552727,45.2902217 C42.3936818,45.7234391 43.2057273,46.7880913 43.2220909,47.572787 C43.3489091,53.9954391 43.2936818,60.4201348 43.2936818,67.6029609 C41.4998182,66.6527435 40.3155,66.0683087 39.1720909,65.4123522 C27.3043636,58.5912217 15.4816364,51.6924391 3.5505,44.9857435 C1.05095455,43.5818739 -0.258136364,42.073787 0.0425454545,39.0760043 C0.318681818,36.3275261 0.101863636,33.5279609 0.101863636,29.9886565 C12.9207273,37.3553957 25.3550455,44.5014391 38.0491364,51.7966565" id="Fill-9"></path>
                <path d="M27.9171818,66.726513 C26.1171818,64.5195565 24.4501364,64.4725565 22.2124091,65.8927739 C18.054,68.5309043 13.6951364,70.8502522 9.23195455,73.408687 C7.39513636,70.4987739 8.82695455,68.7372957 11.0115,67.4233391 C14.8099091,65.1387304 18.684,62.9685565 22.599,60.8882957 C23.3333182,60.4979913 24.6117273,60.3835565 25.2928636,60.7616 C31.1305909,64.0107304 36.8885455,67.4008609 43.1169545,71.0076 C36.6062727,74.6736 30.5987727,78.1066435 24.5217273,81.4109478 C23.8078636,81.7992087 22.5335455,81.8155565 21.8196818,81.437513 C18.7105909,79.7966 15.7119545,77.9452087 12.2101364,75.8976435 C17.7205909,72.6812087 22.7974091,69.7161217 27.9171818,66.726513" id="Fill-11"></path>
                <path d="M88.236,58.537887 C82.656,55.3623217 77.6385,52.5075826 72.6169091,49.6487565 C71.5164545,52.944887 71.5123636,53.0450174 74.2532727,54.6573217 C78.6121364,57.2198435 83.0057727,59.7231043 87.7164545,62.4409304 C86.0821364,64.7153217 84.2719091,65.3038435 82.1016818,64.1063652 C77.9944091,61.8360609 73.9280455,59.4819739 69.9353182,57.0175391 C69.2296364,56.5822783 68.5648636,55.4501913 68.5505455,54.628713 C68.4400909,48.0773217 68.4891818,41.523887 68.4891818,34.2634087 C75.0428182,38.1296696 81.0298636,41.617887 86.9514545,45.2144087 C87.5753182,45.5944957 88.1521364,46.591713 88.1787273,47.3232783 C88.3055455,50.8278435 88.236,54.3405826 88.236,58.537887" id="Fill-13"></path>
            </g>
        </g>
    </g>
</svg>