<?xml version="1.0" encoding="UTF-8"?>
<svg width="100px" height="100px" viewBox="0 0 100 100" version="1.1" xmlns="http://www.w3.org/2000/svg" xmlns:xlink="http://www.w3.org/1999/xlink">
    <!-- Generator: Sketch 42 (36781) - http://www.bohemiancoding.com/sketch -->
    <title>Diamond</title>
    <desc>Created with Sketch.</desc>
    <defs>
        <polygon id="path-1" points="13.4883603 13.9461201 76.4883603 13.9461201 76.4883603 60.1971861 59.6819016 76.9461201 13.4883603 76.9461201"></polygon>
        <mask id="mask-2" maskContentUnits="userSpaceOnUse" maskUnits="objectBoundingBox" x="0" y="0" width="63" height="63" fill="white">
            <use xlink:href="#path-1"></use>
        </mask>
    </defs>
    <g id="Logo" stroke="none" stroke-width="1" fill="none" fill-rule="evenodd">
        <g id="Diamond">
            <g id="DIAMOND" transform="translate(5.000000, 10.000000)">
                <path d="M57.7545523,69.8716077 C57.612201,70.0139591 57.26022,70.3722183 57.0040996,70.0830321 C55.813168,68.7357382 54.6337388,68.7809946 52.9255225,68.6571377 C50.977999,68.5159072 49.1207061,68.8135 47.4416326,69.8816956 C47.2785451,69.9859371 47.174864,69.9977064 47.0162599,69.8716077 C45.8981853,68.9838733 44.5789132,68.7070167 43.1935095,68.6515333 C42.2301158,68.6123026 41.2656013,68.6010938 40.3179,68.8196648 C40.1649003,68.8549724 40.0326368,68.8067747 39.8908459,68.8067747 C36.9631156,68.8028517 34.0353853,68.8067747 31.107655,68.7944451 C30.8330402,68.7927638 30.7674689,68.9250272 30.7243152,69.1385543 C30.6279198,69.6154874 30.52592,70.09186 30.4429751,70.4864087 C23.0670451,63.1076765 15.4699341,55.6572082 8.06261958,48.2470915 C8.10465246,48.2084212 13.1349555,48.3793549 15.3699839,48.315465 C18.659197,48.2218717 21.7713115,47.4451041 24.7158549,45.9055798 C28.332364,44.0157814 30.9434466,41.0695567 33.4396393,37.9748158 C34.0443523,37.2255096 34.5991864,36.4330497 35.3002948,35.7666884 C35.9834693,35.1182612 36.4615232,35.092481 37.2326865,35.6417106 C37.7578173,36.0155231 38.1557286,36.5126319 38.5441124,37.0181474 C40.149208,39.1080222 41.7150729,41.2264794 43.1895864,43.4110684 C43.4445859,43.7888039 43.7186403,44.1508471 44.0700351,44.4456377 C44.949363,45.1837351 45.8292513,45.1523505 46.6312387,44.3329896 C46.9355568,44.0219463 47.2112925,43.6806393 47.4775007,43.3359696 C48.3938175,42.1517633 49.4491231,41.0986995 50.5464615,40.0893499 C51.4997672,39.2122638 51.9795025,39.2234725 52.9456983,40.0736576 C53.2864449,40.3734922 53.6227079,40.6845355 53.9236634,41.0236007 C56.5509986,43.9860782 59.85086,45.86747 63.5581602,47.1475113 C65.5919912,47.8497406 67.6583276,48.2420475 69.8020045,48.2470915 C73.0211628,48.2543772 76.2397606,48.2532563 79.4583584,48.255498 L80.1039835,48.255498 C79.4140838,48.9554856 78.7858323,49.5927041 78.1581413,50.2299226 C72.3054829,50.2226369 66.4556268,50.3201532 60.6169793,50.7668226 C58.318061,50.9428002 56.0236261,51.1776239 53.7252682,51.3659312 C51.4398003,51.5536781 49.1599368,51.6590405 46.8980074,51.0885142 C45.3893072,50.7079765 43.9613101,50.1424942 42.6005656,49.4038364 C41.7683146,48.952123 41.0655248,49.1729357 40.399724,49.7272093 C40.2467243,49.8549893 40.1099773,50.002945 39.9693073,50.1452964 C38.4118489,51.7240514 36.8084346,53.2568505 35.3126245,54.8972537 C34.6854939,55.5843512 34.3469891,55.6050874 33.5483643,55.1343191 C33.3768702,55.0334402 33.2121013,54.9163086 33.0613434,54.7862869 C31.4663356,53.4059271 29.7850204,52.1348528 28.1109908,50.8536905 C27.0954764,50.0763625 25.971237,49.7300115 24.7152945,49.7367368 C21.0971041,49.7557917 17.4789137,49.771484 13.8607233,49.8006268 C13.1870763,49.8062311 12.5139897,49.8673189 11.8403428,49.9026265 C11.8224087,49.9469012 11.8044747,49.9911758 11.7865407,50.0360109 C11.928892,50.148659 12.0846939,50.248417 12.2124739,50.376197 C16.7150361,54.8742757 21.4518616,59.1252011 26.0659511,63.5061482 C26.8696197,64.2689049 27.7186839,64.9829034 28.7173852,65.496265 C29.3579663,65.8252424 29.9727673,65.805627 30.5814034,65.4351772 C31.2550503,65.0260572 31.8407085,64.5110143 32.3568723,63.9186309 C33.3006506,62.8358638 34.2371432,61.7424485 35.2963718,60.7734505 C36.6038746,59.5774749 37.2046646,59.613343 38.5183322,60.8025933 C39.2312099,61.4482183 39.9244722,62.1145796 40.7556024,62.6228972 C43.82064,64.4958824 47.1490838,64.9761782 50.6619118,64.563135 C52.5365783,64.3423223 54.414047,64.140004 56.293197,63.9623451 C58.7029629,63.7341953 60.7152924,64.2704201 63.0836384,64.268874 C63.2401843,64.2687718 63.3982857,64.26632 63.5581602,64.2611426 C63.8372585,64.2521756 61.948791,64.6427967 62.2228454,64.8456754 C59.911037,67.1625278 60.0674817,67.5564366 57.7545523,69.8716077 Z" id="Fill-1" fill="#4A4A4A"></path>
                <path d="M13.6578835,37.5558256 C24.1032835,27.1076865 34.493353,16.7154256 44.8061791,6.39986039 C55.1365357,16.723643 65.4871617,27.068243 75.8695617,37.4440691 C74.8911443,37.3569647 73.9056052,37.299443 72.9282835,37.1772778 C67.9556661,36.5571387 63.9707791,34.1012343 60.6120574,30.4998256 C60.0910748,29.941043 59.6111791,29.3422691 59.069927,28.8053995 C58.1966922,27.9392865 57.7146052,27.95353 56.8074052,28.7971821 C56.2464313,29.3192604 55.7468139,29.8972169 55.2669183,30.4927039 C54.5859704,31.3385473 53.8579096,32.1422082 53.0465791,32.864243 C51.8857357,33.8968952 51.1122052,33.8738865 50.0012139,32.8028865 C49.2682226,32.0961908 48.6760226,31.2722604 48.0580748,30.4707908 C45.6076487,27.2906604 43.1632487,24.1061473 40.7139183,20.9254691 C40.2038922,20.2631473 39.678527,19.6112343 39.0030574,19.1055908 C38.3560748,18.6207647 38.0575096,18.6339126 37.4620226,19.1707821 C36.8922835,19.6840952 36.4200574,20.2867039 35.9357791,20.878356 C33.2700574,24.1373734 30.60324,27.395843 27.9375183,30.6548604 C26.763527,32.0901647 25.5188661,33.4925995 24.0435704,34.587156 C22.0703009,36.0509473 19.8527009,37.1098952 17.357353,37.4336604 C16.1406313,37.5914343 14.9228139,37.6834691 13.6578835,37.5558256" id="Fill-6" fill="#4A4A4A"></path>
                <use id="Rectangle" stroke="#4A4A4A" mask="url(#mask-2)" stroke-width="3.67346939" transform="translate(44.988360, 45.446120) rotate(45.000000) translate(-44.988360, -45.446120) " xlink:href="#path-1"></use>
                <polygon id="Path-2" fill="#4A4A4A" transform="translate(46.131857, 61.523328) scale(1, -1) translate(-46.131857, -61.523328) " points="10.0499921 73.3562278 34.9516107 48.0269951 55.1831055 48.0269951 82.2137224 75.0196603"></polygon>
                <path d="M66.8297969,63.7794551 C66.5416032,63.5661093 66.239265,63.7464514 65.9457671,63.755881 C63.2341531,63.8436946 60.5248966,63.9821926 57.8233016,64.2379719 C55.8472004,64.4247969 53.8728672,64.6375534 51.9014808,64.8697585 C48.2074151,65.3041118 44.7072466,64.7990361 41.484074,62.8294178 C40.6100633,62.2948745 39.8810334,61.5941335 39.1313761,60.9151987 C37.7499323,59.6645912 37.1181457,59.6268726 35.7431847,60.8845523 C34.6293072,61.903544 33.644498,63.053372 32.6520273,64.1920024 C32.109233,64.8149487 31.4933589,65.3565642 30.7849564,65.7867921 C30.1449188,66.1763545 29.4983984,66.1969819 28.8247677,65.8510316 C27.7745404,65.311184 26.8816703,64.5603481 26.0365378,63.7582384 C21.1843931,59.1512646 16.20318,54.6810207 11.4683166,49.9508721 C11.3339441,49.8164996 11.1701039,49.7115947 11.0204082,49.5931347 C11.0392675,49.5459865 11.0581268,49.4994276 11.0769861,49.4528687 C11.7853886,49.4157394 12.4932018,49.3514999 13.2016043,49.3456064 C17.0064684,49.31496 20.8113325,49.2984582 24.6161967,49.2784201 C25.9369371,49.2713479 27.1191796,49.6355682 28.1870876,50.453001 C29.9474855,51.8002624 31.7155451,53.1369154 33.3928442,54.5884923 C33.5513802,54.7252222 33.7246501,54.848397 33.9049921,54.9544806 C34.7448204,55.4495373 35.1007897,55.4277312 35.7602759,54.7051842 C37.3332596,52.9801475 39.019399,51.3682665 40.6572115,49.7080586 C40.8051392,49.5583629 40.9489413,49.4027737 41.1098348,49.2684011 C41.8099863,48.6855308 42.5490352,48.4533257 43.4242247,48.9283444 C44.8551742,49.7051118 46.3568461,50.2997692 47.9433849,50.69994 C50.3220143,51.2999016 52.719503,51.1891032 55.1228853,50.9916698 C57.5398227,50.7936472 59.9526346,50.5467082 62.3701614,50.3616513 C68.5100428,49.8919368 74.6617113,49.7893894 80.8163265,49.7970509 C80.7444254,49.8836859 80.6795966,49.9768037 80.6000339,50.055777 C76.097965,54.561382 71.5947173,59.065219 67.090291,63.5684667 C67.0113176,63.6468507 66.9170211,63.7093221 66.8297969,63.7794551" id="Fill-4" fill="#FFFFFF"></path>
            </g>
        </g>
    </g>
</svg>