<?xml version="1.0" encoding="UTF-8"?>
<svg width="100px" height="100px" viewBox="0 0 100 100" version="1.1" xmlns="http://www.w3.org/2000/svg" xmlns:xlink="http://www.w3.org/1999/xlink">
    <!-- Generator: Sketch 42 (36781) - http://www.bohemiancoding.com/sketch -->
    <title>MtRose</title>
    <desc>Created with Sketch.</desc>
    <defs></defs>
    <g id="Logo" stroke="none" stroke-width="1" fill="none" fill-rule="evenodd">
        <g id="MtRose">
            <g id="MT.ROSE" transform="translate(5.000000, 15.000000)">
                <path d="M7.86514286,54.1800761 C10.1346667,45.8551468 13.4460952,37.9782108 18.3518095,30.8796451 C22.2746667,25.2029919 27.0570476,20.2578539 32.2965714,15.7750525 C35.7284762,12.8384734 39.4032381,10.2619145 43.4432381,8.22084377 C44.1970476,7.83978653 44.7994286,7.7991468 45.5789524,8.17303232 C51.1022857,10.8222646 55.9499048,14.4368101 60.3989524,18.6069246 C66.3799048,24.2128168 71.6832381,30.3585003 75.4127619,37.7587562 C78.0537143,42.9988909 80.2122857,48.4149717 81.7360952,54.0878 C81.8984762,54.693571 81.7946667,54.9699212 81.2251429,55.269699 C75.0032381,58.5471737 68.4065714,60.6833892 61.508,61.9570862 C55.6832381,63.0328438 49.838,63.8858 43.5194286,64.0125003 C39.6241905,63.986204 35.3970476,63.4282444 31.1989524,62.653699 C26.3927619,61.7672747 21.5765714,60.908103 16.9722857,59.1773286 C14.0127619,58.0647562 11.150381,56.739901 8.33419048,55.303167 C7.77609524,55.0186889 7.71419048,54.7337327 7.86514286,54.1800761 M25.1384762,68.5464599 C31.3194286,69.7116249 37.4875238,70.8801367 43.3260952,70.9145609 C50.0846667,70.8375845 56.2613333,69.9090862 62.4313333,68.8232882 C71.9294286,67.1518 80.7684762,63.7739212 89.045619,58.8431266 C89.5860952,58.5213556 89.7046667,58.2077125 89.5941905,57.6177192 C88.8446667,53.5977327 87.7589524,49.6714566 86.3989524,45.8192882 C83.8684762,38.6494835 80.6341905,31.8076653 76.095619,25.7112276 C70.7908571,18.5858875 64.575619,12.3125475 57.328,7.13552391 C53.6089524,4.47911987 49.700381,2.16122088 45.3632381,0.638426263 C44.7337143,0.417537374 44.1784762,0.425187205 43.5589524,0.659941414 C42.0127619,1.24515354 40.5032381,1.90877643 39.0541905,2.70196835 C28.6332381,8.40778653 20.2946667,16.524736 13.3646667,26.0172209 C6.48657143,35.4384667 2.27942857,46.1501434 0.0384761905,57.6234566 C-0.0748571429,58.2038875 0.0494285714,58.5366552 0.588,58.8593825 C8.24180952,63.4464128 16.3260952,66.8850121 25.1384762,68.5464599 Z" id="Fill-1" fill="#4A4A4A"></path>
                <path d="M10.5037619,52.905136 C12.7828095,45.2443077 15.9280476,37.9611899 20.6037619,31.4832168 C25.0947143,25.261035 30.456619,19.81053 36.5661429,15.1403077 C38.8785238,13.3727185 41.3123333,11.7954189 43.896619,10.4509609 C44.3842381,10.1975603 44.7585238,10.2071226 45.239,10.4466579 C50.2528095,12.9443279 54.6994762,16.2504896 58.7632857,20.0797084 C63.6928095,24.7250687 68.281381,29.6654256 71.6994762,35.5902202 C74.8932857,41.1253515 77.3894762,46.9554795 79.1870952,53.0925569 C79.3656667,53.7016747 79.1223333,53.8637556 78.6637619,54.0975535 C72.3585238,57.3138296 65.6085238,59.0560788 58.6828095,60.238934 C53.7432857,61.0828061 48.7847143,61.7206108 43.6528095,61.8114525 C38.8228095,61.7789407 33.9780476,60.9408061 29.1337619,60.0620316 C22.8609048,58.9241192 16.7956667,57.1703953 11.0947143,54.2462471 C10.4475714,53.9144357 10.2899524,53.6242202 10.5037619,52.905136" id="Fill-4" fill="#FBFDFC"></path>
                <path d="M15.6173333,47.6751852 C15.9397143,46.9049428 16.7601905,46.7189562 17.5682857,46.6864444 C17.924,46.672101 18.124,46.7964108 18.2897143,47.1358721 C19.5273333,49.6660539 20.6549524,52.2421347 21.5959048,54.8990168 C21.6330476,55.004202 21.641619,55.1203838 21.6501905,55.1624579 C21.6501905,55.8566801 21.2030476,56.1545455 20.6835238,55.7548418 C19.096381,54.5332593 17.2644762,53.5808552 16.1778095,51.784101 C15.9278095,51.3714882 15.7230476,50.9096296 15.3954286,50.5692121 C14.3735238,49.5054074 15.241619,48.5721279 15.6173333,47.6751852 M20.2730476,45.8927744 C20.5225714,45.3826263 20.7487619,44.8590909 20.9454286,44.3259933 C21.1825714,43.6848418 21.4497143,43.6384646 21.8682857,44.1863838 C23.044,45.7244781 24.0149524,47.3969226 25.0525714,49.0249024 C25.9073333,50.3655354 26.7092381,51.7401145 27.5811429,53.0687946 C28.6311429,54.6690438 30.3044762,55.4555421 31.9549524,56.2080943 C33.9430476,57.1150774 36.0344762,57.7586195 38.1387619,58.345266 C38.4749524,58.4389764 38.7697143,58.5843232 39.1968571,58.9519933 C37.9020952,59.105468 36.8335238,58.7526195 35.766381,58.5929293 C33.4687619,58.2496431 31.1849524,57.7963906 28.9092381,57.322101 C27.5235238,57.0333199 26.154,56.6527407 24.7959048,56.2501684 C24.2373333,56.0842626 23.8568571,55.626229 23.6468571,55.0615758 C22.8854286,53.0104646 21.7173333,51.1314747 21.1159048,49.0119933 C20.8987619,48.2455758 20.651619,47.4887205 20.2544762,46.7892391 C20.0887619,46.4971111 20.1201905,46.2040269 20.2730476,45.8927744 M23.524,31.5918923 C23.8801905,30.7446734 24.3920952,29.9916431 25.0001905,29.3112862 C26.5625714,27.5632997 28.4187619,26.1499933 30.2559048,24.7180404 C30.5068571,24.5220135 30.8578095,24.1992862 31.1435238,24.5683906 C31.4173333,24.9221953 31.0325714,25.2057172 30.8025714,25.4242155 C28.5387619,27.5781212 26.1501905,29.598633 23.9920952,31.8653737 C23.8968571,31.9657778 23.7725714,32.0384512 23.671619,32.116862 C23.246381,32.0207609 23.4501905,31.7668822 23.524,31.5918923 M38.1225714,30.8230842 C39.3430476,30.1728485 40.3692381,29.1755017 41.6849524,28.6710909 C42.9587619,28.1819798 44.0759048,27.1702896 45.4906667,27.48967 C46.4235238,27.427037 47.2420952,27.4868013 48.0244762,27.8009226 C48.764,28.0978316 48.8220952,28.5314815 48.2078095,29.0497576 C47.6230476,29.5436498 46.9344762,29.7138586 46.2130476,29.5622963 C44.396381,29.1807609 42.8682857,29.8635084 41.2525714,30.5964579 C38.2230476,31.9696027 35.8301905,34.1899663 33.2901905,36.2200404 C32.3301905,36.9874141 31.6573333,38.0383098 31.0520952,39.1073737 C30.7187619,39.6964108 30.2811429,40.010532 29.6011429,40.1496633 C28.516381,40.3715084 27.5011429,40.8443636 26.5482857,41.4051919 C25.8173333,41.8354949 25.546381,43.5084175 25.944,44.4727744 C26.7959048,46.5396633 28.4373333,47.6182896 30.521619,48.0280337 C32.2635238,48.3703636 33.0349524,50.0418519 33.2135238,51.5694276 C33.2787619,52.1288215 32.8144762,52.2865993 32.4087619,52.1259529 C30.6149524,51.4173872 28.7782857,50.9340135 27.6192381,49.0196431 C26.4506667,47.0890168 24.964,45.3505926 23.9706667,43.288963 C23.5644762,42.445569 23.5254286,41.7130976 24.0392381,40.8850034 C25.4297143,38.645037 27.0982857,36.6412593 28.936381,34.7656162 C29.5325714,34.1574545 30.0849524,33.5038721 30.6335238,32.8512458 C31.1706667,32.2124848 31.854,31.9901616 32.6635238,31.9447407 C34.5359048,31.8390774 36.4335238,31.7233737 38.1225714,30.8230842 M33.2449524,20.9313737 C36.0773333,17.9493737 39.4587619,15.9781077 43.5492381,15.3240471 C43.9697143,15.2571111 44.3973333,15.2260337 44.814,15.1423636 L50.1311429,17.4693468 C50.5544762,17.2608889 50.9906667,17.157138 51.451619,17.2121212 C53.2511429,17.4272727 54.8344762,18.1597441 56.2568571,19.2684916 C56.5035238,19.4606936 56.734,19.6858855 56.336381,19.9206397 C55.744,20.2706195 56.1601905,20.4499125 56.4430476,20.6105589 C57.6568571,21.2985657 58.8797143,21.972229 59.9887619,22.8261414 C60.5597143,23.2664848 61.1506667,23.7044377 61.4697143,24.469899 C60.9825714,24.5287071 60.6882857,24.2810438 60.3897143,24.0960135 C58.4306667,22.8801684 56.4720952,21.663367 54.5301905,20.4202694 C53.6678095,19.8685253 52.751619,19.5391044 51.7301905,19.4970303 C51.3535238,19.4817306 50.9625714,19.441569 50.7811429,19.875697 C50.5987619,20.3117374 50.9820952,20.4671246 51.2201905,20.6947071 C52.661619,22.0740673 54.1049524,23.451037 55.5349524,24.8428283 C55.7678095,25.0694545 56.146381,25.3080337 55.9911429,25.6881347 C55.8506667,26.0328552 55.421619,26.0347677 55.0954286,26.0873603 C54.3411429,26.2097576 53.7554286,26.0314209 53.1011429,25.4801549 C50.3111429,23.129266 47.2630476,21.2985657 43.4144762,21.4534747 C42.621619,21.4855084 41.9235238,21.7412997 41.2392381,22.1214007 C39.1282857,23.2946936 37.3687619,24.9245859 35.554,26.4827609 C35.2487619,26.7452458 34.9349524,26.9862155 34.5573333,27.1306061 C34.2287619,27.2558721 33.864,27.3696633 33.5992381,27.0756229 C33.3259048,26.7720202 33.6192381,26.4741549 33.774,26.2350976 C34.6425714,24.8906397 35.3397143,23.451037 36.1182857,22.0573333 C36.2154286,21.8832997 36.3001905,21.7016162 36.3859048,21.521367 C36.486381,21.3090842 36.5682857,21.0881953 36.3892381,20.8806936 C36.1901905,20.6497643 35.9292381,20.6631515 35.6835238,20.7721616 C35.034,21.0599865 34.3949524,21.3726734 33.7454286,21.6619327 C33.5149524,21.7642492 33.2249524,21.9124646 33.0330476,21.6748418 C32.8006667,21.3860606 33.0573333,21.128835 33.2449524,20.9313737 M63.6430476,31.8304714 C63.776381,31.9772525 63.9654286,32.1125589 64.0178095,32.2870707 C64.6292381,34.3118855 66.1435238,35.759138 67.2606667,37.4597912 C67.574,37.9364714 68.1835238,38.5431987 67.6549524,39.033266 C67.206381,39.4492256 66.6235238,38.8176364 66.1520952,38.5518047 C65.3978095,38.1267609 64.8392381,37.475569 64.3620952,36.7564848 L64.3620952,36.7564848 C63.4378095,35.8877508 62.8887619,34.7670505 62.3073333,33.6678653 C61.6354286,32.6772121 60.6178095,32.0786128 59.7054286,31.3614411 C59.594,31.2739461 59.4425714,31.2203973 59.3630476,31.1118653 C59.1349524,30.8006128 58.471619,30.6590909 58.7587619,30.1532458 C59.0182857,29.6952121 59.5268571,29.9715623 59.924,30.0949158 C61.2411429,30.5037037 62.6444762,30.7327205 63.6430476,31.8304714 M56.6897143,33.6554343 L56.6892381,33.6549562 L56.6892381,33.6549562 L56.6892381,33.6549562 C55.2587619,32.7259798 53.6282857,32.2497778 52.074,31.6009764 C51.6944762,31.4718855 51.3459048,31.2854209 51.0459048,31.0181549 C50.8787619,30.8694613 50.6582857,30.7193333 50.7459048,30.4525455 C50.8368571,30.1766734 51.111619,30.2106195 51.3273333,30.2053603 C53.1244762,30.1632862 54.8035238,30.6284916 56.3973333,31.432202 C58.401619,32.4434141 59.7173333,34.1502828 60.9106667,35.9742896 C61.2492381,36.4920875 61.3454286,37.0878182 61.3454286,37.6950236 C61.3454286,38.7516566 61.346381,39.8087677 61.3097143,40.8644444 C61.2982857,41.2034276 61.3787619,41.7360471 60.851619,41.7207475 C60.3806667,41.7073603 59.9930476,41.372202 59.9482857,40.8481886 C59.8892381,40.1640067 59.7787619,39.4903434 59.684,38.8128552 C59.5711429,38.0043636 59.2597143,37.28767 58.9092381,36.5738451 L58.9092381,36.5738451 C58.1697143,35.6008822 57.4297143,34.6283973 56.6897143,33.6554343 M53.8568571,36.5791044 C53.4768571,35.9809832 53.0720952,35.395771 52.7273333,34.777569 C52.5211429,34.4079865 52.5092381,33.9652525 52.9044762,33.7056364 C53.241619,33.4842694 53.6111429,33.5775017 53.9101905,33.8748889 C54.6368571,34.5958855 55.4601905,35.2418182 56.0730476,36.0493535 C56.854,37.0782559 56.8282857,38.3954613 56.9806667,39.6299529 C56.9982857,39.7700404 56.9830476,39.914431 56.9830476,40.0569091 C56.9978095,41.6705455 56.3792381,43.059468 55.3835238,44.2710101 C54.6697143,45.139266 53.6073333,45.3391178 52.5525714,45.4337845 C52.1106667,45.4729899 51.9887619,45.2286734 52.2706667,44.8457037 C52.3544762,44.7319125 52.3954286,44.5793939 52.4949524,44.4852054 C54.4220952,42.6602424 54.0025714,40.1458384 54.4054286,37.8795758 C54.491619,37.3923771 54.114,36.9835892 53.8568571,36.5791044 M70.9806667,41.2096431 C71.0087619,41.2125118 71.0387619,41.2096431 71.0654286,41.2172929 C71.5320952,41.3497306 72.1182857,41.4630438 72.2101905,41.9731919 C72.3059048,42.503899 71.6601905,42.5053333 71.3335238,42.7386532 C71.0368571,42.9504579 70.6887619,42.9667138 70.3673333,43.0460808 C66.5354286,43.9903569 63.2201905,46.0156498 59.9082857,48.0505051 C57.4073333,49.587165 54.6906667,50.6624444 51.9825714,51.750633 C51.3492381,52.0049899 50.6925714,51.9657845 50.1211429,51.5139663 C49.6097143,51.1099596 49.3820952,50.694 49.8901905,50.080101 C50.4282857,49.4298653 50.3268571,49.1951111 49.4787619,49.0411582 C48.754,48.9101549 48.0159048,48.8546936 47.284,48.76433 C47.061619,48.7370774 46.8192381,48.7805859 46.634,48.6103771 C46.5135238,48.4999327 46.3168571,48.4248687 46.3349524,48.2274074 C46.3554286,48.000303 46.5730476,48.0117778 46.7292381,47.9897845 C47.0378095,47.9462761 47.3501905,47.9300202 47.6168571,47.9061145 C48.8249524,48.046202 49.9901905,48.0801481 51.156381,48.025165 C51.8949524,47.9902626 52.2382857,48.6806599 52.8406667,48.9307138 C53.5406667,49.2214074 54.0949524,49.2218855 54.7682857,48.8967677 C57.4530476,47.6001212 59.7554286,45.7436027 62.0830476,43.9262896 C63.1578095,43.0871987 64.271619,42.3007003 65.3154286,41.4147542 C66.1159048,40.7358316 67.1906667,40.8520135 68.1830476,40.920862 C69.1178095,40.9854074 70.0482857,41.1111515 70.9806667,41.2096431 M70.6059048,51.1180875 C70.2425714,52.9119731 69.6820952,54.5920673 67.9868571,55.6023232 C67.101619,56.1306397 66.2906667,55.7887879 66.0987619,54.7680135 C66.0001905,54.2430438 65.6368571,53.9298788 65.3168571,53.579899 C64.9592381,53.1888013 64.9635238,52.853165 65.3187619,52.4620673 C65.7497143,51.9872997 66.2568571,51.6583569 66.8544762,51.4317306 C67.9511429,51.0167273 69.1059048,50.8957643 70.3735238,50.6877845 C70.5573333,50.6739192 70.6625714,50.8393468 70.6059048,51.1180875 M67.4420952,46.4995017 C67.5287619,47.9921751 66.6225714,48.939798 65.846381,49.946229 C65.696381,50.1403434 65.4759048,50.2149293 65.2359048,50.1150034 C64.9659048,50.0026465 65.0025714,49.7506801 65.0101905,49.5278788 C65.0201905,49.2386195 65.1159048,48.9813939 65.2792381,48.7322963 C65.7573333,48.0012593 66.3159048,47.3204242 66.486381,46.4100943 C66.5511429,46.0644175 66.8611429,45.6685387 67.2687619,45.761771 C67.6811429,45.8559596 67.3735238,46.2996498 67.4420952,46.4995017 M62.6020952,56.4538451 C61.5035238,56.9988956 60.3430476,57.4291987 59.154,57.6472189 C55.7401905,58.2730707 52.2844762,58.5274276 48.8168571,58.6675152 C47.4673333,58.7220202 46.2473333,58.2649428 44.9825714,57.9814209 C44.3682857,57.8432458 44.5959048,57.4502357 44.9425714,57.1973131 C45.706381,56.6398316 46.5968571,56.3266667 47.4520952,55.9456094 C50.1287619,54.7522357 52.9435238,54.3477508 55.8573333,54.4954882 C58.0930476,54.4773199 60.334,54.5260875 62.5068571,55.1935354 C62.7678095,55.2738586 63.1078095,55.2695556 63.1354286,55.6558721 C63.164,56.0512727 62.9282857,56.2922424 62.6020952,56.4538451 M42.056381,49.5608687 C43.3059048,50.4052189 44.6468571,51.0817508 46.0782857,51.5684714 C46.6720952,51.7702357 47.2601905,51.9916027 47.7382857,52.4199933 C48.0001905,52.6542694 48.4611429,52.8278249 48.241619,53.2863367 C48.0449524,53.6960808 47.6254286,53.8500337 47.1954286,53.880633 C46.7120952,53.8141751 46.3044762,53.6124108 45.9073333,53.3943906 C42.576381,51.5636902 39.2197143,49.7898855 35.7406667,48.2503569 C33.9459048,47.4566869 31.9782857,47.1879865 30.2154286,46.337899 C29.1801905,45.8387475 28.296381,45.1072323 27.9387619,43.944936 C27.5820952,42.7850303 28.9144762,41.6638519 30.296381,41.9531111 C30.9087619,42.0812458 31.4673333,42.3375152 31.996381,42.7023165 C35.3397143,45.0034815 38.6935238,47.2883906 42.056381,49.5608687 M49.4759048,33.4680135 C48.4459048,32.8321212 47.3030476,32.6858182 46.1287619,32.6270101 C43.6573333,32.5036566 41.8554286,33.4895286 40.8201905,35.7906936 C40.0187619,37.5721481 38.8711429,39.0519125 37.1454286,40.031569 C36.1892381,40.574229 35.1873333,40.9179933 34.0730476,40.850101 C33.3797143,40.8075488 33.0401905,40.2548485 33.4892381,39.7695623 C36.1873333,36.8549764 38.6406667,33.6549562 42.3025714,31.8237778 C43.034,31.4580202 43.8101905,31.1415084 44.6749524,31.2361751 C46.524,31.3848687 48.3192381,31.766404 50.016381,32.547165 C50.286381,32.6714747 50.7378095,32.7670976 50.5587619,33.1548485 C50.3682857,33.5674613 49.9359048,33.7524916 49.4759048,33.4680135 M44.344,47.7134343 C44.2020952,48.0653266 43.9311429,48.3345051 43.5301905,48.3670168 C42.851619,48.422 42.254,48.1815084 41.744,47.7488148 C41.3025714,47.3744512 40.8059048,47.0431178 40.464,46.313037 C41.7301905,46.5989495 42.8673333,46.838963 43.9925714,47.1248754 C44.2211429,47.1827273 44.4649524,47.4141347 44.344,47.7134343 M41.1835238,44.7921549 C40.2735238,44.5789158 39.3130476,44.6783636 38.4197143,44.3513333 C38.2349524,44.2839192 38.0254286,44.2667071 37.8592381,44.1706061 C37.6854286,44.070202 37.3520952,44.0396027 37.4525714,43.7288283 C37.5301905,43.4888148 37.7959048,43.5997374 37.9797143,43.594 C39.371619,43.552404 40.7606667,43.5514478 42.1197143,43.9372862 C42.3930476,44.0152189 42.6744762,44.0572929 42.886381,44.2710101 L42.886381,44.2710101 C43.6544762,44.3761953 44.3792381,44.6219461 45.0797143,44.9480202 C46.5025714,45.2540135 47.9259048,45.5595286 49.3482857,45.8679125 C49.4944762,45.899468 49.6435238,45.9893535 49.6330476,46.1394815 C49.6178095,46.3641953 49.4049524,46.3527205 49.2401905,46.3646734 C48.4411429,46.4225253 47.6544762,46.3312054 46.8778095,46.1471313 C44.9792381,45.6972256 43.0830476,45.2377576 41.1835238,44.7921549 M49.8335238,44.0520337 C49.526381,44.9771852 48.8368571,44.6205118 48.284,44.6386801 C47.7501905,44.6558923 47.3873333,44.3011313 47.3025714,43.7579933 C47.2506667,43.422835 47.2454286,43.071899 47.2778095,42.7333939 C47.3373333,42.1056296 47.6911429,41.9741481 48.2020952,42.3418182 C48.4520952,42.5220673 48.5897143,42.9973131 49.021619,42.7568215 C49.4182857,42.5368889 49.3273333,42.1084983 49.3230476,41.7503906 C49.301619,39.8565791 48.8344762,38.1176768 47.2149524,36.970202 C46.2954286,36.318532 45.1811429,35.9116566 44.0959048,36.5394209 C42.9244762,37.2173872 42.321619,38.3653401 42.1959048,39.7021481 C42.1225714,40.4843434 42.4730476,40.7200539 43.2454286,40.5876162 C44.2925714,40.407367 44.7368571,39.9445522 44.8825714,38.8338923 C44.9211429,38.5393737 44.9768571,38.2802357 45.2111429,38.0760808 C45.4025714,37.909697 45.6087619,37.8451515 45.8359048,37.955596 C46.0811429,38.0746465 46.0620952,38.2964916 46.0573333,38.5412862 C46.016381,40.5675354 44.7644762,41.6365993 43.0801905,42.3614209 C42.4335238,42.6392054 41.3682857,42.1892997 40.7106667,41.4300539 C40.2154286,40.858229 40.5073333,40.3753333 40.8325714,39.8914815 C41.3344762,39.1446667 41.4201905,38.2410303 41.7735238,37.4368418 C42.7359048,35.2489899 45.3944762,34.4199394 47.3568571,35.7232795 C47.7582857,35.9895892 48.151619,36.272633 48.5206667,36.5814949 C49.744,37.605138 50.7920952,38.7191448 50.306381,40.290229 C50.4282857,41.7389158 50.2178095,42.8954747 49.8335238,44.0520337 M11.0949524,54.2463906 C16.7959048,57.1705387 22.8606667,58.9242626 29.1335238,60.0621751 C33.9782857,60.9404714 38.8225714,61.7790842 43.6525714,61.811596 C48.7844762,61.7207542 53.7430476,61.0829495 58.6830476,60.2390774 C65.6082857,59.0562222 72.3582857,57.3139731 78.6635238,54.097697 C79.1225714,53.8634209 79.3659048,53.7013401 79.1873333,53.0922222 C77.3892381,46.9551448 74.8930476,41.1254949 71.6997143,35.5903636 C68.281619,29.6650909 63.6925714,24.724734 58.7630476,20.0798519 C54.6992381,16.250633 50.2530476,12.9444714 45.2387619,10.4463232 C44.7587619,10.207266 44.384,10.1977037 43.8968571,10.4511044 C41.3120952,11.7950842 38.8787619,13.372862 36.566381,15.1404512 C30.456381,19.8101953 25.0944762,25.2611785 20.604,31.4828822 C15.9282857,37.9608552 12.7830476,45.2439731 10.5035238,52.9052795 C10.2897143,53.6238855 10.4478095,53.9145791 11.0949524,54.2463906" id="Fill-6" fill="#4A4A4A"></path>
                <path d="M30.6337619,32.8510545 C30.0847143,33.5036808 29.5323333,34.1572633 28.9361429,34.7654249 C27.0985238,36.641068 25.4294762,38.6453239 24.039,40.8852902 C23.5251905,41.7129064 23.5647143,42.4458559 23.9709048,43.2887717 C24.9637619,45.3504013 26.4509048,47.0888256 27.6194762,49.0194519 C28.7780476,50.9343003 30.6147143,51.4176741 32.4085238,52.1262397 C32.8142381,52.2864081 33.2785238,52.1286303 33.2132857,51.5692364 C33.0347143,50.0421387 32.2637619,48.3706505 30.521381,48.0278424 C28.4370952,47.6180983 26.7961429,46.5394721 25.9437619,44.4725832 C25.5461429,43.5082263 25.8170952,41.8357818 26.5480476,41.4050007 C27.5009048,40.8441724 28.516619,40.3717953 29.6009048,40.1499502 C30.2809048,40.0103407 30.719,39.6966976 31.0523333,39.1071825 C31.6570952,38.0385966 32.3304286,36.9872229 33.2899524,36.2203273 C35.8299524,34.1897751 38.2232857,31.9698896 41.2523333,30.5962667 C42.8680476,29.8637953 44.396619,29.1810478 46.2128095,29.5625832 C46.9347143,29.7141455 47.6228095,29.5439367 48.2080476,29.0500444 C48.8218571,28.5317684 48.7637619,28.0981185 48.0242381,27.8007313 C47.2423333,27.4866101 46.4237619,27.4268458 45.4909048,27.4899569 C44.0761429,27.1700983 42.959,28.1822667 41.6847143,28.6708997 C40.3694762,29.1753104 39.3432857,30.1731354 38.1228095,30.823371 C36.4337619,31.7231825 34.5356667,31.8388862 32.6637619,31.9445495 C31.8537619,31.9899704 31.1709048,32.2127717 30.6337619,32.8510545" id="Fill-8" fill="#FFFFFF"></path>
                <path d="M21.1160476,49.0120411 C21.717,51.1315226 22.8855714,53.0105125 23.647,55.0616236 C23.857,55.6262768 24.237,56.0843104 24.7960476,56.2502162 C26.1541429,56.6527886 27.5236667,57.0333677 28.909381,57.3221488 C31.1850952,57.7964384 33.4684286,58.2496909 35.7665238,58.5929771 C36.8336667,58.7526673 37.9017619,59.1050377 39.1965238,58.9520411 C38.769381,58.584371 38.4750952,58.4390242 38.1384286,58.3448357 C36.034619,57.7586673 33.9431905,57.1151253 31.9550952,56.2081421 C30.304619,55.4555899 28.6312857,54.6690916 27.5812857,53.0688424 C26.709381,51.7401623 25.907,50.3655832 25.0527143,49.0249502 C24.0150952,47.3969704 23.0441429,45.7240478 21.8684286,44.1864316 C21.4498571,43.6385125 21.1822381,43.6848896 20.9455714,44.3260411 C20.7489048,44.8586606 20.5227143,45.3826741 20.2727143,45.8923441 C20.1203333,46.2040747 20.0889048,46.4966808 20.254619,46.7892869 C20.6517619,47.4882902 20.8984286,48.2451455 21.1160476,49.0120411" id="Fill-10" fill="#FFFFFF"></path>
                <path d="M65.3153333,41.4149455 C64.2715238,42.3008916 63.1577143,43.0869118 62.0829524,43.9264808 C59.7553333,45.7433158 57.4529524,47.6003125 54.7681905,48.8969589 C54.0948571,49.2220768 53.5405714,49.2211205 52.8405714,48.9304269 C52.2386667,48.6803731 51.8948571,47.9904539 51.1562857,48.0253562 C49.9900952,48.0803394 48.8248571,48.0463933 47.6172381,47.9063057 C47.3505714,47.9297333 47.0377143,47.9464673 46.7291429,47.9899758 C46.5734286,48.011969 46.3553333,48.0004943 46.3348571,48.2275987 C46.3167619,48.4250599 46.5134286,48.4996458 46.6339048,48.6105684 C46.819619,48.7807771 47.0615238,48.7372687 47.2839048,48.7645212 C48.0158095,48.8548848 48.7539048,48.909868 49.4786667,49.0413495 C50.3267619,49.1948242 50.4281905,49.4300566 49.8900952,50.0798141 C49.382,50.6937131 49.609619,51.1096727 50.1210476,51.5141576 C50.6929524,51.9654976 51.3491429,52.0051811 51.9824762,51.7508242 C54.6905714,50.6621576 57.4072381,49.5873562 59.9081905,48.0506963 C63.2205714,46.015363 66.5353333,43.9905481 70.3672381,43.0457939 C70.6886667,42.9669051 71.0367619,42.9506492 71.3334286,42.7388444 C71.6600952,42.5055246 72.3058095,42.5040902 72.2100952,41.9733832 C72.1181905,41.463235 71.532,41.3499219 71.0658095,41.2170061 C71.0386667,41.2093562 71.0091429,41.212703 70.9805714,41.2098343 C70.0481905,41.1108646 69.1177143,40.9855987 68.1834286,40.9210532 C67.1910476,40.8522047 66.1158095,40.7355448 65.3153333,41.4149455" id="Fill-12" fill="#FFFFFF"></path>
                <path d="M62.5067619,55.1934875 C60.3339048,54.5260397 58.0929524,54.4772721 55.8572381,54.4954404 C52.9434286,54.347703 50.1291429,54.7521879 47.452,55.9455616 C46.5972381,56.3266189 45.7062857,56.6397838 44.9424762,57.1972653 C44.5958095,57.4501879 44.3681905,57.843198 44.9829524,57.9813731 C46.2472381,58.2648949 47.4672381,58.7219724 48.8167619,58.6674673 C52.284381,58.5273798 55.7400952,58.2730229 59.1539048,57.647171 C60.3434286,57.4291508 61.5034286,56.9988478 62.602,56.4537973 C62.9281905,56.2921946 63.1639048,56.0512249 63.1358095,55.6558242 C63.1077143,55.2695077 62.7677143,55.2738108 62.5067619,55.1934875" id="Fill-14" fill="#FFFFFF"></path>
                <path d="M30.296381,41.9529677 C28.9144762,41.6637084 27.5820952,42.7848869 27.9387619,43.9452707 C28.296381,45.1070889 29.1801905,45.8390822 30.2154286,46.3382337 C31.9782857,47.1883212 33.9459048,47.4565434 35.7406667,48.2506916 C39.2197143,49.7897421 42.576381,51.5635468 45.9073333,53.3942471 C46.3044762,53.6122673 46.7120952,53.8140316 47.1954286,53.8809677 C47.6254286,53.8498902 48.0449524,53.6959374 48.241619,53.2866714 C48.4611429,52.8276815 48.0001905,52.654604 47.7382857,52.4198498 C47.2601905,51.9914593 46.6720952,51.7700923 46.0787619,51.5683279 C44.6468571,51.0816074 43.306381,50.4050754 42.056381,49.5607253 C38.6935238,47.2887253 35.3397143,45.003338 31.996381,42.7021731 C31.4673333,42.3378498 30.9087619,42.0811024 30.296381,41.9529677" id="Fill-16" fill="#FFFFFF"></path>
                <path d="M50.0165238,32.5473562 C48.3189048,31.7661172 46.5236667,31.3850599 44.674619,31.2358882 C43.8098571,31.1412215 43.0341429,31.4577333 42.3022381,31.823969 C38.6408095,33.6546694 36.187,36.8551677 33.489381,39.7692754 C33.0398571,40.2545616 33.379381,40.8077401 34.0731905,40.8498141 C35.1874762,40.9177064 36.189381,40.5744202 37.1455714,40.0312822 C38.8712857,39.0516256 40.0189048,37.5723394 40.8203333,35.7908848 C41.8555714,33.4892418 43.6574762,32.5038478 46.1289048,32.6272013 C47.3027143,32.6855313 48.4460476,32.8323125 49.4760476,33.4682047 C49.9360476,33.7522047 50.3679524,33.5671744 50.5589048,33.1550397 C50.7379524,32.7668108 50.2865238,32.671666 50.0165238,32.5473562" id="Fill-18" fill="#FFFFFF"></path>
                <path d="M48.5208095,36.5813993 C48.1517619,36.2725374 47.7579524,35.9894936 47.357,35.7231838 C45.3941429,34.4198438 42.7360476,35.2488943 41.7736667,37.4367461 C41.4198571,38.2409347 41.3341429,39.144571 40.8322381,39.891864 C40.5074762,40.3752377 40.2155714,40.8586114 40.7108095,41.4299582 C41.3679524,42.189204 42.4336667,42.6395879 43.0803333,42.3613253 C44.764619,41.6365037 46.0160476,40.5674397 46.0574762,38.5411906 C46.0622381,38.2968741 46.0812857,38.075029 45.8355714,37.9555003 C45.6089048,37.8450559 45.4027143,37.9096013 45.2112857,38.0759852 C44.9765238,38.2801401 44.9212857,38.5392781 44.8827143,38.8337966 C44.737,39.9449347 44.2927143,40.4072714 43.2450952,40.5875205 C42.4731905,40.7199582 42.1227143,40.4842478 42.1960476,39.7020525 C42.3217619,38.3657226 42.924619,37.2172916 44.0960476,36.5393253 C45.1808095,35.9115609 46.2955714,36.3189145 47.2150952,36.9701064 C48.834619,38.1175811 49.3017619,39.8564835 49.3231905,41.7502949 C49.327,42.1084027 49.4184286,42.5367933 49.0217619,42.757204 C48.589381,42.9972175 48.4522381,42.5224498 48.2022381,42.3422007 C47.6908095,41.9740525 47.337,42.1060121 47.2774762,42.7332983 C47.2455714,43.0718034 47.2503333,43.4227394 47.3027143,43.7578976 C47.3874762,44.3010357 47.7503333,44.6557966 48.2841429,44.6385845 C48.8365238,44.6204162 49.5265238,44.9770896 49.8336667,44.0524162 C50.2174762,42.8953791 50.4284286,41.7388202 50.3060476,40.2901333 C50.7922381,38.7190492 49.7441429,37.6050424 48.5208095,36.5813993" id="Fill-20" fill="#FFFFFF"></path>
                <path d="M16.177619,51.7843401 C17.2642857,53.5810943 19.0966667,54.5334983 20.6833333,55.7546027 C21.2033333,56.1543064 21.65,55.8564411 21.65,55.1622189 C21.6419048,55.1201448 21.6333333,55.0044411 21.5957143,54.8987778 C20.6547619,52.2418956 19.5271429,49.6658148 18.29,47.135633 C18.1238095,46.7961717 17.9242857,46.671862 17.5685714,46.6862054 C16.7604762,46.7187172 15.94,46.9051818 15.6171429,47.6754242 C15.2419048,48.572367 14.3738095,49.5056465 15.3957143,50.5689731 C15.7228571,50.9098687 15.927619,51.3712492 16.177619,51.7843401" id="Fill-22" fill="#FFFFFF"></path>
                <path d="M52.4949524,44.485301 C52.3959048,44.5794896 52.3544762,44.7320081 52.2706667,44.8457993 C51.9887619,45.228769 52.1106667,45.4730855 52.5525714,45.433402 C53.6073333,45.3387354 54.6697143,45.1393616 55.3835238,44.2706276 C56.3792381,43.0595636 56.9978095,41.6706411 56.9830476,40.0570047 C56.9830476,39.9145266 56.9982857,39.770136 56.9806667,39.6300485 C56.8282857,38.3955569 56.854,37.0783515 56.0730476,36.0494492 C55.4606667,35.2419138 54.6368571,34.5959811 53.9101905,33.8745064 C53.6111429,33.5775973 53.241619,33.484365 52.9044762,33.705732 C52.5092381,33.96487 52.5211429,34.4080822 52.7273333,34.7776646 C53.0720952,35.3958667 53.4768571,35.9810788 53.8573333,36.5792 C54.1144762,36.9836848 54.491619,37.3924727 54.4054286,37.8796714 C54.0025714,40.145934 54.4220952,42.660338 52.4949524,44.485301" id="Fill-24" fill="#FFFFFF"></path>
                <path d="M58.909381,36.5737017 L58.909381,36.5737017 C59.259381,37.2875266 59.5712857,38.0046983 59.6841429,38.8127118 C59.7784286,39.4906781 59.889381,40.1643414 59.9479524,40.8480451 C59.9931905,41.3720586 60.3808095,41.7072168 60.8512857,41.720604 C61.3789048,41.7359037 61.2979524,41.2037623 61.3098571,40.864301 C61.3465238,39.8086242 61.3455714,38.7515131 61.3455714,37.6948801 C61.3455714,37.0876747 61.249381,36.4919441 60.9108095,35.9746242 C59.7174762,34.1501394 58.4017619,32.4432707 56.3974762,31.4325367 C54.8031905,30.6283481 53.1241429,30.1631428 51.3274762,30.2056949 C51.1117619,30.2104761 50.8365238,30.17653 50.7460476,30.452402 C50.6584286,30.7191899 50.8789048,30.8693178 51.0460476,31.0184896 C51.3455714,31.2852774 51.694619,31.4722202 52.0741429,31.600833 C53.7898571,31.8833987 55.4331905,32.3304357 56.689381,33.6552909 L56.689381,33.6552909 L56.6898571,33.6552909 C57.8465238,34.3083953 58.5122381,35.3382539 58.909381,36.5737017" id="Fill-26" fill="#FFFFFF"></path>
                <path d="M58.7587619,30.1531024 C58.471619,30.6589475 59.1349524,30.8004694 59.3630476,31.1117219 C59.4425714,31.220732 59.594,31.2738027 59.7054286,31.3617758 C60.6178095,32.0789475 61.6354286,32.6770687 62.3073333,33.6677219 C63.2125714,34.549365 63.7920952,35.6499845 64.3620952,36.7563414 L64.3620952,36.7563414 L64.3620952,36.7563414 C64.8392381,37.4754256 65.3978095,38.1266175 66.1520952,38.5516613 C66.6235238,38.8174929 67.206381,39.4490822 67.6549524,39.0331226 C68.1835238,38.5430552 67.574,37.9363279 67.2606667,37.4596478 C66.1435238,35.7589946 64.6292381,34.3117421 64.0178095,32.2869273 C63.9654286,32.1128936 63.776381,31.9771091 63.6430476,31.8303279 C62.6444762,30.7330552 61.2411429,30.5035603 59.924,30.0947724 C59.5268571,29.971897 59.0182857,29.6950687 58.7587619,30.1531024" id="Fill-28" fill="#FFFFFF"></path>
                <path d="M70.3734286,50.6880236 C69.1058095,50.8960034 67.9510476,51.0164882 66.854381,51.4319697 C66.2567619,51.6581178 65.7500952,51.9870606 65.3186667,52.4618283 C64.9634286,52.8529259 64.9591429,53.1890404 65.3167619,53.5796599 C65.6367619,53.9296397 66.0000952,54.2428047 66.0986667,54.7682525 C66.2905714,55.7890269 67.1015238,56.1304007 67.9872381,55.6025623 C69.682,54.5923064 70.2424762,52.9122121 70.6058095,51.1183266 C70.6624762,50.8395859 70.5572381,50.6741582 70.3734286,50.6880236" id="Fill-30" fill="#FFFFFF"></path>
                <path d="M67.2687143,45.7615798 C66.8610952,45.6683475 66.5510952,46.0647044 66.4863333,46.4103811 C66.3158571,47.320233 65.7577619,48.001068 65.2791905,48.7321051 C65.1158571,48.9812027 65.020619,49.2384283 65.010619,49.5276875 C65.0025238,49.750967 64.9658571,50.0024552 65.2363333,50.1152902 C65.4758571,50.2152162 65.6963333,50.1401522 65.8463333,49.9460377 C66.6225238,48.9396067 67.5287143,47.9919838 67.4420476,46.4997886 C67.3734762,46.2999367 67.6815714,45.8557684 67.2687143,45.7615798" id="Fill-34" fill="#FFFFFF"></path>
                <path d="M40.0468095,43.8439104 C39.4825238,43.7707589 38.8972857,43.6325838 38.1515714,44.0896613 C41.8025238,44.4888869 45.0777619,45.7157286 48.543,46.0451495 C47.3544286,45.7731024 46.1396667,45.6000249 45.0796667,44.9478768 C44.3791905,44.6218027 43.6544286,44.3760519 42.8863333,44.2708667 L42.8863333,44.2708667 C41.9401429,44.1264761 40.9958571,43.9667859 40.0468095,43.8439104" id="Fill-36" fill="#FFFFFF"></path>
                <path d="M40.464,46.312798 C40.8059048,47.0428788 41.3025714,47.3742121 41.744,47.7485758 C42.254,48.1817475 42.851619,48.4222391 43.5301905,48.3667778 C43.9311429,48.334266 44.2020952,48.0650875 44.344,47.7136734 C44.4649524,47.4138956 44.2211429,47.1829663 43.9925714,47.1246364 C42.8673333,46.839202 41.7301905,46.5991886 40.464,46.312798" id="Fill-38" fill="#FFFFFF"></path>
                <path d="M56.6892857,33.6551475 L56.6892857,33.6551475 C55.4335714,32.3302923 53.7897619,31.8832552 52.0740476,31.6006896 C53.6283333,32.249969 55.2588095,32.726171 56.6892857,33.6551475" id="Fill-40" fill="#7E3A5C"></path>
                <path d="M56.6897619,33.6554343 C57.4297619,34.6283973 58.1692857,35.6008822 58.9092857,36.5738451 C58.5121429,35.3383973 57.8469048,34.3085387 56.6897619,33.6554343" id="Fill-42" fill="#7E3A5C"></path>
                <path d="M62.3073333,33.6679131 C62.8887619,34.7670983 63.4378095,35.8873205 64.3620952,36.7560545 L64.3620952,36.7565327 C63.7920952,35.6501758 63.2125714,34.5495562 62.3073333,33.6679131" id="Fill-44" fill="#86395A"></path>
            </g>
        </g>
    </g>
</svg>