<?xml version="1.0" encoding="UTF-8"?>
<svg width="100px" height="100px" viewBox="0 0 100 100" version="1.1" xmlns="http://www.w3.org/2000/svg" xmlns:xlink="http://www.w3.org/1999/xlink">
    <!-- Generator: Sketch 42 (36781) - http://www.bohemiancoding.com/sketch -->
    <title>Sierra</title>
    <desc>Created with Sketch.</desc>
    <defs></defs>
    <g id="Logo" stroke="none" stroke-width="1" fill="none" fill-rule="evenodd">
        <g id="Sierra">
            <g id="SIERRA" transform="translate(5.000000, 5.000000)">
                <path d="M47.4253753,89.8487909 C45.7523275,89.8469773 44.0792796,89.8451637 42.4064584,89.8433501 C21.9021008,88.7724181 4.42872544,73.4325189 0.753234257,53.2763728 C-2.8075466,33.7493199 6.47605542,14.5119899 23.956005,5.19642317 C41.226937,-4.00760705 62.9557028,-0.764433249 76.6921511,13.176272 C86.98933,23.6264736 91.1932594,36.2681864 89.5202116,50.784937 C87.4173401,69.034534 73.2848463,84.6004534 55.3580705,88.7012343 C52.7414962,89.2999496 50.105199,89.7125441 47.4253753,89.8487909" id="Fill-1" fill="#4A4A4A"></path>
                <path d="M69.4072519,58.112728 C74.1008539,58.6155491 78.3238262,60.0986222 82.5293426,61.6440378 C82.7413073,61.721796 82.9575793,61.7886725 83.166597,61.873005 C84.858461,62.5565063 84.977932,63.1413929 83.699796,64.4365315 C82.4794685,65.6731814 81.247806,66.8950957 79.8991662,67.9973123 C79.2011562,68.5679169 78.659796,68.6313929 77.8123904,68.1018212 C73.3828942,65.3340378 68.5575793,63.7605113 63.3017607,63.6054484 C62.9236247,63.5943401 62.6590655,63.7319471 62.3702494,63.9155743 C53.8009798,69.3615945 44.4972015,72.6219975 34.3194937,73.0982947 C29.5653627,73.3206877 24.8982846,72.7310403 20.5694433,70.5272872 C18.4305264,69.4384458 16.6756398,67.9265819 15.6545819,65.7105869 C15.3537506,65.0576902 15.0538262,65.1227531 14.5795693,65.4301587 C12.9974282,66.4559773 11.4152872,67.4815693 9.82067758,68.4872116 C9.23737783,68.8551461 8.58312091,68.9972872 8.07168514,68.4114937 C7.51241562,67.7708388 7.77969521,67.0939118 8.29679849,66.5881436 C11.5211562,63.4342897 14.901937,60.504869 19.3935491,59.2682191 C19.7206776,59.1779924 20.0480327,59.0800579 20.3817355,59.024063 C21.7618866,58.7930554 22.2137003,59.1832065 22.2105264,60.5792267 C22.2091662,61.1040378 22.2102997,61.6288489 22.2102997,62.3672116 C23.8801738,61.3325516 25.4405516,60.3958262 26.9707783,59.4121738 C31.7668489,56.3292771 36.906597,54.1921738 42.6344055,53.6474131 C43.0474534,53.608194 43.4614081,53.556733 43.8753627,53.5501587 C45.708461,53.520461 46.165262,54.0289496 45.8322393,55.7756751 C45.6418111,56.774063 45.4101234,57.76633 45.1525919,58.7497557 C44.9934484,59.3582191 45.1020378,59.5930806 45.7760176,59.4364307 C51.8209798,58.0306625 57.9797456,58.0104861 64.1337506,57.9744408 C64.8811814,57.9701335 65.2663451,57.6983199 65.6175038,57.0631058 C66.8008791,54.9228287 67.2950856,52.6136599 67.2878312,50.2113174 C67.2783098,47.0141637 65.5952872,44.8165315 62.8365718,43.3926272 C59.980602,41.9183955 56.8825164,41.2231058 53.7245819,40.8637859 C47.9131209,40.2025013 42.0866977,39.6761033 36.2741033,39.0252469 C33.0857909,38.668194 29.950073,38.0291259 26.95967,36.79633 C21.1327935,34.3939874 20.0464458,29.755927 22.4175038,24.6168589 C23.9581587,21.2775642 26.4974282,18.7301335 29.4250353,16.6068589 C37.9725416,10.4084207 47.5016599,7.05167003 58.1148589,7.09292947 C61.6223652,7.10675819 65.0060932,7.88819395 68.1123401,9.59615365 C70.6176045,10.9738111 72.3910806,12.9216196 72.7159421,15.9074887 C72.7322645,16.0575642 72.7689899,16.2092267 72.7590151,16.3577154 C72.7021134,17.2071612 72.9639521,18.3302343 72.1417103,18.7455491 C71.3512065,19.144995 70.822995,18.1207632 70.2600982,17.6342645 C66.3329698,14.2407884 61.6960428,12.5090252 56.6345063,11.7897053 C51.3068237,11.0325264 46.0097456,11.0134836 40.8947078,12.9665063 C35.8617355,14.8882443 31.8074282,17.9697809 29.5664962,23.0505869 C29.3402494,23.5636096 29.1645567,24.1101839 29.0489395,24.6590252 C28.356597,27.943005 29.5504005,29.9808136 32.9459169,31.3122242 C36.5563451,32.7279673 40.3633224,33.2856499 44.1716599,33.8061537 C50.3383602,34.6490252 56.5649093,35.0511914 62.6742544,36.3125516 C64.9265214,36.7775139 67.1388892,37.3830302 69.2501486,38.3267834 C74.0475793,40.4711411 75.7092922,43.8290252 74.5125416,48.9336348 C73.7986625,51.9793526 72.2945063,54.6006877 70.330602,56.990335 C70.0703501,57.3070353 69.8096448,57.6235088 69.4072519,58.112728" id="Fill-4" fill="#FEFEFE"></path>
                <path d="M57.8894282,63.6212494 C52.7455995,66.8236171 38.1383955,69.2153048 24.2965315,66.3577481 C25.2618212,65.5577229 26.3681184,65.1677985 27.3937103,64.6735919 C29.9037355,63.4639194 32.2586977,61.9497884 34.8478413,60.9008463 C36.5292771,60.2193854 38.231796,59.6358589 40.0832569,59.6224836 C40.9186474,59.6165894 41.3473375,59.7804937 41.1113426,60.7761612 C40.8608388,61.8337179 40.7193778,62.9266398 40.6370856,64.0120806 C40.5393778,65.3033652 40.9619471,65.6311738 42.2360025,65.4588816 C47.4507884,64.7531637 52.6197809,63.6595617 57.8894282,63.6212494" id="Fill-6" fill="#4A4A4A"></path>
                <path d="M18.1168866,63.9711385 C19.0690277,63.6220202 19.0690277,63.6220202 18.9962569,64.5202065 C18.6525793,64.417738 18.3270378,64.3084685 18.1168866,63.9711385" id="Fill-8" fill="#4A4A4A"></path>
            </g>
        </g>
    </g>
</svg>