<?xml version="1.0" encoding="UTF-8"?>
<svg width="385px" height="131px" viewBox="0 0 385 131" version="1.1" xmlns="http://www.w3.org/2000/svg" xmlns:xlink="http://www.w3.org/1999/xlink">
    <!-- Generator: Sketch 48.2 (47327) - http://www.bohemiancoding.com/sketch -->
    <title>snowflake-lg</title>
    <desc>Created with Sketch.</desc>
    <defs></defs>
    <g id="Page-1" stroke="none" stroke-width="1" fill="none" fill-rule="evenodd">
        <g id="snowflake-lg" fill="#4FB4ED" fill-rule="nonzero">
            <g id="snow" transform="translate(0.000000, 52.000000)">
                <path d="M13.9829511,7.6523208 C13.9500716,7.5372722 13.8691373,7.4404132 13.7543117,7.3799331 C13.6399919,7.3189983 13.5054386,7.302173 13.3759437,7.3317309 L10.1370528,8.1120603 L7.99482222,7.0002274 L10.1370528,5.88793972 L13.3835312,6.66963328 C13.6506145,6.72465653 13.9136511,6.5845974 13.9819395,6.35131713 C14.0173482,6.23490434 13.9996439,6.11348945 13.9323672,6.0093546 C13.8650905,5.90521974 13.7578525,5.83200701 13.6313926,5.80290381 L11.3576437,5.25449054 L13.5666452,4.10900704 C13.8008489,3.98122584 13.8787482,3.714295 13.7431832,3.50102317 C13.6071123,3.28684183 13.3010794,3.21226493 13.0623231,3.33504401 L10.8604034,4.47961802 L11.4699401,2.43420924 C11.5033255,2.31961542 11.4835978,2.19547212 11.416827,2.09315621 C11.3490445,1.98993082 11.2413006,1.91717283 11.1133232,1.8876149 C10.85231,1.82758956 10.5806741,1.96946764 10.5078332,2.20456686 L9.64031842,5.1130672 L7.49808772,6.22535485 L7.49808772,4.00077953 L9.86845202,1.87033488 C10.0581419,1.6966252 10.057636,1.41377855 9.86744032,1.23915938 C9.77335422,1.15412349 9.64790602,1.10728554 9.51436432,1.10728554 C9.38132852,1.10728554 9.25638612,1.15412349 9.16230002,1.23870464 L7.49808772,2.73479066 L7.49808772,0.44655211 C7.49808772,0.20053918 7.27400082,0 6.9988241,0 C6.72465905,0 6.50208964,0.20053918 6.50208964,0.44655211 L6.50208964,2.73479066 L4.83838326,1.23915938 C4.74429711,1.15412349 4.61884888,1.10728554 4.48530722,1.10728554 C4.35227143,1.10728554 4.2268232,1.15457824 4.13121954,1.24052359 C3.94203553,1.41423328 3.9430472,1.69707995 4.13324286,1.87169909 L6.50208964,4.00077953 L6.50208964,6.22535485 L4.35935318,5.1130672 L3.49133246,2.20183844 C3.41899739,1.96855816 3.14786739,1.82758956 2.88685416,1.8876149 C2.62128837,1.94854972 2.46144307,2.19456264 2.5297314,2.4360282 L3.13977396,4.48007276 L0.934313382,3.33458928 C0.695557082,3.21226493 0.397111721,3.28502289 0.254464961,3.50102317 C0.11839412,3.71565919 0.19932845,3.98395426 0.439096441,4.11173547 L2.64253364,5.25449054 L0.373337291,5.80199433 C0.244854031,5.83109753 0.13660436,5.90340078 0.0693277002,6.00617145 C0.0015452,6.10894207 -0.01767672,6.23490434 0.01672039,6.35268132 C0.0769152802,6.54685419 0.274192721,6.68191121 0.496256301,6.68191121 C0.538240971,6.68191121 0.579213981,6.67736383 0.626762901,6.66735961 L3.86059535,5.88793972 L6.00484931,7.0002274 L3.8626187,8.1120603 L0.624739561,7.3321857 C0.497267981,7.302173 0.358162091,7.319453 0.244348181,7.3803878 C0.13154596,7.4404132 0.0490941101,7.5381817 0.01874374,7.6473187 C-0.01717089,7.762822 2.76700001e-05,7.8837821 0.0667985002,7.9888265 C0.1330635,8.0920518 0.242830661,8.167993 0.368784721,8.1975509 L2.64253364,8.7455095 L0.436061381,9.8900835 C0.19932845,10.0160457 0.11889995,10.2897976 0.256994181,10.4989768 C0.346527781,10.6394907 0.508396451,10.7236171 0.689487022,10.7236171 C0.776491442,10.7236171 0.861978302,10.7036087 0.937854252,10.664956 L3.14179731,9.5199272 L2.53276643,11.5626076 C2.49735766,11.6776562 2.51506207,11.799071 2.58233873,11.9036606 C2.64809788,12.0059765 2.75381835,12.079644 2.87825489,12.1101114 C2.92125125,12.1219346 2.96525929,12.1273914 3.01331405,12.1273914 C3.23386011,12.1273914 3.43164338,11.991425 3.49487332,11.7954331 L4.35985901,8.8864781 L6.50208964,7.7746451 L6.50208964,9.9992205 L4.13526625,12.1283009 C3.94102385,12.3029201 3.94102385,12.5866762 4.13526625,12.7612954 C4.22935238,12.8458765 4.35429478,12.8927145 4.48834227,12.8927145 C4.62188391,12.8922597 4.74632045,12.8458765 4.83990077,12.7612954 L6.50208964,11.2656641 L6.50208964,13.5534479 C6.50208964,13.7999155 6.72567073,14 7.00084742,14 C7.27501252,14 7.49808772,13.7999155 7.49808772,13.5534479 L7.49808772,11.2652093 L9.16128832,12.7603859 C9.25537442,12.8458765 9.38082272,12.8927145 9.51335262,12.8927145 C9.64790602,12.8927145 9.77335422,12.8458765 9.86642872,12.7612954 C10.0606711,12.5866762 10.0606711,12.3029201 9.86642872,12.1283009 L7.49808772,9.9992205 L7.49808772,7.7750999 L9.64031842,8.8887517 L10.5068215,11.799071 C10.5675223,11.9923344 10.7647998,12.1273914 10.9868633,12.1273914 C11.0344122,12.1273914 11.0784203,12.1219346 11.1198991,12.1105661 C11.246359,12.0800987 11.3520795,12.006886 11.4178386,11.9050248 C11.4846095,11.8017995 11.5028197,11.6776562 11.4679168,11.5639718 L10.8583801,9.5217462 L13.0648523,10.6663202 C13.1407283,10.7049729 13.2257093,10.7249813 13.3106904,10.7249813 C13.4902634,10.7249813 13.6511204,10.6413096 13.7421715,10.5007958 C13.8787482,10.2897976 13.7978139,10.0151363 13.5610809,9.8882645 L11.3576437,8.7455095 L13.6293693,8.1980057 C13.7583584,8.1675382 13.8661022,8.0934161 13.9333789,7.9888265 C13.999138,7.8856011 14.0173482,7.762822 13.9829511,7.6523208" id="Page-1"></path>
            </g>
            <g id="snow-copy" transform="translate(96.000000, 117.000000)">
                <path d="M13.9829511,7.6523208 C13.9500716,7.5372722 13.8691373,7.4404132 13.7543117,7.3799331 C13.6399919,7.3189983 13.5054386,7.302173 13.3759437,7.3317309 L10.1370528,8.1120603 L7.99482222,7.0002274 L10.1370528,5.88793972 L13.3835312,6.66963328 C13.6506145,6.72465653 13.9136511,6.5845974 13.9819395,6.35131713 C14.0173482,6.23490434 13.9996439,6.11348945 13.9323672,6.0093546 C13.8650905,5.90521974 13.7578525,5.83200701 13.6313926,5.80290381 L11.3576437,5.25449054 L13.5666452,4.10900704 C13.8008489,3.98122584 13.8787482,3.714295 13.7431832,3.50102317 C13.6071123,3.28684183 13.3010794,3.21226493 13.0623231,3.33504401 L10.8604034,4.47961802 L11.4699401,2.43420924 C11.5033255,2.31961542 11.4835978,2.19547212 11.416827,2.09315621 C11.3490445,1.98993082 11.2413006,1.91717283 11.1133232,1.8876149 C10.85231,1.82758956 10.5806741,1.96946764 10.5078332,2.20456686 L9.64031842,5.1130672 L7.49808772,6.22535485 L7.49808772,4.00077953 L9.86845202,1.87033488 C10.0581419,1.6966252 10.057636,1.41377855 9.86744032,1.23915938 C9.77335422,1.15412349 9.64790602,1.10728554 9.51436432,1.10728554 C9.38132852,1.10728554 9.25638612,1.15412349 9.16230002,1.23870464 L7.49808772,2.73479066 L7.49808772,0.44655211 C7.49808772,0.20053918 7.27400082,0 6.9988241,0 C6.72465905,0 6.50208964,0.20053918 6.50208964,0.44655211 L6.50208964,2.73479066 L4.83838326,1.23915938 C4.74429711,1.15412349 4.61884888,1.10728554 4.48530722,1.10728554 C4.35227143,1.10728554 4.2268232,1.15457824 4.13121954,1.24052359 C3.94203553,1.41423328 3.9430472,1.69707995 4.13324286,1.87169909 L6.50208964,4.00077953 L6.50208964,6.22535485 L4.35935318,5.1130672 L3.49133246,2.20183844 C3.41899739,1.96855816 3.14786739,1.82758956 2.88685416,1.8876149 C2.62128837,1.94854972 2.46144307,2.19456264 2.5297314,2.4360282 L3.13977396,4.48007276 L0.934313382,3.33458928 C0.695557082,3.21226493 0.397111721,3.28502289 0.254464961,3.50102317 C0.11839412,3.71565919 0.19932845,3.98395426 0.439096441,4.11173547 L2.64253364,5.25449054 L0.373337291,5.80199433 C0.244854031,5.83109753 0.13660436,5.90340078 0.0693277002,6.00617145 C0.0015452,6.10894207 -0.01767672,6.23490434 0.01672039,6.35268132 C0.0769152802,6.54685419 0.274192721,6.68191121 0.496256301,6.68191121 C0.538240971,6.68191121 0.579213981,6.67736383 0.626762901,6.66735961 L3.86059535,5.88793972 L6.00484931,7.0002274 L3.8626187,8.1120603 L0.624739561,7.3321857 C0.497267981,7.302173 0.358162091,7.319453 0.244348181,7.3803878 C0.13154596,7.4404132 0.0490941101,7.5381817 0.01874374,7.6473187 C-0.01717089,7.762822 2.76700001e-05,7.8837821 0.0667985002,7.9888265 C0.1330635,8.0920518 0.242830661,8.167993 0.368784721,8.1975509 L2.64253364,8.7455095 L0.436061381,9.8900835 C0.19932845,10.0160457 0.11889995,10.2897976 0.256994181,10.4989768 C0.346527781,10.6394907 0.508396451,10.7236171 0.689487022,10.7236171 C0.776491442,10.7236171 0.861978302,10.7036087 0.937854252,10.664956 L3.14179731,9.5199272 L2.53276643,11.5626076 C2.49735766,11.6776562 2.51506207,11.799071 2.58233873,11.9036606 C2.64809788,12.0059765 2.75381835,12.079644 2.87825489,12.1101114 C2.92125125,12.1219346 2.96525929,12.1273914 3.01331405,12.1273914 C3.23386011,12.1273914 3.43164338,11.991425 3.49487332,11.7954331 L4.35985901,8.8864781 L6.50208964,7.7746451 L6.50208964,9.9992205 L4.13526625,12.1283009 C3.94102385,12.3029201 3.94102385,12.5866762 4.13526625,12.7612954 C4.22935238,12.8458765 4.35429478,12.8927145 4.48834227,12.8927145 C4.62188391,12.8922597 4.74632045,12.8458765 4.83990077,12.7612954 L6.50208964,11.2656641 L6.50208964,13.5534479 C6.50208964,13.7999155 6.72567073,14 7.00084742,14 C7.27501252,14 7.49808772,13.7999155 7.49808772,13.5534479 L7.49808772,11.2652093 L9.16128832,12.7603859 C9.25537442,12.8458765 9.38082272,12.8927145 9.51335262,12.8927145 C9.64790602,12.8927145 9.77335422,12.8458765 9.86642872,12.7612954 C10.0606711,12.5866762 10.0606711,12.3029201 9.86642872,12.1283009 L7.49808772,9.9992205 L7.49808772,7.7750999 L9.64031842,8.8887517 L10.5068215,11.799071 C10.5675223,11.9923344 10.7647998,12.1273914 10.9868633,12.1273914 C11.0344122,12.1273914 11.0784203,12.1219346 11.1198991,12.1105661 C11.246359,12.0800987 11.3520795,12.006886 11.4178386,11.9050248 C11.4846095,11.8017995 11.5028197,11.6776562 11.4679168,11.5639718 L10.8583801,9.5217462 L13.0648523,10.6663202 C13.1407283,10.7049729 13.2257093,10.7249813 13.3106904,10.7249813 C13.4902634,10.7249813 13.6511204,10.6413096 13.7421715,10.5007958 C13.8787482,10.2897976 13.7978139,10.0151363 13.5610809,9.8882645 L11.3576437,8.7455095 L13.6293693,8.1980057 C13.7583584,8.1675382 13.8661022,8.0934161 13.9333789,7.9888265 C13.999138,7.8856011 14.0173482,7.762822 13.9829511,7.6523208" id="Page-1"></path>
            </g>
            <g id="snow-copy-2" transform="translate(297.000000, 88.000000)">
                <path d="M13.9829511,7.6523208 C13.9500716,7.5372722 13.8691373,7.4404132 13.7543117,7.3799331 C13.6399919,7.3189983 13.5054386,7.302173 13.3759437,7.3317309 L10.1370528,8.1120603 L7.99482222,7.0002274 L10.1370528,5.88793972 L13.3835312,6.66963328 C13.6506145,6.72465653 13.9136511,6.5845974 13.9819395,6.35131713 C14.0173482,6.23490434 13.9996439,6.11348945 13.9323672,6.0093546 C13.8650905,5.90521974 13.7578525,5.83200701 13.6313926,5.80290381 L11.3576437,5.25449054 L13.5666452,4.10900704 C13.8008489,3.98122584 13.8787482,3.714295 13.7431832,3.50102317 C13.6071123,3.28684183 13.3010794,3.21226493 13.0623231,3.33504401 L10.8604034,4.47961802 L11.4699401,2.43420924 C11.5033255,2.31961542 11.4835978,2.19547212 11.416827,2.09315621 C11.3490445,1.98993082 11.2413006,1.91717283 11.1133232,1.8876149 C10.85231,1.82758956 10.5806741,1.96946764 10.5078332,2.20456686 L9.64031842,5.1130672 L7.49808772,6.22535485 L7.49808772,4.00077953 L9.86845202,1.87033488 C10.0581419,1.6966252 10.057636,1.41377855 9.86744032,1.23915938 C9.77335422,1.15412349 9.64790602,1.10728554 9.51436432,1.10728554 C9.38132852,1.10728554 9.25638612,1.15412349 9.16230002,1.23870464 L7.49808772,2.73479066 L7.49808772,0.44655211 C7.49808772,0.20053918 7.27400082,0 6.9988241,0 C6.72465905,0 6.50208964,0.20053918 6.50208964,0.44655211 L6.50208964,2.73479066 L4.83838326,1.23915938 C4.74429711,1.15412349 4.61884888,1.10728554 4.48530722,1.10728554 C4.35227143,1.10728554 4.2268232,1.15457824 4.13121954,1.24052359 C3.94203553,1.41423328 3.9430472,1.69707995 4.13324286,1.87169909 L6.50208964,4.00077953 L6.50208964,6.22535485 L4.35935318,5.1130672 L3.49133246,2.20183844 C3.41899739,1.96855816 3.14786739,1.82758956 2.88685416,1.8876149 C2.62128837,1.94854972 2.46144307,2.19456264 2.5297314,2.4360282 L3.13977396,4.48007276 L0.934313382,3.33458928 C0.695557082,3.21226493 0.397111721,3.28502289 0.254464961,3.50102317 C0.11839412,3.71565919 0.19932845,3.98395426 0.439096441,4.11173547 L2.64253364,5.25449054 L0.373337291,5.80199433 C0.244854031,5.83109753 0.13660436,5.90340078 0.0693277002,6.00617145 C0.0015452,6.10894207 -0.01767672,6.23490434 0.01672039,6.35268132 C0.0769152802,6.54685419 0.274192721,6.68191121 0.496256301,6.68191121 C0.538240971,6.68191121 0.579213981,6.67736383 0.626762901,6.66735961 L3.86059535,5.88793972 L6.00484931,7.0002274 L3.8626187,8.1120603 L0.624739561,7.3321857 C0.497267981,7.302173 0.358162091,7.319453 0.244348181,7.3803878 C0.13154596,7.4404132 0.0490941101,7.5381817 0.01874374,7.6473187 C-0.01717089,7.762822 2.76700001e-05,7.8837821 0.0667985002,7.9888265 C0.1330635,8.0920518 0.242830661,8.167993 0.368784721,8.1975509 L2.64253364,8.7455095 L0.436061381,9.8900835 C0.19932845,10.0160457 0.11889995,10.2897976 0.256994181,10.4989768 C0.346527781,10.6394907 0.508396451,10.7236171 0.689487022,10.7236171 C0.776491442,10.7236171 0.861978302,10.7036087 0.937854252,10.664956 L3.14179731,9.5199272 L2.53276643,11.5626076 C2.49735766,11.6776562 2.51506207,11.799071 2.58233873,11.9036606 C2.64809788,12.0059765 2.75381835,12.079644 2.87825489,12.1101114 C2.92125125,12.1219346 2.96525929,12.1273914 3.01331405,12.1273914 C3.23386011,12.1273914 3.43164338,11.991425 3.49487332,11.7954331 L4.35985901,8.8864781 L6.50208964,7.7746451 L6.50208964,9.9992205 L4.13526625,12.1283009 C3.94102385,12.3029201 3.94102385,12.5866762 4.13526625,12.7612954 C4.22935238,12.8458765 4.35429478,12.8927145 4.48834227,12.8927145 C4.62188391,12.8922597 4.74632045,12.8458765 4.83990077,12.7612954 L6.50208964,11.2656641 L6.50208964,13.5534479 C6.50208964,13.7999155 6.72567073,14 7.00084742,14 C7.27501252,14 7.49808772,13.7999155 7.49808772,13.5534479 L7.49808772,11.2652093 L9.16128832,12.7603859 C9.25537442,12.8458765 9.38082272,12.8927145 9.51335262,12.8927145 C9.64790602,12.8927145 9.77335422,12.8458765 9.86642872,12.7612954 C10.0606711,12.5866762 10.0606711,12.3029201 9.86642872,12.1283009 L7.49808772,9.9992205 L7.49808772,7.7750999 L9.64031842,8.8887517 L10.5068215,11.799071 C10.5675223,11.9923344 10.7647998,12.1273914 10.9868633,12.1273914 C11.0344122,12.1273914 11.0784203,12.1219346 11.1198991,12.1105661 C11.246359,12.0800987 11.3520795,12.006886 11.4178386,11.9050248 C11.4846095,11.8017995 11.5028197,11.6776562 11.4679168,11.5639718 L10.8583801,9.5217462 L13.0648523,10.6663202 C13.1407283,10.7049729 13.2257093,10.7249813 13.3106904,10.7249813 C13.4902634,10.7249813 13.6511204,10.6413096 13.7421715,10.5007958 C13.8787482,10.2897976 13.7978139,10.0151363 13.5610809,9.8882645 L11.3576437,8.7455095 L13.6293693,8.1980057 C13.7583584,8.1675382 13.8661022,8.0934161 13.9333789,7.9888265 C13.999138,7.8856011 14.0173482,7.762822 13.9829511,7.6523208" id="Page-1"></path>
            </g>
            <g id="snow-copy-5" transform="translate(371.000000, 44.000000)">
                <path d="M13.9829511,7.6523208 C13.9500716,7.5372722 13.8691373,7.4404132 13.7543117,7.3799331 C13.6399919,7.3189983 13.5054386,7.302173 13.3759437,7.3317309 L10.1370528,8.1120603 L7.99482222,7.0002274 L10.1370528,5.88793972 L13.3835312,6.66963328 C13.6506145,6.72465653 13.9136511,6.5845974 13.9819395,6.35131713 C14.0173482,6.23490434 13.9996439,6.11348945 13.9323672,6.0093546 C13.8650905,5.90521974 13.7578525,5.83200701 13.6313926,5.80290381 L11.3576437,5.25449054 L13.5666452,4.10900704 C13.8008489,3.98122584 13.8787482,3.714295 13.7431832,3.50102317 C13.6071123,3.28684183 13.3010794,3.21226493 13.0623231,3.33504401 L10.8604034,4.47961802 L11.4699401,2.43420924 C11.5033255,2.31961542 11.4835978,2.19547212 11.416827,2.09315621 C11.3490445,1.98993082 11.2413006,1.91717283 11.1133232,1.8876149 C10.85231,1.82758956 10.5806741,1.96946764 10.5078332,2.20456686 L9.64031842,5.1130672 L7.49808772,6.22535485 L7.49808772,4.00077953 L9.86845202,1.87033488 C10.0581419,1.6966252 10.057636,1.41377855 9.86744032,1.23915938 C9.77335422,1.15412349 9.64790602,1.10728554 9.51436432,1.10728554 C9.38132852,1.10728554 9.25638612,1.15412349 9.16230002,1.23870464 L7.49808772,2.73479066 L7.49808772,0.44655211 C7.49808772,0.20053918 7.27400082,0 6.9988241,0 C6.72465905,0 6.50208964,0.20053918 6.50208964,0.44655211 L6.50208964,2.73479066 L4.83838326,1.23915938 C4.74429711,1.15412349 4.61884888,1.10728554 4.48530722,1.10728554 C4.35227143,1.10728554 4.2268232,1.15457824 4.13121954,1.24052359 C3.94203553,1.41423328 3.9430472,1.69707995 4.13324286,1.87169909 L6.50208964,4.00077953 L6.50208964,6.22535485 L4.35935318,5.1130672 L3.49133246,2.20183844 C3.41899739,1.96855816 3.14786739,1.82758956 2.88685416,1.8876149 C2.62128837,1.94854972 2.46144307,2.19456264 2.5297314,2.4360282 L3.13977396,4.48007276 L0.934313382,3.33458928 C0.695557082,3.21226493 0.397111721,3.28502289 0.254464961,3.50102317 C0.11839412,3.71565919 0.19932845,3.98395426 0.439096441,4.11173547 L2.64253364,5.25449054 L0.373337291,5.80199433 C0.244854031,5.83109753 0.13660436,5.90340078 0.0693277002,6.00617145 C0.0015452,6.10894207 -0.01767672,6.23490434 0.01672039,6.35268132 C0.0769152802,6.54685419 0.274192721,6.68191121 0.496256301,6.68191121 C0.538240971,6.68191121 0.579213981,6.67736383 0.626762901,6.66735961 L3.86059535,5.88793972 L6.00484931,7.0002274 L3.8626187,8.1120603 L0.624739561,7.3321857 C0.497267981,7.302173 0.358162091,7.319453 0.244348181,7.3803878 C0.13154596,7.4404132 0.0490941101,7.5381817 0.01874374,7.6473187 C-0.01717089,7.762822 2.76700001e-05,7.8837821 0.0667985002,7.9888265 C0.1330635,8.0920518 0.242830661,8.167993 0.368784721,8.1975509 L2.64253364,8.7455095 L0.436061381,9.8900835 C0.19932845,10.0160457 0.11889995,10.2897976 0.256994181,10.4989768 C0.346527781,10.6394907 0.508396451,10.7236171 0.689487022,10.7236171 C0.776491442,10.7236171 0.861978302,10.7036087 0.937854252,10.664956 L3.14179731,9.5199272 L2.53276643,11.5626076 C2.49735766,11.6776562 2.51506207,11.799071 2.58233873,11.9036606 C2.64809788,12.0059765 2.75381835,12.079644 2.87825489,12.1101114 C2.92125125,12.1219346 2.96525929,12.1273914 3.01331405,12.1273914 C3.23386011,12.1273914 3.43164338,11.991425 3.49487332,11.7954331 L4.35985901,8.8864781 L6.50208964,7.7746451 L6.50208964,9.9992205 L4.13526625,12.1283009 C3.94102385,12.3029201 3.94102385,12.5866762 4.13526625,12.7612954 C4.22935238,12.8458765 4.35429478,12.8927145 4.48834227,12.8927145 C4.62188391,12.8922597 4.74632045,12.8458765 4.83990077,12.7612954 L6.50208964,11.2656641 L6.50208964,13.5534479 C6.50208964,13.7999155 6.72567073,14 7.00084742,14 C7.27501252,14 7.49808772,13.7999155 7.49808772,13.5534479 L7.49808772,11.2652093 L9.16128832,12.7603859 C9.25537442,12.8458765 9.38082272,12.8927145 9.51335262,12.8927145 C9.64790602,12.8927145 9.77335422,12.8458765 9.86642872,12.7612954 C10.0606711,12.5866762 10.0606711,12.3029201 9.86642872,12.1283009 L7.49808772,9.9992205 L7.49808772,7.7750999 L9.64031842,8.8887517 L10.5068215,11.799071 C10.5675223,11.9923344 10.7647998,12.1273914 10.9868633,12.1273914 C11.0344122,12.1273914 11.0784203,12.1219346 11.1198991,12.1105661 C11.246359,12.0800987 11.3520795,12.006886 11.4178386,11.9050248 C11.4846095,11.8017995 11.5028197,11.6776562 11.4679168,11.5639718 L10.8583801,9.5217462 L13.0648523,10.6663202 C13.1407283,10.7049729 13.2257093,10.7249813 13.3106904,10.7249813 C13.4902634,10.7249813 13.6511204,10.6413096 13.7421715,10.5007958 C13.8787482,10.2897976 13.7978139,10.0151363 13.5610809,9.8882645 L11.3576437,8.7455095 L13.6293693,8.1980057 C13.7583584,8.1675382 13.8661022,8.0934161 13.9333789,7.9888265 C13.999138,7.8856011 14.0173482,7.762822 13.9829511,7.6523208" id="Page-1"></path>
            </g>
            <g id="snow-copy-3" transform="translate(271.000000, 0.000000)">
                <path d="M13.9829511,7.6523208 C13.9500716,7.5372722 13.8691373,7.4404132 13.7543117,7.3799331 C13.6399919,7.3189983 13.5054386,7.302173 13.3759437,7.3317309 L10.1370528,8.1120603 L7.99482222,7.0002274 L10.1370528,5.88793972 L13.3835312,6.66963328 C13.6506145,6.72465653 13.9136511,6.5845974 13.9819395,6.35131713 C14.0173482,6.23490434 13.9996439,6.11348945 13.9323672,6.0093546 C13.8650905,5.90521974 13.7578525,5.83200701 13.6313926,5.80290381 L11.3576437,5.25449054 L13.5666452,4.10900704 C13.8008489,3.98122584 13.8787482,3.714295 13.7431832,3.50102317 C13.6071123,3.28684183 13.3010794,3.21226493 13.0623231,3.33504401 L10.8604034,4.47961802 L11.4699401,2.43420924 C11.5033255,2.31961542 11.4835978,2.19547212 11.416827,2.09315621 C11.3490445,1.98993082 11.2413006,1.91717283 11.1133232,1.8876149 C10.85231,1.82758956 10.5806741,1.96946764 10.5078332,2.20456686 L9.64031842,5.1130672 L7.49808772,6.22535485 L7.49808772,4.00077953 L9.86845202,1.87033488 C10.0581419,1.6966252 10.057636,1.41377855 9.86744032,1.23915938 C9.77335422,1.15412349 9.64790602,1.10728554 9.51436432,1.10728554 C9.38132852,1.10728554 9.25638612,1.15412349 9.16230002,1.23870464 L7.49808772,2.73479066 L7.49808772,0.44655211 C7.49808772,0.20053918 7.27400082,0 6.9988241,0 C6.72465905,0 6.50208964,0.20053918 6.50208964,0.44655211 L6.50208964,2.73479066 L4.83838326,1.23915938 C4.74429711,1.15412349 4.61884888,1.10728554 4.48530722,1.10728554 C4.35227143,1.10728554 4.2268232,1.15457824 4.13121954,1.24052359 C3.94203553,1.41423328 3.9430472,1.69707995 4.13324286,1.87169909 L6.50208964,4.00077953 L6.50208964,6.22535485 L4.35935318,5.1130672 L3.49133246,2.20183844 C3.41899739,1.96855816 3.14786739,1.82758956 2.88685416,1.8876149 C2.62128837,1.94854972 2.46144307,2.19456264 2.5297314,2.4360282 L3.13977396,4.48007276 L0.934313382,3.33458928 C0.695557082,3.21226493 0.397111721,3.28502289 0.254464961,3.50102317 C0.11839412,3.71565919 0.19932845,3.98395426 0.439096441,4.11173547 L2.64253364,5.25449054 L0.373337291,5.80199433 C0.244854031,5.83109753 0.13660436,5.90340078 0.0693277002,6.00617145 C0.0015452,6.10894207 -0.01767672,6.23490434 0.01672039,6.35268132 C0.0769152802,6.54685419 0.274192721,6.68191121 0.496256301,6.68191121 C0.538240971,6.68191121 0.579213981,6.67736383 0.626762901,6.66735961 L3.86059535,5.88793972 L6.00484931,7.0002274 L3.8626187,8.1120603 L0.624739561,7.3321857 C0.497267981,7.302173 0.358162091,7.319453 0.244348181,7.3803878 C0.13154596,7.4404132 0.0490941101,7.5381817 0.01874374,7.6473187 C-0.01717089,7.762822 2.76700001e-05,7.8837821 0.0667985002,7.9888265 C0.1330635,8.0920518 0.242830661,8.167993 0.368784721,8.1975509 L2.64253364,8.7455095 L0.436061381,9.8900835 C0.19932845,10.0160457 0.11889995,10.2897976 0.256994181,10.4989768 C0.346527781,10.6394907 0.508396451,10.7236171 0.689487022,10.7236171 C0.776491442,10.7236171 0.861978302,10.7036087 0.937854252,10.664956 L3.14179731,9.5199272 L2.53276643,11.5626076 C2.49735766,11.6776562 2.51506207,11.799071 2.58233873,11.9036606 C2.64809788,12.0059765 2.75381835,12.079644 2.87825489,12.1101114 C2.92125125,12.1219346 2.96525929,12.1273914 3.01331405,12.1273914 C3.23386011,12.1273914 3.43164338,11.991425 3.49487332,11.7954331 L4.35985901,8.8864781 L6.50208964,7.7746451 L6.50208964,9.9992205 L4.13526625,12.1283009 C3.94102385,12.3029201 3.94102385,12.5866762 4.13526625,12.7612954 C4.22935238,12.8458765 4.35429478,12.8927145 4.48834227,12.8927145 C4.62188391,12.8922597 4.74632045,12.8458765 4.83990077,12.7612954 L6.50208964,11.2656641 L6.50208964,13.5534479 C6.50208964,13.7999155 6.72567073,14 7.00084742,14 C7.27501252,14 7.49808772,13.7999155 7.49808772,13.5534479 L7.49808772,11.2652093 L9.16128832,12.7603859 C9.25537442,12.8458765 9.38082272,12.8927145 9.51335262,12.8927145 C9.64790602,12.8927145 9.77335422,12.8458765 9.86642872,12.7612954 C10.0606711,12.5866762 10.0606711,12.3029201 9.86642872,12.1283009 L7.49808772,9.9992205 L7.49808772,7.7750999 L9.64031842,8.8887517 L10.5068215,11.799071 C10.5675223,11.9923344 10.7647998,12.1273914 10.9868633,12.1273914 C11.0344122,12.1273914 11.0784203,12.1219346 11.1198991,12.1105661 C11.246359,12.0800987 11.3520795,12.006886 11.4178386,11.9050248 C11.4846095,11.8017995 11.5028197,11.6776562 11.4679168,11.5639718 L10.8583801,9.5217462 L13.0648523,10.6663202 C13.1407283,10.7049729 13.2257093,10.7249813 13.3106904,10.7249813 C13.4902634,10.7249813 13.6511204,10.6413096 13.7421715,10.5007958 C13.8787482,10.2897976 13.7978139,10.0151363 13.5610809,9.8882645 L11.3576437,8.7455095 L13.6293693,8.1980057 C13.7583584,8.1675382 13.8661022,8.0934161 13.9333789,7.9888265 C13.999138,7.8856011 14.0173482,7.762822 13.9829511,7.6523208" id="Page-1"></path>
            </g>
            <g id="snow-copy-3-copy" transform="translate(227.000000, 58.000000)">
                <path d="M13.9829511,7.6523208 C13.9500716,7.5372722 13.8691373,7.4404132 13.7543117,7.3799331 C13.6399919,7.3189983 13.5054386,7.302173 13.3759437,7.3317309 L10.1370528,8.1120603 L7.99482222,7.0002274 L10.1370528,5.88793972 L13.3835312,6.66963328 C13.6506145,6.72465653 13.9136511,6.5845974 13.9819395,6.35131713 C14.0173482,6.23490434 13.9996439,6.11348945 13.9323672,6.0093546 C13.8650905,5.90521974 13.7578525,5.83200701 13.6313926,5.80290381 L11.3576437,5.25449054 L13.5666452,4.10900704 C13.8008489,3.98122584 13.8787482,3.714295 13.7431832,3.50102317 C13.6071123,3.28684183 13.3010794,3.21226493 13.0623231,3.33504401 L10.8604034,4.47961802 L11.4699401,2.43420924 C11.5033255,2.31961542 11.4835978,2.19547212 11.416827,2.09315621 C11.3490445,1.98993082 11.2413006,1.91717283 11.1133232,1.8876149 C10.85231,1.82758956 10.5806741,1.96946764 10.5078332,2.20456686 L9.64031842,5.1130672 L7.49808772,6.22535485 L7.49808772,4.00077953 L9.86845202,1.87033488 C10.0581419,1.6966252 10.057636,1.41377855 9.86744032,1.23915938 C9.77335422,1.15412349 9.64790602,1.10728554 9.51436432,1.10728554 C9.38132852,1.10728554 9.25638612,1.15412349 9.16230002,1.23870464 L7.49808772,2.73479066 L7.49808772,0.44655211 C7.49808772,0.20053918 7.27400082,0 6.9988241,0 C6.72465905,0 6.50208964,0.20053918 6.50208964,0.44655211 L6.50208964,2.73479066 L4.83838326,1.23915938 C4.74429711,1.15412349 4.61884888,1.10728554 4.48530722,1.10728554 C4.35227143,1.10728554 4.2268232,1.15457824 4.13121954,1.24052359 C3.94203553,1.41423328 3.9430472,1.69707995 4.13324286,1.87169909 L6.50208964,4.00077953 L6.50208964,6.22535485 L4.35935318,5.1130672 L3.49133246,2.20183844 C3.41899739,1.96855816 3.14786739,1.82758956 2.88685416,1.8876149 C2.62128837,1.94854972 2.46144307,2.19456264 2.5297314,2.4360282 L3.13977396,4.48007276 L0.934313382,3.33458928 C0.695557082,3.21226493 0.397111721,3.28502289 0.254464961,3.50102317 C0.11839412,3.71565919 0.19932845,3.98395426 0.439096441,4.11173547 L2.64253364,5.25449054 L0.373337291,5.80199433 C0.244854031,5.83109753 0.13660436,5.90340078 0.0693277002,6.00617145 C0.0015452,6.10894207 -0.01767672,6.23490434 0.01672039,6.35268132 C0.0769152802,6.54685419 0.274192721,6.68191121 0.496256301,6.68191121 C0.538240971,6.68191121 0.579213981,6.67736383 0.626762901,6.66735961 L3.86059535,5.88793972 L6.00484931,7.0002274 L3.8626187,8.1120603 L0.624739561,7.3321857 C0.497267981,7.302173 0.358162091,7.319453 0.244348181,7.3803878 C0.13154596,7.4404132 0.0490941101,7.5381817 0.01874374,7.6473187 C-0.01717089,7.762822 2.76700001e-05,7.8837821 0.0667985002,7.9888265 C0.1330635,8.0920518 0.242830661,8.167993 0.368784721,8.1975509 L2.64253364,8.7455095 L0.436061381,9.8900835 C0.19932845,10.0160457 0.11889995,10.2897976 0.256994181,10.4989768 C0.346527781,10.6394907 0.508396451,10.7236171 0.689487022,10.7236171 C0.776491442,10.7236171 0.861978302,10.7036087 0.937854252,10.664956 L3.14179731,9.5199272 L2.53276643,11.5626076 C2.49735766,11.6776562 2.51506207,11.799071 2.58233873,11.9036606 C2.64809788,12.0059765 2.75381835,12.079644 2.87825489,12.1101114 C2.92125125,12.1219346 2.96525929,12.1273914 3.01331405,12.1273914 C3.23386011,12.1273914 3.43164338,11.991425 3.49487332,11.7954331 L4.35985901,8.8864781 L6.50208964,7.7746451 L6.50208964,9.9992205 L4.13526625,12.1283009 C3.94102385,12.3029201 3.94102385,12.5866762 4.13526625,12.7612954 C4.22935238,12.8458765 4.35429478,12.8927145 4.48834227,12.8927145 C4.62188391,12.8922597 4.74632045,12.8458765 4.83990077,12.7612954 L6.50208964,11.2656641 L6.50208964,13.5534479 C6.50208964,13.7999155 6.72567073,14 7.00084742,14 C7.27501252,14 7.49808772,13.7999155 7.49808772,13.5534479 L7.49808772,11.2652093 L9.16128832,12.7603859 C9.25537442,12.8458765 9.38082272,12.8927145 9.51335262,12.8927145 C9.64790602,12.8927145 9.77335422,12.8458765 9.86642872,12.7612954 C10.0606711,12.5866762 10.0606711,12.3029201 9.86642872,12.1283009 L7.49808772,9.9992205 L7.49808772,7.7750999 L9.64031842,8.8887517 L10.5068215,11.799071 C10.5675223,11.9923344 10.7647998,12.1273914 10.9868633,12.1273914 C11.0344122,12.1273914 11.0784203,12.1219346 11.1198991,12.1105661 C11.246359,12.0800987 11.3520795,12.006886 11.4178386,11.9050248 C11.4846095,11.8017995 11.5028197,11.6776562 11.4679168,11.5639718 L10.8583801,9.5217462 L13.0648523,10.6663202 C13.1407283,10.7049729 13.2257093,10.7249813 13.3106904,10.7249813 C13.4902634,10.7249813 13.6511204,10.6413096 13.7421715,10.5007958 C13.8787482,10.2897976 13.7978139,10.0151363 13.5610809,9.8882645 L11.3576437,8.7455095 L13.6293693,8.1980057 C13.7583584,8.1675382 13.8661022,8.0934161 13.9333789,7.9888265 C13.999138,7.8856011 14.0173482,7.762822 13.9829511,7.6523208" id="Page-1"></path>
            </g>
            <g id="snow-copy-4" transform="translate(131.000000, 26.000000)">
                <path d="M13.9829511,7.6523208 C13.9500716,7.5372722 13.8691373,7.4404132 13.7543117,7.3799331 C13.6399919,7.3189983 13.5054386,7.302173 13.3759437,7.3317309 L10.1370528,8.1120603 L7.99482222,7.0002274 L10.1370528,5.88793972 L13.3835312,6.66963328 C13.6506145,6.72465653 13.9136511,6.5845974 13.9819395,6.35131713 C14.0173482,6.23490434 13.9996439,6.11348945 13.9323672,6.0093546 C13.8650905,5.90521974 13.7578525,5.83200701 13.6313926,5.80290381 L11.3576437,5.25449054 L13.5666452,4.10900704 C13.8008489,3.98122584 13.8787482,3.714295 13.7431832,3.50102317 C13.6071123,3.28684183 13.3010794,3.21226493 13.0623231,3.33504401 L10.8604034,4.47961802 L11.4699401,2.43420924 C11.5033255,2.31961542 11.4835978,2.19547212 11.416827,2.09315621 C11.3490445,1.98993082 11.2413006,1.91717283 11.1133232,1.8876149 C10.85231,1.82758956 10.5806741,1.96946764 10.5078332,2.20456686 L9.64031842,5.1130672 L7.49808772,6.22535485 L7.49808772,4.00077953 L9.86845202,1.87033488 C10.0581419,1.6966252 10.057636,1.41377855 9.86744032,1.23915938 C9.77335422,1.15412349 9.64790602,1.10728554 9.51436432,1.10728554 C9.38132852,1.10728554 9.25638612,1.15412349 9.16230002,1.23870464 L7.49808772,2.73479066 L7.49808772,0.44655211 C7.49808772,0.20053918 7.27400082,0 6.9988241,0 C6.72465905,0 6.50208964,0.20053918 6.50208964,0.44655211 L6.50208964,2.73479066 L4.83838326,1.23915938 C4.74429711,1.15412349 4.61884888,1.10728554 4.48530722,1.10728554 C4.35227143,1.10728554 4.2268232,1.15457824 4.13121954,1.24052359 C3.94203553,1.41423328 3.9430472,1.69707995 4.13324286,1.87169909 L6.50208964,4.00077953 L6.50208964,6.22535485 L4.35935318,5.1130672 L3.49133246,2.20183844 C3.41899739,1.96855816 3.14786739,1.82758956 2.88685416,1.8876149 C2.62128837,1.94854972 2.46144307,2.19456264 2.5297314,2.4360282 L3.13977396,4.48007276 L0.934313382,3.33458928 C0.695557082,3.21226493 0.397111721,3.28502289 0.254464961,3.50102317 C0.11839412,3.71565919 0.19932845,3.98395426 0.439096441,4.11173547 L2.64253364,5.25449054 L0.373337291,5.80199433 C0.244854031,5.83109753 0.13660436,5.90340078 0.0693277002,6.00617145 C0.0015452,6.10894207 -0.01767672,6.23490434 0.01672039,6.35268132 C0.0769152802,6.54685419 0.274192721,6.68191121 0.496256301,6.68191121 C0.538240971,6.68191121 0.579213981,6.67736383 0.626762901,6.66735961 L3.86059535,5.88793972 L6.00484931,7.0002274 L3.8626187,8.1120603 L0.624739561,7.3321857 C0.497267981,7.302173 0.358162091,7.319453 0.244348181,7.3803878 C0.13154596,7.4404132 0.0490941101,7.5381817 0.01874374,7.6473187 C-0.01717089,7.762822 2.76700001e-05,7.8837821 0.0667985002,7.9888265 C0.1330635,8.0920518 0.242830661,8.167993 0.368784721,8.1975509 L2.64253364,8.7455095 L0.436061381,9.8900835 C0.19932845,10.0160457 0.11889995,10.2897976 0.256994181,10.4989768 C0.346527781,10.6394907 0.508396451,10.7236171 0.689487022,10.7236171 C0.776491442,10.7236171 0.861978302,10.7036087 0.937854252,10.664956 L3.14179731,9.5199272 L2.53276643,11.5626076 C2.49735766,11.6776562 2.51506207,11.799071 2.58233873,11.9036606 C2.64809788,12.0059765 2.75381835,12.079644 2.87825489,12.1101114 C2.92125125,12.1219346 2.96525929,12.1273914 3.01331405,12.1273914 C3.23386011,12.1273914 3.43164338,11.991425 3.49487332,11.7954331 L4.35985901,8.8864781 L6.50208964,7.7746451 L6.50208964,9.9992205 L4.13526625,12.1283009 C3.94102385,12.3029201 3.94102385,12.5866762 4.13526625,12.7612954 C4.22935238,12.8458765 4.35429478,12.8927145 4.48834227,12.8927145 C4.62188391,12.8922597 4.74632045,12.8458765 4.83990077,12.7612954 L6.50208964,11.2656641 L6.50208964,13.5534479 C6.50208964,13.7999155 6.72567073,14 7.00084742,14 C7.27501252,14 7.49808772,13.7999155 7.49808772,13.5534479 L7.49808772,11.2652093 L9.16128832,12.7603859 C9.25537442,12.8458765 9.38082272,12.8927145 9.51335262,12.8927145 C9.64790602,12.8927145 9.77335422,12.8458765 9.86642872,12.7612954 C10.0606711,12.5866762 10.0606711,12.3029201 9.86642872,12.1283009 L7.49808772,9.9992205 L7.49808772,7.7750999 L9.64031842,8.8887517 L10.5068215,11.799071 C10.5675223,11.9923344 10.7647998,12.1273914 10.9868633,12.1273914 C11.0344122,12.1273914 11.0784203,12.1219346 11.1198991,12.1105661 C11.246359,12.0800987 11.3520795,12.006886 11.4178386,11.9050248 C11.4846095,11.8017995 11.5028197,11.6776562 11.4679168,11.5639718 L10.8583801,9.5217462 L13.0648523,10.6663202 C13.1407283,10.7049729 13.2257093,10.7249813 13.3106904,10.7249813 C13.4902634,10.7249813 13.6511204,10.6413096 13.7421715,10.5007958 C13.8787482,10.2897976 13.7978139,10.0151363 13.5610809,9.8882645 L11.3576437,8.7455095 L13.6293693,8.1980057 C13.7583584,8.1675382 13.8661022,8.0934161 13.9333789,7.9888265 C13.999138,7.8856011 14.0173482,7.762822 13.9829511,7.6523208" id="Page-1"></path>
            </g>
            <g id="snow-copy-4-copy" transform="translate(74.000000, 74.000000)">
                <path d="M13.9829511,7.6523208 C13.9500716,7.5372722 13.8691373,7.4404132 13.7543117,7.3799331 C13.6399919,7.3189983 13.5054386,7.302173 13.3759437,7.3317309 L10.1370528,8.1120603 L7.99482222,7.0002274 L10.1370528,5.88793972 L13.3835312,6.66963328 C13.6506145,6.72465653 13.9136511,6.5845974 13.9819395,6.35131713 C14.0173482,6.23490434 13.9996439,6.11348945 13.9323672,6.0093546 C13.8650905,5.90521974 13.7578525,5.83200701 13.6313926,5.80290381 L11.3576437,5.25449054 L13.5666452,4.10900704 C13.8008489,3.98122584 13.8787482,3.714295 13.7431832,3.50102317 C13.6071123,3.28684183 13.3010794,3.21226493 13.0623231,3.33504401 L10.8604034,4.47961802 L11.4699401,2.43420924 C11.5033255,2.31961542 11.4835978,2.19547212 11.416827,2.09315621 C11.3490445,1.98993082 11.2413006,1.91717283 11.1133232,1.8876149 C10.85231,1.82758956 10.5806741,1.96946764 10.5078332,2.20456686 L9.64031842,5.1130672 L7.49808772,6.22535485 L7.49808772,4.00077953 L9.86845202,1.87033488 C10.0581419,1.6966252 10.057636,1.41377855 9.86744032,1.23915938 C9.77335422,1.15412349 9.64790602,1.10728554 9.51436432,1.10728554 C9.38132852,1.10728554 9.25638612,1.15412349 9.16230002,1.23870464 L7.49808772,2.73479066 L7.49808772,0.44655211 C7.49808772,0.20053918 7.27400082,0 6.9988241,0 C6.72465905,0 6.50208964,0.20053918 6.50208964,0.44655211 L6.50208964,2.73479066 L4.83838326,1.23915938 C4.74429711,1.15412349 4.61884888,1.10728554 4.48530722,1.10728554 C4.35227143,1.10728554 4.2268232,1.15457824 4.13121954,1.24052359 C3.94203553,1.41423328 3.9430472,1.69707995 4.13324286,1.87169909 L6.50208964,4.00077953 L6.50208964,6.22535485 L4.35935318,5.1130672 L3.49133246,2.20183844 C3.41899739,1.96855816 3.14786739,1.82758956 2.88685416,1.8876149 C2.62128837,1.94854972 2.46144307,2.19456264 2.5297314,2.4360282 L3.13977396,4.48007276 L0.934313382,3.33458928 C0.695557082,3.21226493 0.397111721,3.28502289 0.254464961,3.50102317 C0.11839412,3.71565919 0.19932845,3.98395426 0.439096441,4.11173547 L2.64253364,5.25449054 L0.373337291,5.80199433 C0.244854031,5.83109753 0.13660436,5.90340078 0.0693277002,6.00617145 C0.0015452,6.10894207 -0.01767672,6.23490434 0.01672039,6.35268132 C0.0769152802,6.54685419 0.274192721,6.68191121 0.496256301,6.68191121 C0.538240971,6.68191121 0.579213981,6.67736383 0.626762901,6.66735961 L3.86059535,5.88793972 L6.00484931,7.0002274 L3.8626187,8.1120603 L0.624739561,7.3321857 C0.497267981,7.302173 0.358162091,7.319453 0.244348181,7.3803878 C0.13154596,7.4404132 0.0490941101,7.5381817 0.01874374,7.6473187 C-0.01717089,7.762822 2.76700001e-05,7.8837821 0.0667985002,7.9888265 C0.1330635,8.0920518 0.242830661,8.167993 0.368784721,8.1975509 L2.64253364,8.7455095 L0.436061381,9.8900835 C0.19932845,10.0160457 0.11889995,10.2897976 0.256994181,10.4989768 C0.346527781,10.6394907 0.508396451,10.7236171 0.689487022,10.7236171 C0.776491442,10.7236171 0.861978302,10.7036087 0.937854252,10.664956 L3.14179731,9.5199272 L2.53276643,11.5626076 C2.49735766,11.6776562 2.51506207,11.799071 2.58233873,11.9036606 C2.64809788,12.0059765 2.75381835,12.079644 2.87825489,12.1101114 C2.92125125,12.1219346 2.96525929,12.1273914 3.01331405,12.1273914 C3.23386011,12.1273914 3.43164338,11.991425 3.49487332,11.7954331 L4.35985901,8.8864781 L6.50208964,7.7746451 L6.50208964,9.9992205 L4.13526625,12.1283009 C3.94102385,12.3029201 3.94102385,12.5866762 4.13526625,12.7612954 C4.22935238,12.8458765 4.35429478,12.8927145 4.48834227,12.8927145 C4.62188391,12.8922597 4.74632045,12.8458765 4.83990077,12.7612954 L6.50208964,11.2656641 L6.50208964,13.5534479 C6.50208964,13.7999155 6.72567073,14 7.00084742,14 C7.27501252,14 7.49808772,13.7999155 7.49808772,13.5534479 L7.49808772,11.2652093 L9.16128832,12.7603859 C9.25537442,12.8458765 9.38082272,12.8927145 9.51335262,12.8927145 C9.64790602,12.8927145 9.77335422,12.8458765 9.86642872,12.7612954 C10.0606711,12.5866762 10.0606711,12.3029201 9.86642872,12.1283009 L7.49808772,9.9992205 L7.49808772,7.7750999 L9.64031842,8.8887517 L10.5068215,11.799071 C10.5675223,11.9923344 10.7647998,12.1273914 10.9868633,12.1273914 C11.0344122,12.1273914 11.0784203,12.1219346 11.1198991,12.1105661 C11.246359,12.0800987 11.3520795,12.006886 11.4178386,11.9050248 C11.4846095,11.8017995 11.5028197,11.6776562 11.4679168,11.5639718 L10.8583801,9.5217462 L13.0648523,10.6663202 C13.1407283,10.7049729 13.2257093,10.7249813 13.3106904,10.7249813 C13.4902634,10.7249813 13.6511204,10.6413096 13.7421715,10.5007958 C13.8787482,10.2897976 13.7978139,10.0151363 13.5610809,9.8882645 L11.3576437,8.7455095 L13.6293693,8.1980057 C13.7583584,8.1675382 13.8661022,8.0934161 13.9333789,7.9888265 C13.999138,7.8856011 14.0173482,7.762822 13.9829511,7.6523208" id="Page-1"></path>
            </g>
        </g>
    </g>
</svg>