<?xml version="1.0" encoding="UTF-8"?>
<svg width="447px" height="140px" viewBox="0 0 447 140" version="1.1" xmlns="http://www.w3.org/2000/svg" xmlns:xlink="http://www.w3.org/1999/xlink">
    <!-- Generator: Sketch 47.1 (45422) - http://www.bohemiancoding.com/sketch -->
    <title>Artboard</title>
    <desc>Created with Sketch.</desc>
    <defs></defs>
    <g id="Page-1" stroke="none" stroke-width="1" fill="none" fill-rule="evenodd">
        <g id="Artboard">
            <g id="snow" transform="translate(13.000000, 11.000000)">
                <rect id="Rectangle" stroke-opacity="0.284137228" stroke="#FFFFFF" x="0" y="0" width="12" height="12"></rect>
                <path d="M10.98904,6.91934907 C10.9679032,6.84538928 10.915874,6.78312275 10.8420575,6.74424269 C10.7685662,6.70507032 10.6820677,6.69425407 10.5988209,6.71325559 L8.51667682,7.21489589 L7.13952858,6.50014616 L8.51667682,5.78510411 L10.6036987,6.28762139 C10.7753951,6.32299348 10.94449,6.23295547 10.9883897,6.08298958 C11.0111524,6.00815279 10.9997711,5.93010036 10.9565218,5.86315653 C10.9132725,5.79621269 10.8443338,5.74914737 10.7630381,5.73043817 L9.3013424,5.37788677 L10.7214148,4.64150452 C10.8719743,4.55935947 10.9220524,4.38776107 10.8349035,4.25065775 C10.7474294,4.11296975 10.5506939,4.06502745 10.3972077,4.14395687 L8.98168792,4.87975444 L9.37353294,3.5648488 C9.39499498,3.49118134 9.38231287,3.41137493 9.33938877,3.34560042 C9.2958143,3.27924124 9.22655042,3.23246825 9.14427921,3.21346672 C8.976485,3.174879 8.80186194,3.26608634 8.75503565,3.41722155 L8.19734752,5.28697177 L6.82019927,6.00201383 L6.82019927,4.5719297 L8.34400486,3.20235814 C8.46594834,3.09068763 8.46562315,2.90885764 8.34335449,2.79660246 C8.28287054,2.74193653 8.20222527,2.71182642 8.11637707,2.71182642 C8.03085403,2.71182642 7.95053394,2.74193653 7.89004997,2.79631012 L6.82019927,3.75807971 L6.82019927,2.28706922 C6.82019927,2.12891804 6.67614339,2 6.49924405,2 C6.32299509,2 6.17991476,2.12891804 6.17991476,2.28706922 L6.17991476,3.75807971 L5.11038923,2.79660246 C5.04990528,2.74193653 4.96925999,2.71182642 4.88341178,2.71182642 C4.79788877,2.71182642 4.71724348,2.74222887 4.65578398,2.79747945 C4.53416569,2.90914997 4.53481605,3.09097997 4.65708469,3.20323513 L6.17991476,4.5719297 L6.17991476,6.00201383 L4.80244132,5.28697177 L4.244428,3.41546757 C4.19792689,3.26550168 4.02362903,3.174879 3.85583481,3.21346672 C3.68511395,3.25263911 3.58235626,3.41079027 3.62625589,3.56601813 L4.01842611,4.88004678 L2.60063003,4.14366454 C2.44714384,4.06502745 2.25528611,4.11180043 2.16358462,4.25065775 C2.07611051,4.38863805 2.12813972,4.56111345 2.28227628,4.64325852 L3.69877162,5.37788677 L2.24000254,5.7298535 C2.15740616,5.7485627 2.08781709,5.79504336 2.04456781,5.86111022 C2.00099334,5.92717705 1.98863639,6.00815279 2.01074882,6.08386656 C2.04944554,6.20869198 2.17626675,6.29551435 2.31902191,6.29551435 C2.34601205,6.29551435 2.37235184,6.29259103 2.40291901,6.28615975 L4.48181129,5.78510411 L5.86026027,6.50014616 L4.48311201,7.21489589 L2.40161829,6.71354793 C2.31967227,6.69425407 2.23024705,6.70536266 2.15708097,6.74453503 C2.08456526,6.78312275 2.0315605,6.84597395 2.01204955,6.91613344 C1.98896157,6.99038556 2.00001779,7.06814565 2.04294189,7.13567415 C2.08554082,7.20203332 2.15610543,7.25085263 2.23707589,7.26985416 L3.69877162,7.62211323 L2.28032518,8.35791081 C2.12813972,8.43888655 2.07643568,8.61486992 2.16521055,8.74934225 C2.22276786,8.8396726 2.32682629,8.89375386 2.44324165,8.89375386 C2.49917307,8.89375386 2.55412891,8.88089128 2.6029063,8.85604313 L4.01972683,8.11995322 L3.62820699,9.43310488 C3.6054442,9.50706468 3.61682561,9.5851171 3.66007489,9.65235327 C3.70234863,9.71812777 3.77031179,9.76548543 3.85030671,9.78507163 C3.87794722,9.79267223 3.90623811,9.79618022 3.93713045,9.79618022 C4.07891006,9.79618022 4.20605645,9.70877318 4.24670427,9.58277845 L4.8027665,7.7127359 L6.17991476,6.99798617 L6.17991476,8.4280703 L4.65838544,9.79676487 C4.53351532,9.90902003 4.53351532,10.0914347 4.65838544,10.2036899 C4.71886938,10.2580635 4.79918949,10.2881736 4.88536288,10.2881736 C4.97121108,10.2878813 5.051206,10.2580635 5.11136478,10.2036899 L6.17991476,9.24221262 L6.17991476,10.7129308 C6.17991476,10.8713743 6.32364546,11 6.50054478,11 C6.67679374,11 6.82019927,10.8713743 6.82019927,10.7129308 L6.82019927,9.24192029 L7.88939961,10.2031052 C7.94988357,10.2580635 8.03052886,10.2881736 8.1157267,10.2881736 C8.20222527,10.2881736 8.28287054,10.2580635 8.34270414,10.2036899 C8.46757426,10.0914347 8.46757426,9.90902003 8.34270414,9.79676487 L6.82019927,8.4280703 L6.82019927,6.99827849 L8.19734752,7.71419755 L8.75438528,9.5851171 C8.7934072,9.70935784 8.92022841,9.79618022 9.06298357,9.79618022 C9.09355072,9.79618022 9.12184162,9.79267223 9.14850659,9.78536395 C9.22980225,9.76577777 9.29776539,9.71871244 9.34003913,9.65323025 C9.38296324,9.58687108 9.3946698,9.50706468 9.3722322,9.43398187 L8.9803872,8.12112255 L10.3988336,8.85692013 C10.447611,8.88176828 10.5022417,8.89463085 10.5568724,8.89463085 C10.6723122,8.89463085 10.7757203,8.84084192 10.8342531,8.75051158 C10.9220524,8.61486992 10.8700232,8.43830188 10.7178378,8.35674148 L9.3013424,7.62211323 L10.7617374,7.2701465 C10.844659,7.2505603 10.9139229,7.20291033 10.9571721,7.13567415 C10.9994459,7.06931496 11.0111524,6.99038556 10.98904,6.91934907" id="Page-1" fill="#4FB4ED" fill-rule="nonzero"></path>
            </g>
            <g id="snow-copy" transform="translate(83.000000, 58.000000)">
                <rect id="Rectangle" stroke-opacity="0.284137228" stroke="#FFFFFF" x="0" y="0" width="12" height="12"></rect>
                <path d="M10.98904,6.91934907 C10.9679032,6.84538928 10.915874,6.78312275 10.8420575,6.74424269 C10.7685662,6.70507032 10.6820677,6.69425407 10.5988209,6.71325559 L8.51667682,7.21489589 L7.13952858,6.50014616 L8.51667682,5.78510411 L10.6036987,6.28762139 C10.7753951,6.32299348 10.94449,6.23295547 10.9883897,6.08298958 C11.0111524,6.00815279 10.9997711,5.93010036 10.9565218,5.86315653 C10.9132725,5.79621269 10.8443338,5.74914737 10.7630381,5.73043817 L9.3013424,5.37788677 L10.7214148,4.64150452 C10.8719743,4.55935947 10.9220524,4.38776107 10.8349035,4.25065775 C10.7474294,4.11296975 10.5506939,4.06502745 10.3972077,4.14395687 L8.98168792,4.87975444 L9.37353294,3.5648488 C9.39499498,3.49118134 9.38231287,3.41137493 9.33938877,3.34560042 C9.2958143,3.27924124 9.22655042,3.23246825 9.14427921,3.21346672 C8.976485,3.174879 8.80186194,3.26608634 8.75503565,3.41722155 L8.19734752,5.28697177 L6.82019927,6.00201383 L6.82019927,4.5719297 L8.34400486,3.20235814 C8.46594834,3.09068763 8.46562315,2.90885764 8.34335449,2.79660246 C8.28287054,2.74193653 8.20222527,2.71182642 8.11637707,2.71182642 C8.03085403,2.71182642 7.95053394,2.74193653 7.89004997,2.79631012 L6.82019927,3.75807971 L6.82019927,2.28706922 C6.82019927,2.12891804 6.67614339,2 6.49924405,2 C6.32299509,2 6.17991476,2.12891804 6.17991476,2.28706922 L6.17991476,3.75807971 L5.11038923,2.79660246 C5.04990528,2.74193653 4.96925999,2.71182642 4.88341178,2.71182642 C4.79788877,2.71182642 4.71724348,2.74222887 4.65578398,2.79747945 C4.53416569,2.90914997 4.53481605,3.09097997 4.65708469,3.20323513 L6.17991476,4.5719297 L6.17991476,6.00201383 L4.80244132,5.28697177 L4.244428,3.41546757 C4.19792689,3.26550168 4.02362903,3.174879 3.85583481,3.21346672 C3.68511395,3.25263911 3.58235626,3.41079027 3.62625589,3.56601813 L4.01842611,4.88004678 L2.60063003,4.14366454 C2.44714384,4.06502745 2.25528611,4.11180043 2.16358462,4.25065775 C2.07611051,4.38863805 2.12813972,4.56111345 2.28227628,4.64325852 L3.69877162,5.37788677 L2.24000254,5.7298535 C2.15740616,5.7485627 2.08781709,5.79504336 2.04456781,5.86111022 C2.00099334,5.92717705 1.98863639,6.00815279 2.01074882,6.08386656 C2.04944554,6.20869198 2.17626675,6.29551435 2.31902191,6.29551435 C2.34601205,6.29551435 2.37235184,6.29259103 2.40291901,6.28615975 L4.48181129,5.78510411 L5.86026027,6.50014616 L4.48311201,7.21489589 L2.40161829,6.71354793 C2.31967227,6.69425407 2.23024705,6.70536266 2.15708097,6.74453503 C2.08456526,6.78312275 2.0315605,6.84597395 2.01204955,6.91613344 C1.98896157,6.99038556 2.00001779,7.06814565 2.04294189,7.13567415 C2.08554082,7.20203332 2.15610543,7.25085263 2.23707589,7.26985416 L3.69877162,7.62211323 L2.28032518,8.35791081 C2.12813972,8.43888655 2.07643568,8.61486992 2.16521055,8.74934225 C2.22276786,8.8396726 2.32682629,8.89375386 2.44324165,8.89375386 C2.49917307,8.89375386 2.55412891,8.88089128 2.6029063,8.85604313 L4.01972683,8.11995322 L3.62820699,9.43310488 C3.6054442,9.50706468 3.61682561,9.5851171 3.66007489,9.65235327 C3.70234863,9.71812777 3.77031179,9.76548543 3.85030671,9.78507163 C3.87794722,9.79267223 3.90623811,9.79618022 3.93713045,9.79618022 C4.07891006,9.79618022 4.20605645,9.70877318 4.24670427,9.58277845 L4.8027665,7.7127359 L6.17991476,6.99798617 L6.17991476,8.4280703 L4.65838544,9.79676487 C4.53351532,9.90902003 4.53351532,10.0914347 4.65838544,10.2036899 C4.71886938,10.2580635 4.79918949,10.2881736 4.88536288,10.2881736 C4.97121108,10.2878813 5.051206,10.2580635 5.11136478,10.2036899 L6.17991476,9.24221262 L6.17991476,10.7129308 C6.17991476,10.8713743 6.32364546,11 6.50054478,11 C6.67679374,11 6.82019927,10.8713743 6.82019927,10.7129308 L6.82019927,9.24192029 L7.88939961,10.2031052 C7.94988357,10.2580635 8.03052886,10.2881736 8.1157267,10.2881736 C8.20222527,10.2881736 8.28287054,10.2580635 8.34270414,10.2036899 C8.46757426,10.0914347 8.46757426,9.90902003 8.34270414,9.79676487 L6.82019927,8.4280703 L6.82019927,6.99827849 L8.19734752,7.71419755 L8.75438528,9.5851171 C8.7934072,9.70935784 8.92022841,9.79618022 9.06298357,9.79618022 C9.09355072,9.79618022 9.12184162,9.79267223 9.14850659,9.78536395 C9.22980225,9.76577777 9.29776539,9.71871244 9.34003913,9.65323025 C9.38296324,9.58687108 9.3946698,9.50706468 9.3722322,9.43398187 L8.9803872,8.12112255 L10.3988336,8.85692013 C10.447611,8.88176828 10.5022417,8.89463085 10.5568724,8.89463085 C10.6723122,8.89463085 10.7757203,8.84084192 10.8342531,8.75051158 C10.9220524,8.61486992 10.8700232,8.43830188 10.7178378,8.35674148 L9.3013424,7.62211323 L10.7617374,7.2701465 C10.844659,7.2505603 10.9139229,7.20291033 10.9571721,7.13567415 C10.9994459,7.06931496 11.0111524,6.99038556 10.98904,6.91934907" id="Page-1" fill="#4FB4ED" fill-rule="nonzero"></path>
            </g>
            <g id="snow-copy-2" transform="translate(174.000000, 38.000000)">
                <rect id="Rectangle" stroke-opacity="0.284137228" stroke="#FFFFFF" x="0" y="0" width="12" height="12"></rect>
                <path d="M10.98904,6.91934907 C10.9679032,6.84538928 10.915874,6.78312275 10.8420575,6.74424269 C10.7685662,6.70507032 10.6820677,6.69425407 10.5988209,6.71325559 L8.51667682,7.21489589 L7.13952858,6.50014616 L8.51667682,5.78510411 L10.6036987,6.28762139 C10.7753951,6.32299348 10.94449,6.23295547 10.9883897,6.08298958 C11.0111524,6.00815279 10.9997711,5.93010036 10.9565218,5.86315653 C10.9132725,5.79621269 10.8443338,5.74914737 10.7630381,5.73043817 L9.3013424,5.37788677 L10.7214148,4.64150452 C10.8719743,4.55935947 10.9220524,4.38776107 10.8349035,4.25065775 C10.7474294,4.11296975 10.5506939,4.06502745 10.3972077,4.14395687 L8.98168792,4.87975444 L9.37353294,3.5648488 C9.39499498,3.49118134 9.38231287,3.41137493 9.33938877,3.34560042 C9.2958143,3.27924124 9.22655042,3.23246825 9.14427921,3.21346672 C8.976485,3.174879 8.80186194,3.26608634 8.75503565,3.41722155 L8.19734752,5.28697177 L6.82019927,6.00201383 L6.82019927,4.5719297 L8.34400486,3.20235814 C8.46594834,3.09068763 8.46562315,2.90885764 8.34335449,2.79660246 C8.28287054,2.74193653 8.20222527,2.71182642 8.11637707,2.71182642 C8.03085403,2.71182642 7.95053394,2.74193653 7.89004997,2.79631012 L6.82019927,3.75807971 L6.82019927,2.28706922 C6.82019927,2.12891804 6.67614339,2 6.49924405,2 C6.32299509,2 6.17991476,2.12891804 6.17991476,2.28706922 L6.17991476,3.75807971 L5.11038923,2.79660246 C5.04990528,2.74193653 4.96925999,2.71182642 4.88341178,2.71182642 C4.79788877,2.71182642 4.71724348,2.74222887 4.65578398,2.79747945 C4.53416569,2.90914997 4.53481605,3.09097997 4.65708469,3.20323513 L6.17991476,4.5719297 L6.17991476,6.00201383 L4.80244132,5.28697177 L4.244428,3.41546757 C4.19792689,3.26550168 4.02362903,3.174879 3.85583481,3.21346672 C3.68511395,3.25263911 3.58235626,3.41079027 3.62625589,3.56601813 L4.01842611,4.88004678 L2.60063003,4.14366454 C2.44714384,4.06502745 2.25528611,4.11180043 2.16358462,4.25065775 C2.07611051,4.38863805 2.12813972,4.56111345 2.28227628,4.64325852 L3.69877162,5.37788677 L2.24000254,5.7298535 C2.15740616,5.7485627 2.08781709,5.79504336 2.04456781,5.86111022 C2.00099334,5.92717705 1.98863639,6.00815279 2.01074882,6.08386656 C2.04944554,6.20869198 2.17626675,6.29551435 2.31902191,6.29551435 C2.34601205,6.29551435 2.37235184,6.29259103 2.40291901,6.28615975 L4.48181129,5.78510411 L5.86026027,6.50014616 L4.48311201,7.21489589 L2.40161829,6.71354793 C2.31967227,6.69425407 2.23024705,6.70536266 2.15708097,6.74453503 C2.08456526,6.78312275 2.0315605,6.84597395 2.01204955,6.91613344 C1.98896157,6.99038556 2.00001779,7.06814565 2.04294189,7.13567415 C2.08554082,7.20203332 2.15610543,7.25085263 2.23707589,7.26985416 L3.69877162,7.62211323 L2.28032518,8.35791081 C2.12813972,8.43888655 2.07643568,8.61486992 2.16521055,8.74934225 C2.22276786,8.8396726 2.32682629,8.89375386 2.44324165,8.89375386 C2.49917307,8.89375386 2.55412891,8.88089128 2.6029063,8.85604313 L4.01972683,8.11995322 L3.62820699,9.43310488 C3.6054442,9.50706468 3.61682561,9.5851171 3.66007489,9.65235327 C3.70234863,9.71812777 3.77031179,9.76548543 3.85030671,9.78507163 C3.87794722,9.79267223 3.90623811,9.79618022 3.93713045,9.79618022 C4.07891006,9.79618022 4.20605645,9.70877318 4.24670427,9.58277845 L4.8027665,7.7127359 L6.17991476,6.99798617 L6.17991476,8.4280703 L4.65838544,9.79676487 C4.53351532,9.90902003 4.53351532,10.0914347 4.65838544,10.2036899 C4.71886938,10.2580635 4.79918949,10.2881736 4.88536288,10.2881736 C4.97121108,10.2878813 5.051206,10.2580635 5.11136478,10.2036899 L6.17991476,9.24221262 L6.17991476,10.7129308 C6.17991476,10.8713743 6.32364546,11 6.50054478,11 C6.67679374,11 6.82019927,10.8713743 6.82019927,10.7129308 L6.82019927,9.24192029 L7.88939961,10.2031052 C7.94988357,10.2580635 8.03052886,10.2881736 8.1157267,10.2881736 C8.20222527,10.2881736 8.28287054,10.2580635 8.34270414,10.2036899 C8.46757426,10.0914347 8.46757426,9.90902003 8.34270414,9.79676487 L6.82019927,8.4280703 L6.82019927,6.99827849 L8.19734752,7.71419755 L8.75438528,9.5851171 C8.7934072,9.70935784 8.92022841,9.79618022 9.06298357,9.79618022 C9.09355072,9.79618022 9.12184162,9.79267223 9.14850659,9.78536395 C9.22980225,9.76577777 9.29776539,9.71871244 9.34003913,9.65323025 C9.38296324,9.58687108 9.3946698,9.50706468 9.3722322,9.43398187 L8.9803872,8.12112255 L10.3988336,8.85692013 C10.447611,8.88176828 10.5022417,8.89463085 10.5568724,8.89463085 C10.6723122,8.89463085 10.7757203,8.84084192 10.8342531,8.75051158 C10.9220524,8.61486992 10.8700232,8.43830188 10.7178378,8.35674148 L9.3013424,7.62211323 L10.7617374,7.2701465 C10.844659,7.2505603 10.9139229,7.20291033 10.9571721,7.13567415 C10.9994459,7.06931496 11.0111524,6.99038556 10.98904,6.91934907" id="Page-1" fill="#4FB4ED" fill-rule="nonzero"></path>
            </g>
            <g id="snow-copy-3" transform="translate(272.000000, 20.000000)">
                <rect id="Rectangle" stroke-opacity="0.284137228" stroke="#FFFFFF" x="0" y="0" width="12" height="12"></rect>
                <path d="M10.98904,6.91934907 C10.9679032,6.84538928 10.915874,6.78312275 10.8420575,6.74424269 C10.7685662,6.70507032 10.6820677,6.69425407 10.5988209,6.71325559 L8.51667682,7.21489589 L7.13952858,6.50014616 L8.51667682,5.78510411 L10.6036987,6.28762139 C10.7753951,6.32299348 10.94449,6.23295547 10.9883897,6.08298958 C11.0111524,6.00815279 10.9997711,5.93010036 10.9565218,5.86315653 C10.9132725,5.79621269 10.8443338,5.74914737 10.7630381,5.73043817 L9.3013424,5.37788677 L10.7214148,4.64150452 C10.8719743,4.55935947 10.9220524,4.38776107 10.8349035,4.25065775 C10.7474294,4.11296975 10.5506939,4.06502745 10.3972077,4.14395687 L8.98168792,4.87975444 L9.37353294,3.5648488 C9.39499498,3.49118134 9.38231287,3.41137493 9.33938877,3.34560042 C9.2958143,3.27924124 9.22655042,3.23246825 9.14427921,3.21346672 C8.976485,3.174879 8.80186194,3.26608634 8.75503565,3.41722155 L8.19734752,5.28697177 L6.82019927,6.00201383 L6.82019927,4.5719297 L8.34400486,3.20235814 C8.46594834,3.09068763 8.46562315,2.90885764 8.34335449,2.79660246 C8.28287054,2.74193653 8.20222527,2.71182642 8.11637707,2.71182642 C8.03085403,2.71182642 7.95053394,2.74193653 7.89004997,2.79631012 L6.82019927,3.75807971 L6.82019927,2.28706922 C6.82019927,2.12891804 6.67614339,2 6.49924405,2 C6.32299509,2 6.17991476,2.12891804 6.17991476,2.28706922 L6.17991476,3.75807971 L5.11038923,2.79660246 C5.04990528,2.74193653 4.96925999,2.71182642 4.88341178,2.71182642 C4.79788877,2.71182642 4.71724348,2.74222887 4.65578398,2.79747945 C4.53416569,2.90914997 4.53481605,3.09097997 4.65708469,3.20323513 L6.17991476,4.5719297 L6.17991476,6.00201383 L4.80244132,5.28697177 L4.244428,3.41546757 C4.19792689,3.26550168 4.02362903,3.174879 3.85583481,3.21346672 C3.68511395,3.25263911 3.58235626,3.41079027 3.62625589,3.56601813 L4.01842611,4.88004678 L2.60063003,4.14366454 C2.44714384,4.06502745 2.25528611,4.11180043 2.16358462,4.25065775 C2.07611051,4.38863805 2.12813972,4.56111345 2.28227628,4.64325852 L3.69877162,5.37788677 L2.24000254,5.7298535 C2.15740616,5.7485627 2.08781709,5.79504336 2.04456781,5.86111022 C2.00099334,5.92717705 1.98863639,6.00815279 2.01074882,6.08386656 C2.04944554,6.20869198 2.17626675,6.29551435 2.31902191,6.29551435 C2.34601205,6.29551435 2.37235184,6.29259103 2.40291901,6.28615975 L4.48181129,5.78510411 L5.86026027,6.50014616 L4.48311201,7.21489589 L2.40161829,6.71354793 C2.31967227,6.69425407 2.23024705,6.70536266 2.15708097,6.74453503 C2.08456526,6.78312275 2.0315605,6.84597395 2.01204955,6.91613344 C1.98896157,6.99038556 2.00001779,7.06814565 2.04294189,7.13567415 C2.08554082,7.20203332 2.15610543,7.25085263 2.23707589,7.26985416 L3.69877162,7.62211323 L2.28032518,8.35791081 C2.12813972,8.43888655 2.07643568,8.61486992 2.16521055,8.74934225 C2.22276786,8.8396726 2.32682629,8.89375386 2.44324165,8.89375386 C2.49917307,8.89375386 2.55412891,8.88089128 2.6029063,8.85604313 L4.01972683,8.11995322 L3.62820699,9.43310488 C3.6054442,9.50706468 3.61682561,9.5851171 3.66007489,9.65235327 C3.70234863,9.71812777 3.77031179,9.76548543 3.85030671,9.78507163 C3.87794722,9.79267223 3.90623811,9.79618022 3.93713045,9.79618022 C4.07891006,9.79618022 4.20605645,9.70877318 4.24670427,9.58277845 L4.8027665,7.7127359 L6.17991476,6.99798617 L6.17991476,8.4280703 L4.65838544,9.79676487 C4.53351532,9.90902003 4.53351532,10.0914347 4.65838544,10.2036899 C4.71886938,10.2580635 4.79918949,10.2881736 4.88536288,10.2881736 C4.97121108,10.2878813 5.051206,10.2580635 5.11136478,10.2036899 L6.17991476,9.24221262 L6.17991476,10.7129308 C6.17991476,10.8713743 6.32364546,11 6.50054478,11 C6.67679374,11 6.82019927,10.8713743 6.82019927,10.7129308 L6.82019927,9.24192029 L7.88939961,10.2031052 C7.94988357,10.2580635 8.03052886,10.2881736 8.1157267,10.2881736 C8.20222527,10.2881736 8.28287054,10.2580635 8.34270414,10.2036899 C8.46757426,10.0914347 8.46757426,9.90902003 8.34270414,9.79676487 L6.82019927,8.4280703 L6.82019927,6.99827849 L8.19734752,7.71419755 L8.75438528,9.5851171 C8.7934072,9.70935784 8.92022841,9.79618022 9.06298357,9.79618022 C9.09355072,9.79618022 9.12184162,9.79267223 9.14850659,9.78536395 C9.22980225,9.76577777 9.29776539,9.71871244 9.34003913,9.65323025 C9.38296324,9.58687108 9.3946698,9.50706468 9.3722322,9.43398187 L8.9803872,8.12112255 L10.3988336,8.85692013 C10.447611,8.88176828 10.5022417,8.89463085 10.5568724,8.89463085 C10.6723122,8.89463085 10.7757203,8.84084192 10.8342531,8.75051158 C10.9220524,8.61486992 10.8700232,8.43830188 10.7178378,8.35674148 L9.3013424,7.62211323 L10.7617374,7.2701465 C10.844659,7.2505603 10.9139229,7.20291033 10.9571721,7.13567415 C10.9994459,7.06931496 11.0111524,6.99038556 10.98904,6.91934907" id="Page-1" fill="#4FB4ED" fill-rule="nonzero"></path>
            </g>
            <g id="snow-copy-5" transform="translate(150.000000, 104.000000)">
                <rect id="Rectangle" stroke-opacity="0.284137228" stroke="#FFFFFF" x="0" y="0" width="12" height="12"></rect>
                <path d="M10.98904,6.91934907 C10.9679032,6.84538928 10.915874,6.78312275 10.8420575,6.74424269 C10.7685662,6.70507032 10.6820677,6.69425407 10.5988209,6.71325559 L8.51667682,7.21489589 L7.13952858,6.50014616 L8.51667682,5.78510411 L10.6036987,6.28762139 C10.7753951,6.32299348 10.94449,6.23295547 10.9883897,6.08298958 C11.0111524,6.00815279 10.9997711,5.93010036 10.9565218,5.86315653 C10.9132725,5.79621269 10.8443338,5.74914737 10.7630381,5.73043817 L9.3013424,5.37788677 L10.7214148,4.64150452 C10.8719743,4.55935947 10.9220524,4.38776107 10.8349035,4.25065775 C10.7474294,4.11296975 10.5506939,4.06502745 10.3972077,4.14395687 L8.98168792,4.87975444 L9.37353294,3.5648488 C9.39499498,3.49118134 9.38231287,3.41137493 9.33938877,3.34560042 C9.2958143,3.27924124 9.22655042,3.23246825 9.14427921,3.21346672 C8.976485,3.174879 8.80186194,3.26608634 8.75503565,3.41722155 L8.19734752,5.28697177 L6.82019927,6.00201383 L6.82019927,4.5719297 L8.34400486,3.20235814 C8.46594834,3.09068763 8.46562315,2.90885764 8.34335449,2.79660246 C8.28287054,2.74193653 8.20222527,2.71182642 8.11637707,2.71182642 C8.03085403,2.71182642 7.95053394,2.74193653 7.89004997,2.79631012 L6.82019927,3.75807971 L6.82019927,2.28706922 C6.82019927,2.12891804 6.67614339,2 6.49924405,2 C6.32299509,2 6.17991476,2.12891804 6.17991476,2.28706922 L6.17991476,3.75807971 L5.11038923,2.79660246 C5.04990528,2.74193653 4.96925999,2.71182642 4.88341178,2.71182642 C4.79788877,2.71182642 4.71724348,2.74222887 4.65578398,2.79747945 C4.53416569,2.90914997 4.53481605,3.09097997 4.65708469,3.20323513 L6.17991476,4.5719297 L6.17991476,6.00201383 L4.80244132,5.28697177 L4.244428,3.41546757 C4.19792689,3.26550168 4.02362903,3.174879 3.85583481,3.21346672 C3.68511395,3.25263911 3.58235626,3.41079027 3.62625589,3.56601813 L4.01842611,4.88004678 L2.60063003,4.14366454 C2.44714384,4.06502745 2.25528611,4.11180043 2.16358462,4.25065775 C2.07611051,4.38863805 2.12813972,4.56111345 2.28227628,4.64325852 L3.69877162,5.37788677 L2.24000254,5.7298535 C2.15740616,5.7485627 2.08781709,5.79504336 2.04456781,5.86111022 C2.00099334,5.92717705 1.98863639,6.00815279 2.01074882,6.08386656 C2.04944554,6.20869198 2.17626675,6.29551435 2.31902191,6.29551435 C2.34601205,6.29551435 2.37235184,6.29259103 2.40291901,6.28615975 L4.48181129,5.78510411 L5.86026027,6.50014616 L4.48311201,7.21489589 L2.40161829,6.71354793 C2.31967227,6.69425407 2.23024705,6.70536266 2.15708097,6.74453503 C2.08456526,6.78312275 2.0315605,6.84597395 2.01204955,6.91613344 C1.98896157,6.99038556 2.00001779,7.06814565 2.04294189,7.13567415 C2.08554082,7.20203332 2.15610543,7.25085263 2.23707589,7.26985416 L3.69877162,7.62211323 L2.28032518,8.35791081 C2.12813972,8.43888655 2.07643568,8.61486992 2.16521055,8.74934225 C2.22276786,8.8396726 2.32682629,8.89375386 2.44324165,8.89375386 C2.49917307,8.89375386 2.55412891,8.88089128 2.6029063,8.85604313 L4.01972683,8.11995322 L3.62820699,9.43310488 C3.6054442,9.50706468 3.61682561,9.5851171 3.66007489,9.65235327 C3.70234863,9.71812777 3.77031179,9.76548543 3.85030671,9.78507163 C3.87794722,9.79267223 3.90623811,9.79618022 3.93713045,9.79618022 C4.07891006,9.79618022 4.20605645,9.70877318 4.24670427,9.58277845 L4.8027665,7.7127359 L6.17991476,6.99798617 L6.17991476,8.4280703 L4.65838544,9.79676487 C4.53351532,9.90902003 4.53351532,10.0914347 4.65838544,10.2036899 C4.71886938,10.2580635 4.79918949,10.2881736 4.88536288,10.2881736 C4.97121108,10.2878813 5.051206,10.2580635 5.11136478,10.2036899 L6.17991476,9.24221262 L6.17991476,10.7129308 C6.17991476,10.8713743 6.32364546,11 6.50054478,11 C6.67679374,11 6.82019927,10.8713743 6.82019927,10.7129308 L6.82019927,9.24192029 L7.88939961,10.2031052 C7.94988357,10.2580635 8.03052886,10.2881736 8.1157267,10.2881736 C8.20222527,10.2881736 8.28287054,10.2580635 8.34270414,10.2036899 C8.46757426,10.0914347 8.46757426,9.90902003 8.34270414,9.79676487 L6.82019927,8.4280703 L6.82019927,6.99827849 L8.19734752,7.71419755 L8.75438528,9.5851171 C8.7934072,9.70935784 8.92022841,9.79618022 9.06298357,9.79618022 C9.09355072,9.79618022 9.12184162,9.79267223 9.14850659,9.78536395 C9.22980225,9.76577777 9.29776539,9.71871244 9.34003913,9.65323025 C9.38296324,9.58687108 9.3946698,9.50706468 9.3722322,9.43398187 L8.9803872,8.12112255 L10.3988336,8.85692013 C10.447611,8.88176828 10.5022417,8.89463085 10.5568724,8.89463085 C10.6723122,8.89463085 10.7757203,8.84084192 10.8342531,8.75051158 C10.9220524,8.61486992 10.8700232,8.43830188 10.7178378,8.35674148 L9.3013424,7.62211323 L10.7617374,7.2701465 C10.844659,7.2505603 10.9139229,7.20291033 10.9571721,7.13567415 C10.9994459,7.06931496 11.0111524,6.99038556 10.98904,6.91934907" id="Page-1" fill="#4FB4ED" fill-rule="nonzero"></path>
            </g>
            <g id="snow-copy-6" transform="translate(388.000000, 58.000000)">
                <rect id="Rectangle" stroke-opacity="0.284137228" stroke="#FFFFFF" x="0" y="0" width="12" height="12"></rect>
                <path d="M10.98904,6.91934907 C10.9679032,6.84538928 10.915874,6.78312275 10.8420575,6.74424269 C10.7685662,6.70507032 10.6820677,6.69425407 10.5988209,6.71325559 L8.51667682,7.21489589 L7.13952858,6.50014616 L8.51667682,5.78510411 L10.6036987,6.28762139 C10.7753951,6.32299348 10.94449,6.23295547 10.9883897,6.08298958 C11.0111524,6.00815279 10.9997711,5.93010036 10.9565218,5.86315653 C10.9132725,5.79621269 10.8443338,5.74914737 10.7630381,5.73043817 L9.3013424,5.37788677 L10.7214148,4.64150452 C10.8719743,4.55935947 10.9220524,4.38776107 10.8349035,4.25065775 C10.7474294,4.11296975 10.5506939,4.06502745 10.3972077,4.14395687 L8.98168792,4.87975444 L9.37353294,3.5648488 C9.39499498,3.49118134 9.38231287,3.41137493 9.33938877,3.34560042 C9.2958143,3.27924124 9.22655042,3.23246825 9.14427921,3.21346672 C8.976485,3.174879 8.80186194,3.26608634 8.75503565,3.41722155 L8.19734752,5.28697177 L6.82019927,6.00201383 L6.82019927,4.5719297 L8.34400486,3.20235814 C8.46594834,3.09068763 8.46562315,2.90885764 8.34335449,2.79660246 C8.28287054,2.74193653 8.20222527,2.71182642 8.11637707,2.71182642 C8.03085403,2.71182642 7.95053394,2.74193653 7.89004997,2.79631012 L6.82019927,3.75807971 L6.82019927,2.28706922 C6.82019927,2.12891804 6.67614339,2 6.49924405,2 C6.32299509,2 6.17991476,2.12891804 6.17991476,2.28706922 L6.17991476,3.75807971 L5.11038923,2.79660246 C5.04990528,2.74193653 4.96925999,2.71182642 4.88341178,2.71182642 C4.79788877,2.71182642 4.71724348,2.74222887 4.65578398,2.79747945 C4.53416569,2.90914997 4.53481605,3.09097997 4.65708469,3.20323513 L6.17991476,4.5719297 L6.17991476,6.00201383 L4.80244132,5.28697177 L4.244428,3.41546757 C4.19792689,3.26550168 4.02362903,3.174879 3.85583481,3.21346672 C3.68511395,3.25263911 3.58235626,3.41079027 3.62625589,3.56601813 L4.01842611,4.88004678 L2.60063003,4.14366454 C2.44714384,4.06502745 2.25528611,4.11180043 2.16358462,4.25065775 C2.07611051,4.38863805 2.12813972,4.56111345 2.28227628,4.64325852 L3.69877162,5.37788677 L2.24000254,5.7298535 C2.15740616,5.7485627 2.08781709,5.79504336 2.04456781,5.86111022 C2.00099334,5.92717705 1.98863639,6.00815279 2.01074882,6.08386656 C2.04944554,6.20869198 2.17626675,6.29551435 2.31902191,6.29551435 C2.34601205,6.29551435 2.37235184,6.29259103 2.40291901,6.28615975 L4.48181129,5.78510411 L5.86026027,6.50014616 L4.48311201,7.21489589 L2.40161829,6.71354793 C2.31967227,6.69425407 2.23024705,6.70536266 2.15708097,6.74453503 C2.08456526,6.78312275 2.0315605,6.84597395 2.01204955,6.91613344 C1.98896157,6.99038556 2.00001779,7.06814565 2.04294189,7.13567415 C2.08554082,7.20203332 2.15610543,7.25085263 2.23707589,7.26985416 L3.69877162,7.62211323 L2.28032518,8.35791081 C2.12813972,8.43888655 2.07643568,8.61486992 2.16521055,8.74934225 C2.22276786,8.8396726 2.32682629,8.89375386 2.44324165,8.89375386 C2.49917307,8.89375386 2.55412891,8.88089128 2.6029063,8.85604313 L4.01972683,8.11995322 L3.62820699,9.43310488 C3.6054442,9.50706468 3.61682561,9.5851171 3.66007489,9.65235327 C3.70234863,9.71812777 3.77031179,9.76548543 3.85030671,9.78507163 C3.87794722,9.79267223 3.90623811,9.79618022 3.93713045,9.79618022 C4.07891006,9.79618022 4.20605645,9.70877318 4.24670427,9.58277845 L4.8027665,7.7127359 L6.17991476,6.99798617 L6.17991476,8.4280703 L4.65838544,9.79676487 C4.53351532,9.90902003 4.53351532,10.0914347 4.65838544,10.2036899 C4.71886938,10.2580635 4.79918949,10.2881736 4.88536288,10.2881736 C4.97121108,10.2878813 5.051206,10.2580635 5.11136478,10.2036899 L6.17991476,9.24221262 L6.17991476,10.7129308 C6.17991476,10.8713743 6.32364546,11 6.50054478,11 C6.67679374,11 6.82019927,10.8713743 6.82019927,10.7129308 L6.82019927,9.24192029 L7.88939961,10.2031052 C7.94988357,10.2580635 8.03052886,10.2881736 8.1157267,10.2881736 C8.20222527,10.2881736 8.28287054,10.2580635 8.34270414,10.2036899 C8.46757426,10.0914347 8.46757426,9.90902003 8.34270414,9.79676487 L6.82019927,8.4280703 L6.82019927,6.99827849 L8.19734752,7.71419755 L8.75438528,9.5851171 C8.7934072,9.70935784 8.92022841,9.79618022 9.06298357,9.79618022 C9.09355072,9.79618022 9.12184162,9.79267223 9.14850659,9.78536395 C9.22980225,9.76577777 9.29776539,9.71871244 9.34003913,9.65323025 C9.38296324,9.58687108 9.3946698,9.50706468 9.3722322,9.43398187 L8.9803872,8.12112255 L10.3988336,8.85692013 C10.447611,8.88176828 10.5022417,8.89463085 10.5568724,8.89463085 C10.6723122,8.89463085 10.7757203,8.84084192 10.8342531,8.75051158 C10.9220524,8.61486992 10.8700232,8.43830188 10.7178378,8.35674148 L9.3013424,7.62211323 L10.7617374,7.2701465 C10.844659,7.2505603 10.9139229,7.20291033 10.9571721,7.13567415 C10.9994459,7.06931496 11.0111524,6.99038556 10.98904,6.91934907" id="Page-1" fill="#4FB4ED" fill-rule="nonzero"></path>
            </g>
            <g id="snow-copy-4" transform="translate(288.000000, 81.000000)">
                <rect id="Rectangle" stroke-opacity="0.284137228" stroke="#FFFFFF" x="0" y="0" width="12" height="12"></rect>
                <path d="M10.98904,6.91934907 C10.9679032,6.84538928 10.915874,6.78312275 10.8420575,6.74424269 C10.7685662,6.70507032 10.6820677,6.69425407 10.5988209,6.71325559 L8.51667682,7.21489589 L7.13952858,6.50014616 L8.51667682,5.78510411 L10.6036987,6.28762139 C10.7753951,6.32299348 10.94449,6.23295547 10.9883897,6.08298958 C11.0111524,6.00815279 10.9997711,5.93010036 10.9565218,5.86315653 C10.9132725,5.79621269 10.8443338,5.74914737 10.7630381,5.73043817 L9.3013424,5.37788677 L10.7214148,4.64150452 C10.8719743,4.55935947 10.9220524,4.38776107 10.8349035,4.25065775 C10.7474294,4.11296975 10.5506939,4.06502745 10.3972077,4.14395687 L8.98168792,4.87975444 L9.37353294,3.5648488 C9.39499498,3.49118134 9.38231287,3.41137493 9.33938877,3.34560042 C9.2958143,3.27924124 9.22655042,3.23246825 9.14427921,3.21346672 C8.976485,3.174879 8.80186194,3.26608634 8.75503565,3.41722155 L8.19734752,5.28697177 L6.82019927,6.00201383 L6.82019927,4.5719297 L8.34400486,3.20235814 C8.46594834,3.09068763 8.46562315,2.90885764 8.34335449,2.79660246 C8.28287054,2.74193653 8.20222527,2.71182642 8.11637707,2.71182642 C8.03085403,2.71182642 7.95053394,2.74193653 7.89004997,2.79631012 L6.82019927,3.75807971 L6.82019927,2.28706922 C6.82019927,2.12891804 6.67614339,2 6.49924405,2 C6.32299509,2 6.17991476,2.12891804 6.17991476,2.28706922 L6.17991476,3.75807971 L5.11038923,2.79660246 C5.04990528,2.74193653 4.96925999,2.71182642 4.88341178,2.71182642 C4.79788877,2.71182642 4.71724348,2.74222887 4.65578398,2.79747945 C4.53416569,2.90914997 4.53481605,3.09097997 4.65708469,3.20323513 L6.17991476,4.5719297 L6.17991476,6.00201383 L4.80244132,5.28697177 L4.244428,3.41546757 C4.19792689,3.26550168 4.02362903,3.174879 3.85583481,3.21346672 C3.68511395,3.25263911 3.58235626,3.41079027 3.62625589,3.56601813 L4.01842611,4.88004678 L2.60063003,4.14366454 C2.44714384,4.06502745 2.25528611,4.11180043 2.16358462,4.25065775 C2.07611051,4.38863805 2.12813972,4.56111345 2.28227628,4.64325852 L3.69877162,5.37788677 L2.24000254,5.7298535 C2.15740616,5.7485627 2.08781709,5.79504336 2.04456781,5.86111022 C2.00099334,5.92717705 1.98863639,6.00815279 2.01074882,6.08386656 C2.04944554,6.20869198 2.17626675,6.29551435 2.31902191,6.29551435 C2.34601205,6.29551435 2.37235184,6.29259103 2.40291901,6.28615975 L4.48181129,5.78510411 L5.86026027,6.50014616 L4.48311201,7.21489589 L2.40161829,6.71354793 C2.31967227,6.69425407 2.23024705,6.70536266 2.15708097,6.74453503 C2.08456526,6.78312275 2.0315605,6.84597395 2.01204955,6.91613344 C1.98896157,6.99038556 2.00001779,7.06814565 2.04294189,7.13567415 C2.08554082,7.20203332 2.15610543,7.25085263 2.23707589,7.26985416 L3.69877162,7.62211323 L2.28032518,8.35791081 C2.12813972,8.43888655 2.07643568,8.61486992 2.16521055,8.74934225 C2.22276786,8.8396726 2.32682629,8.89375386 2.44324165,8.89375386 C2.49917307,8.89375386 2.55412891,8.88089128 2.6029063,8.85604313 L4.01972683,8.11995322 L3.62820699,9.43310488 C3.6054442,9.50706468 3.61682561,9.5851171 3.66007489,9.65235327 C3.70234863,9.71812777 3.77031179,9.76548543 3.85030671,9.78507163 C3.87794722,9.79267223 3.90623811,9.79618022 3.93713045,9.79618022 C4.07891006,9.79618022 4.20605645,9.70877318 4.24670427,9.58277845 L4.8027665,7.7127359 L6.17991476,6.99798617 L6.17991476,8.4280703 L4.65838544,9.79676487 C4.53351532,9.90902003 4.53351532,10.0914347 4.65838544,10.2036899 C4.71886938,10.2580635 4.79918949,10.2881736 4.88536288,10.2881736 C4.97121108,10.2878813 5.051206,10.2580635 5.11136478,10.2036899 L6.17991476,9.24221262 L6.17991476,10.7129308 C6.17991476,10.8713743 6.32364546,11 6.50054478,11 C6.67679374,11 6.82019927,10.8713743 6.82019927,10.7129308 L6.82019927,9.24192029 L7.88939961,10.2031052 C7.94988357,10.2580635 8.03052886,10.2881736 8.1157267,10.2881736 C8.20222527,10.2881736 8.28287054,10.2580635 8.34270414,10.2036899 C8.46757426,10.0914347 8.46757426,9.90902003 8.34270414,9.79676487 L6.82019927,8.4280703 L6.82019927,6.99827849 L8.19734752,7.71419755 L8.75438528,9.5851171 C8.7934072,9.70935784 8.92022841,9.79618022 9.06298357,9.79618022 C9.09355072,9.79618022 9.12184162,9.79267223 9.14850659,9.78536395 C9.22980225,9.76577777 9.29776539,9.71871244 9.34003913,9.65323025 C9.38296324,9.58687108 9.3946698,9.50706468 9.3722322,9.43398187 L8.9803872,8.12112255 L10.3988336,8.85692013 C10.447611,8.88176828 10.5022417,8.89463085 10.5568724,8.89463085 C10.6723122,8.89463085 10.7757203,8.84084192 10.8342531,8.75051158 C10.9220524,8.61486992 10.8700232,8.43830188 10.7178378,8.35674148 L9.3013424,7.62211323 L10.7617374,7.2701465 C10.844659,7.2505603 10.9139229,7.20291033 10.9571721,7.13567415 C10.9994459,7.06931496 11.0111524,6.99038556 10.98904,6.91934907" id="Page-1" fill="#4FB4ED" fill-rule="nonzero"></path>
            </g>
        </g>
    </g>
</svg>