<?xml version="1.0" encoding="UTF-8"?>
<svg width="453px" height="140px" viewBox="0 0 453 140" version="1.1" xmlns="http://www.w3.org/2000/svg" xmlns:xlink="http://www.w3.org/1999/xlink">
    <!-- Generator: Sketch 47.1 (45422) - http://www.bohemiancoding.com/sketch -->
    <title>Artboard</title>
    <desc>Created with Sketch.</desc>
    <defs></defs>
    <g id="Page-1" stroke="none" stroke-width="1" fill="none" fill-rule="evenodd">
        <g id="Artboard">
            <g id="snow" transform="translate(23.000000, 52.000000)">
                <rect id="Rectangle" stroke-opacity="0.284137228" stroke="#FFFFFF" x="0" y="0" width="18" height="18"></rect>
                <path d="M16.9829511,10.6523208 C16.9500716,10.5372722 16.8691373,10.4404132 16.7543117,10.3799331 C16.6399919,10.3189983 16.5054386,10.302173 16.3759437,10.3317309 L13.1370528,11.1120603 L10.9948222,10.0002274 L13.1370528,8.88793972 L16.3835312,9.66963328 C16.6506145,9.72465653 16.9136511,9.5845974 16.9819395,9.35131713 C17.0173482,9.23490434 16.9996439,9.11348945 16.9323672,9.0093546 C16.8650905,8.90521974 16.7578525,8.83200701 16.6313926,8.80290381 L14.3576437,8.25449054 L16.5666452,7.10900704 C16.8008489,6.98122584 16.8787482,6.714295 16.7431832,6.50102317 C16.6071123,6.28684183 16.3010794,6.21226493 16.0623231,6.33504401 L13.8604034,7.47961802 L14.4699401,5.43420924 C14.5033255,5.31961542 14.4835978,5.19547212 14.416827,5.09315621 C14.3490445,4.98993082 14.2413006,4.91717283 14.1133232,4.8876149 C13.85231,4.82758956 13.5806741,4.96946764 13.5078332,5.20456686 L12.6403184,8.1130672 L10.4980877,9.22535485 L10.4980877,7.00077953 L12.868452,4.87033488 C13.0581419,4.6966252 13.057636,4.41377855 12.8674403,4.23915938 C12.7733542,4.15412349 12.647906,4.10728554 12.5143643,4.10728554 C12.3813285,4.10728554 12.2563861,4.15412349 12.1623,4.23870464 L10.4980877,5.73479066 L10.4980877,3.44655211 C10.4980877,3.20053918 10.2740008,3 9.99882408,3 C9.72465903,3 9.50208962,3.20053918 9.50208962,3.44655211 L9.50208962,5.73479066 L7.83838325,4.23915938 C7.7442971,4.15412349 7.61884887,4.10728554 7.48530721,4.10728554 C7.35227142,4.10728554 7.22682319,4.15457824 7.13121953,4.24052359 C6.94203552,4.41423328 6.94304719,4.69707995 7.13324285,4.87169909 L9.50208962,7.00077953 L9.50208962,9.22535485 L7.35935317,8.1130672 L6.49133245,5.20183844 C6.41899738,4.96855816 6.14786738,4.82758956 5.88685415,4.8876149 C5.62128836,4.94854972 5.46144306,5.19456264 5.52973139,5.4360282 L6.13977395,7.48007276 L3.93431338,6.33458928 C3.69555708,6.21226493 3.39711172,6.28502289 3.25446496,6.50102317 C3.11839412,6.71565919 3.19932845,6.98395426 3.43909644,7.11173547 L5.64253363,8.25449054 L3.37333729,8.80199433 C3.24485403,8.83109753 3.13660436,8.90340078 3.0693277,9.00617145 C3.0015452,9.10894207 2.98232328,9.23490434 3.01672039,9.35268132 C3.07691528,9.54685419 3.27419272,9.68191121 3.4962563,9.68191121 C3.53824097,9.68191121 3.57921398,9.67736383 3.6267629,9.66735961 L6.86059534,8.88793972 L9.0048493,10.0002274 L6.86261869,11.1120603 L3.62473956,10.3321857 C3.49726798,10.302173 3.35816209,10.319453 3.24434818,10.3803878 C3.13154596,10.4404132 3.04909411,10.5381817 3.01874374,10.6473187 C2.98282911,10.762822 3.00002767,10.8837821 3.0667985,10.9888265 C3.1330635,11.0920518 3.24283066,11.167993 3.36878472,11.1975509 L5.64253363,11.7455095 L3.43606138,12.8900835 C3.19932845,13.0160457 3.11889995,13.2897976 3.25699418,13.4989768 C3.34652778,13.6394907 3.50839645,13.7236171 3.68948702,13.7236171 C3.77649144,13.7236171 3.8619783,13.7036087 3.93785425,13.664956 L6.1417973,12.5199272 L5.53276642,14.5626076 C5.49735765,14.6776562 5.51506206,14.799071 5.58233872,14.9036606 C5.64809787,15.0059765 5.75381834,15.079644 5.87825488,15.1101114 C5.92125124,15.1219346 5.96525928,15.1273914 6.01331404,15.1273914 C6.2338601,15.1273914 6.43164337,14.991425 6.49487331,14.7954331 L7.359859,11.8864781 L9.50208962,10.7746451 L9.50208962,12.9992205 L7.13526624,15.1283009 C6.94102384,15.3029201 6.94102384,15.5866762 7.13526624,15.7612954 C7.22935237,15.8458765 7.35429477,15.8927145 7.48834226,15.8927145 C7.6218839,15.8922597 7.74632044,15.8458765 7.83990076,15.7612954 L9.50208962,14.2656641 L9.50208962,16.5534479 C9.50208962,16.7999155 9.72567071,17 10.0008474,17 C10.2750125,17 10.4980877,16.7999155 10.4980877,16.5534479 L10.4980877,14.2652093 L12.1612883,15.7603859 C12.2553744,15.8458765 12.3808227,15.8927145 12.5133526,15.8927145 C12.647906,15.8927145 12.7733542,15.8458765 12.8664287,15.7612954 C13.0606711,15.5866762 13.0606711,15.3029201 12.8664287,15.1283009 L10.4980877,12.9992205 L10.4980877,10.7750999 L12.6403184,11.8887517 L13.5068215,14.799071 C13.5675223,14.9923344 13.7647998,15.1273914 13.9868633,15.1273914 C14.0344122,15.1273914 14.0784203,15.1219346 14.1198991,15.1105661 C14.246359,15.0800987 14.3520795,15.006886 14.4178386,14.9050248 C14.4846095,14.8017995 14.5028197,14.6776562 14.4679168,14.5639718 L13.8583801,12.5217462 L16.0648523,13.6663202 C16.1407283,13.7049729 16.2257093,13.7249813 16.3106904,13.7249813 C16.4902634,13.7249813 16.6511204,13.6413096 16.7421715,13.5007958 C16.8787482,13.2897976 16.7978139,13.0151363 16.5610809,12.8882645 L14.3576437,11.7455095 L16.6293693,11.1980057 C16.7583584,11.1675382 16.8661022,11.0934161 16.9333789,10.9888265 C16.999138,10.8856011 17.0173482,10.762822 16.9829511,10.6523208" id="Page-1" fill="#4FB4ED" fill-rule="nonzero"></path>
            </g>
            <g id="snow-copy" transform="translate(119.000000, 117.000000)">
                <rect id="Rectangle" stroke-opacity="0.284137228" stroke="#FFFFFF" x="0" y="0" width="18" height="18"></rect>
                <path d="M16.9829511,10.6523208 C16.9500716,10.5372722 16.8691373,10.4404132 16.7543117,10.3799331 C16.6399919,10.3189983 16.5054386,10.302173 16.3759437,10.3317309 L13.1370528,11.1120603 L10.9948222,10.0002274 L13.1370528,8.88793972 L16.3835312,9.66963328 C16.6506145,9.72465653 16.9136511,9.5845974 16.9819395,9.35131713 C17.0173482,9.23490434 16.9996439,9.11348945 16.9323672,9.0093546 C16.8650905,8.90521974 16.7578525,8.83200701 16.6313926,8.80290381 L14.3576437,8.25449054 L16.5666452,7.10900704 C16.8008489,6.98122584 16.8787482,6.714295 16.7431832,6.50102317 C16.6071123,6.28684183 16.3010794,6.21226493 16.0623231,6.33504401 L13.8604034,7.47961802 L14.4699401,5.43420924 C14.5033255,5.31961542 14.4835978,5.19547212 14.416827,5.09315621 C14.3490445,4.98993082 14.2413006,4.91717283 14.1133232,4.8876149 C13.85231,4.82758956 13.5806741,4.96946764 13.5078332,5.20456686 L12.6403184,8.1130672 L10.4980877,9.22535485 L10.4980877,7.00077953 L12.868452,4.87033488 C13.0581419,4.6966252 13.057636,4.41377855 12.8674403,4.23915938 C12.7733542,4.15412349 12.647906,4.10728554 12.5143643,4.10728554 C12.3813285,4.10728554 12.2563861,4.15412349 12.1623,4.23870464 L10.4980877,5.73479066 L10.4980877,3.44655211 C10.4980877,3.20053918 10.2740008,3 9.99882408,3 C9.72465903,3 9.50208962,3.20053918 9.50208962,3.44655211 L9.50208962,5.73479066 L7.83838325,4.23915938 C7.7442971,4.15412349 7.61884887,4.10728554 7.48530721,4.10728554 C7.35227142,4.10728554 7.22682319,4.15457824 7.13121953,4.24052359 C6.94203552,4.41423328 6.94304719,4.69707995 7.13324285,4.87169909 L9.50208962,7.00077953 L9.50208962,9.22535485 L7.35935317,8.1130672 L6.49133245,5.20183844 C6.41899738,4.96855816 6.14786738,4.82758956 5.88685415,4.8876149 C5.62128836,4.94854972 5.46144306,5.19456264 5.52973139,5.4360282 L6.13977395,7.48007276 L3.93431338,6.33458928 C3.69555708,6.21226493 3.39711172,6.28502289 3.25446496,6.50102317 C3.11839412,6.71565919 3.19932845,6.98395426 3.43909644,7.11173547 L5.64253363,8.25449054 L3.37333729,8.80199433 C3.24485403,8.83109753 3.13660436,8.90340078 3.0693277,9.00617145 C3.0015452,9.10894207 2.98232328,9.23490434 3.01672039,9.35268132 C3.07691528,9.54685419 3.27419272,9.68191121 3.4962563,9.68191121 C3.53824097,9.68191121 3.57921398,9.67736383 3.6267629,9.66735961 L6.86059534,8.88793972 L9.0048493,10.0002274 L6.86261869,11.1120603 L3.62473956,10.3321857 C3.49726798,10.302173 3.35816209,10.319453 3.24434818,10.3803878 C3.13154596,10.4404132 3.04909411,10.5381817 3.01874374,10.6473187 C2.98282911,10.762822 3.00002767,10.8837821 3.0667985,10.9888265 C3.1330635,11.0920518 3.24283066,11.167993 3.36878472,11.1975509 L5.64253363,11.7455095 L3.43606138,12.8900835 C3.19932845,13.0160457 3.11889995,13.2897976 3.25699418,13.4989768 C3.34652778,13.6394907 3.50839645,13.7236171 3.68948702,13.7236171 C3.77649144,13.7236171 3.8619783,13.7036087 3.93785425,13.664956 L6.1417973,12.5199272 L5.53276642,14.5626076 C5.49735765,14.6776562 5.51506206,14.799071 5.58233872,14.9036606 C5.64809787,15.0059765 5.75381834,15.079644 5.87825488,15.1101114 C5.92125124,15.1219346 5.96525928,15.1273914 6.01331404,15.1273914 C6.2338601,15.1273914 6.43164337,14.991425 6.49487331,14.7954331 L7.359859,11.8864781 L9.50208962,10.7746451 L9.50208962,12.9992205 L7.13526624,15.1283009 C6.94102384,15.3029201 6.94102384,15.5866762 7.13526624,15.7612954 C7.22935237,15.8458765 7.35429477,15.8927145 7.48834226,15.8927145 C7.6218839,15.8922597 7.74632044,15.8458765 7.83990076,15.7612954 L9.50208962,14.2656641 L9.50208962,16.5534479 C9.50208962,16.7999155 9.72567071,17 10.0008474,17 C10.2750125,17 10.4980877,16.7999155 10.4980877,16.5534479 L10.4980877,14.2652093 L12.1612883,15.7603859 C12.2553744,15.8458765 12.3808227,15.8927145 12.5133526,15.8927145 C12.647906,15.8927145 12.7733542,15.8458765 12.8664287,15.7612954 C13.0606711,15.5866762 13.0606711,15.3029201 12.8664287,15.1283009 L10.4980877,12.9992205 L10.4980877,10.7750999 L12.6403184,11.8887517 L13.5068215,14.799071 C13.5675223,14.9923344 13.7647998,15.1273914 13.9868633,15.1273914 C14.0344122,15.1273914 14.0784203,15.1219346 14.1198991,15.1105661 C14.246359,15.0800987 14.3520795,15.006886 14.4178386,14.9050248 C14.4846095,14.8017995 14.5028197,14.6776562 14.4679168,14.5639718 L13.8583801,12.5217462 L16.0648523,13.6663202 C16.1407283,13.7049729 16.2257093,13.7249813 16.3106904,13.7249813 C16.4902634,13.7249813 16.6511204,13.6413096 16.7421715,13.5007958 C16.8787482,13.2897976 16.7978139,13.0151363 16.5610809,12.8882645 L14.3576437,11.7455095 L16.6293693,11.1980057 C16.7583584,11.1675382 16.8661022,11.0934161 16.9333789,10.9888265 C16.999138,10.8856011 17.0173482,10.762822 16.9829511,10.6523208" id="Page-1" fill="#4FB4ED" fill-rule="nonzero"></path>
            </g>
            <g id="snow-copy-2" transform="translate(320.000000, 88.000000)">
                <rect id="Rectangle" stroke-opacity="0.284137228" stroke="#FFFFFF" x="0" y="0" width="18" height="18"></rect>
                <path d="M16.9829511,10.6523208 C16.9500716,10.5372722 16.8691373,10.4404132 16.7543117,10.3799331 C16.6399919,10.3189983 16.5054386,10.302173 16.3759437,10.3317309 L13.1370528,11.1120603 L10.9948222,10.0002274 L13.1370528,8.88793972 L16.3835312,9.66963328 C16.6506145,9.72465653 16.9136511,9.5845974 16.9819395,9.35131713 C17.0173482,9.23490434 16.9996439,9.11348945 16.9323672,9.0093546 C16.8650905,8.90521974 16.7578525,8.83200701 16.6313926,8.80290381 L14.3576437,8.25449054 L16.5666452,7.10900704 C16.8008489,6.98122584 16.8787482,6.714295 16.7431832,6.50102317 C16.6071123,6.28684183 16.3010794,6.21226493 16.0623231,6.33504401 L13.8604034,7.47961802 L14.4699401,5.43420924 C14.5033255,5.31961542 14.4835978,5.19547212 14.416827,5.09315621 C14.3490445,4.98993082 14.2413006,4.91717283 14.1133232,4.8876149 C13.85231,4.82758956 13.5806741,4.96946764 13.5078332,5.20456686 L12.6403184,8.1130672 L10.4980877,9.22535485 L10.4980877,7.00077953 L12.868452,4.87033488 C13.0581419,4.6966252 13.057636,4.41377855 12.8674403,4.23915938 C12.7733542,4.15412349 12.647906,4.10728554 12.5143643,4.10728554 C12.3813285,4.10728554 12.2563861,4.15412349 12.1623,4.23870464 L10.4980877,5.73479066 L10.4980877,3.44655211 C10.4980877,3.20053918 10.2740008,3 9.99882408,3 C9.72465903,3 9.50208962,3.20053918 9.50208962,3.44655211 L9.50208962,5.73479066 L7.83838325,4.23915938 C7.7442971,4.15412349 7.61884887,4.10728554 7.48530721,4.10728554 C7.35227142,4.10728554 7.22682319,4.15457824 7.13121953,4.24052359 C6.94203552,4.41423328 6.94304719,4.69707995 7.13324285,4.87169909 L9.50208962,7.00077953 L9.50208962,9.22535485 L7.35935317,8.1130672 L6.49133245,5.20183844 C6.41899738,4.96855816 6.14786738,4.82758956 5.88685415,4.8876149 C5.62128836,4.94854972 5.46144306,5.19456264 5.52973139,5.4360282 L6.13977395,7.48007276 L3.93431338,6.33458928 C3.69555708,6.21226493 3.39711172,6.28502289 3.25446496,6.50102317 C3.11839412,6.71565919 3.19932845,6.98395426 3.43909644,7.11173547 L5.64253363,8.25449054 L3.37333729,8.80199433 C3.24485403,8.83109753 3.13660436,8.90340078 3.0693277,9.00617145 C3.0015452,9.10894207 2.98232328,9.23490434 3.01672039,9.35268132 C3.07691528,9.54685419 3.27419272,9.68191121 3.4962563,9.68191121 C3.53824097,9.68191121 3.57921398,9.67736383 3.6267629,9.66735961 L6.86059534,8.88793972 L9.0048493,10.0002274 L6.86261869,11.1120603 L3.62473956,10.3321857 C3.49726798,10.302173 3.35816209,10.319453 3.24434818,10.3803878 C3.13154596,10.4404132 3.04909411,10.5381817 3.01874374,10.6473187 C2.98282911,10.762822 3.00002767,10.8837821 3.0667985,10.9888265 C3.1330635,11.0920518 3.24283066,11.167993 3.36878472,11.1975509 L5.64253363,11.7455095 L3.43606138,12.8900835 C3.19932845,13.0160457 3.11889995,13.2897976 3.25699418,13.4989768 C3.34652778,13.6394907 3.50839645,13.7236171 3.68948702,13.7236171 C3.77649144,13.7236171 3.8619783,13.7036087 3.93785425,13.664956 L6.1417973,12.5199272 L5.53276642,14.5626076 C5.49735765,14.6776562 5.51506206,14.799071 5.58233872,14.9036606 C5.64809787,15.0059765 5.75381834,15.079644 5.87825488,15.1101114 C5.92125124,15.1219346 5.96525928,15.1273914 6.01331404,15.1273914 C6.2338601,15.1273914 6.43164337,14.991425 6.49487331,14.7954331 L7.359859,11.8864781 L9.50208962,10.7746451 L9.50208962,12.9992205 L7.13526624,15.1283009 C6.94102384,15.3029201 6.94102384,15.5866762 7.13526624,15.7612954 C7.22935237,15.8458765 7.35429477,15.8927145 7.48834226,15.8927145 C7.6218839,15.8922597 7.74632044,15.8458765 7.83990076,15.7612954 L9.50208962,14.2656641 L9.50208962,16.5534479 C9.50208962,16.7999155 9.72567071,17 10.0008474,17 C10.2750125,17 10.4980877,16.7999155 10.4980877,16.5534479 L10.4980877,14.2652093 L12.1612883,15.7603859 C12.2553744,15.8458765 12.3808227,15.8927145 12.5133526,15.8927145 C12.647906,15.8927145 12.7733542,15.8458765 12.8664287,15.7612954 C13.0606711,15.5866762 13.0606711,15.3029201 12.8664287,15.1283009 L10.4980877,12.9992205 L10.4980877,10.7750999 L12.6403184,11.8887517 L13.5068215,14.799071 C13.5675223,14.9923344 13.7647998,15.1273914 13.9868633,15.1273914 C14.0344122,15.1273914 14.0784203,15.1219346 14.1198991,15.1105661 C14.246359,15.0800987 14.3520795,15.006886 14.4178386,14.9050248 C14.4846095,14.8017995 14.5028197,14.6776562 14.4679168,14.5639718 L13.8583801,12.5217462 L16.0648523,13.6663202 C16.1407283,13.7049729 16.2257093,13.7249813 16.3106904,13.7249813 C16.4902634,13.7249813 16.6511204,13.6413096 16.7421715,13.5007958 C16.8787482,13.2897976 16.7978139,13.0151363 16.5610809,12.8882645 L14.3576437,11.7455095 L16.6293693,11.1980057 C16.7583584,11.1675382 16.8661022,11.0934161 16.9333789,10.9888265 C16.999138,10.8856011 17.0173482,10.762822 16.9829511,10.6523208" id="Page-1" fill="#4FB4ED" fill-rule="nonzero"></path>
            </g>
            <g id="snow-copy-5" transform="translate(394.000000, 44.000000)">
                <rect id="Rectangle" stroke-opacity="0.284137228" stroke="#FFFFFF" x="0" y="0" width="18" height="18"></rect>
                <path d="M16.9829511,10.6523208 C16.9500716,10.5372722 16.8691373,10.4404132 16.7543117,10.3799331 C16.6399919,10.3189983 16.5054386,10.302173 16.3759437,10.3317309 L13.1370528,11.1120603 L10.9948222,10.0002274 L13.1370528,8.88793972 L16.3835312,9.66963328 C16.6506145,9.72465653 16.9136511,9.5845974 16.9819395,9.35131713 C17.0173482,9.23490434 16.9996439,9.11348945 16.9323672,9.0093546 C16.8650905,8.90521974 16.7578525,8.83200701 16.6313926,8.80290381 L14.3576437,8.25449054 L16.5666452,7.10900704 C16.8008489,6.98122584 16.8787482,6.714295 16.7431832,6.50102317 C16.6071123,6.28684183 16.3010794,6.21226493 16.0623231,6.33504401 L13.8604034,7.47961802 L14.4699401,5.43420924 C14.5033255,5.31961542 14.4835978,5.19547212 14.416827,5.09315621 C14.3490445,4.98993082 14.2413006,4.91717283 14.1133232,4.8876149 C13.85231,4.82758956 13.5806741,4.96946764 13.5078332,5.20456686 L12.6403184,8.1130672 L10.4980877,9.22535485 L10.4980877,7.00077953 L12.868452,4.87033488 C13.0581419,4.6966252 13.057636,4.41377855 12.8674403,4.23915938 C12.7733542,4.15412349 12.647906,4.10728554 12.5143643,4.10728554 C12.3813285,4.10728554 12.2563861,4.15412349 12.1623,4.23870464 L10.4980877,5.73479066 L10.4980877,3.44655211 C10.4980877,3.20053918 10.2740008,3 9.99882408,3 C9.72465903,3 9.50208962,3.20053918 9.50208962,3.44655211 L9.50208962,5.73479066 L7.83838325,4.23915938 C7.7442971,4.15412349 7.61884887,4.10728554 7.48530721,4.10728554 C7.35227142,4.10728554 7.22682319,4.15457824 7.13121953,4.24052359 C6.94203552,4.41423328 6.94304719,4.69707995 7.13324285,4.87169909 L9.50208962,7.00077953 L9.50208962,9.22535485 L7.35935317,8.1130672 L6.49133245,5.20183844 C6.41899738,4.96855816 6.14786738,4.82758956 5.88685415,4.8876149 C5.62128836,4.94854972 5.46144306,5.19456264 5.52973139,5.4360282 L6.13977395,7.48007276 L3.93431338,6.33458928 C3.69555708,6.21226493 3.39711172,6.28502289 3.25446496,6.50102317 C3.11839412,6.71565919 3.19932845,6.98395426 3.43909644,7.11173547 L5.64253363,8.25449054 L3.37333729,8.80199433 C3.24485403,8.83109753 3.13660436,8.90340078 3.0693277,9.00617145 C3.0015452,9.10894207 2.98232328,9.23490434 3.01672039,9.35268132 C3.07691528,9.54685419 3.27419272,9.68191121 3.4962563,9.68191121 C3.53824097,9.68191121 3.57921398,9.67736383 3.6267629,9.66735961 L6.86059534,8.88793972 L9.0048493,10.0002274 L6.86261869,11.1120603 L3.62473956,10.3321857 C3.49726798,10.302173 3.35816209,10.319453 3.24434818,10.3803878 C3.13154596,10.4404132 3.04909411,10.5381817 3.01874374,10.6473187 C2.98282911,10.762822 3.00002767,10.8837821 3.0667985,10.9888265 C3.1330635,11.0920518 3.24283066,11.167993 3.36878472,11.1975509 L5.64253363,11.7455095 L3.43606138,12.8900835 C3.19932845,13.0160457 3.11889995,13.2897976 3.25699418,13.4989768 C3.34652778,13.6394907 3.50839645,13.7236171 3.68948702,13.7236171 C3.77649144,13.7236171 3.8619783,13.7036087 3.93785425,13.664956 L6.1417973,12.5199272 L5.53276642,14.5626076 C5.49735765,14.6776562 5.51506206,14.799071 5.58233872,14.9036606 C5.64809787,15.0059765 5.75381834,15.079644 5.87825488,15.1101114 C5.92125124,15.1219346 5.96525928,15.1273914 6.01331404,15.1273914 C6.2338601,15.1273914 6.43164337,14.991425 6.49487331,14.7954331 L7.359859,11.8864781 L9.50208962,10.7746451 L9.50208962,12.9992205 L7.13526624,15.1283009 C6.94102384,15.3029201 6.94102384,15.5866762 7.13526624,15.7612954 C7.22935237,15.8458765 7.35429477,15.8927145 7.48834226,15.8927145 C7.6218839,15.8922597 7.74632044,15.8458765 7.83990076,15.7612954 L9.50208962,14.2656641 L9.50208962,16.5534479 C9.50208962,16.7999155 9.72567071,17 10.0008474,17 C10.2750125,17 10.4980877,16.7999155 10.4980877,16.5534479 L10.4980877,14.2652093 L12.1612883,15.7603859 C12.2553744,15.8458765 12.3808227,15.8927145 12.5133526,15.8927145 C12.647906,15.8927145 12.7733542,15.8458765 12.8664287,15.7612954 C13.0606711,15.5866762 13.0606711,15.3029201 12.8664287,15.1283009 L10.4980877,12.9992205 L10.4980877,10.7750999 L12.6403184,11.8887517 L13.5068215,14.799071 C13.5675223,14.9923344 13.7647998,15.1273914 13.9868633,15.1273914 C14.0344122,15.1273914 14.0784203,15.1219346 14.1198991,15.1105661 C14.246359,15.0800987 14.3520795,15.006886 14.4178386,14.9050248 C14.4846095,14.8017995 14.5028197,14.6776562 14.4679168,14.5639718 L13.8583801,12.5217462 L16.0648523,13.6663202 C16.1407283,13.7049729 16.2257093,13.7249813 16.3106904,13.7249813 C16.4902634,13.7249813 16.6511204,13.6413096 16.7421715,13.5007958 C16.8787482,13.2897976 16.7978139,13.0151363 16.5610809,12.8882645 L14.3576437,11.7455095 L16.6293693,11.1980057 C16.7583584,11.1675382 16.8661022,11.0934161 16.9333789,10.9888265 C16.999138,10.8856011 17.0173482,10.762822 16.9829511,10.6523208" id="Page-1" fill="#4FB4ED" fill-rule="nonzero"></path>
            </g>
            <g id="snow-copy-3" transform="translate(294.000000, 0.000000)">
                <rect id="Rectangle" stroke-opacity="0.284137228" stroke="#FFFFFF" x="0" y="0" width="18" height="18"></rect>
                <path d="M16.9829511,10.6523208 C16.9500716,10.5372722 16.8691373,10.4404132 16.7543117,10.3799331 C16.6399919,10.3189983 16.5054386,10.302173 16.3759437,10.3317309 L13.1370528,11.1120603 L10.9948222,10.0002274 L13.1370528,8.88793972 L16.3835312,9.66963328 C16.6506145,9.72465653 16.9136511,9.5845974 16.9819395,9.35131713 C17.0173482,9.23490434 16.9996439,9.11348945 16.9323672,9.0093546 C16.8650905,8.90521974 16.7578525,8.83200701 16.6313926,8.80290381 L14.3576437,8.25449054 L16.5666452,7.10900704 C16.8008489,6.98122584 16.8787482,6.714295 16.7431832,6.50102317 C16.6071123,6.28684183 16.3010794,6.21226493 16.0623231,6.33504401 L13.8604034,7.47961802 L14.4699401,5.43420924 C14.5033255,5.31961542 14.4835978,5.19547212 14.416827,5.09315621 C14.3490445,4.98993082 14.2413006,4.91717283 14.1133232,4.8876149 C13.85231,4.82758956 13.5806741,4.96946764 13.5078332,5.20456686 L12.6403184,8.1130672 L10.4980877,9.22535485 L10.4980877,7.00077953 L12.868452,4.87033488 C13.0581419,4.6966252 13.057636,4.41377855 12.8674403,4.23915938 C12.7733542,4.15412349 12.647906,4.10728554 12.5143643,4.10728554 C12.3813285,4.10728554 12.2563861,4.15412349 12.1623,4.23870464 L10.4980877,5.73479066 L10.4980877,3.44655211 C10.4980877,3.20053918 10.2740008,3 9.99882408,3 C9.72465903,3 9.50208962,3.20053918 9.50208962,3.44655211 L9.50208962,5.73479066 L7.83838325,4.23915938 C7.7442971,4.15412349 7.61884887,4.10728554 7.48530721,4.10728554 C7.35227142,4.10728554 7.22682319,4.15457824 7.13121953,4.24052359 C6.94203552,4.41423328 6.94304719,4.69707995 7.13324285,4.87169909 L9.50208962,7.00077953 L9.50208962,9.22535485 L7.35935317,8.1130672 L6.49133245,5.20183844 C6.41899738,4.96855816 6.14786738,4.82758956 5.88685415,4.8876149 C5.62128836,4.94854972 5.46144306,5.19456264 5.52973139,5.4360282 L6.13977395,7.48007276 L3.93431338,6.33458928 C3.69555708,6.21226493 3.39711172,6.28502289 3.25446496,6.50102317 C3.11839412,6.71565919 3.19932845,6.98395426 3.43909644,7.11173547 L5.64253363,8.25449054 L3.37333729,8.80199433 C3.24485403,8.83109753 3.13660436,8.90340078 3.0693277,9.00617145 C3.0015452,9.10894207 2.98232328,9.23490434 3.01672039,9.35268132 C3.07691528,9.54685419 3.27419272,9.68191121 3.4962563,9.68191121 C3.53824097,9.68191121 3.57921398,9.67736383 3.6267629,9.66735961 L6.86059534,8.88793972 L9.0048493,10.0002274 L6.86261869,11.1120603 L3.62473956,10.3321857 C3.49726798,10.302173 3.35816209,10.319453 3.24434818,10.3803878 C3.13154596,10.4404132 3.04909411,10.5381817 3.01874374,10.6473187 C2.98282911,10.762822 3.00002767,10.8837821 3.0667985,10.9888265 C3.1330635,11.0920518 3.24283066,11.167993 3.36878472,11.1975509 L5.64253363,11.7455095 L3.43606138,12.8900835 C3.19932845,13.0160457 3.11889995,13.2897976 3.25699418,13.4989768 C3.34652778,13.6394907 3.50839645,13.7236171 3.68948702,13.7236171 C3.77649144,13.7236171 3.8619783,13.7036087 3.93785425,13.664956 L6.1417973,12.5199272 L5.53276642,14.5626076 C5.49735765,14.6776562 5.51506206,14.799071 5.58233872,14.9036606 C5.64809787,15.0059765 5.75381834,15.079644 5.87825488,15.1101114 C5.92125124,15.1219346 5.96525928,15.1273914 6.01331404,15.1273914 C6.2338601,15.1273914 6.43164337,14.991425 6.49487331,14.7954331 L7.359859,11.8864781 L9.50208962,10.7746451 L9.50208962,12.9992205 L7.13526624,15.1283009 C6.94102384,15.3029201 6.94102384,15.5866762 7.13526624,15.7612954 C7.22935237,15.8458765 7.35429477,15.8927145 7.48834226,15.8927145 C7.6218839,15.8922597 7.74632044,15.8458765 7.83990076,15.7612954 L9.50208962,14.2656641 L9.50208962,16.5534479 C9.50208962,16.7999155 9.72567071,17 10.0008474,17 C10.2750125,17 10.4980877,16.7999155 10.4980877,16.5534479 L10.4980877,14.2652093 L12.1612883,15.7603859 C12.2553744,15.8458765 12.3808227,15.8927145 12.5133526,15.8927145 C12.647906,15.8927145 12.7733542,15.8458765 12.8664287,15.7612954 C13.0606711,15.5866762 13.0606711,15.3029201 12.8664287,15.1283009 L10.4980877,12.9992205 L10.4980877,10.7750999 L12.6403184,11.8887517 L13.5068215,14.799071 C13.5675223,14.9923344 13.7647998,15.1273914 13.9868633,15.1273914 C14.0344122,15.1273914 14.0784203,15.1219346 14.1198991,15.1105661 C14.246359,15.0800987 14.3520795,15.006886 14.4178386,14.9050248 C14.4846095,14.8017995 14.5028197,14.6776562 14.4679168,14.5639718 L13.8583801,12.5217462 L16.0648523,13.6663202 C16.1407283,13.7049729 16.2257093,13.7249813 16.3106904,13.7249813 C16.4902634,13.7249813 16.6511204,13.6413096 16.7421715,13.5007958 C16.8787482,13.2897976 16.7978139,13.0151363 16.5610809,12.8882645 L14.3576437,11.7455095 L16.6293693,11.1980057 C16.7583584,11.1675382 16.8661022,11.0934161 16.9333789,10.9888265 C16.999138,10.8856011 17.0173482,10.762822 16.9829511,10.6523208" id="Page-1" fill="#4FB4ED" fill-rule="nonzero"></path>
            </g>
            <g id="snow-copy-4" transform="translate(154.000000, 26.000000)">
                <rect id="Rectangle" stroke-opacity="0.284137228" stroke="#FFFFFF" x="0" y="0" width="18" height="18"></rect>
                <path d="M16.9829511,10.6523208 C16.9500716,10.5372722 16.8691373,10.4404132 16.7543117,10.3799331 C16.6399919,10.3189983 16.5054386,10.302173 16.3759437,10.3317309 L13.1370528,11.1120603 L10.9948222,10.0002274 L13.1370528,8.88793972 L16.3835312,9.66963328 C16.6506145,9.72465653 16.9136511,9.5845974 16.9819395,9.35131713 C17.0173482,9.23490434 16.9996439,9.11348945 16.9323672,9.0093546 C16.8650905,8.90521974 16.7578525,8.83200701 16.6313926,8.80290381 L14.3576437,8.25449054 L16.5666452,7.10900704 C16.8008489,6.98122584 16.8787482,6.714295 16.7431832,6.50102317 C16.6071123,6.28684183 16.3010794,6.21226493 16.0623231,6.33504401 L13.8604034,7.47961802 L14.4699401,5.43420924 C14.5033255,5.31961542 14.4835978,5.19547212 14.416827,5.09315621 C14.3490445,4.98993082 14.2413006,4.91717283 14.1133232,4.8876149 C13.85231,4.82758956 13.5806741,4.96946764 13.5078332,5.20456686 L12.6403184,8.1130672 L10.4980877,9.22535485 L10.4980877,7.00077953 L12.868452,4.87033488 C13.0581419,4.6966252 13.057636,4.41377855 12.8674403,4.23915938 C12.7733542,4.15412349 12.647906,4.10728554 12.5143643,4.10728554 C12.3813285,4.10728554 12.2563861,4.15412349 12.1623,4.23870464 L10.4980877,5.73479066 L10.4980877,3.44655211 C10.4980877,3.20053918 10.2740008,3 9.99882408,3 C9.72465903,3 9.50208962,3.20053918 9.50208962,3.44655211 L9.50208962,5.73479066 L7.83838325,4.23915938 C7.7442971,4.15412349 7.61884887,4.10728554 7.48530721,4.10728554 C7.35227142,4.10728554 7.22682319,4.15457824 7.13121953,4.24052359 C6.94203552,4.41423328 6.94304719,4.69707995 7.13324285,4.87169909 L9.50208962,7.00077953 L9.50208962,9.22535485 L7.35935317,8.1130672 L6.49133245,5.20183844 C6.41899738,4.96855816 6.14786738,4.82758956 5.88685415,4.8876149 C5.62128836,4.94854972 5.46144306,5.19456264 5.52973139,5.4360282 L6.13977395,7.48007276 L3.93431338,6.33458928 C3.69555708,6.21226493 3.39711172,6.28502289 3.25446496,6.50102317 C3.11839412,6.71565919 3.19932845,6.98395426 3.43909644,7.11173547 L5.64253363,8.25449054 L3.37333729,8.80199433 C3.24485403,8.83109753 3.13660436,8.90340078 3.0693277,9.00617145 C3.0015452,9.10894207 2.98232328,9.23490434 3.01672039,9.35268132 C3.07691528,9.54685419 3.27419272,9.68191121 3.4962563,9.68191121 C3.53824097,9.68191121 3.57921398,9.67736383 3.6267629,9.66735961 L6.86059534,8.88793972 L9.0048493,10.0002274 L6.86261869,11.1120603 L3.62473956,10.3321857 C3.49726798,10.302173 3.35816209,10.319453 3.24434818,10.3803878 C3.13154596,10.4404132 3.04909411,10.5381817 3.01874374,10.6473187 C2.98282911,10.762822 3.00002767,10.8837821 3.0667985,10.9888265 C3.1330635,11.0920518 3.24283066,11.167993 3.36878472,11.1975509 L5.64253363,11.7455095 L3.43606138,12.8900835 C3.19932845,13.0160457 3.11889995,13.2897976 3.25699418,13.4989768 C3.34652778,13.6394907 3.50839645,13.7236171 3.68948702,13.7236171 C3.77649144,13.7236171 3.8619783,13.7036087 3.93785425,13.664956 L6.1417973,12.5199272 L5.53276642,14.5626076 C5.49735765,14.6776562 5.51506206,14.799071 5.58233872,14.9036606 C5.64809787,15.0059765 5.75381834,15.079644 5.87825488,15.1101114 C5.92125124,15.1219346 5.96525928,15.1273914 6.01331404,15.1273914 C6.2338601,15.1273914 6.43164337,14.991425 6.49487331,14.7954331 L7.359859,11.8864781 L9.50208962,10.7746451 L9.50208962,12.9992205 L7.13526624,15.1283009 C6.94102384,15.3029201 6.94102384,15.5866762 7.13526624,15.7612954 C7.22935237,15.8458765 7.35429477,15.8927145 7.48834226,15.8927145 C7.6218839,15.8922597 7.74632044,15.8458765 7.83990076,15.7612954 L9.50208962,14.2656641 L9.50208962,16.5534479 C9.50208962,16.7999155 9.72567071,17 10.0008474,17 C10.2750125,17 10.4980877,16.7999155 10.4980877,16.5534479 L10.4980877,14.2652093 L12.1612883,15.7603859 C12.2553744,15.8458765 12.3808227,15.8927145 12.5133526,15.8927145 C12.647906,15.8927145 12.7733542,15.8458765 12.8664287,15.7612954 C13.0606711,15.5866762 13.0606711,15.3029201 12.8664287,15.1283009 L10.4980877,12.9992205 L10.4980877,10.7750999 L12.6403184,11.8887517 L13.5068215,14.799071 C13.5675223,14.9923344 13.7647998,15.1273914 13.9868633,15.1273914 C14.0344122,15.1273914 14.0784203,15.1219346 14.1198991,15.1105661 C14.246359,15.0800987 14.3520795,15.006886 14.4178386,14.9050248 C14.4846095,14.8017995 14.5028197,14.6776562 14.4679168,14.5639718 L13.8583801,12.5217462 L16.0648523,13.6663202 C16.1407283,13.7049729 16.2257093,13.7249813 16.3106904,13.7249813 C16.4902634,13.7249813 16.6511204,13.6413096 16.7421715,13.5007958 C16.8787482,13.2897976 16.7978139,13.0151363 16.5610809,12.8882645 L14.3576437,11.7455095 L16.6293693,11.1980057 C16.7583584,11.1675382 16.8661022,11.0934161 16.9333789,10.9888265 C16.999138,10.8856011 17.0173482,10.762822 16.9829511,10.6523208" id="Page-1" fill="#4FB4ED" fill-rule="nonzero"></path>
            </g>
        </g>
    </g>
</svg>