<?xml version="1.0" encoding="UTF-8"?>
<svg width="40px" height="40px" viewBox="0 0 40 40" version="1.1" xmlns="http://www.w3.org/2000/svg" xmlns:xlink="http://www.w3.org/1999/xlink">
    <!-- Generator: Sketch 47.1 (45422) - http://www.bohemiancoding.com/sketch -->
    <title>Artboard</title>
    <desc>Created with Sketch.</desc>
    <defs></defs>
    <g id="Page-1" stroke="none" stroke-width="1" fill="none" fill-rule="evenodd">
        <g id="Artboard" fill-rule="nonzero" fill="#4FB4ED">
            <g id="snow-copy" transform="translate(23.000000, 23.000000)">
                <path d="M8.98904,4.91934907 C8.9679032,4.84538928 8.915874,4.78312275 8.8420575,4.74424269 C8.7685662,4.70507032 8.6820677,4.69425407 8.5988209,4.71325559 L6.51667682,5.21489589 L5.13952858,4.50014616 L6.51667682,3.78510411 L8.6036987,4.28762139 C8.7753951,4.32299348 8.94449,4.23295547 8.9883897,4.08298958 C9.0111524,4.00815279 8.9997711,3.93010036 8.9565218,3.86315653 C8.9132725,3.79621269 8.8443338,3.74914737 8.7630381,3.73043817 L7.3013424,3.37788677 L8.7214148,2.64150452 C8.8719743,2.55935947 8.9220524,2.38776107 8.8349035,2.25065775 C8.7474294,2.11296975 8.5506939,2.06502745 8.3972077,2.14395687 L6.98168792,2.87975444 L7.37353294,1.5648488 C7.39499498,1.49118134 7.38231287,1.41137493 7.33938877,1.34560042 C7.2958143,1.27924124 7.22655042,1.23246825 7.14427921,1.21346672 C6.976485,1.174879 6.80186194,1.26608634 6.75503565,1.41722155 L6.19734752,3.28697177 L4.82019927,4.00201383 L4.82019927,2.5719297 L6.34400486,1.20235814 C6.46594834,1.09068763 6.46562315,0.90885764 6.34335449,0.79660246 C6.28287054,0.74193653 6.20222527,0.71182642 6.11637707,0.71182642 C6.03085403,0.71182642 5.95053394,0.74193653 5.89004997,0.79631012 L4.82019927,1.75807971 L4.82019927,0.28706922 C4.82019927,0.12891804 4.67614339,0 4.49924405,0 C4.32299509,0 4.17991476,0.12891804 4.17991476,0.28706922 L4.17991476,1.75807971 L3.11038923,0.79660246 C3.04990528,0.74193653 2.96925999,0.71182642 2.88341178,0.71182642 C2.79788877,0.71182642 2.71724348,0.74222887 2.65578398,0.79747945 C2.53416569,0.90914997 2.53481605,1.09097997 2.65708469,1.20323513 L4.17991476,2.5719297 L4.17991476,4.00201383 L2.80244132,3.28697177 L2.244428,1.41546757 C2.19792689,1.26550168 2.02362903,1.174879 1.85583481,1.21346672 C1.68511395,1.25263911 1.58235626,1.41079027 1.62625589,1.56601813 L2.01842611,2.88004678 L0.60063003,2.14366454 C0.44714384,2.06502745 0.25528611,2.11180043 0.16358462,2.25065775 C0.07611051,2.38863805 0.12813972,2.56111345 0.28227628,2.64325852 L1.69877162,3.37788677 L0.24000254,3.7298535 C0.15740616,3.7485627 0.08781709,3.79504336 0.04456781,3.86111022 C0.00099334,3.92717705 -0.01136361,4.00815279 0.01074882,4.08386656 C0.04944554,4.20869198 0.17626675,4.29551435 0.31902191,4.29551435 C0.34601205,4.29551435 0.37235184,4.29259103 0.40291901,4.28615975 L2.48181129,3.78510411 L3.86026027,4.50014616 L2.48311201,5.21489589 L0.40161829,4.71354793 C0.31967227,4.69425407 0.23024705,4.70536266 0.15708097,4.74453503 C0.08456526,4.78312275 0.0315605,4.84597395 0.01204955,4.91613344 C-0.01103843,4.99038556 1.779e-05,5.06814565 0.04294189,5.13567415 C0.08554082,5.20203332 0.15610543,5.25085263 0.23707589,5.26985416 L1.69877162,5.62211323 L0.28032518,6.35791081 C0.12813972,6.43888655 0.07643568,6.61486992 0.16521055,6.74934225 C0.22276786,6.8396726 0.32682629,6.89375386 0.44324165,6.89375386 C0.49917307,6.89375386 0.55412891,6.88089128 0.6029063,6.85604313 L2.01972683,6.11995322 L1.62820699,7.43310488 C1.6054442,7.50706468 1.61682561,7.5851171 1.66007489,7.65235327 C1.70234863,7.71812777 1.77031179,7.76548543 1.85030671,7.78507163 C1.87794722,7.79267223 1.90623811,7.79618022 1.93713045,7.79618022 C2.07891006,7.79618022 2.20605645,7.70877318 2.24670427,7.58277845 L2.8027665,5.7127359 L4.17991476,4.99798617 L4.17991476,6.4280703 L2.65838544,7.79676487 C2.53351532,7.90902003 2.53351532,8.0914347 2.65838544,8.2036899 C2.71886938,8.2580635 2.79918949,8.2881736 2.88536288,8.2881736 C2.97121108,8.2878813 3.051206,8.2580635 3.11136478,8.2036899 L4.17991476,7.24221262 L4.17991476,8.7129308 C4.17991476,8.8713743 4.32364546,9 4.50054478,9 C4.67679374,9 4.82019927,8.8713743 4.82019927,8.7129308 L4.82019927,7.24192029 L5.88939961,8.2031052 C5.94988357,8.2580635 6.03052886,8.2881736 6.1157267,8.2881736 C6.20222527,8.2881736 6.28287054,8.2580635 6.34270414,8.2036899 C6.46757426,8.0914347 6.46757426,7.90902003 6.34270414,7.79676487 L4.82019927,6.4280703 L4.82019927,4.99827849 L6.19734752,5.71419755 L6.75438528,7.5851171 C6.7934072,7.70935784 6.92022841,7.79618022 7.06298357,7.79618022 C7.09355072,7.79618022 7.12184162,7.79267223 7.14850659,7.78536395 C7.22980225,7.76577777 7.29776539,7.71871244 7.34003913,7.65323025 C7.38296324,7.58687108 7.3946698,7.50706468 7.3722322,7.43398187 L6.9803872,6.12112255 L8.3988336,6.85692013 C8.447611,6.88176828 8.5022417,6.89463085 8.5568724,6.89463085 C8.6723122,6.89463085 8.7757203,6.84084192 8.8342531,6.75051158 C8.9220524,6.61486992 8.8700232,6.43830188 8.7178378,6.35674148 L7.3013424,5.62211323 L8.7617374,5.2701465 C8.844659,5.2505603 8.9139229,5.20291033 8.9571721,5.13567415 C8.9994459,5.06931496 9.0111524,4.99038556 8.98904,4.91934907" id="Page-1"></path>
            </g>
            <g id="snow" transform="translate(4.000000, 5.000000)">
                <path d="M8.98904,4.91934907 C8.9679032,4.84538928 8.915874,4.78312275 8.8420575,4.74424269 C8.7685662,4.70507032 8.6820677,4.69425407 8.5988209,4.71325559 L6.51667682,5.21489589 L5.13952858,4.50014616 L6.51667682,3.78510411 L8.6036987,4.28762139 C8.7753951,4.32299348 8.94449,4.23295547 8.9883897,4.08298958 C9.0111524,4.00815279 8.9997711,3.93010036 8.9565218,3.86315653 C8.9132725,3.79621269 8.8443338,3.74914737 8.7630381,3.73043817 L7.3013424,3.37788677 L8.7214148,2.64150452 C8.8719743,2.55935947 8.9220524,2.38776107 8.8349035,2.25065775 C8.7474294,2.11296975 8.5506939,2.06502745 8.3972077,2.14395687 L6.98168792,2.87975444 L7.37353294,1.5648488 C7.39499498,1.49118134 7.38231287,1.41137493 7.33938877,1.34560042 C7.2958143,1.27924124 7.22655042,1.23246825 7.14427921,1.21346672 C6.976485,1.174879 6.80186194,1.26608634 6.75503565,1.41722155 L6.19734752,3.28697177 L4.82019927,4.00201383 L4.82019927,2.5719297 L6.34400486,1.20235814 C6.46594834,1.09068763 6.46562315,0.90885764 6.34335449,0.79660246 C6.28287054,0.74193653 6.20222527,0.71182642 6.11637707,0.71182642 C6.03085403,0.71182642 5.95053394,0.74193653 5.89004997,0.79631012 L4.82019927,1.75807971 L4.82019927,0.28706922 C4.82019927,0.12891804 4.67614339,0 4.49924405,0 C4.32299509,0 4.17991476,0.12891804 4.17991476,0.28706922 L4.17991476,1.75807971 L3.11038923,0.79660246 C3.04990528,0.74193653 2.96925999,0.71182642 2.88341178,0.71182642 C2.79788877,0.71182642 2.71724348,0.74222887 2.65578398,0.79747945 C2.53416569,0.90914997 2.53481605,1.09097997 2.65708469,1.20323513 L4.17991476,2.5719297 L4.17991476,4.00201383 L2.80244132,3.28697177 L2.244428,1.41546757 C2.19792689,1.26550168 2.02362903,1.174879 1.85583481,1.21346672 C1.68511395,1.25263911 1.58235626,1.41079027 1.62625589,1.56601813 L2.01842611,2.88004678 L0.600630033,2.14366454 C0.447143843,2.06502745 0.255286113,2.11180043 0.163584623,2.25065775 C0.0761105127,2.38863805 0.128139723,2.56111345 0.282276283,2.64325852 L1.69877162,3.37788677 L0.240002543,3.7298535 C0.157406163,3.7485627 0.0878170927,3.79504336 0.0445678127,3.86111022 C0.000993342672,3.92717705 -0.0113636073,4.00815279 0.0107488227,4.08386656 C0.0494455427,4.20869198 0.176266753,4.29551435 0.319021913,4.29551435 C0.346012053,4.29551435 0.372351843,4.29259103 0.402919013,4.28615975 L2.48181129,3.78510411 L3.86026027,4.50014616 L2.48311201,5.21489589 L0.401618293,4.71354793 C0.319672273,4.69425407 0.230247053,4.70536266 0.157080973,4.74453503 C0.0845652627,4.78312275 0.0315605027,4.84597395 0.0120495527,4.91613344 C-0.0110384273,4.99038556 1.77926717e-05,5.06814565 0.0429418927,5.13567415 C0.0855408227,5.20203332 0.156105433,5.25085263 0.237075893,5.26985416 L1.69877162,5.62211323 L0.280325183,6.35791081 C0.128139723,6.43888655 0.0764356827,6.61486992 0.165210553,6.74934225 C0.222767863,6.8396726 0.326826293,6.89375386 0.443241653,6.89375386 C0.499173073,6.89375386 0.554128913,6.88089128 0.602906303,6.85604313 L2.01972683,6.11995322 L1.62820699,7.43310488 C1.6054442,7.50706468 1.61682561,7.5851171 1.66007489,7.65235327 C1.70234863,7.71812777 1.77031179,7.76548543 1.85030671,7.78507163 C1.87794722,7.79267223 1.90623811,7.79618022 1.93713045,7.79618022 C2.07891006,7.79618022 2.20605645,7.70877318 2.24670427,7.58277845 L2.8027665,5.7127359 L4.17991476,4.99798617 L4.17991476,6.4280703 L2.65838544,7.79676487 C2.53351532,7.90902003 2.53351532,8.0914347 2.65838544,8.2036899 C2.71886938,8.2580635 2.79918949,8.2881736 2.88536288,8.2881736 C2.97121108,8.2878813 3.051206,8.2580635 3.11136478,8.2036899 L4.17991476,7.24221262 L4.17991476,8.7129308 C4.17991476,8.8713743 4.32364546,9 4.50054478,9 C4.67679374,9 4.82019927,8.8713743 4.82019927,8.7129308 L4.82019927,7.24192029 L5.88939961,8.2031052 C5.94988357,8.2580635 6.03052886,8.2881736 6.1157267,8.2881736 C6.20222527,8.2881736 6.28287054,8.2580635 6.34270414,8.2036899 C6.46757426,8.0914347 6.46757426,7.90902003 6.34270414,7.79676487 L4.82019927,6.4280703 L4.82019927,4.99827849 L6.19734752,5.71419755 L6.75438528,7.5851171 C6.7934072,7.70935784 6.92022841,7.79618022 7.06298357,7.79618022 C7.09355072,7.79618022 7.12184162,7.79267223 7.14850659,7.78536395 C7.22980225,7.76577777 7.29776539,7.71871244 7.34003913,7.65323025 C7.38296324,7.58687108 7.3946698,7.50706468 7.3722322,7.43398187 L6.9803872,6.12112255 L8.3988336,6.85692013 C8.447611,6.88176828 8.5022417,6.89463085 8.5568724,6.89463085 C8.6723122,6.89463085 8.7757203,6.84084192 8.8342531,6.75051158 C8.9220524,6.61486992 8.8700232,6.43830188 8.7178378,6.35674148 L7.3013424,5.62211323 L8.7617374,5.2701465 C8.844659,5.2505603 8.9139229,5.20291033 8.9571721,5.13567415 C8.9994459,5.06931496 9.0111524,4.99038556 8.98904,4.91934907" id="Page-1"></path>
            </g>
        </g>
    </g>
</svg>