<?xml version="1.0" encoding="UTF-8"?>
<svg width="40px" height="40px" viewBox="0 0 40 40" version="1.1" xmlns="http://www.w3.org/2000/svg" xmlns:xlink="http://www.w3.org/1999/xlink">
    <!-- Generator: Sketch 47.1 (45422) - http://www.bohemiancoding.com/sketch -->
    <title>Artboard Copy</title>
    <desc>Created with Sketch.</desc>
    <defs></defs>
    <g id="Page-1" stroke="none" stroke-width="1" fill="none" fill-rule="evenodd">
        <g id="Artboard-Copy" fill-rule="nonzero" fill="#4FB4ED">
            <path d="M7.99391111,4.73297171 C7.98216845,4.69188293 7.95326333,4.65729042 7.91225417,4.63569038 C7.87142567,4.61392796 7.82337095,4.60791893 7.77712272,4.61847533 L6.62037601,4.89716438 L5.85529366,4.5000812 L6.62037601,4.10283562 L7.77983261,4.38201188 C7.8752195,4.40166304 7.96916111,4.35164193 7.99354983,4.26832754 C8.00619578,4.22675155 7.99987283,4.18338909 7.97584545,4.14619807 C7.95181806,4.10900705 7.91351878,4.08285965 7.8683545,4.07246565 L7.05630133,3.87660376 L7.84523045,3.46750251 C7.92887461,3.42186637 7.95669578,3.32653393 7.90827972,3.25036542 C7.859683,3.17387208 7.7503855,3.14723747 7.66511539,3.19108715 L6.87871551,3.59986358 L7.09640719,2.86936044 C7.10833055,2.82843408 7.10128493,2.78409718 7.07743821,2.74755579 C7.05323017,2.71068958 7.01475023,2.68470458 6.96904401,2.67414818 C6.875825,2.65271056 6.77881219,2.7033813 6.75279758,2.78734531 L6.44297085,3.82609543 L5.67788848,4.22334102 L5.67788848,3.42884983 L6.52444715,2.66797674 C6.59219352,2.60593757 6.59201286,2.50492091 6.52408583,2.44255692 C6.49048363,2.41218696 6.44568071,2.39545912 6.39798726,2.39545912 C6.35047446,2.39545912 6.30585219,2.41218696 6.27224998,2.44239451 L5.67788848,2.97671095 L5.67788848,2.1594829 C5.67788848,2.07162113 5.59785744,2 5.49958003,2 C5.40166394,2 5.32217487,2.07162113 5.32217487,2.1594829 L5.32217487,2.97671095 L4.72799402,2.44255692 C4.69439182,2.41218696 4.64958888,2.39545912 4.60189543,2.39545912 C4.55438265,2.39545912 4.50957971,2.41234937 4.47543555,2.44304414 C4.40786983,2.50508332 4.40823114,2.60609998 4.47615816,2.66846396 L5.32217487,3.42884983 L5.32217487,4.22334102 L4.55691185,3.82609543 L4.24690445,2.78637087 C4.2210705,2.70305649 4.12423835,2.65271056 4.03101934,2.67414818 C3.93617442,2.69591062 3.87908681,2.78377237 3.9034755,2.87001007 L4.12134784,3.60002599 L3.33368335,3.19092474 C3.24841325,3.14723747 3.14182562,3.17322246 3.09088035,3.25036542 C3.04228362,3.32702114 3.07118873,3.42284081 3.15682016,3.46847696 L3.94376201,3.87660376 L3.13333475,4.07214083 C3.08744787,4.08253483 3.04878727,4.10835742 3.0247599,4.14506123 C3.00055186,4.18176503 2.99368688,4.22675155 3.00597157,4.26881476 C3.02746975,4.33816221 3.09792597,4.38639686 3.1772344,4.38639686 C3.19222892,4.38639686 3.20686213,4.38477279 3.2238439,4.38119986 L4.37878405,4.10283562 L5.14458904,4.5000812 L4.37950667,4.89716438 L3.22312127,4.61863774 C3.17759571,4.60791893 3.12791503,4.61409037 3.08726721,4.63585279 C3.0469807,4.65729042 3.01753361,4.69220775 3.0066942,4.73118524 C2.99386754,4.77243642 3.00000988,4.81563647 3.02385661,4.85315231 C3.04752268,4.89001851 3.08672524,4.91714035 3.13170883,4.92769676 L3.94376201,5.12339624 L3.15573621,5.53217267 C3.07118873,5.57715919 3.04246427,5.67492773 3.09178364,5.74963458 C3.12375992,5.79981811 3.18157016,5.82986326 3.24624536,5.82986326 C3.27731837,5.82986326 3.3078494,5.82271738 3.33494795,5.80891285 L4.12207046,5.39997401 L3.90455944,6.12950271 C3.89191345,6.17059149 3.89823645,6.21395394 3.92226383,6.25130737 C3.94574924,6.28784876 3.98350655,6.31415857 4.02794817,6.32503979 C4.04330401,6.32926235 4.05902117,6.33121123 4.07618358,6.33121123 C4.15495003,6.33121123 4.22558692,6.28265177 4.24816904,6.21265469 L4.5570925,5.17374217 L5.32217487,4.77665898 L5.32217487,5.57115017 L4.4768808,6.33153604 C4.40750851,6.39390002 4.40750851,6.4952415 4.4768808,6.5576055 C4.51048299,6.58781306 4.55510527,6.60454089 4.60297938,6.60454089 C4.65067282,6.6043785 4.69511445,6.58781306 4.72853599,6.5576055 L5.32217487,6.02345146 L5.32217487,6.84051711 C5.32217487,6.92854128 5.40202526,7 5.50030266,7 C5.59821875,7 5.67788848,6.92854128 5.67788848,6.84051711 L5.67788848,6.02328905 L6.27188867,6.55728067 C6.30549087,6.58781306 6.35029381,6.60454089 6.39762595,6.60454089 C6.44568071,6.60454089 6.49048363,6.58781306 6.52372452,6.5576055 C6.59309681,6.4952415 6.59309681,6.39390002 6.52372452,6.33153604 L5.67788848,5.57115017 L5.67788848,4.77682138 L6.44297085,5.17455419 L6.75243627,6.21395394 C6.77411511,6.28297658 6.84457134,6.33121123 6.92387976,6.33121123 C6.94086151,6.33121123 6.95657868,6.32926235 6.97139255,6.32520219 C7.01655681,6.31432098 7.05431411,6.28817358 7.07779952,6.25179458 C7.10164625,6.21492838 7.10814989,6.17059149 7.09568456,6.12998993 L6.87799289,5.40062364 L7.66601867,5.80940007 C7.69311722,5.8232046 7.72346761,5.83035047 7.753818,5.83035047 C7.81795122,5.83035047 7.87540017,5.80046773 7.90791839,5.75028421 C7.95669578,5.67492773 7.92779067,5.57683438 7.84324322,5.53152304 L7.05630133,5.12339624 L7.86763189,4.92785917 C7.91369945,4.91697794 7.95217939,4.89050574 7.97620672,4.85315231 C7.99969217,4.81628609 8.00619578,4.77243642 7.99391111,4.73297171" id="Page-1-Copy"></path>
            <path d="M24.9939111,17.7329717 C24.9821684,17.6918829 24.9532633,17.6572904 24.9122542,17.6356904 C24.8714257,17.613928 24.8233709,17.6079189 24.7771227,17.6184753 L23.620376,17.8971644 L22.8552937,17.5000812 L23.620376,17.1028356 L24.7798326,17.3820119 C24.8752195,17.401663 24.9691611,17.3516419 24.9935498,17.2683275 C25.0061958,17.2267515 24.9998728,17.1833891 24.9758454,17.1461981 C24.9518181,17.109007 24.9135188,17.0828596 24.8683545,17.0724657 L24.0563013,16.8766038 L24.8452304,16.4675025 C24.9288746,16.4218664 24.9566958,16.3265339 24.9082797,16.2503654 C24.859683,16.1738721 24.7503855,16.1472375 24.6651154,16.1910872 L23.8787155,16.5998636 L24.0964072,15.8693604 C24.1083305,15.8284341 24.1012849,15.7840972 24.0774382,15.7475558 C24.0532302,15.7106896 24.0147502,15.6847046 23.969044,15.6741482 C23.875825,15.6527106 23.7788122,15.7033813 23.7527976,15.7873453 L23.4429708,16.8260954 L22.6778885,17.223341 L22.6778885,16.4288498 L23.5244471,15.6679767 C23.5921935,15.6059376 23.5920129,15.5049209 23.5240858,15.4425569 C23.4904836,15.412187 23.4456807,15.3954591 23.3979873,15.3954591 C23.3504745,15.3954591 23.3058522,15.412187 23.27225,15.4423945 L22.6778885,15.9767109 L22.6778885,15.1594829 C22.6778885,15.0716211 22.5978574,15 22.49958,15 C22.4016639,15 22.3221749,15.0716211 22.3221749,15.1594829 L22.3221749,15.9767109 L21.727994,15.4425569 C21.6943918,15.412187 21.6495889,15.3954591 21.6018954,15.3954591 C21.5543827,15.3954591 21.5095797,15.4123494 21.4754355,15.4430441 C21.4078698,15.5050833 21.4082311,15.6061 21.4761582,15.668464 L22.3221749,16.4288498 L22.3221749,17.223341 L21.5569118,16.8260954 L21.2469044,15.7863709 C21.2210705,15.7030565 21.1242384,15.6527106 21.0310193,15.6741482 C20.9361744,15.6959106 20.8790868,15.7837724 20.9034755,15.8700101 L21.1213478,16.600026 L20.3336834,16.1909247 C20.2484132,16.1472375 20.1418256,16.1732225 20.0908803,16.2503654 C20.0422836,16.3270211 20.0711887,16.4228408 20.1568202,16.468477 L20.943762,16.8766038 L20.1333347,17.0721408 C20.0874479,17.0825348 20.0487873,17.1083574 20.0247599,17.1450612 C20.0005519,17.181765 19.9936869,17.2267515 20.0059716,17.2688148 C20.0274697,17.3381622 20.097926,17.3863969 20.1772344,17.3863969 C20.1922289,17.3863969 20.2068621,17.3847728 20.2238439,17.3811999 L21.3787841,17.1028356 L22.144589,17.5000812 L21.3795067,17.8971644 L20.2231213,17.6186377 C20.1775957,17.6079189 20.127915,17.6140904 20.0872672,17.6358528 C20.0469807,17.6572904 20.0175336,17.6922078 20.0066942,17.7311852 C19.9938675,17.7724364 20.0000099,17.8156365 20.0238566,17.8531523 C20.0475227,17.8900185 20.0867252,17.9171404 20.1317088,17.9276968 L20.943762,18.1233962 L20.1557362,18.5321727 C20.0711887,18.5771592 20.0424643,18.6749277 20.0917836,18.7496346 C20.1237599,18.7998181 20.1815702,18.8298633 20.2462454,18.8298633 C20.2773184,18.8298633 20.3078494,18.8227174 20.3349479,18.8089128 L21.1220705,18.399974 L20.9045594,19.1295027 C20.8919134,19.1705915 20.8982365,19.2139539 20.9222638,19.2513074 C20.9457492,19.2878488 20.9835066,19.3141586 21.0279482,19.3250398 C21.043304,19.3292624 21.0590212,19.3312112 21.0761836,19.3312112 C21.15495,19.3312112 21.2255869,19.2826518 21.248169,19.2126547 L21.5570925,18.1737422 L22.3221749,17.776659 L22.3221749,18.5711502 L21.4768808,19.331536 C21.4075085,19.3939 21.4075085,19.4952415 21.4768808,19.5576055 C21.510483,19.5878131 21.5551053,19.6045409 21.6029794,19.6045409 C21.6506728,19.6043785 21.6951144,19.5878131 21.728536,19.5576055 L22.3221749,19.0234515 L22.3221749,19.8405171 C22.3221749,19.9285413 22.4020253,20 22.5003027,20 C22.5982187,20 22.6778885,19.9285413 22.6778885,19.8405171 L22.6778885,19.023289 L23.2718887,19.5572807 C23.3054909,19.5878131 23.3502938,19.6045409 23.3976259,19.6045409 C23.4456807,19.6045409 23.4904836,19.5878131 23.5237245,19.5576055 C23.5930968,19.4952415 23.5930968,19.3939 23.5237245,19.331536 L22.6778885,18.5711502 L22.6778885,17.7768214 L23.4429708,18.1745542 L23.7524363,19.2139539 C23.7741151,19.2829766 23.8445713,19.3312112 23.9238798,19.3312112 C23.9408615,19.3312112 23.9565787,19.3292624 23.9713926,19.3252022 C24.0165568,19.314321 24.0543141,19.2881736 24.0777995,19.2517946 C24.1016462,19.2149284 24.1081499,19.1705915 24.0956846,19.1299899 L23.8779929,18.4006236 L24.6660187,18.8094001 C24.6931172,18.8232046 24.7234676,18.8303505 24.753818,18.8303505 C24.8179512,18.8303505 24.8754002,18.8004677 24.9079184,18.7502842 C24.9566958,18.6749277 24.9277907,18.5768344 24.8432432,18.531523 L24.0563013,18.1233962 L24.8676319,17.9278592 C24.9136994,17.9169779 24.9521794,17.8905057 24.9762067,17.8531523 C24.9996922,17.8162861 25.0061958,17.7724364 24.9939111,17.7329717" id="Page-1-Copy-2"></path>
            <path d="M9.99391111,32.7329717 C9.98216845,32.6918829 9.95326333,32.6572904 9.91225417,32.6356904 C9.87142567,32.613928 9.82337095,32.6079189 9.77712272,32.6184753 L8.62037601,32.8971644 L7.85529366,32.5000812 L8.62037601,32.1028356 L9.77983261,32.3820119 C9.8752195,32.401663 9.96916111,32.3516419 9.99354983,32.2683275 C10.0061958,32.2267516 9.99987283,32.1833891 9.97584545,32.1461981 C9.95181806,32.1090071 9.91351878,32.0828597 9.8683545,32.0724656 L9.05630133,31.8766038 L9.84523045,31.4675025 C9.92887461,31.4218664 9.95669578,31.3265339 9.90827972,31.2503654 C9.859683,31.1738721 9.7503855,31.1472375 9.66511539,31.1910872 L8.87871551,31.5998636 L9.09640719,30.8693604 C9.10833055,30.8284341 9.10128493,30.7840972 9.07743821,30.7475558 C9.05323017,30.7106896 9.01475023,30.6847046 8.96904401,30.6741482 C8.875825,30.6527106 8.77881219,30.7033813 8.75279758,30.7873453 L8.44297085,31.8260954 L7.67788848,32.223341 L7.67788848,31.4288498 L8.52444715,30.6679767 C8.59219352,30.6059376 8.59201286,30.5049209 8.52408583,30.4425569 C8.49048363,30.412187 8.44568071,30.3954591 8.39798726,30.3954591 C8.35047446,30.3954591 8.30585219,30.412187 8.27224998,30.4423945 L7.67788848,30.976711 L7.67788848,30.1594829 C7.67788848,30.0716211 7.59785744,30 7.49958003,30 C7.40166394,30 7.32217487,30.0716211 7.32217487,30.1594829 L7.32217487,30.976711 L6.72799402,30.4425569 C6.69439182,30.412187 6.64958888,30.3954591 6.60189543,30.3954591 C6.55438265,30.3954591 6.50957971,30.4123494 6.47543555,30.4430441 C6.40786983,30.5050833 6.40823114,30.6061 6.47615816,30.668464 L7.32217487,31.4288498 L7.32217487,32.223341 L6.55691185,31.8260954 L6.24690445,30.7863709 C6.2210705,30.7030565 6.12423835,30.6527106 6.03101934,30.6741482 C5.93617442,30.6959106 5.87908681,30.7837724 5.9034755,30.8700101 L6.12134784,31.600026 L5.33368335,31.1909247 C5.24841325,31.1472375 5.14182562,31.1732225 5.09088035,31.2503654 C5.04228362,31.3270211 5.07118873,31.4228408 5.15682016,31.468477 L5.94376201,31.8766038 L5.13333475,32.0721408 C5.08744787,32.0825348 5.04878727,32.1083574 5.0247599,32.1450612 C5.00055186,32.181765 4.99368688,32.2267516 5.00597157,32.2688148 C5.02746975,32.3381622 5.09792597,32.3863969 5.1772344,32.3863969 C5.19222892,32.3863969 5.20686213,32.3847728 5.2238439,32.3811999 L6.37878405,32.1028356 L7.14458904,32.5000812 L6.37950667,32.8971644 L5.22312127,32.6186377 C5.17759571,32.6079189 5.12791503,32.6140904 5.08726721,32.6358528 C5.0469807,32.6572904 5.01753361,32.6922078 5.0066942,32.7311852 C4.99386754,32.7724364 5.00000988,32.8156365 5.02385661,32.8531523 C5.04752268,32.8900185 5.08672524,32.9171403 5.13170883,32.9276968 L5.94376201,33.1233962 L5.15573621,33.5321727 C5.07118873,33.5771592 5.04246427,33.6749277 5.09178364,33.7496346 C5.12375992,33.7998181 5.18157016,33.8298633 5.24624536,33.8298633 C5.27731837,33.8298633 5.3078494,33.8227174 5.33494795,33.8089128 L6.12207046,33.399974 L5.90455944,34.1295027 C5.89191345,34.1705915 5.89823645,34.2139539 5.92226383,34.2513074 C5.94574924,34.2878488 5.98350655,34.3141586 6.02794817,34.3250398 C6.04330401,34.3292624 6.05902117,34.3312112 6.07618358,34.3312112 C6.15495003,34.3312112 6.22558692,34.2826518 6.24816904,34.2126547 L6.5570925,33.1737422 L7.32217487,32.776659 L7.32217487,33.5711502 L6.4768808,34.331536 C6.40750851,34.3939 6.40750851,34.4952415 6.4768808,34.5576055 C6.51048299,34.5878131 6.55510527,34.6045409 6.60297938,34.6045409 C6.65067282,34.6043785 6.69511445,34.5878131 6.72853599,34.5576055 L7.32217487,34.0234515 L7.32217487,34.8405171 C7.32217487,34.9285413 7.40202526,35 7.50030266,35 C7.59821875,35 7.67788848,34.9285413 7.67788848,34.8405171 L7.67788848,34.0232891 L8.27188867,34.5572807 C8.30549087,34.5878131 8.35029381,34.6045409 8.39762595,34.6045409 C8.44568071,34.6045409 8.49048363,34.5878131 8.52372452,34.5576055 C8.59309681,34.4952415 8.59309681,34.3939 8.52372452,34.331536 L7.67788848,33.5711502 L7.67788848,32.7768214 L8.44297085,33.1745542 L8.75243627,34.2139539 C8.77411511,34.2829766 8.84457134,34.3312112 8.92387976,34.3312112 C8.94086151,34.3312112 8.95657868,34.3292624 8.97139255,34.3252022 C9.01655681,34.314321 9.05431411,34.2881736 9.07779952,34.2517946 C9.10164625,34.2149284 9.10814989,34.1705915 9.09568456,34.1299899 L8.87799289,33.4006236 L9.66601867,33.8094001 C9.69311722,33.8232046 9.72346761,33.8303505 9.753818,33.8303505 C9.81795122,33.8303505 9.87540017,33.8004677 9.90791839,33.7502842 C9.95669578,33.6749277 9.92779067,33.5768344 9.84324322,33.531523 L9.05630133,33.1233962 L9.86763189,32.9278592 C9.91369945,32.9169779 9.95217939,32.8905057 9.97620672,32.8531523 C9.99969217,32.8162861 10.0061958,32.7724364 9.99391111,32.7329717" id="Page-1-Copy-3"></path>
            <path d="M37.9939111,4.73297171 C37.9821684,4.69188293 37.9532633,4.65729042 37.9122542,4.63569038 C37.8714257,4.61392796 37.8233709,4.60791893 37.7771227,4.61847533 L36.620376,4.89716438 L35.8552937,4.5000812 L36.620376,4.10283562 L37.7798326,4.38201188 C37.8752195,4.40166304 37.9691611,4.35164193 37.9935498,4.26832754 C38.0061958,4.22675155 37.9998728,4.18338909 37.9758454,4.14619807 C37.9518181,4.10900705 37.9135188,4.08285965 37.8683545,4.07246565 L37.0563013,3.87660376 L37.8452304,3.46750251 C37.9288746,3.42186637 37.9566958,3.32653393 37.9082797,3.25036542 C37.859683,3.17387208 37.7503855,3.14723747 37.6651154,3.19108715 L36.8787155,3.59986358 L37.0964072,2.86936044 C37.1083305,2.82843408 37.1012849,2.78409718 37.0774382,2.74755579 C37.0532302,2.71068958 37.0147502,2.68470458 36.969044,2.67414818 C36.875825,2.65271056 36.7788122,2.7033813 36.7527976,2.78734531 L36.4429708,3.82609543 L35.6778885,4.22334102 L35.6778885,3.42884983 L36.5244471,2.66797674 C36.5921935,2.60593757 36.5920129,2.50492091 36.5240858,2.44255692 C36.4904836,2.41218696 36.4456807,2.39545912 36.3979873,2.39545912 C36.3504745,2.39545912 36.3058522,2.41218696 36.27225,2.44239451 L35.6778885,2.97671095 L35.6778885,2.1594829 C35.6778885,2.07162113 35.5978574,2 35.49958,2 C35.4016639,2 35.3221749,2.07162113 35.3221749,2.1594829 L35.3221749,2.97671095 L34.727994,2.44255692 C34.6943918,2.41218696 34.6495889,2.39545912 34.6018954,2.39545912 C34.5543827,2.39545912 34.5095797,2.41234937 34.4754355,2.44304414 C34.4078698,2.50508332 34.4082311,2.60609998 34.4761582,2.66846396 L35.3221749,3.42884983 L35.3221749,4.22334102 L34.5569118,3.82609543 L34.2469044,2.78637087 C34.2210705,2.70305649 34.1242384,2.65271056 34.0310193,2.67414818 C33.9361744,2.69591062 33.8790868,2.78377237 33.9034755,2.87001007 L34.1213478,3.60002599 L33.3336834,3.19092474 C33.2484132,3.14723747 33.1418256,3.17322246 33.0908803,3.25036542 C33.0422836,3.32702114 33.0711887,3.42284081 33.1568202,3.46847696 L33.943762,3.87660376 L33.1333347,4.07214083 C33.0874479,4.08253483 33.0487873,4.10835742 33.0247599,4.14506123 C33.0005519,4.18176503 32.9936869,4.22675155 33.0059716,4.26881476 C33.0274697,4.33816221 33.097926,4.38639686 33.1772344,4.38639686 C33.1922289,4.38639686 33.2068621,4.38477279 33.2238439,4.38119986 L34.3787841,4.10283562 L35.144589,4.5000812 L34.3795067,4.89716438 L33.2231213,4.61863774 C33.1775957,4.60791893 33.127915,4.61409037 33.0872672,4.63585279 C33.0469807,4.65729042 33.0175336,4.69220775 33.0066942,4.73118524 C32.9938675,4.77243642 33.0000099,4.81563647 33.0238566,4.85315231 C33.0475227,4.89001851 33.0867252,4.91714035 33.1317088,4.92769676 L33.943762,5.12339624 L33.1557362,5.53217267 C33.0711887,5.57715919 33.0424643,5.67492773 33.0917836,5.74963458 C33.1237599,5.79981811 33.1815702,5.82986326 33.2462454,5.82986326 C33.2773184,5.82986326 33.3078494,5.82271738 33.3349479,5.80891285 L34.1220705,5.39997401 L33.9045594,6.12950271 C33.8919134,6.17059149 33.8982365,6.21395394 33.9222638,6.25130737 C33.9457492,6.28784876 33.9835066,6.31415857 34.0279482,6.32503979 C34.043304,6.32926235 34.0590212,6.33121123 34.0761836,6.33121123 C34.15495,6.33121123 34.2255869,6.28265177 34.248169,6.21265469 L34.5570925,5.17374217 L35.3221749,4.77665898 L35.3221749,5.57115017 L34.4768808,6.33153604 C34.4075085,6.39390002 34.4075085,6.4952415 34.4768808,6.5576055 C34.510483,6.58781306 34.5551053,6.60454089 34.6029794,6.60454089 C34.6506728,6.6043785 34.6951144,6.58781306 34.728536,6.5576055 L35.3221749,6.02345146 L35.3221749,6.84051711 C35.3221749,6.92854128 35.4020253,7 35.5003027,7 C35.5982187,7 35.6778885,6.92854128 35.6778885,6.84051711 L35.6778885,6.02328905 L36.2718887,6.55728067 C36.3054909,6.58781306 36.3502938,6.60454089 36.3976259,6.60454089 C36.4456807,6.60454089 36.4904836,6.58781306 36.5237245,6.5576055 C36.5930968,6.4952415 36.5930968,6.39390002 36.5237245,6.33153604 L35.6778885,5.57115017 L35.6778885,4.77682138 L36.4429708,5.17455419 L36.7524363,6.21395394 C36.7741151,6.28297658 36.8445713,6.33121123 36.9238798,6.33121123 C36.9408615,6.33121123 36.9565787,6.32926235 36.9713926,6.32520219 C37.0165568,6.31432098 37.0543141,6.28817358 37.0777995,6.25179458 C37.1016462,6.21492838 37.1081499,6.17059149 37.0956846,6.12998993 L36.8779929,5.40062364 L37.6660187,5.80940007 C37.6931172,5.8232046 37.7234676,5.83035047 37.753818,5.83035047 C37.8179512,5.83035047 37.8754002,5.80046773 37.9079184,5.75028421 C37.9566958,5.67492773 37.9277907,5.57683438 37.8432432,5.53152304 L37.0563013,5.12339624 L37.8676319,4.92785917 C37.9136994,4.91697794 37.9521794,4.89050574 37.9762067,4.85315231 C37.9996922,4.81628609 38.0061958,4.77243642 37.9939111,4.73297171" id="Page-1-Copy-4"></path>
        </g>
    </g>
</svg>