<?xml version="1.0" encoding="UTF-8"?>
<svg width="474px" height="434px" viewBox="0 0 474 434" version="1.1" xmlns="http://www.w3.org/2000/svg" xmlns:xlink="http://www.w3.org/1999/xlink">
    <!-- Generator: Sketch 42 (36781) - http://www.bohemiancoding.com/sketch -->
    <title>Artboard</title>
    <desc>Created with Sketch.</desc>
    <defs></defs>
    <g id="Page-1" stroke="none" stroke-width="1" fill="none" fill-rule="evenodd">
        <g id="Artboard">
            <g id="Group-5">
                <g id="Page-1" transform="translate(0.843847, 0.000000)">
                    <path d="M173.282206,113.710572 C178.209817,113.981706 181.166384,117.776604 181.166384,121.876158 L181.166384,130.270483 C181.166384,134.360178 178.209817,138.017044 173.282206,138.427196 L173.282206,155.277961 C173.282206,166.123343 164.038993,174.59753 153.198249,174.59753 L102.044717,174.59753 C91.2039725,174.59753 82.6141607,166.123343 82.6141607,155.277961 L82.6141607,138.427196 C76.7010273,138.017044 74.7299828,134.360178 74.7299828,130.270483 L74.7299828,121.876158 C74.7299828,117.758857 77.6865495,113.986636 82.6141607,113.710572 L82.6141607,103.57507 C82.6141607,92.7296882 91.2039725,83.8907022 102.044717,83.8907022 L153.198249,83.8907022 C164.038993,83.8907022 173.282206,92.7296882 173.282206,103.57507 L173.282206,113.710572 Z" id="Fill-1" fill="#FF9274"></path>
                    <polygon id="Fill-3" fill="#FF9274" points="138.267193 206.126138 117.048899 206.126138 117.12577 170.748504 138.359832 170.748504"></polygon>
                    <path d="M127.573586,152.35868 C121.464334,152.35868 115.365923,151.961345 110.902492,151.961345 C111.424819,153.666042 112.274339,155.52849 113.417545,157.316006 C116.216428,161.666976 120.887804,165.507227 127.703675,165.497367 C134.493924,165.507227 139.192894,161.666976 141.990791,157.316006 C143.133997,155.52849 143.967749,153.666042 144.490076,151.961345 C139.948789,151.961345 133.763652,152.35868 127.573586,152.35868" id="Fill-5" fill="#FFFFFF"></path>
                    <path d="M77.4902335,250.47241 C75.0569791,254.919017 69.489764,256.556669 65.0529429,254.125332 L61.8322563,252.371338 C57.3865655,249.945916 55.7417289,244.37632 58.1749832,239.928728 L83.5659781,193.364575 C85.9893772,188.923884 91.563491,187.277358 96.0022831,189.705738 L99.2239553,191.472549 C103.668661,193.892055 105.314483,199.457707 102.881228,203.914173 L77.4902335,250.47241 Z" id="Fill-7" fill="#1ED2FF"></path>
                    <path d="M177.534932,250.47241 C179.96523,254.919017 185.532445,256.556669 189.97715,254.125332 L193.195866,252.371338 C197.644513,249.945916 199.28048,244.37632 196.856095,239.928728 L171.4651,193.364575 C169.037759,188.923884 163.473501,187.277358 159.025839,189.705738 L155.807123,191.472549 C151.361432,193.892055 149.722509,199.457707 152.14985,203.914173 L177.534932,250.47241 Z" id="Fill-9" fill="#1ED2FF"></path>
                    <path d="M233.210138,217.578171 C237.038892,214.256526 237.45084,208.461149 234.124702,204.630757 L231.715101,201.865185 C228.394876,198.040709 222.601977,197.6345 218.788005,200.963046 L178.759049,235.743199 C174.939165,239.077661 174.53313,244.866137 177.859267,248.691599 L180.262956,251.465058 C183.58318,255.280661 189.37608,255.692785 193.195964,252.371141 L233.210138,217.578171 Z" id="Fill-11" fill="#1ED2FF"></path>
                    <path d="M69.4206789,255.253449 C74.4675383,254.91034 78.2844659,250.535708 77.9444607,245.483732 L77.7010367,241.823909 C77.3699012,236.766017 72.993197,232.948443 67.9374679,233.290565 L15.0415331,236.844893 C9.99171717,237.185043 6.16296329,241.55376 6.51183816,246.605736 L6.75821872,250.273447 C7.09822389,255.322465 11.4650729,259.146941 16.5148888,258.807776 L69.4206789,255.253449 Z" id="Fill-13" fill="#1ED2FF"></path>
                    <polygon id="Fill-15" fill="#4CB950" points="130.840396 428.811301 130.840396 407.778162 156.225477 407.778162 164.012088 422.086178 164.012088 428.811301"></polygon>
                    <path d="M178.356069,428.811301 L178.356069,426.57518 C178.356069,424.09356 176.349546,422.086178 173.874899,422.086178 L154.146715,422.086178 C151.675025,422.086178 149.665546,424.09356 149.665546,426.57518 L149.665546,428.811301 L178.356069,428.811301 Z" id="Fill-17" fill="#4CB950"></path>
                    <polygon id="Fill-19" fill="#403939" points="130.839903 433.755118 178.355872 433.755118 178.355872 428.811596 130.839903 428.811596"></polygon>
                    <path d="M125.324329,278.485932 L125.324329,407.778655 L99.9303777,407.778655 L99.9303777,278.485932 C99.9303777,272.879856 105.10634,268.339585 111.551656,268.339585 L113.703051,268.339585 C120.111902,268.339585 125.324329,272.879856 125.324329,278.485932" id="Fill-21" fill="#FFB061"></path>
                    <path d="M156.234544,278.485932 L156.234544,407.778655 L130.840593,407.778655 L130.840593,278.485932 C130.840593,272.879856 136.022469,268.339585 142.455958,268.339585 L144.619179,268.339585 C151.022117,268.339585 156.234544,272.879856 156.234544,278.485932" id="Fill-22" fill="#FFB061"></path>
                    <path d="M128.506482,272.774951 C128.506482,273.575538 127.854066,274.234148 127.059735,274.234148 C126.244708,274.234148 125.601162,273.575538 125.601162,272.774951 C125.601162,271.965492 126.244708,271.312797 127.059735,271.312797 C127.854066,271.312797 128.506482,271.965492 128.506482,272.774951" id="Fill-23" fill="#C68742"></path>
                    <path d="M167.031926,296.416306 C167.031926,299.765557 164.586845,302.470986 161.551437,302.470986 L92.5707933,302.470986 C89.5511532,302.470986 87.105087,299.765557 87.105087,296.416306 L87.105087,194.664936 C87.105087,191.321601 89.5511532,188.605326 92.5707933,188.605326 L161.551437,188.605326 C164.586845,188.605326 167.031926,191.321601 167.031926,194.664936 L167.031926,296.416306 Z" id="Fill-24" fill="#1ED2FF"></path>
                    <polygon id="Fill-25" fill="#1ED2FF" points="113.170475 189.512197 142.513414 189.512197 142.513414 180.277847 113.170475 180.277847"></polygon>
                    <polygon id="Fill-26" fill="#194F4F" points="92.5710889 308.298703 162.821085 308.298703 162.821085 302.470789 92.5710889 302.470789"></polygon>
                    <path d="M125.324329,321.983701 L125.324329,363.462356 L120.295209,363.462356 C117.326816,363.462356 114.908345,361.048765 114.908345,358.076145 L114.908345,327.375828 C114.908345,324.387432 117.326816,321.983701 120.295209,321.983701 L125.324329,321.983701 Z" id="Fill-27" fill="#FFCF61"></path>
                    <path d="M156.234544,321.983701 L156.234544,363.462356 L151.205424,363.462356 C148.234075,363.462356 145.824473,361.048765 145.824473,358.076145 L145.824473,327.375828 C145.824473,324.387432 148.234075,321.983701 151.205424,321.983701 L156.234544,321.983701 Z" id="Fill-28" fill="#FFCF61"></path>
                    <polygon id="Fill-29" fill="#4CB950" points="99.9304762 428.811301 99.9304762 407.778162 125.324428 407.778162 133.102169 422.086178 133.102169 428.811301"></polygon>
                    <path d="M147.455019,428.811301 L147.455019,426.57518 C147.455019,424.09356 145.448496,422.086178 142.96498,422.086178 L123.245666,422.086178 C120.765106,422.086178 118.764496,424.09356 118.764496,426.57518 L118.764496,428.811301 L147.455019,428.811301 Z" id="Fill-30" fill="#4CB950"></path>
                    <polygon id="Fill-31" fill="#403939" points="99.9299835 433.755118 147.454822 433.755118 147.454822 428.811596 99.9299835 428.811596"></polygon>
                    <g id="Group-4" transform="translate(0.000000, 131.130522)">
                        <path d="M113.353782,233.416569 L40.1886112,247.359786 C24.5079669,138.153695 30.9542678,172.419185 5.92594519,67.5118098 L79.0950579,53.5567616 C94.7727456,162.766796 88.3294012,128.497362 113.353782,233.416569" id="Fill-32" fill="#403939"></path>
                        <path d="M117.021896,248.825786 C125.058829,271.359531 110.868295,295.10993 88.0357156,299.46583 C65.179484,303.824687 43.2772378,286.938428 42.4444716,263.037179 C41.6422565,257.520824 40.8893175,252.291378 40.1886112,247.359687 L113.353782,233.41647 C114.517684,238.246609 115.726919,243.362671 117.021896,248.825786" id="Fill-33" fill="#534B4B"></path>
                        <path d="M2.25812709,52.0913534 C-5.74037135,29.6483153 8.35161107,5.82594177 31.2640175,1.46215462 C54.0739296,-2.88881526 76.0481188,13.9520904 76.8394932,37.8799598 C77.6377662,43.4140622 78.3907052,48.6366064 79.094368,53.5574518 L5.92624085,67.5115141 C4.77022327,62.6626426 3.5570454,57.5544679 2.25812709,52.0913534" id="Fill-34" fill="#736363"></path>
                    </g>
                    <path d="M22.4374832,248.781122 C22.4374832,254.982709 17.4083633,260.005106 11.2182981,260.005106 C5.02921851,260.005106 9.85522233e-05,254.982709 9.85522233e-05,248.781122 L9.85522233e-05,247.412632 C9.85522233e-05,241.219919 5.02921851,236.197522 11.2182981,236.197522 C17.4083633,236.197522 22.4374832,241.219919 22.4374832,247.412632 L22.4374832,248.781122 Z" id="Fill-35" fill="#FF9274"></path>
                    <path d="M241.154728,206.238043 C241.154728,212.439629 236.125608,217.462027 229.935543,217.462027 C223.746463,217.462027 218.717344,212.439629 218.717344,206.238043 L218.717344,204.869553 C218.717344,198.67684 223.746463,193.654442 229.935543,193.654442 C236.125608,193.654442 241.154728,198.67684 241.154728,204.869553 L241.154728,206.238043 Z" id="Fill-36" fill="#FF9274"></path>
                    <path d="M395.389845,250.47241 C397.823099,254.919017 403.390314,256.556669 407.827135,254.125332 L411.047822,252.371338 C415.493513,249.945916 417.138349,244.37632 414.705095,239.928728 L389.3141,193.364575 C386.890701,188.923884 381.316587,187.277358 376.877795,189.705738 L373.656123,191.472549 C369.210432,193.892055 367.565596,199.457707 369.99885,203.914173 L395.389845,250.47241 Z" id="Fill-37" fill="#FFCF61"></path>
                    <path d="M295.345147,250.47241 C292.914849,254.919017 287.347634,256.556669 282.902928,254.125332 L279.684213,252.371338 C275.235565,249.945916 273.599598,244.37632 276.023983,239.928728 L301.414978,193.364575 C303.842319,188.923884 309.406578,187.277358 313.85424,189.705738 L317.072955,191.472549 C321.518646,193.892055 323.157569,199.457707 320.730228,203.914173 L295.345147,250.47241 Z" id="Fill-38" fill="#FFCF61"></path>
                    <path d="M239.66994,217.578171 C235.841187,214.256526 235.429238,208.461149 238.755376,204.630757 L241.164978,201.865185 C244.485202,198.040709 250.278102,197.6345 254.092073,200.963046 L294.121029,235.743199 C297.940914,239.077661 298.346949,244.866137 295.020811,248.691599 L292.617122,251.465058 C289.296898,255.280661 283.503998,255.692785 279.684114,252.371141 L239.66994,217.578171 Z" id="Fill-39" fill="#FFCF61"></path>
                    <path d="M403.459399,255.253449 C398.41254,254.91034 394.595612,250.535708 394.935618,245.483732 L395.179042,241.823909 C395.510177,236.766017 399.886881,232.948443 404.94261,233.290565 L457.838545,236.844893 C462.888361,237.185043 466.717115,241.55376 466.36824,246.605736 L466.12186,250.273447 C465.781854,255.322465 461.415005,259.146941 456.365189,258.807776 L403.459399,255.253449 Z" id="Fill-40" fill="#FFCF61"></path>
                    <polygon id="Fill-41" fill="#F93B6F" points="342.039683 428.811301 342.039683 407.778162 316.654601 407.778162 308.86799 422.086178 308.86799 428.811301"></polygon>
                    <path d="M294.524009,428.811301 L294.524009,426.57518 C294.524009,424.09356 296.530533,422.086178 299.005179,422.086178 L318.733363,422.086178 C321.205053,422.086178 323.214533,424.09356 323.214533,426.57518 L323.214533,428.811301 L294.524009,428.811301 Z" id="Fill-42" fill="#F93B6F"></path>
                    <polygon id="Fill-43" fill="#403939" points="342.039683 433.755118 294.523714 433.755118 294.523714 428.811596 342.039683 428.811596"></polygon>
                    <path d="M347.555749,278.485932 L347.555749,407.778655 L372.949701,407.778655 L372.949701,278.485932 C372.949701,272.879856 367.773738,268.339585 361.328422,268.339585 L359.177027,268.339585 C352.768176,268.339585 347.555749,272.879856 347.555749,278.485932" id="Fill-44" fill="#4CB950"></path>
                    <path d="M316.645534,278.485932 L316.645534,407.778655 L342.039486,407.778655 L342.039486,278.485932 C342.039486,272.879856 336.85761,268.339585 330.424121,268.339585 L328.260899,268.339585 C321.857961,268.339585 316.645534,272.879856 316.645534,278.485932" id="Fill-45" fill="#4CB950"></path>
                    <path d="M344.373596,272.774951 C344.373596,273.575538 345.026012,274.234148 345.820343,274.234148 C346.63537,274.234148 347.278916,273.575538 347.278916,272.774951 C347.278916,271.965492 346.63537,271.312797 345.820343,271.312797 C345.026012,271.312797 344.373596,271.965492 344.373596,272.774951" id="Fill-46" fill="#C68742"></path>
                    <path d="M305.848054,296.416306 C305.848054,299.765557 308.293135,302.470986 311.328543,302.470986 L380.309186,302.470986 C383.328827,302.470986 385.774893,299.765557 385.774893,296.416306 L385.774893,194.664936 C385.774893,191.321601 383.328827,188.605326 380.309186,188.605326 L311.328543,188.605326 C308.293135,188.605326 305.848054,191.321601 305.848054,194.664936 L305.848054,296.416306 Z" id="Fill-47" fill="#FFCF61"></path>
                    <polygon id="Fill-48" fill="#FFB061" points="310.059092 308.298703 380.309088 308.298703 380.309088 302.470789 310.059092 302.470789"></polygon>
                    <path d="M347.555749,321.983701 L347.555749,363.462356 L352.584869,363.462356 C355.553262,363.462356 357.971734,361.048765 357.971734,358.076145 L357.971734,327.375828 C357.971734,324.387432 355.553262,321.983701 352.584869,321.983701 L347.555749,321.983701 Z" id="Fill-49" fill="#75C977"></path>
                    <path d="M316.645534,321.983701 L316.645534,363.462356 L321.674654,363.462356 C324.646004,363.462356 327.055606,361.048765 327.055606,358.076145 L327.055606,327.375828 C327.055606,324.387432 324.646004,321.983701 321.674654,321.983701 L316.645534,321.983701 Z" id="Fill-50" fill="#75C977"></path>
                    <polygon id="Fill-51" fill="#F93B6F" points="372.949602 428.811301 372.949602 407.778162 347.555651 407.778162 339.777909 422.086178 339.777909 428.811301"></polygon>
                    <path d="M325.42496,428.811301 L325.42496,426.57518 C325.42496,424.09356 327.431484,422.086178 329.915,422.086178 L349.634314,422.086178 C352.114874,422.086178 354.115484,424.09356 354.115484,426.57518 L354.115484,428.811301 L325.42496,428.811301 Z" id="Fill-52" fill="#F93B6F"></path>
                    <polygon id="Fill-53" fill="#403939" points="372.949602 433.755118 325.424763 433.755118 325.424763 428.811596 372.949602 428.811596"></polygon>
                    <path d="M450.442595,248.781122 C450.442595,254.982709 455.471715,260.005106 461.66178,260.005106 C467.85086,260.005106 472.87998,254.982709 472.87998,248.781122 L472.87998,247.412632 C472.87998,241.219919 467.85086,236.197522 461.66178,236.197522 C455.471715,236.197522 450.442595,241.219919 450.442595,247.412632 L450.442595,248.781122 Z" id="Fill-57" fill="#FF9274"></path>
                    <path d="M231.700022,206.238043 C231.700022,212.439629 236.729142,217.462027 242.919207,217.462027 C249.108287,217.462027 254.137407,212.439629 254.137407,206.238043 L254.137407,204.869553 C254.137407,198.67684 249.108287,193.654442 242.919207,193.654442 C236.729142,193.654442 231.700022,198.67684 231.700022,204.869553 L231.700022,206.238043 Z" id="Fill-58" fill="#FF9274"></path>
                    <polygon id="Fill-59" fill="#FFCA80" points="128.11789 83.4134068 82.7838676 83.4134068 82.7838676 95.2447321 82.7838676 120.87927 113.802194 95.2447321 142.433586 95.2447321 173.451913 120.87927 173.451913 95.2447321 173.451913 83.4134068"></polygon>
                    <g id="Group-2" transform="translate(75.885212, 0.000000)">
                        <polygon id="Fill-60" fill="#F84A61" points="0.307482937 103.411699 102.058711 103.411699 102.058711 71.6662811 0.307482937 71.6662811"></polygon>
                        <path d="M51.1779725,0.985549398 L51.1779725,30.9828888 C42.335867,30.9828888 35.1602796,24.2666398 35.1602796,15.9817542 C35.1602796,7.70179839 42.335867,0.985549398 51.1779725,0.985549398" id="Fill-61" fill="#FFAA00"></path>
                        <path d="M67.2239498,15.9813598 C67.2239498,24.2662454 60.0365362,30.9824944 51.1776768,30.9824944 L51.1776768,0.98515502 C60.0365362,0.98515502 67.2239498,7.70140402 67.2239498,15.9813598" id="Fill-62" fill="#FF7F00"></path>
                        <path d="M51.1779725,31.3754916 C26.4916261,31.3754916 6.48256815,49.3827687 6.48256815,72.0594755 L51.1779725,72.0594755 L95.9009715,72.0594755 C95.9009715,49.3827687 75.8751597,31.3754916 51.1779725,31.3754916" id="Fill-63" fill="#F84A61"></path>
                    </g>
                    <path d="M111.742847,124.654449 C111.742847,126.745636 110.065488,128.440473 107.970268,128.440473 C105.87899,128.440473 104.185863,126.745636 104.185863,124.654449 C104.185863,122.573122 105.87899,120.87927 107.970268,120.87927 C110.065488,120.87927 111.742847,122.573122 111.742847,124.654449" id="Fill-64" fill="#222324"></path>
                    <path d="M151.206508,124.654449 C151.206508,126.745636 149.524222,128.440473 147.42703,128.440473 C145.336738,128.440473 143.63277,126.745636 143.63277,124.654449 C143.63277,122.573122 145.336738,120.87927 147.42703,120.87927 C149.524222,120.87927 151.206508,122.573122 151.206508,124.654449" id="Fill-65" fill="#222324"></path>
                    <path d="M103.310128,113.46872 L112.179828,113.46872" id="Stroke-66" stroke="#222324" stroke-width="2" stroke-linecap="round" stroke-linejoin="round"></path>
                    <path d="M142.731017,114.454663 L151.600717,114.454663" id="Stroke-67" stroke="#222324" stroke-width="2" stroke-linecap="round" stroke-linejoin="round"></path>
                    <path d="M298.443727,179.526558 C321.603499,189.878968 367.923044,189.878968 391.082817,179.526558 C414.242589,169.174149 391.082817,138.11692 391.082817,138.11692 L298.443727,138.11692 C298.443727,138.11692 275.283954,169.174149 298.443727,179.526558 Z" id="Fill-68" fill="#403939"></path>
                    <path d="M391.097403,112.633527 C386.056456,89.4677918 367.076284,70.0930106 344.381678,70.0930106 C321.670318,70.0930106 302.697044,89.4677918 297.661025,112.633527 C292.04552,112.633527 288.67799,116.725193 288.67799,121.193491 L288.67799,129.964446 C288.67799,134.500774 291.909517,138.530326 298.093669,138.530326 C303.725929,160.882657 322.279371,179.227127 344.381678,179.227127 C366.47413,179.227127 385.037426,160.882657 390.653918,138.530326 C396.83807,138.530326 400.069597,134.500774 400.069597,129.964446 L400.069597,121.193491 C400.069597,116.74787 396.729662,112.633527 391.097403,112.633527" id="Fill-69" fill="#FF9274"></path>
                    <path d="M344.250899,155.035912 C338.141647,155.035912 332.043235,154.638577 327.579805,154.638577 C328.102132,156.343273 328.951652,158.205721 330.094858,159.993237 C332.892755,164.344207 337.565116,168.184458 344.380988,168.174599 C351.171236,168.184458 355.870206,164.344207 358.668104,159.993237 C359.81131,158.205721 360.645061,156.343273 361.167388,154.638577 C356.626102,154.638577 350.440964,155.035912 344.250899,155.035912" id="Fill-70" fill="#FFFFFF"></path>
                    <polygon id="Fill-71" fill="#FF9274" points="334.612886 206.126138 355.831179 206.126138 355.754309 170.748504 334.520247 170.748504"></polygon>
                    <polygon id="Fill-72" fill="#FF9274" points="313.014544 188.400447 377.497128 188.400447 345.160871 220.851406"></polygon>
                    <path d="M324.430667,84.142278 C324.430667,84.142278 324.802209,126.01403 297.660927,133.157841 L298.443431,77.2562865 L391.082521,77.2562865 L391.097304,133.164319 C391.097304,133.164319 384.48445,107.101197 376.270122,96.3012677 C376.270122,96.3012677 357.125367,127.123043 324.430667,84.142278" id="Fill-73" fill="#403939"></path>
                    <g id="Group" transform="translate(293.685626, 0.000000)">
                        <polygon id="Fill-74" fill="#1ED2FF" points="0.307482937 103.411699 102.058711 103.411699 102.058711 71.6662811 0.307482937 71.6662811"></polygon>
                        <path d="M51.1779725,0.985549398 L51.1779725,30.9828888 C42.335867,30.9828888 35.1602796,24.2666398 35.1602796,15.9817542 C35.1602796,7.70179839 42.335867,0.985549398 51.1779725,0.985549398" id="Fill-75" fill="#FFAA00"></path>
                        <path d="M67.2239498,15.9813598 C67.2239498,24.2662454 60.0365362,30.9824944 51.1776768,30.9824944 L51.1776768,0.98515502 C60.0365362,0.98515502 67.2239498,7.70140402 67.2239498,15.9813598" id="Fill-76" fill="#FF7F00"></path>
                        <path d="M51.1779725,31.3754916 C26.4916261,31.3754916 6.48256815,49.3827687 6.48256815,72.0594755 L51.1779725,72.0594755 L95.9009715,72.0594755 C95.9009715,49.3827687 75.8751597,31.3754916 51.1779725,31.3754916" id="Fill-77" fill="#1ED2FF"></path>
                    </g>
                    <g id="Group-3" transform="translate(352.816960, 131.130522)">
                        <path d="M6.70933681,233.416569 L79.8745074,247.359786 C95.5551517,138.153695 89.1088508,172.419185 114.137173,67.5118098 L40.9680607,53.5567616 C25.290373,162.766796 31.7337174,128.497362 6.70933681,233.416569" id="Fill-54" fill="#F93B6F"></path>
                        <path d="M3.04122306,248.825786 C-4.99571075,271.359531 9.19482389,295.10993 32.027403,299.46583 C54.8836346,303.824687 76.7858808,286.938428 77.6186471,263.037179 C78.4208622,257.520824 79.1738011,252.291378 79.8745074,247.359687 L6.70933681,233.41647 C5.54543506,238.246609 4.33619928,243.362671 3.04122306,248.825786" id="Fill-55" fill="#DC2A5B"></path>
                        <path d="M117.804992,52.0913534 C125.80349,29.6483153 111.711508,5.82594177 88.7991011,1.46215462 C65.989189,-2.88881526 44.0149998,13.9520904 43.2236254,37.8799598 C42.4253524,43.4140622 41.6724134,48.6366064 40.9687506,53.5574518 L114.136878,67.5115141 C115.292895,62.6626426 116.506073,57.5544679 117.804992,52.0913534" id="Fill-56" fill="#DC2A5B"></path>
                    </g>
                    <path d="M328.557739,125.640393 C328.557739,127.73158 326.88038,129.426417 324.785159,129.426417 C322.693881,129.426417 321.000754,127.73158 321.000754,125.640393 C321.000754,123.559065 322.693881,121.865214 324.785159,121.865214 C326.88038,121.865214 328.557739,123.559065 328.557739,125.640393" id="Fill-78" fill="#222324"></path>
                    <path d="M364.241922,129.426417 C362.151629,129.426417 360.447661,127.73158 360.447661,125.640393 C360.447661,123.559065 362.151629,121.865214 364.241922,121.865214 C366.339113,121.865214 368.0214,123.559065 368.0214,125.640393 C368.0214,127.73158 366.339113,129.426417 364.241922,129.426417 Z" id="Fill-79" fill="#222324"></path>
                </g>
            </g>
        </g>
    </g>
</svg>