<?xml version="1.0" encoding="UTF-8"?>
<svg width="100px" height="100px" viewBox="0 0 100 100" version="1.1" xmlns="http://www.w3.org/2000/svg" xmlns:xlink="http://www.w3.org/1999/xlink">
    <!-- Generator: Sketch 42 (36781) - http://www.bohemiancoding.com/sketch -->
    <title>Boreal</title>
    <desc>Created with Sketch.</desc>
    <defs></defs>
    <g id="Logo" stroke="none" stroke-width="1" fill="none" fill-rule="evenodd">
        <g id="Boreal">
            <g id="BOREAL" transform="translate(2.000000, 2.000000)">
                <path d="M87.6113455,34.1592727 L87.1255273,33.6661818 L55.0862545,1.60945455 C52.6978909,-0.783272727 49.6506182,-0.352727273 47.4397091,1.87418182 L1.78298182,47.5658182 C-1.53629091,50.8909091 0.590254545,54.2232727 1.69861818,55.3330909 L32.5975273,86.2581818 L33.5837091,87.24 L33.7611636,87.4218182 L37.9749818,91.6356364 C40.4608,94.1272727 44.6528,95.8610909 48.1713455,95.8538182 L54.3938909,95.8538182 C57.9080727,95.8538182 62.0898909,94.1127273 64.5757091,91.6254545 L69.0251636,87.1352727 C71.4978909,84.648 73.2404364,80.4632727 73.2477091,76.9490909 L73.2477091,73.2981818 L76.8884364,73.2981818 C80.4040727,73.2981818 84.5858909,71.5527273 87.0673455,69.0698182 L91.4920727,64.6450909 C93.9749818,62.1607273 95.7102545,57.9730909 95.7248,54.4589091 L95.7248,48.2218182 C95.7248,44.7047273 93.9997091,40.5083636 91.5138909,38.0181818 L87.6113455,34.1592727 Z" id="Fill-1" fill="#4A4A4A"></path>
                <path d="M89.6622545,54.4955636 C89.6622545,56.3952 88.5495273,59.0541091 87.1982545,60.4024727 L82.7808,64.8228364 C81.4397091,66.1682909 78.7953455,67.2708364 76.8811636,67.2752 L70.7211636,67.2752 L70.6629818,67.2752 C70.5771636,67.2752 70.4826182,67.2752 70.3880727,67.2562909 C69.5226182,67.2562909 67.2069818,67.4744727 67.1997091,70.1799273 C67.1982545,70.2468364 67.1895273,70.3137455 67.1735273,70.3792 C67.1735273,70.4984727 67.1997091,70.6250182 67.1997091,70.7413818 L67.1997091,76.9712 C67.1997091,78.8752 66.1131636,81.5326545 64.7575273,82.8752 L60.3284364,87.3057455 C58.9888,88.6482909 56.3429818,89.7537455 54.4302545,89.7581091 L48.1975273,89.7581091 C46.2978909,89.7581091 43.6389818,88.6701091 42.2978909,87.3173818 L37.9066182,82.9261091 L7.93570909,52.9319273 C6.58734545,51.5908364 7.54443636,50.3399273 8.88116364,48.9915636 L48.9437091,8.89556364 C50.4549818,7.3872 51.3393455,6.39956364 53.6549818,8.71810909 L82.8244364,37.9093818 L87.2128,42.2962909 C88.5611636,43.6417455 89.6593455,46.2861091 89.6520727,48.2002909 L89.6520727,54.4373818 L89.6622545,54.4955636 Z" id="Fill-4" fill="#4A4A4A"></path>
                <path d="M72.3704727,36.7774545 C73.1166545,37.5338182 73.1166545,38.7512727 72.3704727,39.5076364 L67.6272,44.2509091 C66.8722909,45.0043636 65.6504727,45.0043636 64.8955636,44.2509091 L60.1595636,39.5076364 C59.4075636,38.7527273 58.1872,38.7498182 57.4322909,39.5018182 C57.4308364,39.5047273 57.4293818,39.5061818 57.4264727,39.5076364 L52.6875636,44.2509091 C51.9341091,45.0058182 50.7137455,45.0058182 49.9602909,44.2538182 L49.9588364,44.2509091 L45.2155636,39.5076364 C44.4664727,38.7541818 43.2475636,38.7498182 42.4941091,39.5003636 C42.4912,39.5032727 42.4897455,39.5061818 42.4868364,39.5076364 L37.7464727,44.2509091 C36.9944727,45.0058182 35.7741091,45.0058182 35.0206545,44.2538182 C35.0206545,44.2538182 35.0192,44.2523636 35.0177455,44.2509091 L30.2526545,39.4610909 C29.5006545,38.7105455 29.4962909,37.4916364 30.2453818,36.7381818 C30.2482909,36.7352727 30.2512,36.7323636 30.2526545,36.7309091 L49.9515636,17.032 C50.6977455,16.2785455 51.9137455,16.2727273 52.6672,17.0203636 C52.6715636,17.0247273 52.6759273,17.0276364 52.6802909,17.032 L72.3704727,36.7774545 Z" id="Fill-6" fill="#FFFFFF"></path>
            </g>
        </g>
    </g>
</svg>
