<?xml version="1.0" encoding="UTF-8"?>
<svg width="100px" height="100px" viewBox="0 0 100 100" version="1.1" xmlns="http://www.w3.org/2000/svg" xmlns:xlink="http://www.w3.org/1999/xlink">
    <!-- Generator: Sketch 45.1 (43504) - http://www.bohemiancoding.com/sketch -->
    <title>Diamond</title>
    <desc>Created with Sketch.</desc>
    <defs>
        <polygon id="path-1" points="97.92552 84.9333333 0 84.9333333 0 0.00772121212 97.92552 0.00772121212"></polygon>
    </defs>
    <g id="Logo" stroke="none" stroke-width="1" fill="none" fill-rule="evenodd">
        <g id="Diamond">
            <g id="Page-1" transform="translate(1.000000, 7.000000)">
                <path d="M17.7462558,43.0621503 C20.5882558,42.6933139 23.11428,41.487617 25.3617467,39.8204291 C27.0420012,38.5731564 28.4603285,36.9754594 29.7972861,35.3409382 C32.8335042,31.628817 35.8715042,27.9172897 38.9077224,24.2051685 C39.4594921,23.5316412 39.9970073,22.8450473 40.646183,22.2606109 C41.3238679,21.6488533 41.6647891,21.6340048 42.4012739,22.1863685 C43.1710194,22.7618958 43.7685224,23.50432 44.3499891,24.258623 C47.1397224,27.8816533 49.9241103,31.5088412 52.7150315,35.1312776 C53.4194436,36.0441624 54.0935648,36.9825867 54.9286436,37.7879685 C56.1937345,39.0073261 57.0751406,39.0340533 58.3972497,37.8574594 C59.3214194,37.0354473 60.1511527,36.1195927 60.9262436,35.156223 C61.4726679,34.4779442 62.0416618,33.8198594 62.6807406,33.2253261 C63.7147891,32.2643321 64.2629952,32.2477018 65.2578436,33.2342352 C65.8743527,33.8459927 66.420777,34.5278352 67.0147164,35.1645382 C70.84028,39.2662836 75.3791648,42.0637382 81.0429709,42.7699321 C82.1560133,42.9095079 83.2791527,42.9748412 84.393383,43.0740291 C72.5674558,31.255823 60.7777588,19.4732533 49.0112255,7.71384727 C37.2642921,19.4637503 25.4300497,31.3009624 13.5322558,43.2011321 C14.9731527,43.3466473 16.3605952,43.2421139 17.7462558,43.0621503" id="Fill-1" fill="#4A4A4A"></path>
                <path d="M14.5387455,52.396977 C18.659497,52.3637164 22.7808424,52.3458982 26.9015939,52.3239224 C28.3329879,52.3167952 29.6135212,52.7111709 30.7699212,53.5967345 C32.6764667,55.0560436 34.5919212,56.5034739 36.4081879,58.0762255 C36.5798364,58.2241164 36.7681152,58.3571588 36.9635212,58.472383 C37.8728424,59.0087103 38.258903,58.9849527 38.9728182,58.2021406 C40.6768303,56.3336073 42.5026,54.5880194 44.276697,52.7895709 C44.4370606,52.6274255 44.5932667,52.4587467 44.7672909,52.3132315 C45.5257515,51.6818739 46.3263818,51.4306376 47.2737152,51.9449891 C48.823897,52.7866012 50.450697,53.4304315 52.1683697,53.8640073 C54.7448788,54.513777 57.3421758,54.3938012 59.9454121,54.179983 C62.562903,53.9655709 65.1768303,53.6977042 67.7949152,53.4975467 C74.4452545,52.9891345 81.1086606,52.8780679 87.7750364,52.8857891 C88.4901394,52.1605891 89.2058364,51.4342012 89.9916182,50.6371345 L89.2563212,50.6371345 C85.5899333,50.6347588 81.9235455,50.6359467 78.2571576,50.6276315 C75.8154727,50.6216921 73.4616909,50.1750497 71.1453273,49.3750133 C66.9224182,47.9174861 63.1639697,45.7739588 60.1711091,42.3997891 C59.8284061,42.0137285 59.4453152,41.6591467 59.0574727,41.3176315 C57.956903,40.3495103 57.4104788,40.3364436 56.3247576,41.3354497 C55.0745152,42.4853164 53.8729758,43.6850739 52.8288303,45.0339103 C52.5259212,45.4265042 52.2117273,45.8149406 51.8654606,46.1695224 C50.9519818,47.1026012 49.9494121,47.1382376 48.9480303,46.2972194 C48.5477152,45.9616436 48.235303,45.5494497 47.9448667,45.1194376 C46.2652061,42.6308315 44.4816061,40.2176558 42.6534606,37.8371467 C42.2115697,37.2616194 41.7578,36.6950012 41.159703,36.2697406 C40.2812667,35.6437285 39.7372182,35.6734255 38.9585636,36.4116921 C38.1603091,37.1707467 37.5283576,38.0735345 36.8393879,38.9270255 C33.9962,42.4520558 31.0223455,45.8078133 26.9027818,47.9602497 C23.5488061,49.7141527 20.0041758,50.5991224 16.2576061,50.7054376 C13.7113879,50.7778982 7.98224848,50.58368 7.93413939,50.6276315 C16.3716424,59.0675103 25.0247455,67.5543103 33.4260182,75.9585527 C33.4331455,75.9229164 33.4420545,75.8831224 33.4497758,75.8457042 L37.9672788,80.4416073 L61.0121273,80.4416073 L72.9752545,68.4951103 L69.9871455,68.860977 C67.5525879,68.7831709 65.4019333,68.2878255 62.8705636,68.527777 C60.7300061,68.7303103 58.5912303,68.9607588 56.4560182,69.2119952 C52.4546485,69.6823952 48.6635333,69.135377 45.1723576,67.0019467 C44.2256182,66.4228558 43.4362727,65.6638012 42.6243576,64.9285042 C41.1282242,63.5737285 40.4434121,63.5333406 38.9538121,64.8952436 C37.7475212,65.998783 36.6808061,67.2448679 35.6063697,68.4778861 C35.0177758,69.1526012 34.3507818,69.7394133 33.5834121,70.2050618 C32.8902848,70.6273527 32.1906242,70.6493285 31.4606727,70.2751467 C30.3226848,69.6901164 29.3557515,68.8770133 28.4404909,68.00808 C23.1853152,63.0178012 17.7899697,58.1760073 12.661303,53.0526861 C12.5157879,52.9071709 12.3382,52.7931345 12.1754606,52.6654376 C12.1962485,52.6143588 12.2170364,52.5638739 12.2372303,52.5133891 C13.0046,52.4730012 13.7713758,52.4035103 14.5387455,52.396977" id="Fill-3" fill="#4A4A4A"></path>
                <g id="Group-7" transform="translate(0.000000, 0.586218)">
                    <mask id="mask-2" fill="white">
                        <use xlink:href="#path-1"></use>
                    </mask>
                    <g id="Clip-6"></g>
                    <path d="M36.9083442,82.651537 L61.0169382,82.651537 L94.6986473,48.9704218 L48.9629382,3.23471273 L3.22722909,48.9704218 L36.9083442,82.651537 Z M61.9624897,84.9334521 L35.9627927,84.9334521 L-0.000237575758,48.9704218 L48.9629382,0.00724606061 L97.92552,48.9704218 L61.9624897,84.9334521 Z" id="Fill-5" fill="#4A4A4A" mask="url(#mask-2)"></path>
                </g>
            </g>
        </g>
    </g>
</svg>
