<?xml version="1.0" encoding="UTF-8"?>
<svg width="100px" height="100px" viewBox="0 0 100 100" version="1.1" xmlns="http://www.w3.org/2000/svg" xmlns:xlink="http://www.w3.org/1999/xlink">
    <!-- Generator: Sketch 42 (36781) - http://www.bohemiancoding.com/sketch -->
    <title>Homewood</title>
    <desc>Created with Sketch.</desc>
    <defs></defs>
    <g id="Logo" stroke="none" stroke-width="1" fill="none" fill-rule="evenodd">
        <g id="Homewood">
            <g id="Group-3" transform="translate(1.000000, 5.000000)">
                <circle id="Oval" fill="#4A4A4A" cx="49" cy="45" r="45"></circle>
                <g id="Group-2" transform="translate(0.000000, 36.000000)" stroke-width="2" stroke="#FFFFFF" fill="#FFFFFF">
                    <g id="Group">
                        <g id="Page-1">
                            <path d="M56.417674,2.20731496 C61.0105559,6.59532283 66.1470677,10.1217795 72.3388157,11.849126 C74.0387685,12.3233071 77.210937,12.5902992 78.6243197,13.0158661 C67.50286,12.5902992 60.4823591,9.48825197 54.0139732,2.00051181 C51.2985244,3.77570079 48.6432646,5.51192126 45.8548945,7.33495276 C56.0357055,11.9722047 77.8720097,14.7455276 78.2163849,14.8249969 C76.7463849,14.9280127 74.861737,15.0379843 73.3948236,15.0055748 C63.6638866,14.7918268 54.2516425,13.0015906 45.2977606,9.09123622 C41.7103433,7.5243937 38.345548,5.56053543 35.3017606,3.08507087 C34.7716346,2.65371654 34.3626583,2.59931496 33.7275874,2.87055118 C25.0156189,6.59300787 16.2758709,10.2514173 7.25987087,13.1875591 C5.07570551,13.8990236 2.80087087,14.3323071 0.565776378,14.8840394 C0.40064252,14.9245512 0.21660315,14.8890551 0.000154330709,14.7455276 C1.77418583,14.0271181 3.54667402,13.3040787 5.32263465,12.5902992 C14.749926,8.80225197 24.1806898,5.02269291 33.5998787,1.2149685 C34.2573276,0.949133858 34.6975559,1.03787402 35.298674,1.40826772 C37.8185087,2.96122047 40.3858,4.43855118 42.9565638,5.90662205 C43.2247134,6.05979528 43.7123984,6.1134252 43.9612567,5.97182677 C47.2963433,4.0770315 53.3407419,0.208732283 53.9217606,0.208732283 C54.5027794,0.208732283 55.7089102,1.53018898 56.417674,2.20731496 Z" id="Fill-1"></path>
                            <path d="M90.697611,19.6236937 C83.9340677,20.9324181 77.0922016,21.4891661 70.2125244,21.1137567 C65.9182724,20.8795598 61.642926,20.3139378 57.3540756,19.9609063 C52.4432724,19.5565598 47.5316976,19.1340795 42.6124063,18.8778906 C34.3070992,18.4446071 26.0249417,19.0337646 17.7505008,19.6904417 C16.1373591,19.8185362 14.5300047,20.0176228 12.8771228,19.9632213 C14.9343512,19.5623472 16.9796189,19.0781346 19.0511228,18.7752606 C27.1561858,17.5907724 35.316422,17.1169772 43.4974929,17.3423 C47.606548,17.4553472 51.7055717,17.9515205 55.8080677,18.2879614 C62.1475874,18.8080559 68.4774614,19.5727646 74.8270126,19.7988591 C80.8138866,20.0118354 86.7760677,19.1510559 92.7073827,18.2929772 C94.4316425,18.0437331 96.1516583,17.7628512 97.8736031,17.4966307 C97.8886504,17.5996465 97.9040835,17.703048 97.9191307,17.8060638 C95.5135008,18.4195283 93.1306346,19.152985 90.697611,19.6236937 Z" id="Fill-3"></path>
                        </g>
                    </g>
                </g>
            </g>
        </g>
    </g>
</svg>