<?xml version="1.0" encoding="UTF-8"?>
<svg width="100px" height="100px" viewBox="0 0 100 100" version="1.1" xmlns="http://www.w3.org/2000/svg" xmlns:xlink="http://www.w3.org/1999/xlink">
    <!-- Generator: Sketch 42 (36781) - http://www.bohemiancoding.com/sketch -->
    <title>Kirkwood</title>
    <desc>Created with Sketch.</desc>
    <defs></defs>
    <g id="Logo" stroke="none" stroke-width="1" fill="none" fill-rule="evenodd">
        <g id="Kirkwood">
            <g id="KIRKWOOD">
                <path d="M58.7878395,0.617222222 L59.3403086,0.617222222 C59.3569753,0.744382716 59.3557407,0.877098765 59.3933951,0.997469136 C60.273642,3.80919753 61.1594444,6.61969136 62.0403086,9.43080247 C63.1403086,12.940679 64.232284,16.4530247 65.3366049,19.9616667 C66.3038889,23.0345062 67.2841358,26.1024074 68.2569753,29.1733951 C68.9254938,31.286358 69.5927778,33.3999383 70.2569753,35.5141358 C71.0847531,38.149321 71.9075926,40.7857407 72.7347531,43.4215432 C73.3989506,45.5357407 74.0699383,47.6474691 74.7316667,49.7629012 C75.4088272,51.9283333 76.0742593,54.0968519 76.7532716,56.2616667 C77.2353704,57.799321 77.7767284,59.3196914 78.197716,60.8733951 C78.3582099,61.4684568 78.6051235,61.6258642 79.1761111,61.6246296 C85.1588272,61.6091975 91.1421605,61.6338889 97.1242593,61.5962346 C98.1038889,61.5894444 98.8970988,61.7629012 99.4526543,62.6098148 L99.4526543,81.1740123 C98.7884568,82.199321 97.7730247,82.1931481 96.7045062,82.1845062 C92.9903086,82.1542593 89.2754938,82.1715432 85.5612963,82.1733951 C84.9804321,82.1733951 84.9112963,82.2733951 85.0841358,82.8184568 C85.2656173,83.3919136 85.4452469,83.9653704 85.6267284,84.5382099 C86.0847531,85.9845062 86.5470988,87.4289506 87.0014198,88.8764815 C87.8100617,91.4567284 88.6137654,94.0382099 89.4205556,96.6190741 C89.7798148,97.7696914 90.1415432,98.9196914 90.502037,100.070309 L77.352037,100.070309 C77.2014198,100.012284 77.0545062,99.9178395 76.8989506,99.9017901 C74.7242593,99.6770988 72.5483333,99.4672222 70.373642,99.2456173 C67.1946296,98.9209259 64.0168519,98.5894444 60.8384568,98.2604321 C58.1705556,97.9845062 55.5051235,97.6845062 52.8335185,97.4480864 C52.2026543,97.3925309 51.8662346,97.1104321 51.7508025,96.5591975 C51.4464815,95.107963 51.1730247,93.6499383 50.9032716,92.1912963 C50.6458642,90.803642 50.4168519,89.4098148 50.1612963,88.0215432 C49.8588272,86.377716 49.5267284,84.7394444 49.2366049,83.0937654 C49.0791975,82.2005556 49.0791975,82.1721605 48.1668519,82.1721605 L47.4483333,82.1721605 C45.1464815,82.1721605 42.8440123,82.1740123 40.5421605,82.1703086 C40.2267284,82.1696914 39.9501852,82.1721605 39.9329012,82.6061111 C39.9032716,83.3215432 39.8316667,84.0357407 39.8038889,84.7511728 C39.7217901,86.845 39.6514198,88.9394444 39.5798148,91.0338889 C39.5748765,91.1678395 39.6001852,91.3030247 39.6180864,91.507963 C39.7952469,91.4024074 39.9094444,91.3530247 40.002037,91.2770988 C40.7569753,90.6598148 41.5112963,90.0412963 42.2594444,89.4159877 C43.4594444,88.4129012 44.6526543,87.4017901 45.8532716,86.3987037 C46.3273457,86.003642 46.4205556,86.0326543 46.4933951,86.6604321 C46.577963,87.390679 46.6446296,88.1264815 46.6495679,88.8598148 C46.6508025,89.095 46.4909259,89.4017901 46.3051235,89.5567284 C44.0440123,91.440679 41.756358,93.2931481 39.4964815,95.1789506 C39.0859877,95.5215432 38.6872222,95.5912963 38.1804321,95.5289506 C36.3588272,95.3054938 34.532284,95.1141358 32.7069753,94.9196914 C30.8804321,94.7246296 29.0514198,94.5468519 27.2248765,94.3505556 C25.4532716,94.1604321 23.6835185,93.9542593 21.9119136,93.7604321 C19.9224074,93.5425309 17.9329012,93.3270988 15.9421605,93.1190741 C15.4347531,93.0659877 15.2668519,92.7499383 15.3483333,92.3147531 C15.652037,90.6937654 15.9798148,89.0770988 16.306358,87.4604321 C16.615,85.9332716 16.9452469,84.4098148 17.2427778,82.8801852 C17.3791975,82.1783333 17.3538889,82.1721605 16.6267284,82.1721605 C11.7094444,82.1721605 6.79216049,82.1672222 1.87487654,82.1770988 C1.13104938,82.1783333 0.548950617,81.9462346 0.174259259,81.277716 C0.145246914,81.2270988 0.0594444444,81.207963 0.000185185185,81.1740123 L0.000185185185,62.6098148 C0.57117284,61.7375926 1.39648148,61.5900617 2.38845679,61.5968519 C8.31685185,61.6338889 14.2452469,61.6147531 20.173642,61.6147531 C20.4866049,61.6147531 20.8156173,61.6733951 21.1075926,61.595 C21.3248765,61.536358 21.6217901,61.3283333 21.6643827,61.1382099 C21.9903086,59.6703086 22.2582099,58.1894444 22.5538889,56.7141358 C22.9254938,54.8598148 23.3045062,53.0073457 23.682284,51.1542593 C24.019321,49.4999383 24.3662346,47.8480864 24.6964815,46.1919136 C25.0545062,44.3931481 25.3890741,42.5888272 25.7501852,40.790679 C26.2785802,38.162284 26.8119136,35.5357407 27.3643827,32.9129012 C27.4915432,32.3091975 27.6285802,31.6845062 27.9001852,31.1388272 C28.2742593,30.3857407 28.7872222,29.7030247 29.2291975,28.9832716 C33.1366049,22.627716 37.0415432,16.2703086 40.9464815,9.91290123 C41.5038889,9.00487654 42.0495679,8.08944444 42.6187037,7.18820988 C42.727963,7.01475309 42.919321,6.89253086 43.0730247,6.74685185 C43.2261111,6.91166667 43.3798148,7.07524691 43.5304321,7.24191358 C43.5538889,7.26783951 43.560679,7.30858025 43.5773457,7.3412963 C44.8057407,9.78388889 45.9946296,12.2474691 47.2804321,14.6598148 C47.847716,15.7227778 48.2174691,16.6857407 47.432284,17.7900617 C47.1829012,18.1412963 47.0767284,18.5931481 46.8884568,18.990679 C46.832284,19.1085802 46.719321,19.199321 46.5699383,19.3764815 C45.5119136,17.3468519 44.4970988,15.4017901 43.4829012,13.4567284 L43.297716,13.5153704 L42.0662346,35.3215432 C42.123642,35.3308025 42.1804321,35.3400617 42.2378395,35.3499383 C42.2989506,35.2672222 42.3748765,35.1912963 42.4180864,35.1005556 C43.0094444,33.8598148 43.5952469,32.6166049 44.1853704,31.3752469 C46.2396914,27.0542593 48.2958642,22.7332716 50.3508025,18.412284 C52.0038889,14.9351235 53.656358,11.457963 55.306358,7.97895062 C56.4699383,5.52648148 57.6273457,3.07154321 58.7878395,0.617222222" id="Fill-1" fill="#4A4A4A"></path>
                <rect id="Rectangle" fill="#FFFFFF" x="4" y="65" width="93" height="14" rx="4"></rect>
            </g>
        </g>
    </g>
</svg>