<svg width="100" height="100" xmlns="http://www.w3.org/2000/svg">
  <g fill="#4A4A4A" fill-rule="nonzero">
    <path d="M70.114 82.603c-6.907-1.005-13.112-5.009-16.557-10.703-4.29-7.098-4.18-15.695.303-23.288 2.919-4.944 8.071-8.804 13.909-10.415 4.067-1.133 9.155-1.07 14.323.143 2.425.574 4.45 1.244 5.79 1.93l.973.479v-.463c0-3.222-2.089-8.757-4.37-11.596-3.11-3.876-7.002-6.364-12.394-7.943-4.099-1.197-1.563-1.1-31.087-1.165l-26.558-.047 1.117.558c.622.303 2.201 1.053 3.509 1.675 3.796 1.786 3.908 1.834 3.908 1.93 0 .047-.383.207-.83.366-.462.16-1.355.543-1.993.83-.638.303-1.197.542-1.245.542-.143 0-3.397 1.882-4.195 2.425-1.579 1.084-4.163 3.094-5.518 4.338-1.883 1.707-4.722 4.96-6.444 7.401-.766 1.069-1.404 1.85-1.436 1.739-.08-.399 1.228-5.423 1.946-7.449C7.938 20.667 17.764 10.3 30.605 5.035c9.426-3.86 20.4-4.641 30.194-2.169C79.796 7.683 94.023 23.38 96.847 42.663c1.068 7.321.574 13.67-1.675 21.613-1.675 5.901-4.69 10.431-9.267 13.877-2.808 2.105-4.833 3.078-8.215 3.94-1.579.398-2.201.478-4.466.526-1.452.032-2.84.016-3.11-.016Z"/>
    <path d="M53.525 29.95c-1.786-.925-2.36-2.967-1.324-4.61.702-1.084 2.17-1.658 3.461-1.34 1.388.336 2.409 1.675 2.409 3.159 0 .526-.654 1.93-1.053 2.297-.845.75-2.568.989-3.493.494ZM47.464 98.218c-15.185-.382-29.748-8.326-38.33-20.91-2.04-3.015-3.349-5.408-4.896-8.965-.83-1.914-1.723-4.77-1.611-5.152.128-.494 2.76-3.573 4.642-5.455C9.884 55.152 15.898 50 16.312 50c.064 0 .128.096.128.207 0 .096.112 1.165.24 2.345 1.291 11.516 5.151 21.182 11.133 27.866l.893.989 1.468-1.627c.829-.894 2.073-2.233 2.79-2.983.719-.75 1.724-1.818 2.25-2.393.526-.574 1.404-1.547 1.978-2.153.558-.622 1.26-1.404 1.547-1.739.287-.335.542-.59.574-.558.016.032.176.43.335.861 1.276 3.51 4.115 7.864 7.242 11.118 4.88 5.104 10.527 8.47 16.78 10 1.85.463 5.28.958 6.763.99.622.016.606.032-.878.734-6.747 3.206-14.275 4.753-22.091 4.561Z"/>
  </g>
</svg>