<?xml version="1.0" encoding="UTF-8"?>
<svg width="100px" height="100px" viewBox="0 0 100 100" version="1.1" xmlns="http://www.w3.org/2000/svg" xmlns:xlink="http://www.w3.org/1999/xlink">
    <!-- Generator: Sketch 42 (36781) - http://www.bohemiancoding.com/sketch -->
    <title>Squaw</title>
    <desc>Created with Sketch.</desc>
    <defs></defs>
    <g id="Logo" stroke="none" stroke-width="1" fill="none" fill-rule="evenodd">
        <g id="Squaw" fill="#4A4A4A">
            <g id="SQUAW" transform="translate(16.000000, 5.000000)">
                <path d="M37.8594375,0 C37.2729375,0.368571429 36.7274063,0.835714286 36.095625,1.09071429 C31.5394688,2.93357143 27.3110625,5.31 23.5613438,8.49428571 C18.4618125,12.8271429 17.4375938,19.3821429 21.5517188,24.6514286 C23.7403125,27.4542857 26.7094688,29.6721429 29.4263438,32.0421429 C31.6559063,33.9878571 34.1269688,35.6614286 36.3220313,37.6414286 C42.021,42.7885714 40.6733438,49.815 35.7894375,53.9314286 C33.8854688,55.5342857 31.7788125,56.9292857 29.6505938,58.2342857 C22.6600313,62.5242857 15.688875,66.8142857 11.3828438,74.4942857 C8.599125,71.2971429 6.48384375,67.9992857 5.1189375,64.3114286 C4.08178125,61.5042857 3.30995777,58.6830806 2.6521875,55.6521429 C1.50786944,50.379243 2.15625,21.0257143 2.15625,4.33714286 C9.20934375,3.16285714 16.2559688,1.94785714 23.3176875,0.835714286 C25.8965625,0.430714286 28.51425,0.272142857 31.1146875,0 L37.8594375,0 Z" id="Fill-1"></path>
                <path d="M67.0173281,29.1771429 C67.0173281,35.745 66.9095156,42.3171429 67.0410469,48.8828571 C67.2847031,61.2042857 62.2865156,71.145 53.2841719,79.2857143 C48.1436719,83.9335714 42.1643906,87.2635714 35.7279844,89.79 C35.0767969,90.0471429 34.1366719,90.075 33.5070469,89.8028571 C30.6090469,88.545 27.7929844,87.0985714 24.9057656,85.8128571 C23.5861406,85.2257143 23.4416719,84.3214286 23.7262969,83.1085714 C24.5176406,79.7592857 26.0895469,76.8021429 28.6252969,74.49 C31.3464844,72.0085714 34.2940781,69.7735714 37.0885781,67.3671429 C39.5316094,65.2628571 42.1061719,63.2592857 44.2602656,60.885 C52.7494219,51.525 51.5117344,39.0578571 41.3816719,31.4914286 C38.8545469,29.6057143 36.0514219,28.0885714 33.3970781,26.37 C31.5189844,25.1528571 29.5632656,24.0171429 27.8382656,22.6071429 C23.8254844,19.3328571 23.3963906,15.0471429 26.5919531,10.9907143 C27.5234531,9.81214286 28.5800156,8.685 29.7487031,7.74 C36.3317344,2.415 43.4301094,-1.04142857 52.3117031,1.26 C56.3870156,2.31642857 60.5852344,2.92285714 64.7403281,3.65357143 C66.4416094,3.95357143 67.0927969,4.68 67.0647656,6.51642857 C66.9504844,14.0678571 67.0173281,21.6235714 67.0173281,29.1771429" id="Fill-3"></path>
            </g>
        </g>
    </g>
</svg>