<?xml version="1.0" encoding="UTF-8"?>
<svg width="100px" height="100px" viewBox="0 0 100 100" version="1.1" xmlns="http://www.w3.org/2000/svg" xmlns:xlink="http://www.w3.org/1999/xlink">
    <!-- Generator: Sketch 42 (36781) - http://www.bohemiancoding.com/sketch -->
    <title>Sugarbowl</title>
    <desc>Created with Sketch.</desc>
    <defs></defs>
    <g id="Logo" stroke="none" stroke-width="1" fill="none" fill-rule="evenodd">
        <g id="Sugarbowl">
            <g id="Page-1" transform="translate(0.000000, 12.000000)">
                <path d="M58.2812,66.7506218 L41.3752,66.7506218 C44.2496,68.9644715 47.03,71.1061088 49.8296,73.2625078 C52.634,71.1017202 55.4208,68.9544974 58.2812,66.7506218 L58.2812,66.7506218 Z M14.8616,30.4445233 C11.4136,33.1012228 8.0076,35.7252073 4.5668,38.3759223 C6.6972,40.0168601 8.7752,41.6171036 10.868,43.2293161 C11.094,43.0545699 11.2988,42.8973782 11.5016,42.7385907 C15.1448,39.8844041 18.79,37.0326114 22.4268,34.1700466 C22.6756,33.9737565 22.8704,33.9366528 23.1636,34.0687098 C24.1372,34.5075699 25.1316,34.9021451 26.1044,35.343399 C26.4252,35.4890207 26.7136,35.5257254 27.0116,35.3469896 C27.924,34.7992124 28.9044,34.3336218 29.728,33.6741347 C32.2308,31.6705389 33.9464,29.0405699 35.4064,26.2322642 C35.7756,25.5225078 36.1112,24.7959948 36.5148,23.968544 C29.6688,26.1261399 23.7396,29.5871503 18.5288,34.3842902 C17.31,33.0748912 16.1076,31.7830466 14.8616,30.4445233 L14.8616,30.4445233 Z M67.3208,35.0748964 C67.4408,34.8965596 67.5352,34.760513 67.6248,34.6216736 C68.2852,33.5959378 68.9572,32.5773834 69.5968,31.5388808 C69.7856,31.2320777 69.9604,31.1842021 70.2988,31.2855389 C72.5784,31.9693627 74.866,32.6248601 77.1476,33.3011036 C77.3744,33.3685285 77.6016,33.484228 77.7892,33.6286528 C80.6328,35.8169689 83.47,38.0140622 86.3084,40.2091606 C87.3688,41.0294301 88.4288,41.8500984 89.5,42.6787461 C91.3708,41.2368912 93.2136,39.8161813 95.0876,38.3715337 C91.7684,35.8149741 88.5052,33.3015026 85.2468,30.7916218 C85.1824,30.8351088 85.1392,30.8542591 85.1096,30.8857772 C84.1948,31.8692228 83.2728,32.845886 82.3736,33.8428964 C82.11,34.1349378 81.9372,34.2071503 81.6028,33.9067306 C75.5888,28.5055596 68.6484,24.8578342 60.75,23.0748653 C58.7864,22.6316166 56.7844,22.3559326 54.8,22.0032487 C55.0524,22.3184301 55.318,22.5219016 55.5692,22.7417306 C59.8436,26.4820155 63.6808,30.6384197 67.3208,35.0748964 L67.3208,35.0748964 Z M22.8656,52.4717098 C23.034,52.6109482 23.1456,52.7090933 23.2632,52.7992591 C26.2516,55.1012798 29.238,57.4060933 32.2368,59.6945492 C32.4468,59.8545337 32.7524,59.9702332 33.014,59.9706321 C44.2244,59.9841969 55.4348,59.9841969 66.6452,59.971829 C66.8944,59.9714301 67.1884,59.872886 67.3856,59.7212798 C73.6492,54.9137668 79.9032,50.093886 86.1584,45.275601 C86.284,45.1786528 86.4048,45.0753212 86.5428,44.9632124 C83.2372,41.8584767 79.9784,38.7948342 76.7124,35.738772 C76.5744,35.6099067 76.3824,35.5169482 76.1992,35.4614922 C74.9288,35.0764922 73.6552,34.7002694 72.3792,34.3336218 C71.8588,34.1844093 71.2452,33.8401036 70.8272,33.9953005 C70.3712,34.1648601 70.0724,34.7952228 69.7404,35.2500415 C67.958,37.6901036 66.2032,40.150513 64.0864,42.3256632 C61.3232,45.1646891 58.1792,47.4284093 54.4004,48.7366114 C53.8012,48.9440725 53.188,49.1124352 52.5812,49.2991503 C52.5692,49.2640415 52.5572,49.2289326 52.5452,49.1938238 C52.7084,49.1252021 52.87,49.0529896 53.0348,48.9883575 C54.8396,48.278601 56.4888,47.3027358 58.0036,46.0962694 C60.7012,43.9482487 62.9156,41.3521917 65,38.6312591 C65.244,38.312886 65.2664,38.1054249 65.02,37.773487 C62.0968,33.8381088 59.0336,30.0160363 55.7296,26.3910518 C55.054,25.6497772 54.3732,24.8582332 53.5436,24.3228238 C51.9052,23.264772 50.1636,22.3655078 48.4576,21.4135803 C48.3152,21.3337876 48.1024,21.2926943 47.9492,21.3333886 C47.1388,21.548829 46.312,21.7335492 45.5376,22.044342 C43.3424,22.9248549 41.1672,23.8548394 38.9936,24.7868187 C38.8,24.8698031 38.6144,25.0808549 38.5244,25.277544 C38.0176,26.3850674 37.5728,27.5213161 37.048,28.6196632 C35.678,31.4850207 33.91,34.0611295 31.4096,36.0782902 C30.8924,36.4952073 30.3444,36.8742228 29.8212,37.2628135 C35.002,40.8271554 40.1596,44.3755389 45.3176,47.9243212 C45.0132,47.8293679 44.7152,47.7168601 44.438,47.5664508 C41.2328,45.825772 38.022,44.0946684 34.83,42.3304508 C31.2908,40.3743316 27.7632,38.3962694 24.2464,36.4006528 C23.718,36.1010311 23.3556,36.1385337 22.932,36.5542539 C20.6332,38.8107927 18.3136,41.0457876 16.0116,43.2987358 C15.2724,44.022456 14.5644,44.7784922 13.83,45.5321347 C16.1512,47.3206891 18.436,49.0841088 20.7304,50.8351606 C20.8312,50.9121606 21.05,50.9317098 21.1664,50.8770518 C22.3828,50.3081295 23.6296,49.7870829 24.788,49.1160259 C26.0152,48.4046736 27.218,48.3727565 28.5268,48.7800984 C30.202,49.301544 31.8956,49.7663368 33.5884,50.2283368 C33.8108,50.2889793 34.1068,50.2530725 34.3168,50.1533316 C34.8944,49.8788446 35.4452,49.5477047 36.0048,49.236513 C37.2,48.5722383 38.414,48.1816528 39.7996,48.6935233 C41.0584,49.1583161 42.3532,49.5265596 43.6304,49.9422798 C43.9408,50.0436166 44.2452,50.1637047 44.6732,50.3189016 C43.0892,50.1649016 41.6436,50.0364352 40.2012,49.8804404 C38.7476,49.7228497 37.4784,50.0859067 36.4172,51.1148342 C36.1656,51.359 35.8652,51.5552902 35.6268,51.810228 C35.3944,52.0587824 35.1676,52.0731451 34.858,51.9821813 C33.0128,51.4395907 31.162,50.9157513 29.314,50.3843316 C28.4412,50.1333834 27.5652,50.1222124 26.688,50.3484249 C25.2428,50.721057 24.1772,51.7575648 22.8656,52.4717098 L22.8656,52.4717098 Z M71.6216,59.9734249 L75.2268,59.9734249 L75.2268,66.6959637 L74.6224,66.6959637 C70.86,66.6959637 67.0976,66.6903782 63.3352,66.7075337 C63.072,66.7087306 62.7628,66.8152539 62.5536,66.9752383 C58.4424,70.1222642 54.3388,73.2796632 50.248,76.4530207 C49.9132,76.7127461 49.7204,76.6912021 49.402,76.4446425 C45.3456,73.3016062 41.276,70.1753264 37.2168,67.0354819 C36.9112,66.7992953 36.6108,66.6863886 36.2184,66.6879845 C32.5324,66.7011503 28.846,66.6959637 25.16,66.6959637 L24.6004,66.6959637 L24.6004,59.982601 L27.8924,59.982601 C18.6324,52.7294404 9.34,45.5712332 0,38.3763212 C4.3416,35.0310104 8.6316,31.7259948 12.9696,28.3834767 C11.6252,26.9316477 10.3028,25.5037565 8.934,24.0259948 C9.864,23.2228808 10.7552,22.4169741 11.684,21.6565492 C19.32,15.4035907 27.9588,11.2124767 37.6232,9.13347668 C37.9088,9.07203627 38.2032,8.93559067 38.4348,8.75765285 C42.096,5.9521399 45.7476,3.1338601 49.4016,0.319170984 C49.5336,0.217435233 49.6696,0.12088601 49.834,0 C50.646,0.623580311 51.4556,1.24317098 52.2632,1.8655544 C55.1312,4.07421762 57.9952,6.28766839 60.8708,8.48635751 C61.102,8.66349741 61.3984,8.8011399 61.6836,8.85579793 C72.6056,10.9511554 82.2264,15.6876528 90.5848,22.9934767 C90.906,23.2739482 91.2188,23.5639948 91.5768,23.8871554 C90.096,25.4850052 88.6268,27.070487 87.11,28.7070363 C91.2844,31.9238808 95.4368,35.1235699 99.6572,38.3759223 C90.3104,45.5760207 81.024,52.7302383 71.6216,59.9734249 Z" id="Fill-1" fill="#4A4A4A"></path>
                <path d="M49.82912,2.50924508 C51.74832,3.98780466 53.63072,5.43803782 55.51272,6.88866995 C55.50512,6.92497565 55.49712,6.96128135 55.48912,6.99758705 C51.64192,6.68799119 47.79912,6.7143228 43.82192,7.13682539 C45.88552,5.54735389 47.83912,4.04246269 49.82912,2.50924508" id="Fill-3" fill="#FFFFFF"></path>
            </g>
        </g>
    </g>
</svg>