<svg width="30" height="30" xmlns="http://www.w3.org/2000/svg"><g fill="none" fill-rule="evenodd"><g fill-rule="nonzero"><path d="M20.32 7.431c-1.834-.933-4.033-1.477-6.398-1.477-6.407 0-11.601 3.99-11.601 8.912a7.089 7.089 0 0 0 .648 2.937c2.225 5.55 9.501 11.886 10.953 11.886s8.728-6.337 10.953-11.886a7.09 7.09 0 0 0 .648-2.937c0-2.384-1.219-4.55-3.204-6.15l-1.998-1.285z" fill="#474746"/><path d="M18.255 10.054h-8.66c-4.953 0-5.338 1.977-5.338 2.583v.888h-.552v2.404h.552v1.273c0 1.342 1.35 2.015 4.876 2.354l11.715-9.263c-.683-.148-1.532-.24-2.593-.24" fill="#C4C4C4"/><path d="M24.144 13.525h-.552v-.888c0-.476-.239-1.799-2.744-2.344L9.133 19.556a42.835 42.835 0 0 0 1.345.109h.06l.162-.012c.326-.035.635-.168.894-.382l2.33-2.448 2.157 2.272.114.117c.288.267.652.425 1.029.45l.109.005c.059 0 .116-.005.165-.012 4.442-.301 6.094-.967 6.094-2.453v-1.273h.552v-2.404z" fill="#A1A1A1"/><path d="M26.616 2.774c-.092-.484-2.086-.361-2.086-.361s.456-1.425.043-1.792c-.21-.187-1.202.853-2.973 3.12l1.989 1.322c2.063-1.292 3.072-2.055 3.027-2.29z" fill="#474746"/></g><g transform="translate(24.998 15.08)" fill="#FFF"><circle stroke="#474746" stroke-width="2.16" cx="1.74" cy="1.74" r="1.74"/><path d="M.08 2.264L1.002.42H.606A1.74 1.74 0 1 1 .08 2.264z"/></g><path d="M25.232 12.612H2.116c-.324 0-.62.147-.855.351a1.24 1.24 0 0 0-.354.849c0 .322.148.614.354.849.206.204.53.35.855.35h23.116c.354-.029.59-.146.796-.321l.03-.03a1.24 1.24 0 0 0 .353-.848c0-.322-.147-.615-.353-.849-.177-.234-.502-.35-.826-.35zm3.214 1.99c.157.098-.992.657-3.446 1.679l-23.385-.157c-.413-.117-.506-.322-.8-.615a2.338 2.338 0 0 1-.708-1.668c0-.644.265-1.258.708-1.668.294-.292.387-.526.8-.614A12.157 12.157 0 0 1 5.153 3.54 12.168 12.168 0 0 1 13.763 0c4.127.03 7.813 1.668 10.466 4.302a14.694 14.694 0 0 1 4.217 10.3zM13.674 3.248a.59.59 0 0 1-.59-.585.59.59 0 0 1 .59-.585h.442c.148 0 .295.029.443.029.324.03.56.322.53.644a.594.594 0 0 1-.648.526c-.118 0-.266-.029-.384-.029h-.383zM2.735 11.412c.148-2.75 1.327-5.238 3.185-7.169 1.887-1.873 4.422-3.072 7.253-3.19h.472c3.774 0 7.164 1.522 9.611 3.95a13.481 13.481 0 0 1 3.775 7.17l-.118-.117a2.518 2.518 0 0 0-1.091-.614c-.03-.322-.06-.644-.089-.995-.059-.498-.177-.995-.295-1.493a.614.614 0 0 0-.737-.41.608.608 0 0 0-.413.732c.118.44.207.878.266 1.346.03.264.059.527.059.79H2.735zm-2.063.984h5.93v2.818H.671v-2.818z" fill="#474746" fill-rule="nonzero"/><path d="M2.735 11.52h22.04l.147-1.329-.206-.722c-.206-.789.472-.876.685-.088.207.847.192 1.35.222 2.197.471.125 1.297.431 1.621.825C26.058 5.63 20.146.672 13.284.913 10.46 1 7.813 2.307 5.948 4.205a11.269 11.269 0 0 0-3.214 7.315z" fill="#E6434D" fill-rule="nonzero"/><path d="M2.407 15.027h23.116c1.061 0 1.592-1.326.855-2.08a1.24 1.24 0 0 0-.855-.361H2.407c-1.062 0-1.592 1.326-.855 2.079.236.241.53.362.855.362z" fill="#FFF" fill-rule="nonzero"/></g></svg>
