<?xml version="1.0" encoding="UTF-8"?>
<svg width="500px" height="500px" viewBox="0 0 500 500" version="1.1" xmlns="http://www.w3.org/2000/svg" xmlns:xlink="http://www.w3.org/1999/xlink">
    <!-- Generator: Sketch 45.1 (43504) - http://www.bohemiancoding.com/sketch -->
    <title>Artboard 3 Copy 5</title>
    <desc>Created with Sketch.</desc>
    <defs></defs>
    <g id="V5---Mobile" stroke="none" stroke-width="1" fill="none" fill-rule="evenodd">
        <g id="Artboard-3-Copy-5">
            <path d="M407.7121,83.3233 C428.4681,70.8303 466.1511,47.1463 464.8811,40.5953 C463.1301,31.5713 425.4881,33.8653 425.4881,33.8653 C425.4881,33.8653 434.1031,7.2823 426.2991,0.4383 C420.3351,-4.7917 386.0121,38.1153 370.1601,58.6373 C335.6991,40.7083 294.3811,30.2573 249.9491,30.2573 C129.5801,30.2573 32.0001,106.8863 32.0001,201.4103 C32.0001,203.5023 32.0811,205.6203 32.2061,207.7503 C33.0171,225.2393 37.1621,242.0473 44.1691,257.8123 C85.9791,364.3843 222.6731,486.0843 249.9491,486.0843 C277.2211,486.0843 413.9191,364.3843 455.7251,257.8123 C462.7321,242.0473 466.8801,225.2393 467.6911,207.7503 C467.8161,205.6203 467.8981,203.5023 467.8981,201.4103 C467.8981,155.6243 445.0021,114.0363 407.7121,83.3233" id="Fill-1" fill="#474746"></path>
            <path d="M331.3563,108.9997 L168.6483,108.9997 C75.6113,108.9997 68.3783,146.9687 68.3783,158.6047 L68.3783,175.6667 L58.0003,175.6667 L58.0003,221.8207 L68.3783,221.8207 L68.3783,246.2707 C68.3783,272.0457 93.7553,284.9747 159.9763,291.4817 L380.0723,113.5997 C367.2453,110.7487 351.2803,108.9997 331.3563,108.9997" id="Fill-1" fill="#979796"></path>
            <path d="M441.9901,175.6672 L431.6241,175.6672 L431.6241,158.6022 C431.6241,149.4632 427.1371,124.0632 380.0701,113.6022 L159.9741,291.4842 C167.2301,292.1972 174.9581,292.8372 183.2171,293.4022 C183.8931,293.4942 184.5561,293.5552 185.2471,293.5712 L186.3591,293.5762 L189.4151,293.3552 C195.5491,292.6782 201.3571,290.1292 206.2061,286.0012 L250.0051,239.0062 L290.5031,282.6272 L292.6551,284.8782 C298.0571,290.0012 304.9001,293.0422 311.9841,293.5142 L314.0271,293.6172 C315.1361,293.6172 316.2161,293.5252 317.1331,293.3912 C400.5851,287.6012 431.6241,274.8122 431.6241,246.2732 L431.6241,221.8212 L441.9901,221.8212 L441.9901,175.6672 Z" id="Fill-4" fill="#747473"></path>
        </g>
    </g>
</svg>