<?xml version="1.0" encoding="UTF-8"?>
<svg width="84px" height="96px" viewBox="0 0 84 96" version="1.1" xmlns="http://www.w3.org/2000/svg" xmlns:xlink="http://www.w3.org/1999/xlink">
    <!-- Generator: Sketch 42 (36781) - http://www.bohemiancoding.com/sketch -->
    <title>120 - iPhone Copy</title>
    <desc>Created with Sketch.</desc>
    <defs>
        <polygon id="path-1" points="0 17.7938308 0 0 60.06525 0 60.06525 35.5876615 0 35.5876615 0 17.7938308"></polygon>
        <polygon id="path-3" points="52.4995625 36.0039067 0.1509375 36.0039067 0.1509375 0.897297363 52.4995625 0.897297363 52.4995625 36.0039067"></polygon>
    </defs>
    <g id="Page-1" stroke="none" stroke-width="1" fill="none" fill-rule="evenodd">
        <g id="120---iPhone-Copy">
            <g id="Group-5">
                <g id="Page-1" transform="translate(0.000000, 6.000651)" fill="#474746">
                    <path d="M84.0001556,33.3784982 C84.0001556,14.9442271 65.1958222,-0.000123624525 42.0001556,-0.000123624525 C18.8044889,-0.000123624525 0.000155555556,14.9442271 0.000155555556,33.3784982 C0.000155555556,33.7864591 0.0157111111,34.199365 0.0398222222,34.6147434 C0.196155556,38.0255441 0.994933333,41.3034484 2.34515556,44.3779903 C10.4021556,65.1617455 36.7439333,88.8958 42.0001556,88.8958 C47.2556,88.8958 73.5981556,65.1617455 81.6543778,44.3779903 C83.0046,41.3034484 83.8041556,38.0255441 83.9604889,34.6147434 C83.9846,34.199365 84.0001556,33.7864591 84.0001556,33.3784982 Z" id="Fill-1"></path>
                </g>
                <g id="Group-4" transform="translate(5.000000, 21.002279)">
                    <rect id="Rectangle-4" fill="#9B9B9B" x="0" y="13.0014107" width="2" height="9.00097667"></rect>
                    <rect id="Rectangle-4-Copy" fill="#9B9B9B" x="72" y="13.0014107" width="2" height="9.00097667"></rect>
                    <g id="Page-1" transform="translate(2.000000, 0.000000)" opacity="0.528419384">
                        <g id="Group-3">
                            <mask id="mask-2" fill="white">
                                <use xlink:href="#path-1"></use>
                            </mask>
                            <g id="Clip-2"></g>
                            <path d="M50.677375,-0.000200021704 L19.322625,-0.000200021704 C1.393875,-0.000200021704 0,7.40460345 0,9.67384968 L0,26.7707048 C0,31.7972502 4.890375,34.3185238 17.651375,35.5876615 L60.06525,0.89689732 C57.593375,0.340836983 54.516875,-0.000200021704 50.677375,-0.000200021704" id="Fill-1" fill="#DEDEDE" mask="url(#mask-2)"></path>
                        </g>
                        <g id="Group-6" transform="translate(17.500000, 0.000000)">
                            <mask id="mask-4" fill="white">
                                <use xlink:href="#path-3"></use>
                            </mask>
                            <g id="Clip-5"></g>
                            <path d="M0.1509375,35.5880616 C1.5491875,35.7270766 3.0384375,35.8520902 4.6300625,35.9621021 C4.7604375,35.9801041 4.8881875,35.9921054 5.0211875,35.9951057 L5.2355625,35.9961058 L5.8244375,35.9531012 C7.0065625,35.8210868 8.1256875,35.3240329 9.0601875,34.5189455 L17.5004375,25.3539511 L25.3045625,33.8608741 L25.7193125,34.2999218 C26.7605625,35.2990302 28.0791875,35.8920945 29.4441875,35.9841045 L29.8379375,36.0041067 C30.0514375,36.0041067 30.2596875,35.9861047 30.4364375,35.9601019 C46.5180625,34.8309794 52.4995625,32.3367088 52.4995625,26.7711049 L52.4995625,9.67324961 C52.4995625,7.89105623 51.6350625,2.93751874 42.5648125,0.897297363 L0.1509375,35.5880616 Z" id="Fill-4" fill="#9B9B9B" mask="url(#mask-4)"></path>
                        </g>
                    </g>
                </g>
                <path d="M63.6193412,13.5893371 C63.6193412,13.5893371 74.4801092,-1.14943398 75.9838783,0.185319377 C77.4876474,1.52007274 75.8277524,6.70428242 75.8277524,6.70428242 C75.8277524,6.70428242 83.0814763,6.25674548 83.4188461,8.01672618 C83.7562159,9.77670689 69.8453883,17.8790448 69.8453883,17.8790448 L63.6193412,13.5893371 Z" id="Path-2" fill="#474746"></path>
            </g>
        </g>
    </g>
</svg>