<?xml version="1.0" encoding="UTF-8"?>
<svg width="500px" height="500px" viewBox="0 0 500 500" version="1.1" xmlns="http://www.w3.org/2000/svg" xmlns:xlink="http://www.w3.org/1999/xlink">
    <!-- Generator: Sketch 43.1 (39012) - http://www.bohemiancoding.com/sketch -->
    <title>Artboard 3 Copy 4</title>
    <desc>Created with Sketch.</desc>
    <defs></defs>
    <g id="V5---Mobile" stroke="none" stroke-width="1" fill="none" fill-rule="evenodd">
        <g id="Artboard-3-Copy-4" fill="#FFFFFF">
            <g id="Imported-Layers" transform="translate(10.000000, 22.000000)">
                <polygon id="Fill-1" points="230.036324 0.174184545 250.023541 0.174184545 250.023541 227.8601 230.036324 227.8601"></polygon>
                <polyline id="Fill-2" points="240.029933 84.228235 190.564902 37.2680149 204.695864 23.8535197 240.029933 57.3960823 275.364001 23.8535197 289.494964 37.2680149 240.029933 84.228235"></polyline>
                <polyline id="Fill-3" points="240.029933 159.193823 190.564902 112.236765 204.695864 98.8191074 240.029933 132.36167 275.364001 98.8191074 289.494964 112.236765 240.029933 159.193823"></polyline>
                <polyline id="Fill-4" points="247.095414 234.567348 232.964452 221.152852 402.562651 60.1536117 416.693614 73.5681069 247.095414 234.567348"></polyline>
                <polyline id="Fill-5" points="416.973435 126.29637 347.018175 126.29637 347.018175 59.8879782 367.005392 59.8879782 367.005392 107.322544 416.973435 107.322544 416.973435 126.29637"></polyline>
                <polyline id="Fill-6" points="361.132482 179.306079 291.177221 179.306079 291.177221 112.897687 311.164439 112.897687 311.164439 160.332252 361.132482 160.332252 361.132482 179.306079"></polyline>
                <polygon id="Fill-7" points="240.029933 218.373187 479.876539 218.373187 479.876539 237.347013 240.029933 237.347013"></polygon>
                <polyline id="Fill-8" points="440.801529 274.817158 391.333167 227.8601 440.801529 180.903042 454.932492 194.317537 419.598423 227.8601 454.932492 261.402663 440.801529 274.817158"></polyline>
                <polyline id="Fill-9" points="361.828703 274.817158 312.363672 227.8601 361.828703 180.903042 375.962997 194.317537 340.628928 227.8601 375.962997 261.402663 361.828703 274.817158"></polyline>
                <polyline id="Fill-10" points="402.562651 395.566588 232.964452 234.567348 247.095414 221.152852 416.693614 382.148931 402.562651 395.566588"></polyline>
                <polyline id="Fill-11" points="367.005392 395.832222 347.018175 395.832222 347.018175 329.42383 416.973435 329.42383 416.973435 348.397656 367.005392 348.397656 367.005392 395.832222"></polyline>
                <polyline id="Fill-12" points="311.164439 342.822513 291.177221 342.822513 291.177221 276.414121 361.132482 276.414121 361.132482 295.387948 311.164439 295.387948 311.164439 342.822513"></polyline>
                <polygon id="Fill-13" points="230.036324 227.8601 250.023541 227.8601 250.023541 455.356277 230.036324 455.356277"></polygon>
                <polyline id="Fill-14" points="275.364001 431.86668 240.029933 398.324118 204.695864 431.86668 190.564902 418.449023 240.029933 371.491965 289.494964 418.449023 275.364001 431.86668"></polyline>
                <polyline id="Fill-15" points="275.364001 356.901093 240.029933 323.35853 204.695864 356.901093 190.564902 343.480273 240.029933 296.526377 289.494964 343.480273 275.364001 356.901093"></polyline>
                <polygon id="Fill-16" points="63.3662515 382.148931 232.964452 221.152852 247.095414 234.567348 77.5005453 395.566588"></polygon>
                <polyline id="Fill-17" points="133.041691 395.832222 113.054473 395.832222 113.054473 348.397656 63.0864305 348.397656 63.0864305 329.42383 133.041691 329.42383 133.041691 395.832222"></polyline>
                <polyline id="Fill-18" points="188.882644 342.822513 168.895427 342.822513 168.895427 295.387948 118.927384 295.387948 118.927384 276.414121 188.882644 276.414121 188.882644 342.822513"></polyline>
                <polygon id="Fill-19" points="0.183326917 218.373187 240.029933 218.373187 240.029933 237.347013 0.183326917 237.347013"></polygon>
                <polyline id="Fill-20" points="39.2616677 274.817158 25.1273739 261.402663 60.4614427 227.8601 25.1273739 194.317537 39.2616677 180.903042 88.7266989 227.8601 39.2616677 274.817158"></polyline>
                <polyline id="Fill-21" points="118.234494 274.817158 104.096869 261.402663 139.430938 227.8601 104.096869 194.317537 118.234494 180.903042 167.696194 227.8601 118.234494 274.817158"></polyline>
                <polyline id="Fill-22" points="232.964452 234.567348 63.3662515 73.5681069 77.5005453 60.1536117 247.095414 221.152852 232.964452 234.567348"></polyline>
                <polyline id="Fill-23" points="133.041691 126.29637 63.0864305 126.29637 63.0864305 107.322544 113.054473 107.322544 113.054473 59.8879782 133.041691 59.8879782 133.041691 126.29637"></polyline>
                <polyline id="Fill-24" points="188.882644 179.306079 118.927384 179.306079 118.927384 160.332252 168.895427 160.332252 168.895427 112.897687 188.882644 112.897687 188.882644 179.306079"></polyline>
            </g>
        </g>
    </g>
</svg>