<?xml version="1.0" encoding="UTF-8"?>
<svg width="500px" height="500px" viewBox="0 0 500 500" version="1.1" xmlns="http://www.w3.org/2000/svg" xmlns:xlink="http://www.w3.org/1999/xlink">
    <!-- Generator: Sketch 43.1 (39012) - http://www.bohemiancoding.com/sketch -->
    <title>Artboard 3 Copy 3</title>
    <desc>Created with Sketch.</desc>
    <defs>
        <rect id="path-1" x="48.64414" y="3.74045802" width="35.5476408" height="46.7557252"></rect>
    </defs>
    <g id="V5---Mobile" stroke="none" stroke-width="1" fill="none" fill-rule="evenodd">
        <g id="Artboard-3-Copy-3">
            <g id="Imported-Layers-Copy-3" transform="translate(398.000000, 295.000000)" fill="#FFFFFF">
                <polygon id="Fill-1" points="40.1328796 0.0303887979 43.619914 0.0303887979 43.619914 39.7532085 40.1328796 39.7532085"></polygon>
                <polyline id="Fill-2" points="41.8763968 14.6947297 33.2465678 6.50189817 35.7119011 4.16156204 41.8763968 10.0135058 48.0408924 4.16156204 50.5062258 6.50189817 41.8763968 14.6947297"></polyline>
                <polyline id="Fill-3" points="41.8763968 27.7734681 33.2465678 19.5811882 35.7119011 17.2403004 41.8763968 23.0922441 48.0408924 17.2403004 50.5062258 19.5811882 41.8763968 27.7734681"></polyline>
                <polyline id="Fill-4" points="43.1090634 40.9233765 40.6437301 38.5830404 70.2323794 10.4945932 72.6977128 12.8349294 43.1090634 40.9233765"></polyline>
                <polyline id="Fill-5" points="72.7465312 22.0340724 60.5419108 22.0340724 60.5419108 10.44825 64.0289452 10.44825 64.0289452 18.7238374 72.7465312 18.7238374 72.7465312 22.0340724"></polyline>
                <polyline id="Fill-6" points="63.0043383 31.2823172 50.7997178 31.2823172 50.7997178 19.6964948 54.2867522 19.6964948 54.2867522 27.9720822 63.0043383 27.9720822 63.0043383 31.2823172"></polyline>
                <polygon id="Fill-7" points="41.8763968 38.098091 83.7208097 38.098091 83.7208097 41.4083259 41.8763968 41.4083259"></polygon>
                <polyline id="Fill-8" points="76.9036574 47.9454883 68.2732473 39.7532085 76.9036574 31.5609286 79.3689908 33.9012647 73.2044951 39.7532085 79.3689908 45.6051522 76.9036574 47.9454883"></polyline>
                <polyline id="Fill-9" points="63.1258033 47.9454883 54.4959743 39.7532085 63.1258033 31.5609286 65.5917178 33.9012647 59.4272221 39.7532085 65.5917178 45.6051522 63.1258033 47.9454883"></polyline>
                <polyline id="Fill-10" points="70.2323794 69.0118237 40.6437301 40.9233765 43.1090634 38.5830404 72.6977128 66.6709358 70.2323794 69.0118237"></polyline>
                <polyline id="Fill-11" points="64.0289452 69.0581669 60.5419108 69.0581669 60.5419108 57.4723445 72.7465312 57.4723445 72.7465312 60.7825795 64.0289452 60.7825795 64.0289452 69.0581669"></polyline>
                <polyline id="Fill-12" points="54.2867522 59.8099221 50.7997178 59.8099221 50.7997178 48.2240997 63.0043383 48.2240997 63.0043383 51.5343347 54.2867522 51.5343347 54.2867522 59.8099221"></polyline>
                <polygon id="Fill-13" points="40.1328796 39.7532085 43.619914 39.7532085 43.619914 79.4429258 40.1328796 79.4429258"></polygon>
                <polyline id="Fill-14" points="48.0408924 75.3448549 41.8763968 69.4929111 35.7119011 75.3448549 33.2465678 73.003967 41.8763968 64.8116872 50.5062258 73.003967 48.0408924 75.3448549"></polyline>
                <polyline id="Fill-15" points="48.0408924 62.2661165 41.8763968 56.4141728 35.7119011 62.2661165 33.2465678 59.924677 41.8763968 51.7329488 50.5062258 59.924677 48.0408924 62.2661165"></polyline>
                <polygon id="Fill-16" points="11.0550808 66.6709358 40.6437301 38.5830404 43.1090634 40.9233765 13.5209953 69.0118237"></polygon>
                <polyline id="Fill-17" points="23.2108827 69.0581669 19.7238483 69.0581669 19.7238483 60.7825795 11.0062623 60.7825795 11.0062623 57.4723445 23.2108827 57.4723445 23.2108827 69.0581669"></polyline>
                <polyline id="Fill-18" points="32.9530757 59.8099221 29.4660413 59.8099221 29.4660413 51.5343347 20.7484553 51.5343347 20.7484553 48.2240997 32.9530757 48.2240997 32.9530757 59.8099221"></polyline>
                <polygon id="Fill-19" points="0.0319838057 38.098091 41.8763968 38.098091 41.8763968 41.4083259 0.0319838057 41.4083259"></polygon>
                <polyline id="Fill-20" points="6.84971726 47.9454883 4.38380275 45.6051522 10.5482984 39.7532085 4.38380275 33.9012647 6.84971726 31.5609286 15.4795463 39.7532085 6.84971726 47.9454883"></polyline>
                <polyline id="Fill-21" points="20.6275714 47.9454883 18.1610757 45.6051522 24.3255714 39.7532085 18.1610757 33.9012647 20.6275714 31.5609286 29.2568192 39.7532085 20.6275714 47.9454883"></polyline>
                <polyline id="Fill-22" points="40.6437301 40.9233765 11.0550808 12.8349294 13.5209953 10.4945932 43.1090634 38.5830404 40.6437301 40.9233765"></polyline>
                <polyline id="Fill-23" points="23.2108827 22.0340724 11.0062623 22.0340724 11.0062623 18.7238374 19.7238483 18.7238374 19.7238483 10.44825 23.2108827 10.44825 23.2108827 22.0340724"></polyline>
                <polyline id="Fill-24" points="32.9530757 31.2823172 20.7484553 31.2823172 20.7484553 27.9720822 29.4660413 27.9720822 29.4660413 19.6964948 32.9530757 19.6964948 32.9530757 31.2823172"></polyline>
            </g>
            <g id="Imported-Layers-Copy" transform="translate(54.000000, 105.000000)" fill="#FFFFFF">
                <polygon id="Fill-1" points="40.1328796 0.0303887979 43.619914 0.0303887979 43.619914 39.7532085 40.1328796 39.7532085"></polygon>
                <polyline id="Fill-2" points="41.8763968 14.6947297 33.2465678 6.50189817 35.7119011 4.16156204 41.8763968 10.0135058 48.0408924 4.16156204 50.5062258 6.50189817 41.8763968 14.6947297"></polyline>
                <polyline id="Fill-3" points="41.8763968 27.7734681 33.2465678 19.5811882 35.7119011 17.2403004 41.8763968 23.0922441 48.0408924 17.2403004 50.5062258 19.5811882 41.8763968 27.7734681"></polyline>
                <polyline id="Fill-4" points="43.1090634 40.9233765 40.6437301 38.5830404 70.2323794 10.4945932 72.6977128 12.8349294 43.1090634 40.9233765"></polyline>
                <polyline id="Fill-5" points="72.7465312 22.0340724 60.5419108 22.0340724 60.5419108 10.44825 64.0289452 10.44825 64.0289452 18.7238374 72.7465312 18.7238374 72.7465312 22.0340724"></polyline>
                <polyline id="Fill-6" points="63.0043383 31.2823172 50.7997178 31.2823172 50.7997178 19.6964948 54.2867522 19.6964948 54.2867522 27.9720822 63.0043383 27.9720822 63.0043383 31.2823172"></polyline>
                <polygon id="Fill-7" points="41.8763968 38.098091 83.7208097 38.098091 83.7208097 41.4083259 41.8763968 41.4083259"></polygon>
                <polyline id="Fill-8" points="76.9036574 47.9454883 68.2732473 39.7532085 76.9036574 31.5609286 79.3689908 33.9012647 73.2044951 39.7532085 79.3689908 45.6051522 76.9036574 47.9454883"></polyline>
                <polyline id="Fill-9" points="63.1258033 47.9454883 54.4959743 39.7532085 63.1258033 31.5609286 65.5917178 33.9012647 59.4272221 39.7532085 65.5917178 45.6051522 63.1258033 47.9454883"></polyline>
                <polyline id="Fill-10" points="70.2323794 69.0118237 40.6437301 40.9233765 43.1090634 38.5830404 72.6977128 66.6709358 70.2323794 69.0118237"></polyline>
                <polyline id="Fill-11" points="64.0289452 69.0581669 60.5419108 69.0581669 60.5419108 57.4723445 72.7465312 57.4723445 72.7465312 60.7825795 64.0289452 60.7825795 64.0289452 69.0581669"></polyline>
                <polyline id="Fill-12" points="54.2867522 59.8099221 50.7997178 59.8099221 50.7997178 48.2240997 63.0043383 48.2240997 63.0043383 51.5343347 54.2867522 51.5343347 54.2867522 59.8099221"></polyline>
                <polygon id="Fill-13" points="40.1328796 39.7532085 43.619914 39.7532085 43.619914 79.4429258 40.1328796 79.4429258"></polygon>
                <polyline id="Fill-14" points="48.0408924 75.3448549 41.8763968 69.4929111 35.7119011 75.3448549 33.2465678 73.003967 41.8763968 64.8116872 50.5062258 73.003967 48.0408924 75.3448549"></polyline>
                <polyline id="Fill-15" points="48.0408924 62.2661165 41.8763968 56.4141728 35.7119011 62.2661165 33.2465678 59.924677 41.8763968 51.7329488 50.5062258 59.924677 48.0408924 62.2661165"></polyline>
                <polygon id="Fill-16" points="11.0550808 66.6709358 40.6437301 38.5830404 43.1090634 40.9233765 13.5209953 69.0118237"></polygon>
                <polyline id="Fill-17" points="23.2108827 69.0581669 19.7238483 69.0581669 19.7238483 60.7825795 11.0062623 60.7825795 11.0062623 57.4723445 23.2108827 57.4723445 23.2108827 69.0581669"></polyline>
                <polyline id="Fill-18" points="32.9530757 59.8099221 29.4660413 59.8099221 29.4660413 51.5343347 20.7484553 51.5343347 20.7484553 48.2240997 32.9530757 48.2240997 32.9530757 59.8099221"></polyline>
                <polygon id="Fill-19" points="0.0319838057 38.098091 41.8763968 38.098091 41.8763968 41.4083259 0.0319838057 41.4083259"></polygon>
                <polyline id="Fill-20" points="6.84971726 47.9454883 4.38380275 45.6051522 10.5482984 39.7532085 4.38380275 33.9012647 6.84971726 31.5609286 15.4795463 39.7532085 6.84971726 47.9454883"></polyline>
                <polyline id="Fill-21" points="20.6275714 47.9454883 18.1610757 45.6051522 24.3255714 39.7532085 18.1610757 33.9012647 20.6275714 31.5609286 29.2568192 39.7532085 20.6275714 47.9454883"></polyline>
                <polyline id="Fill-22" points="40.6437301 40.9233765 11.0550808 12.8349294 13.5209953 10.4945932 43.1090634 38.5830404 40.6437301 40.9233765"></polyline>
                <polyline id="Fill-23" points="23.2108827 22.0340724 11.0062623 22.0340724 11.0062623 18.7238374 19.7238483 18.7238374 19.7238483 10.44825 23.2108827 10.44825 23.2108827 22.0340724"></polyline>
                <polyline id="Fill-24" points="32.9530757 31.2823172 20.7484553 31.2823172 20.7484553 27.9720822 29.4660413 27.9720822 29.4660413 19.6964948 32.9530757 19.6964948 32.9530757 31.2823172"></polyline>
            </g>
            <g id="Imported-Layers-Copy-2" transform="translate(356.000000, 65.000000)" fill="#FFFFFF">
                <polygon id="Fill-1" points="40.1328796 0.0303887979 43.619914 0.0303887979 43.619914 39.7532085 40.1328796 39.7532085"></polygon>
                <polyline id="Fill-2" points="41.8763968 14.6947297 33.2465678 6.50189817 35.7119011 4.16156204 41.8763968 10.0135058 48.0408924 4.16156204 50.5062258 6.50189817 41.8763968 14.6947297"></polyline>
                <polyline id="Fill-3" points="41.8763968 27.7734681 33.2465678 19.5811882 35.7119011 17.2403004 41.8763968 23.0922441 48.0408924 17.2403004 50.5062258 19.5811882 41.8763968 27.7734681"></polyline>
                <polyline id="Fill-4" points="43.1090634 40.9233765 40.6437301 38.5830404 70.2323794 10.4945932 72.6977128 12.8349294 43.1090634 40.9233765"></polyline>
                <polyline id="Fill-5" points="72.7465312 22.0340724 60.5419108 22.0340724 60.5419108 10.44825 64.0289452 10.44825 64.0289452 18.7238374 72.7465312 18.7238374 72.7465312 22.0340724"></polyline>
                <polyline id="Fill-6" points="63.0043383 31.2823172 50.7997178 31.2823172 50.7997178 19.6964948 54.2867522 19.6964948 54.2867522 27.9720822 63.0043383 27.9720822 63.0043383 31.2823172"></polyline>
                <polygon id="Fill-7" points="41.8763968 38.098091 83.7208097 38.098091 83.7208097 41.4083259 41.8763968 41.4083259"></polygon>
                <polyline id="Fill-8" points="76.9036574 47.9454883 68.2732473 39.7532085 76.9036574 31.5609286 79.3689908 33.9012647 73.2044951 39.7532085 79.3689908 45.6051522 76.9036574 47.9454883"></polyline>
                <polyline id="Fill-9" points="63.1258033 47.9454883 54.4959743 39.7532085 63.1258033 31.5609286 65.5917178 33.9012647 59.4272221 39.7532085 65.5917178 45.6051522 63.1258033 47.9454883"></polyline>
                <polyline id="Fill-10" points="70.2323794 69.0118237 40.6437301 40.9233765 43.1090634 38.5830404 72.6977128 66.6709358 70.2323794 69.0118237"></polyline>
                <polyline id="Fill-11" points="64.0289452 69.0581669 60.5419108 69.0581669 60.5419108 57.4723445 72.7465312 57.4723445 72.7465312 60.7825795 64.0289452 60.7825795 64.0289452 69.0581669"></polyline>
                <polyline id="Fill-12" points="54.2867522 59.8099221 50.7997178 59.8099221 50.7997178 48.2240997 63.0043383 48.2240997 63.0043383 51.5343347 54.2867522 51.5343347 54.2867522 59.8099221"></polyline>
                <polygon id="Fill-13" points="40.1328796 39.7532085 43.619914 39.7532085 43.619914 79.4429258 40.1328796 79.4429258"></polygon>
                <polyline id="Fill-14" points="48.0408924 75.3448549 41.8763968 69.4929111 35.7119011 75.3448549 33.2465678 73.003967 41.8763968 64.8116872 50.5062258 73.003967 48.0408924 75.3448549"></polyline>
                <polyline id="Fill-15" points="48.0408924 62.2661165 41.8763968 56.4141728 35.7119011 62.2661165 33.2465678 59.924677 41.8763968 51.7329488 50.5062258 59.924677 48.0408924 62.2661165"></polyline>
                <polygon id="Fill-16" points="11.0550808 66.6709358 40.6437301 38.5830404 43.1090634 40.9233765 13.5209953 69.0118237"></polygon>
                <polyline id="Fill-17" points="23.2108827 69.0581669 19.7238483 69.0581669 19.7238483 60.7825795 11.0062623 60.7825795 11.0062623 57.4723445 23.2108827 57.4723445 23.2108827 69.0581669"></polyline>
                <polyline id="Fill-18" points="32.9530757 59.8099221 29.4660413 59.8099221 29.4660413 51.5343347 20.7484553 51.5343347 20.7484553 48.2240997 32.9530757 48.2240997 32.9530757 59.8099221"></polyline>
                <polygon id="Fill-19" points="0.0319838057 38.098091 41.8763968 38.098091 41.8763968 41.4083259 0.0319838057 41.4083259"></polygon>
                <polyline id="Fill-20" points="6.84971726 47.9454883 4.38380275 45.6051522 10.5482984 39.7532085 4.38380275 33.9012647 6.84971726 31.5609286 15.4795463 39.7532085 6.84971726 47.9454883"></polyline>
                <polyline id="Fill-21" points="20.6275714 47.9454883 18.1610757 45.6051522 24.3255714 39.7532085 18.1610757 33.9012647 20.6275714 31.5609286 29.2568192 39.7532085 20.6275714 47.9454883"></polyline>
                <polyline id="Fill-22" points="40.6437301 40.9233765 11.0550808 12.8349294 13.5209953 10.4945932 43.1090634 38.5830404 40.6437301 40.9233765"></polyline>
                <polyline id="Fill-23" points="23.2108827 22.0340724 11.0062623 22.0340724 11.0062623 18.7238374 19.7238483 18.7238374 19.7238483 10.44825 23.2108827 10.44825 23.2108827 22.0340724"></polyline>
                <polyline id="Fill-24" points="32.9530757 31.2823172 20.7484553 31.2823172 20.7484553 27.9720822 29.4660413 27.9720822 29.4660413 19.6964948 32.9530757 19.6964948 32.9530757 31.2823172"></polyline>
            </g>
            <g id="Imported-Layers-Copy-4" transform="translate(54.000000, 335.000000)" fill="#FFFFFF">
                <polygon id="Fill-1" points="40.1328796 0.0303887979 43.619914 0.0303887979 43.619914 39.7532085 40.1328796 39.7532085"></polygon>
                <polyline id="Fill-2" points="41.8763968 14.6947297 33.2465678 6.50189817 35.7119011 4.16156204 41.8763968 10.0135058 48.0408924 4.16156204 50.5062258 6.50189817 41.8763968 14.6947297"></polyline>
                <polyline id="Fill-3" points="41.8763968 27.7734681 33.2465678 19.5811882 35.7119011 17.2403004 41.8763968 23.0922441 48.0408924 17.2403004 50.5062258 19.5811882 41.8763968 27.7734681"></polyline>
                <polyline id="Fill-4" points="43.1090634 40.9233765 40.6437301 38.5830404 70.2323794 10.4945932 72.6977128 12.8349294 43.1090634 40.9233765"></polyline>
                <polyline id="Fill-5" points="72.7465312 22.0340724 60.5419108 22.0340724 60.5419108 10.44825 64.0289452 10.44825 64.0289452 18.7238374 72.7465312 18.7238374 72.7465312 22.0340724"></polyline>
                <polyline id="Fill-6" points="63.0043383 31.2823172 50.7997178 31.2823172 50.7997178 19.6964948 54.2867522 19.6964948 54.2867522 27.9720822 63.0043383 27.9720822 63.0043383 31.2823172"></polyline>
                <polygon id="Fill-7" points="41.8763968 38.098091 83.7208097 38.098091 83.7208097 41.4083259 41.8763968 41.4083259"></polygon>
                <polyline id="Fill-8" points="76.9036574 47.9454883 68.2732473 39.7532085 76.9036574 31.5609286 79.3689908 33.9012647 73.2044951 39.7532085 79.3689908 45.6051522 76.9036574 47.9454883"></polyline>
                <polyline id="Fill-9" points="63.1258033 47.9454883 54.4959743 39.7532085 63.1258033 31.5609286 65.5917178 33.9012647 59.4272221 39.7532085 65.5917178 45.6051522 63.1258033 47.9454883"></polyline>
                <polyline id="Fill-10" points="70.2323794 69.0118237 40.6437301 40.9233765 43.1090634 38.5830404 72.6977128 66.6709358 70.2323794 69.0118237"></polyline>
                <polyline id="Fill-11" points="64.0289452 69.0581669 60.5419108 69.0581669 60.5419108 57.4723445 72.7465312 57.4723445 72.7465312 60.7825795 64.0289452 60.7825795 64.0289452 69.0581669"></polyline>
                <polyline id="Fill-12" points="54.2867522 59.8099221 50.7997178 59.8099221 50.7997178 48.2240997 63.0043383 48.2240997 63.0043383 51.5343347 54.2867522 51.5343347 54.2867522 59.8099221"></polyline>
                <polygon id="Fill-13" points="40.1328796 39.7532085 43.619914 39.7532085 43.619914 79.4429258 40.1328796 79.4429258"></polygon>
                <polyline id="Fill-14" points="48.0408924 75.3448549 41.8763968 69.4929111 35.7119011 75.3448549 33.2465678 73.003967 41.8763968 64.8116872 50.5062258 73.003967 48.0408924 75.3448549"></polyline>
                <polyline id="Fill-15" points="48.0408924 62.2661165 41.8763968 56.4141728 35.7119011 62.2661165 33.2465678 59.924677 41.8763968 51.7329488 50.5062258 59.924677 48.0408924 62.2661165"></polyline>
                <polygon id="Fill-16" points="11.0550808 66.6709358 40.6437301 38.5830404 43.1090634 40.9233765 13.5209953 69.0118237"></polygon>
                <polyline id="Fill-17" points="23.2108827 69.0581669 19.7238483 69.0581669 19.7238483 60.7825795 11.0062623 60.7825795 11.0062623 57.4723445 23.2108827 57.4723445 23.2108827 69.0581669"></polyline>
                <polyline id="Fill-18" points="32.9530757 59.8099221 29.4660413 59.8099221 29.4660413 51.5343347 20.7484553 51.5343347 20.7484553 48.2240997 32.9530757 48.2240997 32.9530757 59.8099221"></polyline>
                <polygon id="Fill-19" points="0.0319838057 38.098091 41.8763968 38.098091 41.8763968 41.4083259 0.0319838057 41.4083259"></polygon>
                <polyline id="Fill-20" points="6.84971726 47.9454883 4.38380275 45.6051522 10.5482984 39.7532085 4.38380275 33.9012647 6.84971726 31.5609286 15.4795463 39.7532085 6.84971726 47.9454883"></polyline>
                <polyline id="Fill-21" points="20.6275714 47.9454883 18.1610757 45.6051522 24.3255714 39.7532085 18.1610757 33.9012647 20.6275714 31.5609286 29.2568192 39.7532085 20.6275714 47.9454883"></polyline>
                <polyline id="Fill-22" points="40.6437301 40.9233765 11.0550808 12.8349294 13.5209953 10.4945932 43.1090634 38.5830404 40.6437301 40.9233765"></polyline>
                <polyline id="Fill-23" points="23.2108827 22.0340724 11.0062623 22.0340724 11.0062623 18.7238374 19.7238483 18.7238374 19.7238483 10.44825 23.2108827 10.44825 23.2108827 22.0340724"></polyline>
                <polyline id="Fill-24" points="32.9530757 31.2823172 20.7484553 31.2823172 20.7484553 27.9720822 29.4660413 27.9720822 29.4660413 19.6964948 32.9530757 19.6964948 32.9530757 31.2823172"></polyline>
            </g>
            <g id="Group-5" transform="translate(40.000000, 5.000000)">
                <ellipse id="Oval" stroke="#EDEDED" stroke-width="3" fill="#FFFFFF" cx="212.604066" cy="155.229008" rx="80.4499239" ry="80.4198473"></ellipse>
                <ellipse id="Oval-Copy" stroke="#EDEDED" stroke-width="3" fill="#FFFFFF" cx="212.604066" cy="362.824427" rx="127.223135" ry="127.175573"></ellipse>
                <g id="Group" transform="translate(145.250641, 207.595420)">
                    <polygon id="Path-4" stroke="#EDEDED" stroke-width="0.5" fill="#00D1FF" points="0 0 0 55.4560338 49.2710383 46.5829656 49.2710383 6.42550442"></polygon>
                    <polygon id="Path-4-Copy" stroke="#EDEDED" stroke-width="0.5" fill="#00D1FF" transform="translate(106.956372, 27.728017) scale(-1, 1) translate(-106.956372, -27.728017) " points="82.3208524 0 82.3208524 55.4560338 131.591891 46.5829656 131.591891 6.42550442"></polygon>
                    <g id="Rectangle">
                        <use fill="#00D1FF" fill-rule="evenodd" xlink:href="#path-1"></use>
                        <rect stroke="#EDEDED" stroke-width="0.5" x="48.89414" y="3.99045802" width="35.0476408" height="46.2557252"></rect>
                    </g>
                </g>
                <g id="Group-4" transform="translate(132.154142, 0.000000)" fill="#000000">
                    <rect id="Rectangle-2" x="0" y="84.1603053" width="160.899848" height="22.4427481" rx="11.221374"></rect>
                    <rect id="Rectangle-11" x="26.1929985" y="0" width="110.384779" height="86.0305344"></rect>
                </g>
                <path d="" id="Path-5" stroke="#979797"></path>
                <path d="M298.666775,268.980962 L371.496496,246.654955 L380.227877,204.915671 C380.566493,203.296958 382.179864,202.071833 383.826144,202.178932 L389.331549,202.537086 C390.980201,202.644339 392.055396,204.057786 391.73815,205.668296 L384.042352,244.736225 L413.748032,230.26145 C415.235161,229.536813 417.026135,230.15722 417.749176,231.649007 L419.829554,235.94127 C420.552196,237.432234 419.931557,239.21848 418.435856,239.934535 L393.541129,251.852682 C392.048769,252.567137 389.547297,253.522137 387.959627,253.984078 L307.542228,277.38195 L298.666775,268.980962 Z" id="Path-6" stroke="#FFB061" stroke-width="2" fill="#FFB061"></path>
                <path d="M0.288454885,274.240614 L72.636088,252.265642 L81.3674691,210.526358 C81.7060852,208.907646 83.3194559,207.68252 84.9657362,207.789619 L90.4711412,208.147773 C92.119793,208.255026 93.1949887,209.668473 92.8777423,211.278983 L85.1819443,250.346912 L114.887624,235.872137 C116.374753,235.1475 118.165727,235.767907 118.888768,237.259694 L120.969146,241.551957 C121.691788,243.042921 121.071149,244.829167 119.575449,245.545222 L94.6807216,257.463369 C93.1883618,258.177824 90.6868891,259.132824 89.0992195,259.594765 L8.68182072,282.992637 L0.288454885,274.240614 Z" id="Path-6-Copy" stroke="#FFB061" stroke-width="2" fill="#FFB061" transform="translate(60.797913, 245.384157) scale(-1, 1) translate(-60.797913, -245.384157) "></path>
                <polygon id="Path-7" fill="#FFB061" points="186.411067 158.098265 216.538156 144.099525 216.538156 164.235694"></polygon>
                <g id="Group-3" transform="translate(145.250641, 151.488550)" fill="#FF4991">
                    <ellipse id="Oval-3" cx="15.7692542" cy="15.8969466" rx="15.7692542" ry="15.8969466"></ellipse>
                    <ellipse id="Oval-3-Copy" cx="122.412177" cy="15.8969466" rx="15.7692542" ry="15.8969466"></ellipse>
                </g>
                <g id="Group-2" transform="translate(171.443640, 127.267463)" fill="#000000">
                    <ellipse id="Oval-2" cx="8.41917808" cy="8.41603053" rx="8.41917808" ry="8.41603053"></ellipse>
                    <ellipse id="Oval-2-Copy" cx="73.9016743" cy="8.41603053" rx="8.41917808" ry="8.41603053"></ellipse>
                </g>
                <g id="Group-2-Copy" transform="translate(205.120352, 280.534351)" fill="#000000">
                    <ellipse id="Oval-2" cx="8.41917808" cy="8.41603053" rx="8.41917808" ry="8.41603053"></ellipse>
                </g>
                <g id="Group-2-Copy-2" transform="translate(205.120352, 312.328244)" fill="#000000">
                    <ellipse id="Oval-2" cx="8.41917808" cy="8.41603053" rx="8.41917808" ry="8.41603053"></ellipse>
                </g>
                <g id="Group-2-Copy-3" transform="translate(205.120352, 342.251908)" fill="#000000">
                    <ellipse id="Oval-2" cx="8.41917808" cy="8.41603053" rx="8.41917808" ry="8.41603053"></ellipse>
                </g>
                <path d="M194.398489,184.22732 C194.398489,184.22732 198.961343,195.88286 212.947535,195.8932 C226.933727,195.903541 230.682302,184.22732 230.682302,184.22732" id="Path-9" stroke="#000000" stroke-width="2"></path>
            </g>
        </g>
    </g>
</svg>