<?xml version="1.0" encoding="UTF-8"?>
<svg width="510px" height="510px" viewBox="0 0 510 510" version="1.1" xmlns="http://www.w3.org/2000/svg" xmlns:xlink="http://www.w3.org/1999/xlink">
    <!-- Generator: Sketch 43.1 (39012) - http://www.bohemiancoding.com/sketch -->
    <title>Artboard 3 Copy 3</title>
    <desc>Created with Sketch.</desc>
    <defs>
        <ellipse id="path-1" cx="240.742575" cy="387.158193" rx="121.146418" ry="120.841807"></ellipse>
    </defs>
    <g id="V5---Mobile" stroke="none" stroke-width="1" fill="none" fill-rule="evenodd">
        <g id="Artboard-3-Copy-3">
            <g id="Group-5" transform="translate(15.000000, 5.000000)">
                <g id="Group" transform="translate(165.283152, 252.944102)">
                    <g id="Group-6"></g>
                </g>
            </g>
            <g id="Group-7" transform="translate(13.000000, 1.000000)">
                <path d="M335.853086,318.255357 L424.050698,291.276207 L434.622312,240.848133 C435.033588,238.886291 436.988377,237.401157 438.982041,237.530577 L445.649149,237.963377 C447.645685,238.092984 448.947759,239.801018 448.559587,241.767362 L439.243872,288.957579 L475.217785,271.466 C477.018715,270.590335 479.187605,271.340046 480.063215,273.142748 L482.582577,278.329597 C483.457704,280.131305 482.706104,282.289837 480.894793,283.15513 L450.746998,297.557234 C448.939734,298.420595 445.910422,299.574634 443.987736,300.132852 L346.60136,328.407263 L335.853086,318.255357 Z" id="Path-6" stroke="#FFB061" stroke-width="2.41971507" fill="#FFB061"></path>
                <path d="M0.349322116,313.555376 L87.9631211,287.000422 L98.5347353,236.572348 C98.946011,234.610506 100.9008,233.125372 102.894464,233.254792 L109.561572,233.687592 C111.558108,233.817199 112.860182,235.525233 112.47201,237.491577 L103.156295,284.681794 L139.130208,267.190215 C140.931138,266.31455 143.100027,267.064261 143.975638,268.866963 L146.494999,274.053812 C147.370127,275.85552 146.618526,278.014052 144.807216,278.879345 L114.659421,293.281449 C112.852156,294.14481 109.822845,295.298849 107.900159,295.857067 L10.5137827,324.131478 L0.349322116,313.555376 Z" id="Path-6-Copy" stroke="#FFB061" stroke-width="2.41971507" fill="#FFB061" transform="translate(73.626958, 278.684711) scale(-1, 1) translate(-73.626958, -278.684711) "></path>
                <ellipse id="Oval" stroke="#EDEDED" stroke-width="9.67886027" fill="#FFFFFF" cx="237.06425" cy="168.434523" rx="93.2478678" ry="93.0481912"></ellipse>
                <g id="Oval-Copy">
                    <use fill="#FFFFFF" fill-rule="evenodd" xlink:href="#path-1"></use>
                    <ellipse stroke="#EDEDED" stroke-width="12.0985753" cx="240.742575" cy="387.158193" rx="115.09713" ry="114.792519"></ellipse>
                </g>
                <polygon id="Path-4" fill="#1C1C1C" points="164.707103 243.659117 164.707103 287.382336 218.498513 280.38654 218.498513 248.72518"></polygon>
                <polygon id="Path-4-Copy" fill="#1C1C1C" transform="translate(281.476187, 265.520727) scale(-1, 1) translate(-281.476187, -265.520727) " points="254.580482 243.659117 254.580482 287.382336 308.371893 280.38654 308.371893 248.72518"></polygon>
                <rect id="Rectangle" fill="#050505" x="217.8141" y="246.608208" width="38.8089594" height="36.8636317"></rect>
                <g id="Group-4" transform="translate(143.816382, 0.000000)" fill="#000000">
                    <rect id="Rectangle-2" x="0" y="84.6433064" width="187.478321" height="22.5715484" rx="11.2857742"></rect>
                    <rect id="Rectangle-11" x="30.5197266" y="0" width="128.618848" height="86.5242688"></rect>
                </g>
                <path d="" id="Path-5" stroke="#979797" stroke-width="1.20985753"></path>
                <polygon id="Path-7" fill="#FFB061" points="206.075764 172.178522 242.560007 155.262192 242.560007 179.595102"></polygon>
                <g id="Group-3" transform="translate(165.443737, 167.619433)" fill="#FF4991">
                    <ellipse id="Oval-3" cx="13.9853607" cy="14.0395896" rx="13.9853607" ry="14.0395896"></ellipse>
                    <ellipse id="Oval-3-Copy" cx="129.116342" cy="14.0395896" rx="13.9853607" ry="14.0395896"></ellipse>
                </g>
                <g id="Group-2" transform="translate(187.950040, 134.922025)" fill="#000000">
                    <ellipse id="Oval-2" cx="10.1957195" cy="10.1700834" rx="10.1957195" ry="10.1700834"></ellipse>
                    <ellipse id="Oval-2-Copy" cx="89.4957604" cy="10.1700834" rx="10.1957195" ry="10.1700834"></ellipse>
                </g>
                <g id="Group-2-Copy" transform="translate(227.099788, 311.587045)" fill="#000000">
                    <ellipse id="Oval-2" cx="12.0297806" cy="12.0339339" rx="12.0297806" ry="12.0339339"></ellipse>
                </g>
                <g id="Group-2-Copy-2" transform="translate(227.099788, 356.834008)" fill="#000000">
                    <ellipse id="Oval-2" cx="12.0297806" cy="12.0339339" rx="12.0297806" ry="12.0339339"></ellipse>
                </g>
                <g id="Group-2-Copy-3" transform="translate(227.099788, 400.024291)" fill="#000000">
                    <ellipse id="Oval-2" cx="12.0297806" cy="12.0339339" rx="12.0297806" ry="12.0339339"></ellipse>
                </g>
                <path d="M211.247155,205.521879 C211.510664,206.193556 211.990604,207.197145 212.718469,208.425051 C213.891678,210.404254 215.374204,212.372736 217.204156,214.214334 C222.44699,219.490536 229.453363,222.683575 238.20816,222.690034 C247.023199,222.696537 253.909232,219.454677 258.860621,214.083312 C260.588265,212.20913 261.952869,210.2076 263.002476,208.195931 C263.653884,206.947445 264.070341,205.925361 264.291973,205.236489 L255.085483,202.270199 C255.023643,202.462407 254.811845,202.982211 254.428903,203.716154 C253.754593,205.008532 252.866563,206.311049 251.751543,207.520645 C248.572403,210.969438 244.22613,213.015611 238.21529,213.011176 C232.155468,213.006705 227.565351,210.914835 224.062432,207.389623 C222.828109,206.147444 221.822252,204.811878 221.036925,203.487033 C220.589668,202.732511 220.33224,202.194212 220.250089,201.984809 L211.247155,205.521879 Z" id="Path-9" fill="#000000" fill-rule="nonzero"></path>
            </g>
        </g>
    </g>
</svg>