<?xml version="1.0" encoding="UTF-8"?>
<svg width="66px" height="70px" viewBox="0 0 66 70" version="1.1" xmlns="http://www.w3.org/2000/svg" xmlns:xlink="http://www.w3.org/1999/xlink">
    <!-- Generator: Sketch 48.2 (47327) - http://www.bohemiancoding.com/sketch -->
    <title>clear-night</title>
    <desc>Created with Sketch.</desc>
    <defs></defs>
    <g id="Icons" stroke="none" stroke-width="1" fill="none" fill-rule="evenodd">
        <g id="clear-night">
            <g id="Page-1">
                <path d="M20.6245764,2.39154353 C17.305574,15.5995231 12.2795326,54.6197788 64.15191,53.6680653 C65.5564358,53.6422852 66.4077945,55.1826433 65.5931696,56.3212622 C62.0472822,61.2731804 52.4014315,70.8096509 31.4545504,69.0544591 C31.4545504,69.0544591 1.35880461,65.3571701 0.060158483,31.66694 C0.060158483,31.66694 -1.14989448,12.035431 17.9084397,0.404331256 C19.2978398,-0.442113757 21.0200044,0.82110875 20.6245764,2.39154353" id="Fill-1" fill="#ADC1E3"></path>
                <path d="M18.0246912,35.6649962 C18.4590138,39.2827967 15.8595607,42.5633082 12.2229194,42.9951241 C8.58411727,43.42694 5.28240133,40.8424898 4.85023956,37.2268376 C4.41591698,33.6090371 7.01320923,30.3263773 10.6520113,29.8967098 C14.2908135,29.4648939 17.5903686,32.0471957 18.0246912,35.6649962" id="Fill-4" fill="#8AA1C4"></path>
                <path d="M26.9367312,54.9660908 C27.2651742,57.7009246 25.3009989,60.1801062 22.5502892,60.5066535 C19.7995796,60.8332008 17.3060061,58.8803619 16.9775632,56.1455282 C16.6491203,53.4106944 18.6132955,50.9315128 21.3640052,50.6049655 C24.1147149,50.2784182 26.6082883,52.2312571 26.9367312,54.9660908" id="Fill-6" fill="#8AA1C4"></path>
                <path d="M36.8399343,54.6257942 C37.1121962,56.9073287 35.4743031,58.9761778 33.1816849,59.2468683 C30.8869059,59.5197072 28.806047,57.8912673 28.5337851,55.6097328 C28.2593623,53.3303466 29.8972554,51.2593492 32.1920345,50.9886586 C34.4846527,50.7158197 36.5655116,52.3442596 36.8399343,54.6257942" id="Fill-8" fill="#8AA1C4"></path>
                <path d="M53.2962224,58.9080755 C53.5014993,60.6267456 52.2676774,62.1864387 50.5390303,62.3926791 C48.8103832,62.5967712 47.241636,61.367922 47.0341983,59.649252 C46.8289215,57.9305819 48.0627434,56.3708888 49.7913905,56.1667967 C51.5221983,55.9605563 53.0909456,57.1894054 53.2962224,58.9080755" id="Fill-10" fill="#8AA1C4"></path>
                <path d="M16.6199493,22.0032878 C16.8252262,23.7219579 15.5914043,25.2816509 13.8627572,25.4878914 C12.1341101,25.6919834 10.5653629,24.4631343 10.3579253,22.7444642 C10.1526484,21.0257942 11.3864703,19.4661011 13.1151174,19.262009 C14.8459253,19.0557686 16.4146725,20.2846177 16.6199493,22.0032878" id="Fill-12" fill="#8AA1C4"></path>
                <path d="M42.3986151,16.8382545 C44.073242,16.8382545 44.7819873,22.1274617 45.6203811,22.9116049 C46.4587749,23.6957481 51.8478322,22.4067456 52.426929,24.0824489 C53.0060258,25.7560039 48.1398842,27.9881267 47.6104861,29.0042903 C47.0810879,30.020454 50.0738082,34.7962085 48.5958149,35.8016305 C47.1178217,36.8070525 43.5503262,32.7703261 42.3986151,32.7703261 C41.246904,32.7703261 37.6167451,36.9144694 36.2014153,35.8016305 C34.7860855,34.6887916 37.7139815,30.020454 37.1845833,29.0042903 C36.657346,27.9881267 31.7825612,25.7366689 32.3703012,24.0824489 C32.9580412,22.4260806 38.3384553,23.6957481 39.1768491,22.9116049 C40.0152429,22.1274617 40.7239882,16.8382545 42.3986151,16.8382545" id="Fill-14" fill="#F9C900"></path>
                <path d="M52.4746829,1.67120594 C53.581017,1.67120594 54.0477517,5.16225453 54.6009188,5.68000389 C55.1540859,6.19775325 58.7086165,5.34486323 59.0910796,6.45125709 C59.4735428,7.55550261 56.2647416,9.0292622 55.9146906,9.69954353 C55.5646396,10.3698249 57.5396189,13.5214361 56.5650941,14.1852724 C55.5884085,14.8491087 53.2352876,12.1851701 52.4746829,12.1851701 C51.7140782,12.1851701 49.319902,14.9200039 48.3842717,14.1852724 C47.4508023,13.450541 49.3847262,10.3698249 49.0346752,9.69954353 C48.6846242,9.0292622 45.4693406,7.54261259 45.8582862,6.45125709 C46.245071,5.35990159 49.7952799,6.19775325 50.348447,5.68000389 C50.901614,5.16225453 51.3705096,1.67120594 52.4746829,1.67120594" id="Fill-16" fill="#F9C900"></path>
            </g>
        </g>
    </g>
</svg>