<?xml version="1.0" encoding="UTF-8"?>
<svg width="84px" height="81px" viewBox="0 0 84 81" version="1.1" xmlns="http://www.w3.org/2000/svg" xmlns:xlink="http://www.w3.org/1999/xlink">
    <!-- Generator: Sketch 48.2 (47327) - http://www.bohemiancoding.com/sketch -->
    <title>fog</title>
    <desc>Created with Sketch.</desc>
    <defs></defs>
    <g id="Icons" stroke="none" stroke-width="1" fill="none" fill-rule="evenodd">
        <g id="fog">
            <g id="Page-1">
                <path d="M77.0890313,60.056911 L6.57715625,60.056911 C5.39371875,60.056911 4.43559375,59.0854295 4.43559375,57.8854945 C4.43559375,56.6855596 5.39371875,55.7140781 6.57715625,55.7140781 L77.0890313,55.7140781 C78.2724688,55.7140781 79.2305938,56.6855596 79.2305938,57.8854945 C79.2305938,59.0854295 78.2724688,60.056911 77.0890313,60.056911" id="Fill-4" fill="#BAC6D1"></path>
                <path d="M77.0890313,70.3703627 L6.57715625,70.3703627 C5.39371875,70.3703627 4.43559375,69.3988812 4.43559375,68.1989463 C4.43559375,66.9990114 5.39371875,66.0275299 6.57715625,66.0275299 L77.0890313,66.0275299 C78.2724688,66.0275299 79.2305938,66.9990114 79.2305938,68.1989463 C79.2305938,69.3988812 78.2724688,70.3703627 77.0890313,70.3703627" id="Fill-6" fill="#BAC6D1"></path>
                <path d="M53.2094063,80.1366353 L6.57628125,80.1366353 C5.39284375,80.1366353 4.43471875,79.1651538 4.43471875,77.9652188 C4.43471875,76.7652839 5.39284375,75.7938024 6.57628125,75.7938024 L53.2094063,75.7938024 C54.3928438,75.7938024 55.3509688,76.7652839 55.3509688,77.9652188 C55.3509688,79.1651538 54.3928438,80.1366353 53.2094063,80.1366353" id="Fill-8" fill="#BAC6D1"></path>
                <path d="M12.6216563,23.5802201 C5.66321875,23.5802201 -0.00021875,29.3780573 -0.00021875,36.506691 C-0.00021875,43.6308887 5.66321875,49.4309438 12.6216563,49.4309438 L67.4994688,49.4309438 C76.2363438,49.4309438 83.3413438,42.1514865 83.3413438,33.2040975 C83.3413438,24.2567084 76.2363438,16.9772511 67.4994688,16.9772511 C65.8741563,16.9772511 64.2575938,17.2345384 62.7000938,17.7380231 L61.6850938,18.0685043 L61.3263438,17.0393549 C57.9729063,7.3822077 49.0085313,0.894574344 39.0225938,0.894574344 C26.8141563,0.894574344 16.6816563,10.2633823 15.4522813,22.6863684 L15.3385313,23.8375075 L14.2185313,23.6955559 C13.5972813,23.6157081 13.0897813,23.5802201 12.6216563,23.5802201" id="Fill-1" fill="#D6E3F2"></path>
            </g>
        </g>
    </g>
</svg>