<?xml version="1.0" encoding="UTF-8"?>
<svg width="80px" height="78px" viewBox="0 0 80 78" version="1.1" xmlns="http://www.w3.org/2000/svg" xmlns:xlink="http://www.w3.org/1999/xlink">
    <!-- Generator: Sketch 48.2 (47327) - http://www.bohemiancoding.com/sketch -->
    <title>hail</title>
    <desc>Created with Sketch.</desc>
    <defs>
        <polygon id="path-1" points="39.6678524 0.532519709 0 0.532519709 0 46.052554 79.3357047 46.052554 79.3357047 0.532519709 39.6678524 0.532519709"></polygon>
        <polygon id="path-3" points="0.106408702 10.4007756 10.0371935 10.4007756 10.0371935 0.479059722 0.106408702 0.479059722 0.106408702 10.4007756"></polygon>
        <polygon id="path-5" points="0.562675991 10.4007756 10.4934608 10.4007756 10.4934608 0.479059722 0.562675991 0.479059722 0.562675991 10.4007756"></polygon>
        <polygon id="path-7" points="0.0183247863 10.4007756 9.94910956 10.4007756 9.94910956 0.479059722 0.0183247863 0.479059722 0.0183247863 10.4007756"></polygon>
    </defs>
    <g id="Icons" stroke="none" stroke-width="1" fill="none" fill-rule="evenodd">
        <g id="hail">
            <g id="Page-1">
                <g id="Group-3" transform="translate(0.000000, 0.331961)">
                    <mask id="mask-2" fill="white">
                        <use xlink:href="#path-1"></use>
                    </mask>
                    <g id="Clip-2"></g>
                    <path d="M12.015021,21.8083462 C5.3910272,21.8083462 -0.000208236208,27.2458717 -0.000208236208,33.9314902 C-0.000208236208,40.6129484 5.3910272,46.052554 12.015021,46.052554 L64.2552385,46.052554 C72.5721927,46.052554 79.3357047,39.225485 79.3357047,30.8341392 C79.3357047,22.4427935 72.5721927,15.6157244 64.2552385,15.6157244 C62.7080435,15.6157244 61.1691779,15.8570224 59.6865361,16.3292176 L58.7203201,16.6391607 L58.3788127,15.6739688 C55.1865517,6.61697341 46.6530319,0.532519709 37.147049,0.532519709 C25.5253862,0.532519709 15.879885,9.31909491 14.7095975,20.9700437 L14.6013147,22.0496442 L13.5351453,21.9165143 C12.9437545,21.8416287 12.4606465,21.8083462 12.015021,21.8083462" id="Fill-1" fill="#D6E3F2" mask="url(#mask-2)"></path>
                </g>
                <path d="M25.5918135,58.9717414 C25.5918135,61.7113057 23.3678508,63.9329113 20.62538,63.9329113 C17.8829091,63.9329113 15.6610287,61.7113057 15.6610287,58.9717414 C15.6610287,56.2321771 17.8829091,54.0105715 20.62538,54.0105715 C23.3678508,54.0105715 25.5918135,56.2321771 25.5918135,58.9717414" id="Fill-4" fill="#4FB4ED"></path>
                <path d="M43.9459611,58.9717414 C43.9459611,61.7113057 41.7219984,63.9329113 38.9795276,63.9329113 C36.2370567,63.9329113 34.0151764,61.7113057 34.0151764,58.9717414 C34.0151764,56.2321771 36.2370567,54.0105715 38.9795276,54.0105715 C41.7219984,54.0105715 43.9459611,56.2321771 43.9459611,58.9717414" id="Fill-6" fill="#4FB4ED"></path>
                <path d="M62.4883543,58.9717414 C62.4883543,61.7113057 60.2643916,63.9329113 57.5219207,63.9329113 C54.7794499,63.9329113 52.5575695,61.7113057 52.5575695,58.9717414 C52.5575695,56.2321771 54.7794499,54.0105715 57.5219207,54.0105715 C60.2643916,54.0105715 62.4883543,56.2321771 62.4883543,58.9717414" id="Fill-8" fill="#4FB4ED"></path>
                <g id="Group-12" transform="translate(24.988345, 66.896924)">
                    <mask id="mask-4" fill="white">
                        <use xlink:href="#path-3"></use>
                    </mask>
                    <g id="Clip-11"></g>
                    <path d="M10.0371935,5.44022967 C10.0371935,8.17979395 7.81323077,10.4013996 5.07075991,10.4013996 C2.32828904,10.4013996 0.106408702,8.17979395 0.106408702,5.44022967 C0.106408702,2.70066538 2.32828904,0.479059722 5.07075991,0.479059722 C7.81323077,0.479059722 10.0371935,2.70066538 10.0371935,5.44022967" id="Fill-10" fill="#4FB4ED" mask="url(#mask-4)"></path>
                </g>
                <g id="Group-15" transform="translate(42.859363, 66.896924)">
                    <mask id="mask-6" fill="white">
                        <use xlink:href="#path-5"></use>
                    </mask>
                    <g id="Clip-14"></g>
                    <path d="M10.4934608,5.44022967 C10.4934608,8.17979395 8.26949806,10.4013996 5.5270272,10.4013996 C2.78455633,10.4013996 0.562675991,8.17979395 0.562675991,5.44022967 C0.562675991,2.70066538 2.78455633,0.479059722 5.5270272,0.479059722 C8.26949806,0.479059722 10.4934608,2.70066538 10.4934608,5.44022967" id="Fill-13" fill="#4FB4ED" mask="url(#mask-6)"></path>
                </g>
                <g id="Group-18" transform="translate(62.470862, 66.896924)">
                    <mask id="mask-8" fill="white">
                        <use xlink:href="#path-7"></use>
                    </mask>
                    <g id="Clip-17"></g>
                    <path d="M9.94910956,5.44022967 C9.94910956,8.17979395 7.72514685,10.4013996 4.98267599,10.4013996 C2.24020513,10.4013996 0.0183247863,8.17979395 0.0183247863,5.44022967 C0.0183247863,2.70066538 2.24020513,0.479059722 4.98267599,0.479059722 C7.72514685,0.479059722 9.94910956,2.70066538 9.94910956,5.44022967" id="Fill-16" fill="#4FB4ED" mask="url(#mask-8)"></path>
                </g>
            </g>
        </g>
    </g>
</svg>