<?xml version="1.0" encoding="UTF-8"?>
<svg width="90px" height="75px" viewBox="0 0 90 75" version="1.1" xmlns="http://www.w3.org/2000/svg" xmlns:xlink="http://www.w3.org/1999/xlink">
    <!-- Generator: Sketch 48.2 (47327) - http://www.bohemiancoding.com/sketch -->
    <title>partly-cloudy-night</title>
    <desc>Created with Sketch.</desc>
    <defs></defs>
    <g id="Icons" stroke="none" stroke-width="1" fill="none" fill-rule="evenodd">
        <g id="partly-cloudy-night">
            <g id="Page-1">
                <path d="M21.5277865,2.39259373 C18.0971854,16.2232255 12.9021477,57.0829789 66.5186895,56.0863996 C67.9704413,56.0594042 68.8504262,57.672378 68.0084101,58.8646739 C64.3432954,64.050036 54.3731111,74.036076 32.7219091,72.1981407 C32.7219091,72.1981407 1.61421957,68.3265537 0.271907581,33.0480945 C0.271907581,33.0480945 -0.978832377,12.4911145 18.720322,0.311700051 C20.1564394,-0.574648177 21.9365104,0.748125321 21.5277865,2.39259373" id="Fill-1" fill="#ADC1E3"></path>
                <path d="M18.8404823,37.2344027 C19.2894086,41.022754 16.6025512,44.4579158 12.8436309,44.9100883 C9.0824772,45.3622609 5.66974388,42.6559743 5.22305104,38.8698726 C4.77412474,35.0815213 7.45874872,31.6441099 11.2199024,31.194187 C14.9810562,30.7420144 18.391556,33.4460514 18.8404823,37.2344027" id="Fill-4" fill="#8AA1C4"></path>
                <path d="M28.0521821,57.4456168 C28.3916687,60.3093765 26.3614497,62.9054319 23.5182498,63.2473734 C20.6750498,63.5893148 18.0976321,61.544415 17.7581456,58.6806554 C17.418659,55.8168957 19.448878,53.2208403 22.2920779,52.8788988 C25.1352779,52.5369574 27.7126956,54.5818572 28.0521821,57.4456168" id="Fill-6" fill="#8AA1C4"></path>
                <path d="M38.2883719,57.0892779 C38.5697884,59.4783688 36.8768226,61.6447478 34.507117,61.9281993 C32.135178,62.2139004 29.984352,60.5086923 29.7029355,58.1196014 C29.4192856,55.7327601 31.1122514,53.5641315 33.4841904,53.28068 C35.853896,52.9949789 38.004722,54.700187 38.2883719,57.0892779" id="Fill-8" fill="#8AA1C4"></path>
                <path d="M55.2979887,61.573435 C55.5101678,63.3731269 54.2348597,65.0063472 52.4480883,65.2223102 C50.661317,65.4360236 49.039822,64.149244 48.8254094,62.3495521 C48.6132303,60.5498603 49.8885384,58.91664 51.6753097,58.7029266 C53.4643146,58.4869635 55.0858096,59.7737432 55.2979887,61.573435" id="Fill-10" fill="#8AA1C4"></path>
                <path d="M17.3885072,22.9288772 C17.6006863,24.7285691 16.3253783,26.3617894 14.5386069,26.5777524 C12.7518355,26.7914658 11.1303405,25.5046862 10.915928,23.7049944 C10.7037489,21.9053025 11.9790569,20.2720822 13.7658283,20.0583688 C15.5548331,19.8424058 17.1763281,21.1291854 17.3885072,22.9288772" id="Fill-12" fill="#8AA1C4"></path>
                <path d="M17.3726497,48.7843749 C10.268,48.7843749 4.48556116,54.664868 4.48556116,61.8951299 C4.48556116,69.1208927 10.268,75.0036353 17.3726497,75.0036353 L73.4035663,75.0036353 C82.3240223,75.0036353 89.5783141,67.6203996 89.5783141,58.5454535 C89.5783141,49.4705074 82.3240223,42.0872717 73.4035663,42.0872717 C71.7441024,42.0872717 70.0935723,42.348227 68.5033458,42.8588896 L67.4670184,43.1940822 L67.1007303,42.1502609 C63.6768297,32.3554381 54.5240933,25.7753148 44.3283292,25.7753148 C31.8633654,25.7753148 21.5179592,35.2776877 20.2627523,47.8777802 L20.1466122,49.0453303 L19.0030785,48.9013549 C18.3687747,48.8203688 17.850611,48.7843749 17.3726497,48.7843749" id="Fill-14" fill="#D6E3F2"></path>
            </g>
        </g>
    </g>
</svg>