<?xml version="1.0" encoding="UTF-8"?>
<svg width="100px" height="67px" viewBox="0 0 100 67" version="1.1" xmlns="http://www.w3.org/2000/svg" xmlns:xlink="http://www.w3.org/1999/xlink">
    <!-- Generator: Sketch 48.2 (47327) - http://www.bohemiancoding.com/sketch -->
    <title>partly-cloudy-day</title>
    <desc>Created with Sketch.</desc>
    <defs>
        <polygon id="path-1" points="2.88351642e-20 0.630862516 2.88351642e-20 7.25622982 13.6159574 7.25622982 13.6159574 0.630862516 0 0.630862516"></polygon>
        <polygon id="path-3" points="0.094893617 46.5073529 81.1565957 46.5073529 81.1565957 0.248180147 0.094893617 0.248180147"></polygon>
    </defs>
    <g id="Icons" stroke="none" stroke-width="1" fill="none" fill-rule="evenodd">
        <g id="partly-cloudy-day">
            <g id="Page-1">
                <path d="M33.4940426,18.331296 C41.8557447,18.3376379 48.6280851,25.0769761 48.6217021,33.3848805 C48.6153191,41.6927849 41.8323404,48.4215533 33.4706383,48.4152114 C25.1089362,48.4088695 18.3365957,41.6695313 18.3429787,33.3616268 C18.3493617,25.0537224 25.1323404,18.324954 33.4940426,18.331296" id="Fill-1" fill="#F9C900"></path>
                <path d="M29.8842553,53.4352574 C29.8842553,53.6170588 29.8608511,53.7988603 29.8119149,53.9827757 L27.2991489,63.2694485 C26.9948936,64.3940809 25.8310638,65.0599816 24.6991489,64.7576838 C23.5651064,64.455386 22.8948936,63.2990441 23.1991489,62.1744118 L25.7119149,52.887739 C26.0161702,51.7631066 27.18,51.0972059 28.3119149,51.3973897 C29.2608511,51.6510662 29.8842553,52.5051103 29.8842553,53.4352574" id="Fill-3" fill="#F9C900"></path>
                <path d="M19.3676596,49.6227114 C19.3676596,50.1913695 19.1378723,50.7579136 18.6825532,51.1722518 L11.5655319,57.6896232 C10.7038298,58.4781342 9.3612766,58.423171 8.56765957,57.5670129 C7.77191489,56.7108548 7.82723404,55.3769393 8.68893617,54.5863143 L15.8059574,48.071057 C16.6697872,47.282546 18.0123404,47.3353952 18.8059574,48.1936673 C19.1825532,48.5974357 19.3676596,49.1111305 19.3676596,49.6227114" id="Fill-5" fill="#F9C900"></path>
                <g id="Group-9" transform="translate(0.000000, 36.640818)">
                    <mask id="mask-2" fill="white">
                        <use xlink:href="#path-1"></use>
                    </mask>
                    <g id="Clip-8"></g>
                    <path d="M13.6159574,2.74287684 C13.6159574,3.68147978 12.9797872,4.5355239 12.0244681,4.78074449 L2.65425532,7.18855699 C1.52021277,7.48028493 0.360638298,6.80170037 0.0670212766,5.67495404 C-0.224468085,4.54820772 0.456382979,3.39609375 1.59255319,3.10436581 L10.962766,0.698667279 C12.0968085,0.406939338 13.2542553,1.08340993 13.5478723,2.21227022 C13.5946809,2.38984375 13.6159574,2.56741728 13.6159574,2.74287684" id="Fill-7" fill="#F9C900" mask="url(#mask-2)"></path>
                </g>
                <path d="M13.9138298,27.569136 C13.9138298,27.7424816 13.8925532,27.9179412 13.8457447,28.0955147 C13.5542553,29.222261 12.3968085,29.9008456 11.262766,29.6112316 L1.88829787,27.213989 C0.754255319,26.924375 0.0712765957,25.772261 0.362765957,24.6455147 C0.654255319,23.5187684 1.81170213,22.8401838 2.94787234,23.1297978 L12.3202128,25.5270404 C13.2776596,25.772261 13.9138298,26.6284191 13.9138298,27.569136" id="Fill-10" fill="#F9C900"></path>
                <path d="M19.3153191,17.3003125 C19.3153191,17.8288051 19.1174468,18.3572978 18.7174468,18.7652941 C17.9025532,19.6024265 16.5578723,19.6235662 15.7153191,18.8139154 L8.76425532,12.1231985 C7.92170213,11.3135478 7.90042553,9.97963235 8.71531915,9.1425 C9.53021277,8.30536765 10.8748936,8.28422794 11.7174468,9.09387868 L18.6685106,15.7824816 C19.1004255,16.1968199 19.3153191,16.7485662 19.3153191,17.3003125" id="Fill-12" fill="#F9C900"></path>
                <path d="M29.1759574,11.4367923 C29.1759574,12.3796232 28.5334043,13.2378952 27.5717021,13.4788879 C26.4355319,13.7642739 25.2802128,13.0793474 24.9951064,11.9483732 L22.6291489,2.6236489 C22.3440426,1.49267463 23.0334043,0.349016544 24.1695745,0.0636305147 C25.3057447,-0.219641544 26.4610638,0.465284926 26.7461702,1.59414522 L29.1121277,10.9188695 C29.1546809,11.0922151 29.1759574,11.2655607 29.1759574,11.4367923" id="Fill-14" fill="#F9C900"></path>
                <path d="M43.3853191,2.79931985 C43.3853191,2.97689338 43.3619149,3.15658088 43.3151064,3.33626838 L40.8555319,12.635625 C40.5576596,13.7623713 39.3959574,14.434614 38.2619149,14.1386581 C37.13,13.8427022 36.4512766,12.6884743 36.7491489,11.5638419 L39.2087234,2.26237132 C39.5065957,1.13773897 40.6682979,0.463382353 41.8023404,0.759338235 C42.7555319,1.00878676 43.3853191,1.86283088 43.3853191,2.79931985" id="Fill-16" fill="#F9C900"></path>
                <path d="M58.776383,10.8290257 C58.776383,11.4167096 58.5295745,12.0022794 58.0465957,12.4187316 L50.7444681,18.7310478 C49.8614894,19.4941912 48.5189362,19.4011765 47.7508511,18.5238787 C46.9806383,17.6444669 47.0742553,16.3126654 47.9593617,15.5474081 L55.2614894,9.23720588 C56.1444681,8.47194853 57.4848936,8.56496324 58.2551064,9.444375 C58.6061702,9.84391544 58.776383,10.3385846 58.776383,10.8290257" id="Fill-18" fill="#F9C900"></path>
                <path d="M66.3019149,24.9029963 C66.3019149,25.8289154 65.682766,26.6766176 64.7402128,26.9345221 L55.4082979,29.4776287 C54.276383,29.7862684 53.1082979,29.1267096 52.7997872,28.0020772 C52.4891489,26.8774449 53.1529787,25.718989 54.2848936,25.4103493 L63.6168085,22.8672426 C64.7487234,22.5586029 65.9146809,23.2181618 66.2253191,24.3427941 C66.276383,24.5288235 66.3019149,24.7169669 66.3019149,24.9029963" id="Fill-20" fill="#F9C900"></path>
                <path d="M66.1414894,41.3441912 C66.1414894,41.5175368 66.1202128,41.6929963 66.0734043,41.8705699 C65.7819149,42.9973162 64.6244681,43.6759007 63.4904255,43.3862868 L54.1159574,40.9890441 C52.9819149,40.6994301 52.2968085,39.5494301 52.5904255,38.4205699 C52.8819149,37.2938235 54.0393617,36.615239 55.1755319,36.9048529 L64.5478723,39.3020956 C65.5053191,39.5473162 66.1414894,40.4034743 66.1414894,41.3441912" id="Fill-22" fill="#F9C900"></path>
                <path d="M58.2155319,55.8242555 C58.2155319,56.3717739 58.002766,56.9171783 57.577234,57.3294026 C56.7389362,58.1453952 55.3942553,58.1305974 54.5751064,57.297693 L47.8091489,50.4209467 C46.99,49.5880423 47.0048936,48.2541268 47.8431915,47.4402482 C48.6814894,46.6242555 50.0261702,46.6390533 50.8453191,47.4719577 L57.6112766,54.348704 C58.0155319,54.7588143 58.2155319,55.2915349 58.2155319,55.8242555" id="Fill-24" fill="#F9C900"></path>
                <path d="M43.6031915,63.6011305 C43.6031915,64.5312776 42.9797872,65.3810938 42.0329787,65.6347702 C40.9010638,65.937068 39.7351064,65.2711673 39.4308511,64.1465349 L36.9117021,54.8619761 C36.6074468,53.7373438 37.2776596,52.5810018 38.4095745,52.2765901 C39.5414894,51.9742923 40.7074468,52.640193 41.0117021,53.7648254 L43.5287234,63.0493842 C43.5797872,63.2332996 43.6031915,63.419329 43.6031915,63.6011305" id="Fill-26" fill="#F9C900"></path>
                <g id="Group-30" transform="translate(18.021277, 19.729053)">
                    <mask id="mask-4" fill="white">
                        <use xlink:href="#path-3"></use>
                    </mask>
                    <g id="Clip-29"></g>
                    <path d="M12.3714894,21.8698713 C5.60340426,21.8698713 0.094893617,27.3957904 0.094893617,34.1900919 C0.094893617,40.9801654 5.60340426,46.5081985 12.3714894,46.5081985 L65.7480851,46.5081985 C74.2459574,46.5081985 81.1565957,39.5701471 81.1565957,31.0423897 C81.1565957,22.5146324 74.2459574,15.5765809 65.7480851,15.5765809 C64.167234,15.5765809 62.5948936,15.8218015 61.08,16.3016728 L60.092766,16.6166544 L59.7438298,15.6357721 C56.4821277,6.43154412 47.7629787,0.248180147 38.0502128,0.248180147 C26.1757447,0.248180147 16.3204255,9.17759191 15.1246809,21.0179412 L15.0140426,22.1150919 L13.9246809,21.9797978 C13.3204255,21.9036949 12.8268085,21.8698713 12.3714894,21.8698713" id="Fill-28" fill="#D6E3F2" mask="url(#mask-4)"></path>
                </g>
            </g>
        </g>
    </g>
</svg>