<?xml version="1.0" encoding="UTF-8"?>
<svg width="100px" height="81px" viewBox="0 0 100 81" version="1.1" xmlns="http://www.w3.org/2000/svg" xmlns:xlink="http://www.w3.org/1999/xlink">
    <!-- Generator: Sketch 48.2 (47327) - http://www.bohemiancoding.com/sketch -->
    <title>sleet</title>
    <desc>Created with Sketch.</desc>
    <defs>
        <rect id="path-1" x="0" y="0" width="100" height="100"></rect>
    </defs>
    <g id="Icons" stroke="none" stroke-width="1" fill="none" fill-rule="evenodd">
        <g id="sleet" transform="translate(0.000000, -10.000000)">
            <g id="Rectangle-1" opacity="0.0229127799">
                <g id="path-1-Clipped">
                    <g>
                        <mask id="mask-2" fill="white">
                            <use xlink:href="#path-1"></use>
                        </mask>
                        <g id="path-1"></g>
                        <rect id="path-1" mask="url(#mask-2)" x="0" y="0" width="100" height="100"></rect>
                    </g>
                </g>
            </g>
            <g id="Page-1" transform="translate(0.000000, 10.000000)" fill-rule="nonzero">
                <path d="M22.8703704,51.8790846 C22.8703704,51.8790846 20.1430976,59.1637736 20.8249158,61.9454665 C21.3867845,64.2461148 23.7521044,65.6557847 26.1026936,65.0889886 C28.4574916,64.5201011 29.9010943,62.1901718 29.3371212,59.8895236 C28.6574074,57.1057392 22.8703704,51.8790846 22.8703704,51.8790846" id="Fill-3" fill="#38A1E8"></path>
                <path d="M39.7304293,51.540471 C39.7304293,51.540471 37.0031566,58.82516 37.6849747,61.6068529 C38.2468434,63.9075012 40.6121633,65.3171711 42.9627525,64.750375 C45.3175505,64.1814875 46.7611532,61.8515582 46.1971801,59.55091 C45.5174663,56.7671256 39.7304293,51.540471 39.7304293,51.540471" id="Fill-8" fill="#38A1E8"></path>
                <path d="M64.6839,58.5039364 C64.6587779,58.4061532 64.5969387,58.3238298 64.5092043,58.2724259 C64.4218565,58.2206356 64.3190488,58.2063353 64.2201061,58.2314575 L61.7453792,58.8946827 L60.1085733,57.9497027 L61.7453792,57.0043361 L64.2259035,57.6687209 C64.4299729,57.7154868 64.6309502,57.5964463 64.683127,57.3981745 C64.7101817,57.2992318 64.6966544,57.1960376 64.6452505,57.1075303 C64.5938467,57.0190229 64.5119098,56.9567973 64.4152861,56.9320616 L62.6779914,56.4659487 L64.3658147,55.492368 C64.5447618,55.383763 64.6042821,55.1568905 64.5007014,54.9756243 C64.3967343,54.7935852 64.1629049,54.7302001 63.9804793,54.8345537 L62.2980669,55.8073614 L62.7637933,54.0689073 C62.789302,53.9715105 62.7742287,53.8659974 62.7232113,53.7790361 C62.671421,53.6913017 62.5890976,53.6294626 62.4913144,53.6043404 C62.291883,53.5533231 62.0843352,53.6739095 62.02868,53.8737273 L61.3658412,56.3457488 L59.7290352,57.2911154 L59.7290352,55.4003822 L61.5401504,53.5896536 C61.685086,53.4420125 61.6846995,53.2016127 61.5393774,53.0531986 C61.4674894,52.9809241 61.3716386,52.9411151 61.269604,52.9411151 C61.1679558,52.9411151 61.0724916,52.9809241 61.0006035,53.0528121 L59.7290352,54.3243804 L59.7290352,52.379538 C59.7290352,52.1704442 59.557818,52 59.3475648,52 C59.1380845,52 58.9680268,52.1704442 58.9680268,52.379538 L58.9680268,54.3243804 L57.696845,53.0531986 C57.6249569,52.9809241 57.5291062,52.9411151 57.4270715,52.9411151 C57.3254234,52.9411151 57.2295726,52.9813106 57.1565251,53.0543581 C57.011976,53.2019992 57.012749,53.442399 57.1580711,53.5908131 L58.9680268,55.4003822 L58.9680268,57.2911154 L57.3308343,56.3457488 L56.667609,53.8714084 C56.6123403,53.6731365 56.405179,53.5533231 56.2057476,53.6043404 C56.0028378,53.6561307 55.8807054,53.8652245 55.9328822,54.0704533 L56.3989951,55.8077479 L54.7138773,54.8341672 C54.5314516,54.7302001 54.3034196,54.7920392 54.1944281,54.9756243 C54.0904609,55.1580499 54.1523001,55.3860819 54.3354987,55.494687 L56.0190706,56.4659487 L54.2852544,56.9312886 C54.1870847,56.9560243 54.1043748,57.017477 54.0529709,57.1048248 C54.0011806,57.1921727 53.9864938,57.2992318 54.0127755,57.3993339 C54.0587684,57.5643673 54.2095014,57.6791563 54.3791727,57.6791563 C54.4112517,57.6791563 54.4425578,57.6752913 54.4788883,57.6667884 L56.9497503,57.0043361 L58.5881022,57.9497027 L56.9512963,58.8946827 L54.4773424,58.231844 C54.3799456,58.2063353 54.2736595,58.2210221 54.1866982,58.2728124 C54.1005098,58.3238298 54.0375111,58.4069262 54.0143215,58.499685 C53.9868803,58.5978547 54.0000211,58.7006623 54.0510385,58.7899426 C54.1016693,58.877677 54.1855387,58.9422216 54.2817759,58.9673438 L56.0190706,59.4330702 L54.3331798,60.4058779 C54.1523001,60.512937 54.0908474,60.7456069 54.1963606,60.9233945 C54.2647702,61.0428215 54.3884485,61.114323 54.5268137,61.114323 C54.5932908,61.114323 54.6586085,61.0973173 54.7165827,61.0644652 L56.400541,60.091271 L55.9352012,61.8274062 C55.9081465,61.9251894 55.9216738,62.0283835 55.9730777,62.1172773 C56.023322,62.2042387 56.1040994,62.2668509 56.1991772,62.292746 C56.2320293,62.3027949 56.2656543,62.3074329 56.3023713,62.3074329 C56.4708831,62.3074329 56.6220026,62.1918709 56.6703145,62.0252916 L57.3312208,59.5528836 L58.9680268,58.6079035 L58.9680268,60.4986367 L57.1596171,62.3082058 C57.011203,62.4566199 57.011203,62.6977927 57.1596171,62.8462068 C57.2315051,62.9180948 57.3269694,62.9579038 57.4293905,62.9579038 C57.5314252,62.9575173 57.6265029,62.9180948 57.6980045,62.8462068 L58.9680268,61.575025 L58.9680268,63.5194809 C58.9680268,63.7289611 59.1388575,63.8990189 59.3491107,63.8990189 C59.558591,63.8990189 59.7290352,63.7289611 59.7290352,63.5194809 L59.7290352,61.5746385 L60.9998305,62.8454338 C61.0717186,62.9180948 61.1675693,62.9579038 61.268831,62.9579038 C61.3716386,62.9579038 61.4674894,62.9180948 61.5386044,62.8462068 C61.6870185,62.6977927 61.6870185,62.4566199 61.5386044,62.3082058 L59.7290352,60.4986367 L59.7290352,58.60829 L61.3658412,59.5548161 L62.027907,62.0283835 C62.0742864,62.1926438 62.2250194,62.3074329 62.3946907,62.3074329 C62.4310212,62.3074329 62.4646462,62.3027949 62.4963388,62.2931325 C62.5929626,62.2672374 62.67374,62.2050117 62.7239843,62.1184368 C62.7750017,62.0307025 62.7889155,61.9251894 62.7622473,61.8285656 L62.296521,60.092817 L63.9824118,61.0656247 C64.040386,61.0984768 64.1053171,61.1154825 64.1702483,61.1154825 C64.307454,61.1154825 64.4303594,61.0443675 64.4999284,60.9249405 C64.6042821,60.7456069 64.5424429,60.512164 64.3615633,60.4043319 L62.6779914,59.4330702 L64.4137401,58.9677303 C64.5122963,58.9418351 64.5946197,58.8788365 64.6460235,58.7899426 C64.6962679,58.7022083 64.7101817,58.5978547 64.6839,58.5039364" id="Shape" fill="#4FB4ED"></path>
                <path d="M81.6839,58.5039364 C81.6587779,58.4061532 81.5969387,58.3238298 81.5092043,58.2724259 C81.4218565,58.2206356 81.3190488,58.2063353 81.2201061,58.2314575 L78.7453792,58.8946827 L77.1085733,57.9497027 L78.7453792,57.0043361 L81.2259035,57.6687209 C81.4299729,57.7154868 81.6309502,57.5964463 81.683127,57.3981745 C81.7101817,57.2992318 81.6966544,57.1960376 81.6452505,57.1075303 C81.5938467,57.0190229 81.5119098,56.9567973 81.4152861,56.9320616 L79.6779914,56.4659487 L81.3658147,55.492368 C81.5447618,55.383763 81.6042821,55.1568905 81.5007014,54.9756243 C81.3967343,54.7935852 81.1629049,54.7302001 80.9804793,54.8345537 L79.2980669,55.8073614 L79.7637933,54.0689073 C79.789302,53.9715105 79.7742287,53.8659974 79.7232113,53.7790361 C79.671421,53.6913017 79.5890976,53.6294626 79.4913144,53.6043404 C79.291883,53.5533231 79.0843352,53.6739095 79.02868,53.8737273 L78.3658412,56.3457488 L76.7290352,57.2911154 L76.7290352,55.4003822 L78.5401504,53.5896536 C78.685086,53.4420125 78.6846995,53.2016127 78.5393774,53.0531986 C78.4674894,52.9809241 78.3716386,52.9411151 78.269604,52.9411151 C78.1679558,52.9411151 78.0724916,52.9809241 78.0006035,53.0528121 L76.7290352,54.3243804 L76.7290352,52.379538 C76.7290352,52.1704442 76.557818,52 76.3475648,52 C76.1380845,52 75.9680268,52.1704442 75.9680268,52.379538 L75.9680268,54.3243804 L74.696845,53.0531986 C74.6249569,52.9809241 74.5291062,52.9411151 74.4270715,52.9411151 C74.3254234,52.9411151 74.2295726,52.9813106 74.1565251,53.0543581 C74.011976,53.2019992 74.012749,53.442399 74.1580711,53.5908131 L75.9680268,55.4003822 L75.9680268,57.2911154 L74.3308343,56.3457488 L73.667609,53.8714084 C73.6123403,53.6731365 73.405179,53.5533231 73.2057476,53.6043404 C73.0028378,53.6561307 72.8807054,53.8652245 72.9328822,54.0704533 L73.3989951,55.8077479 L71.7138773,54.8341672 C71.5314516,54.7302001 71.3034196,54.7920392 71.1944281,54.9756243 C71.0904609,55.1580499 71.1523001,55.3860819 71.3354987,55.494687 L73.0190706,56.4659487 L71.2852544,56.9312886 C71.1870847,56.9560243 71.1043748,57.017477 71.0529709,57.1048248 C71.0011806,57.1921727 70.9864938,57.2992318 71.0127755,57.3993339 C71.0587684,57.5643673 71.2095014,57.6791563 71.3791727,57.6791563 C71.4112517,57.6791563 71.4425578,57.6752913 71.4788883,57.6667884 L73.9497503,57.0043361 L75.5881022,57.9497027 L73.9512963,58.8946827 L71.4773424,58.231844 C71.3799456,58.2063353 71.2736595,58.2210221 71.1866982,58.2728124 C71.1005098,58.3238298 71.0375111,58.4069262 71.0143215,58.499685 C70.9868803,58.5978547 71.0000211,58.7006623 71.0510385,58.7899426 C71.1016693,58.877677 71.1855387,58.9422216 71.2817759,58.9673438 L73.0190706,59.4330702 L71.3331798,60.4058779 C71.1523001,60.512937 71.0908474,60.7456069 71.1963606,60.9233945 C71.2647702,61.0428215 71.3884485,61.114323 71.5268137,61.114323 C71.5932908,61.114323 71.6586085,61.0973173 71.7165827,61.0644652 L73.400541,60.091271 L72.9352012,61.8274062 C72.9081465,61.9251894 72.9216738,62.0283835 72.9730777,62.1172773 C73.023322,62.2042387 73.1040994,62.2668509 73.1991772,62.292746 C73.2320293,62.3027949 73.2656543,62.3074329 73.3023713,62.3074329 C73.4708831,62.3074329 73.6220026,62.1918709 73.6703145,62.0252916 L74.3312208,59.5528836 L75.9680268,58.6079035 L75.9680268,60.4986367 L74.1596171,62.3082058 C74.011203,62.4566199 74.011203,62.6977927 74.1596171,62.8462068 C74.2315051,62.9180948 74.3269694,62.9579038 74.4293905,62.9579038 C74.5314252,62.9575173 74.6265029,62.9180948 74.6980045,62.8462068 L75.9680268,61.575025 L75.9680268,63.5194809 C75.9680268,63.7289611 76.1388575,63.8990189 76.3491107,63.8990189 C76.558591,63.8990189 76.7290352,63.7289611 76.7290352,63.5194809 L76.7290352,61.5746385 L77.9998305,62.8454338 C78.0717186,62.9180948 78.1675693,62.9579038 78.268831,62.9579038 C78.3716386,62.9579038 78.4674894,62.9180948 78.5386044,62.8462068 C78.6870185,62.6977927 78.6870185,62.4566199 78.5386044,62.3082058 L76.7290352,60.4986367 L76.7290352,58.60829 L78.3658412,59.5548161 L79.027907,62.0283835 C79.0742864,62.1926438 79.2250194,62.3074329 79.3946907,62.3074329 C79.4310212,62.3074329 79.4646462,62.3027949 79.4963388,62.2931325 C79.5929626,62.2672374 79.67374,62.2050117 79.7239843,62.1184368 C79.7750017,62.0307025 79.7889155,61.9251894 79.7622473,61.8285656 L79.296521,60.092817 L80.9824118,61.0656247 C81.040386,61.0984768 81.1053171,61.1154825 81.1702483,61.1154825 C81.307454,61.1154825 81.4303594,61.0443675 81.4999284,60.9249405 C81.6042821,60.7456069 81.5424429,60.512164 81.3615633,60.4043319 L79.6779914,59.4330702 L81.4137401,58.9677303 C81.5122963,58.9418351 81.5946197,58.8788365 81.6460235,58.7899426 C81.6962679,58.7022083 81.7101817,58.5978547 81.6839,58.5039364" id="Page-1-Copy" fill="#4FB4ED"></path>
                <path d="M74.6839,74.5039364 C74.6587779,74.4061532 74.5969387,74.3238298 74.5092043,74.2724259 C74.4218565,74.2206356 74.3190488,74.2063353 74.2201061,74.2314575 L71.7453792,74.8946827 L70.1085733,73.9497027 L71.7453792,73.0043361 L74.2259035,73.6687209 C74.4299729,73.7154868 74.6309502,73.5964463 74.683127,73.3981745 C74.7101817,73.2992318 74.6966544,73.1960376 74.6452505,73.1075303 C74.5938467,73.0190229 74.5119098,72.9567973 74.4152861,72.9320616 L72.6779914,72.4659487 L74.3658147,71.492368 C74.5447618,71.383763 74.6042821,71.1568905 74.5007014,70.9756243 C74.3967343,70.7935852 74.1629049,70.7302001 73.9804793,70.8345537 L72.2980669,71.8073614 L72.7637933,70.0689073 C72.789302,69.9715105 72.7742287,69.8659974 72.7232113,69.7790361 C72.671421,69.6913017 72.5890976,69.6294626 72.4913144,69.6043404 C72.291883,69.5533231 72.0843352,69.6739095 72.02868,69.8737273 L71.3658412,72.3457488 L69.7290352,73.2911154 L69.7290352,71.4003822 L71.5401504,69.5896536 C71.685086,69.4420125 71.6846995,69.2016127 71.5393774,69.0531986 C71.4674894,68.9809241 71.3716386,68.9411151 71.269604,68.9411151 C71.1679558,68.9411151 71.0724916,68.9809241 71.0006035,69.0528121 L69.7290352,70.3243804 L69.7290352,68.379538 C69.7290352,68.1704442 69.557818,68 69.3475648,68 C69.1380845,68 68.9680268,68.1704442 68.9680268,68.379538 L68.9680268,70.3243804 L67.696845,69.0531986 C67.6249569,68.9809241 67.5291062,68.9411151 67.4270715,68.9411151 C67.3254234,68.9411151 67.2295726,68.9813106 67.1565251,69.0543581 C67.011976,69.2019992 67.012749,69.442399 67.1580711,69.5908131 L68.9680268,71.4003822 L68.9680268,73.2911154 L67.3308343,72.3457488 L66.667609,69.8714084 C66.6123403,69.6731365 66.405179,69.5533231 66.2057476,69.6043404 C66.0028378,69.6561307 65.8807054,69.8652245 65.9328822,70.0704533 L66.3989951,71.8077479 L64.7138773,70.8341672 C64.5314516,70.7302001 64.3034196,70.7920392 64.1944281,70.9756243 C64.0904609,71.1580499 64.1523001,71.3860819 64.3354987,71.494687 L66.0190706,72.4659487 L64.2852544,72.9312886 C64.1870847,72.9560243 64.1043748,73.017477 64.0529709,73.1048248 C64.0011806,73.1921727 63.9864938,73.2992318 64.0127755,73.3993339 C64.0587684,73.5643673 64.2095014,73.6791563 64.3791727,73.6791563 C64.4112517,73.6791563 64.4425578,73.6752913 64.4788883,73.6667884 L66.9497503,73.0043361 L68.5881022,73.9497027 L66.9512963,74.8946827 L64.4773424,74.231844 C64.3799456,74.2063353 64.2736595,74.2210221 64.1866982,74.2728124 C64.1005098,74.3238298 64.0375111,74.4069262 64.0143215,74.499685 C63.9868803,74.5978547 64.0000211,74.7006623 64.0510385,74.7899426 C64.1016693,74.877677 64.1855387,74.9422216 64.2817759,74.9673438 L66.0190706,75.4330702 L64.3331798,76.4058779 C64.1523001,76.512937 64.0908474,76.7456069 64.1963606,76.9233945 C64.2647702,77.0428215 64.3884485,77.114323 64.5268137,77.114323 C64.5932908,77.114323 64.6586085,77.0973173 64.7165827,77.0644652 L66.400541,76.091271 L65.9352012,77.8274062 C65.9081465,77.9251894 65.9216738,78.0283835 65.9730777,78.1172773 C66.023322,78.2042387 66.1040994,78.2668509 66.1991772,78.292746 C66.2320293,78.3027949 66.2656543,78.3074329 66.3023713,78.3074329 C66.4708831,78.3074329 66.6220026,78.1918709 66.6703145,78.0252916 L67.3312208,75.5528836 L68.9680268,74.6079035 L68.9680268,76.4986367 L67.1596171,78.3082058 C67.011203,78.4566199 67.011203,78.6977927 67.1596171,78.8462068 C67.2315051,78.9180948 67.3269694,78.9579038 67.4293905,78.9579038 C67.5314252,78.9575173 67.6265029,78.9180948 67.6980045,78.8462068 L68.9680268,77.575025 L68.9680268,79.5194809 C68.9680268,79.7289611 69.1388575,79.8990189 69.3491107,79.8990189 C69.558591,79.8990189 69.7290352,79.7289611 69.7290352,79.5194809 L69.7290352,77.5746385 L70.9998305,78.8454338 C71.0717186,78.9180948 71.1675693,78.9579038 71.268831,78.9579038 C71.3716386,78.9579038 71.4674894,78.9180948 71.5386044,78.8462068 C71.6870185,78.6977927 71.6870185,78.4566199 71.5386044,78.3082058 L69.7290352,76.4986367 L69.7290352,74.60829 L71.3658412,75.5548161 L72.027907,78.0283835 C72.0742864,78.1926438 72.2250194,78.3074329 72.3946907,78.3074329 C72.4310212,78.3074329 72.4646462,78.3027949 72.4963388,78.2931325 C72.5929626,78.2672374 72.67374,78.2050117 72.7239843,78.1184368 C72.7750017,78.0307025 72.7889155,77.9251894 72.7622473,77.8285656 L72.296521,76.092817 L73.9824118,77.0656247 C74.040386,77.0984768 74.1053171,77.1154825 74.1702483,77.1154825 C74.307454,77.1154825 74.4303594,77.0443675 74.4999284,76.9249405 C74.6042821,76.7456069 74.5424429,76.512164 74.3615633,76.4043319 L72.6779914,75.4330702 L74.4137401,74.9677303 C74.5122963,74.9418351 74.5946197,74.8788365 74.6460235,74.7899426 C74.6962679,74.7022083 74.7101817,74.5978547 74.6839,74.5039364" id="Page-1-Copy-2" fill="#4FB4ED"></path>
                <path d="M32.7609428,67.2582908 C32.7609428,67.2582908 30.03367,74.5429798 30.7154882,77.3246727 C31.2773569,79.6253209 33.6426768,81.0349909 35.993266,80.4681948 C38.348064,79.8993072 39.7916667,77.569378 39.2276936,75.2687297 C38.5479798,72.4849453 32.7609428,67.2582908 32.7609428,67.2582908" id="Fill-14" fill="#38A1E8"></path>
                <path d="M50.280303,66.9065007 C50.280303,66.9065007 47.5530303,74.1911897 48.2348485,76.9728826 C48.7967172,79.2735309 51.162037,80.6832008 53.5126263,80.1164048 C55.8674242,79.5475172 57.3110269,77.217588 56.7470539,74.9169397 C56.0673401,72.1331553 50.280303,66.9065007 50.280303,66.9065007" id="Fill-16" fill="#38A1E8"></path>
                <path d="M88.9602273,24.086417 C95.0208333,24.086417 99.9513889,29.0516343 99.9513889,35.1588096 C99.9513889,41.261802 95.0208333,46.2270193 88.9602273,46.2270193 L41.1719276,46.2270193 C33.5667088,46.2270193 27.3777357,39.9922625 27.3777357,32.3290123 C27.3777357,24.6657621 33.5667088,18.4310053 41.1719276,18.4310053 C42.5881734,18.4310053 43.9960017,18.6506126 45.3512205,19.0835528 L46.2371633,19.3659051 L46.5486111,18.4853842 C49.4694865,10.213508 57.2746212,4.65639669 65.9699074,4.65639669 C76.6012205,4.65639669 85.4248737,12.6793846 86.4960017,23.3209286 L86.5949074,24.3060243 L87.5713384,24.1847174 C88.1100589,24.1177895 88.5519781,24.086417 88.9602273,24.086417" id="Fill-1" fill="#BAC6D1"></path>
                <path d="M12.1420455,22.0413499 C5.44802189,22.0413499 -0.000210437711,27.5085267 -0.000210437711,34.2306026 C-0.000210437711,40.9484956 5.44802189,46.4177639 12.1420455,46.4177639 L64.9345539,46.4177639 C73.339436,46.4177639 80.1744529,39.5534661 80.1744529,31.1163615 C80.1744529,22.6792569 73.339436,15.8149591 64.9345539,15.8149591 C63.3710017,15.8149591 61.815867,16.0575729 60.3175505,16.532343 L59.3411195,16.8439763 L58.9960017,15.873521 C55.7699916,6.76713689 47.1462542,0.649504016 37.5397727,0.649504016 C25.7952441,0.649504016 16.0477694,9.48399334 14.8651094,21.198476 L14.7556818,22.2839637 L13.6782407,22.1501078 C13.0805976,22.0748138 12.5923822,22.0413499 12.1420455,22.0413499" id="Fill-5" fill="#D6E3F2"></path>
            </g>
        </g>
    </g>
</svg>