<?xml version="1.0" encoding="UTF-8"?>
<svg width="100px" height="100px" viewBox="0 0 100 100" version="1.1" xmlns="http://www.w3.org/2000/svg" xmlns:xlink="http://www.w3.org/1999/xlink">
    <!-- Generator: Sketch 47.1 (45422) - http://www.bohemiancoding.com/sketch -->
    <title>snow</title>
    <desc>Created with Sketch.</desc>
    <defs></defs>
    <g id="Page-1" stroke="none" stroke-width="1" fill="none" fill-rule="evenodd">
        <g id="snow">
            <rect id="Rectangle" stroke-opacity="0.284137228" stroke="#FFFFFF" x="0.5" y="0.5" width="99" height="99"></rect>
            <path d="M85.0346986,53.6343586 C84.8700188,52.9933738 84.4646529,52.4537305 83.8895399,52.11677 C83.3169607,51.7772761 82.6430399,51.6835353 81.9944544,51.8482151 L65.7722177,56.1957644 L55.0426891,50.0012667 L65.7722177,43.8042356 L82.0324574,48.1593854 C83.3701649,48.4659435 84.6876041,47.6856141 85.0296316,46.3859097 C85.2069791,45.7373242 85.1183054,45.0608698 84.7813449,44.4806899 C84.4443846,43.90051 83.9072747,43.4926105 83.2738905,43.3304641 L71.8856422,40.2750187 L82.9495978,33.8930392 C84.1226253,33.1811154 84.51279,31.6939293 83.8338021,30.5057005 C83.1522807,29.3124045 81.6194909,28.8969046 80.4236615,29.5809595 L69.3951755,35.9578718 L72.4480874,24.5620229 C72.6153008,23.9235716 72.5164929,23.2319161 72.1820661,22.6618703 C71.8425721,22.0867574 71.3029288,21.6813915 70.6619439,21.5167116 C69.3546389,21.1822847 67.9941295,21.9727483 67.6293002,23.2825868 L63.2842845,39.4870887 L52.5547558,45.6841199 L52.5547558,33.2900574 L64.4269096,21.4204372 C65.376986,20.4526261 65.3744524,18.8767662 64.4218425,17.903888 C63.9506047,17.4301166 63.3222876,17.1691623 62.6534339,17.1691623 C61.9871136,17.1691623 61.36133,17.4301166 60.8900921,17.9013544 L52.5547558,26.2366908 L52.5547558,13.4879332 C52.5547558,12.1172897 51.432399,11 50.0541549,11 C48.6809779,11 47.5662217,12.1172897 47.5662217,13.4879332 L47.5662217,26.2366908 L39.2334189,17.903888 C38.7621811,17.4301166 38.1338639,17.1691623 37.4650101,17.1691623 C36.79869,17.1691623 36.1703728,17.4326502 35.6915344,17.9114886 C34.7439916,18.8792997 34.7490586,20.4551597 35.7016684,21.4280378 L47.5662217,33.2900574 L47.5662217,45.6841199 L36.8341595,39.4870887 L32.4866102,23.2673856 C32.1243144,21.9676812 30.7663387,21.1822847 29.4590336,21.5167116 C28.1289267,21.8562056 27.3283291,23.226849 27.6703565,24.5721571 L30.7258021,35.9604054 L19.6795813,29.578426 C18.4837518,28.8969046 16.988965,29.3022704 16.2745076,30.5057005 C15.5929862,31.7015298 15.9983521,33.1963166 17.1992487,33.9082405 L28.2353353,40.2750187 L16.8698889,43.325397 C16.2263705,43.4875434 15.6841936,43.8903758 15.3472332,44.4629552 C15.0077393,45.0355344 14.9114648,45.7373242 15.0837454,46.3935102 C15.3852362,47.4753305 16.3733156,48.227791 17.4855383,48.227791 C17.6958218,48.227791 17.9010383,48.2024556 18.1391908,48.1467178 L34.3360921,43.8042356 L45.0757549,50.0012667 L34.3462262,56.1957644 L18.1290567,51.8507487 C17.4906054,51.6835353 16.7938827,51.7798097 16.2238369,52.1193036 C15.6588582,52.4537305 15.2458917,52.9984409 15.0938795,53.6064898 C14.9139983,54.2500082 15.0001386,54.923929 15.3345655,55.509176 C15.6664589,56.0842888 16.2162363,56.5073895 16.847087,56.6720694 L28.2353353,59.7249813 L17.1840474,66.1018937 C15.9983521,66.8036834 15.5955197,68.3288726 16.2871754,69.4942995 C16.7356114,70.2771625 17.5463432,70.7458668 18.4533494,70.7458668 C18.8891178,70.7458668 19.3172854,70.6343911 19.697316,70.4190405 L30.7359362,64.0395946 L27.6855577,75.4202423 C27.5082101,76.0612272 27.596884,76.7376815 27.9338444,77.320395 C28.2632042,77.8904407 28.7927134,78.3008737 29.4159635,78.4706208 C29.6313141,78.5364927 29.8517318,78.5668952 30.0924178,78.5668952 C31.1970399,78.5668952 32.1876528,77.8093676 32.5043449,76.7174132 L36.836693,60.5103778 L47.5662217,54.3158801 L47.5662217,66.7099426 L35.7118027,78.5719622 C34.7389245,79.5448403 34.7389245,81.1257674 35.7118027,82.0986456 C36.1830404,82.5698834 36.8088241,82.8308377 37.4802114,82.8308377 C38.1490651,82.8283042 38.7723152,82.5698834 39.2410195,82.0986456 L47.5662217,73.7658427 L47.5662217,86.5120668 C47.5662217,87.8852437 48.686045,89 50.064289,89 C51.437466,89 52.5547558,87.8852437 52.5547558,86.5120668 L52.5547558,73.7633092 L60.8850251,82.0935785 C61.3562629,82.5698834 61.9845801,82.8308377 62.6483668,82.8308377 C63.3222876,82.8308377 63.9506047,82.5698834 64.4167755,82.0986456 C65.3896537,81.1257674 65.3896537,79.5448403 64.4167755,78.5719622 L52.5547558,66.7099426 L52.5547558,54.3184136 L63.2842845,60.5230454 L67.6242331,76.7376815 C67.9282576,77.8144346 68.916337,78.5668952 70.0285597,78.5668952 C70.2667121,78.5668952 70.4871299,78.5364927 70.6948799,78.4731542 C71.3282642,78.3034073 71.8577733,77.8955078 72.1871331,77.3279955 C72.52156,76.7528827 72.6127673,76.0612272 72.4379532,75.4278429 L69.3850414,64.0497288 L80.4363292,70.4266411 C80.8163598,70.6419918 81.241994,70.7534674 81.6676282,70.7534674 C82.5670337,70.7534674 83.3726985,70.2872966 83.828735,69.5044337 C84.51279,68.3288726 84.1074241,66.7986163 82.9217289,66.0917595 L71.8856422,59.7249813 L83.2637564,56.674603 C83.9098082,56.5048559 84.4494517,56.0918895 84.786412,55.509176 C85.1157718,54.934063 85.2069791,54.2500082 85.0346986,53.6343586" id="Page-1" fill="#4FB4ED" fill-rule="nonzero"></path>
        </g>
    </g>
</svg>