<?xml version="1.0" encoding="UTF-8"?>
<svg width="71px" height="78px" viewBox="0 0 71 78" version="1.1" xmlns="http://www.w3.org/2000/svg" xmlns:xlink="http://www.w3.org/1999/xlink">
    <!-- Generator: Sketch 48.2 (47327) - http://www.bohemiancoding.com/sketch -->
    <title>snow</title>
    <desc>Created with Sketch.</desc>
    <defs></defs>
    <g id="Icons" stroke="none" stroke-width="1" fill="none" fill-rule="evenodd">
        <g id="snow" fill="#4FB4ED" fill-rule="nonzero">
            <path d="M70.0346986,42.6343586 C69.8700188,41.9933738 69.4646529,41.4537305 68.8895399,41.11677 C68.3169607,40.7772761 67.6430399,40.6835353 66.9944544,40.8482151 L50.7722177,45.1957644 L40.0426891,39.0012667 L50.7722177,32.8042356 L67.0324574,37.1593854 C68.3701649,37.4659435 69.6876041,36.6856141 70.0296316,35.3859097 C70.2069791,34.7373242 70.1183054,34.0608698 69.7813449,33.4806899 C69.4443846,32.90051 68.9072747,32.4926105 68.2738905,32.3304641 L56.8856422,29.2750187 L67.9495978,22.8930392 C69.1226253,22.1811154 69.51279,20.6939293 68.8338021,19.5057005 C68.1522807,18.3124045 66.6194909,17.8969046 65.4236615,18.5809595 L54.3951755,24.9578718 L57.4480874,13.5620229 C57.6153008,12.9235716 57.5164929,12.2319161 57.1820661,11.6618703 C56.8425721,11.0867574 56.3029288,10.6813915 55.6619439,10.5167116 C54.3546389,10.1822847 52.9941295,10.9727483 52.6293002,12.2825868 L48.2842845,28.4870887 L37.5547558,34.6841199 L37.5547558,22.2900574 L49.4269096,10.4204372 C50.376986,9.4526261 50.3744524,7.8767662 49.4218425,6.903888 C48.9506047,6.4301166 48.3222876,6.1691623 47.6534339,6.1691623 C46.9871136,6.1691623 46.36133,6.4301166 45.8900921,6.9013544 L37.5547558,15.2366908 L37.5547558,2.4879332 C37.5547558,1.1172897 36.432399,0 35.0541549,0 C33.6809779,0 32.5662217,1.1172897 32.5662217,2.4879332 L32.5662217,15.2366908 L24.2334189,6.903888 C23.7621811,6.4301166 23.1338639,6.1691623 22.4650101,6.1691623 C21.79869,6.1691623 21.1703728,6.4326502 20.6915344,6.9114886 C19.7439916,7.8792997 19.7490586,9.4551597 20.7016684,10.4280378 L32.5662217,22.2900574 L32.5662217,34.6841199 L21.8341595,28.4870887 L17.4866102,12.2673856 C17.1243144,10.9676812 15.7663387,10.1822847 14.4590336,10.5167116 C13.1289267,10.8562056 12.3283291,12.226849 12.6703565,13.5721571 L15.7258021,24.9604054 L4.6795813,18.578426 C3.4837518,17.8969046 1.988965,18.3022704 1.2745076,19.5057005 C0.5929862,20.7015298 0.9983521,22.1963166 2.1992487,22.9082405 L13.2353353,29.2750187 L1.8698889,32.325397 C1.2263705,32.4875434 0.6841936,32.8903758 0.3472332,33.4629552 C0.0077393,34.0355344 -0.0885352,34.7373242 0.0837454,35.3935102 C0.3852362,36.4753305 1.3733156,37.227791 2.4855383,37.227791 C2.6958218,37.227791 2.9010383,37.2024556 3.1391908,37.1467178 L19.3360921,32.8042356 L30.0757549,39.0012667 L19.3462262,45.1957644 L3.1290567,40.8507487 C2.4906054,40.6835353 1.7938827,40.7798097 1.2238369,41.1193036 C0.6588582,41.4537305 0.2458917,41.9984409 0.0938795,42.6064898 C-0.0860017,43.2500082 0.0001386,43.923929 0.3345655,44.509176 C0.6664589,45.0842888 1.2162363,45.5073895 1.847087,45.6720694 L13.2353353,48.7249813 L2.1840474,55.1018937 C0.9983521,55.8036834 0.5955197,57.3288726 1.2871754,58.4942995 C1.7356114,59.2771625 2.5463432,59.7458668 3.4533494,59.7458668 C3.8891178,59.7458668 4.3172854,59.6343911 4.697316,59.4190405 L15.7359362,53.0395946 L12.6855577,64.4202423 C12.5082101,65.0612272 12.596884,65.7376815 12.9338444,66.320395 C13.2632042,66.8904407 13.7927134,67.3008737 14.4159635,67.4706208 C14.6313141,67.5364927 14.8517318,67.5668952 15.0924178,67.5668952 C16.1970399,67.5668952 17.1876528,66.8093676 17.5043449,65.7174132 L21.836693,49.5103778 L32.5662217,43.3158801 L32.5662217,55.7099426 L20.7118027,67.5719622 C19.7389245,68.5448403 19.7389245,70.1257674 20.7118027,71.0986456 C21.1830404,71.5698834 21.8088241,71.8308377 22.4802114,71.8308377 C23.1490651,71.8283042 23.7723152,71.5698834 24.2410195,71.0986456 L32.5662217,62.7658427 L32.5662217,75.5120668 C32.5662217,76.8852437 33.686045,78 35.064289,78 C36.437466,78 37.5547558,76.8852437 37.5547558,75.5120668 L37.5547558,62.7633092 L45.8850251,71.0935785 C46.3562629,71.5698834 46.9845801,71.8308377 47.6483668,71.8308377 C48.3222876,71.8308377 48.9506047,71.5698834 49.4167755,71.0986456 C50.3896537,70.1257674 50.3896537,68.5448403 49.4167755,67.5719622 L37.5547558,55.7099426 L37.5547558,43.3184136 L48.2842845,49.5230454 L52.6242331,65.7376815 C52.9282576,66.8144346 53.916337,67.5668952 55.0285597,67.5668952 C55.2667121,67.5668952 55.4871299,67.5364927 55.6948799,67.4731542 C56.3282642,67.3034073 56.8577733,66.8955078 57.1871331,66.3279955 C57.52156,65.7528827 57.6127673,65.0612272 57.4379532,64.4278429 L54.3850414,53.0497288 L65.4363292,59.4266411 C65.8163598,59.6419918 66.241994,59.7534674 66.6676282,59.7534674 C67.5670337,59.7534674 68.3726985,59.2872966 68.828735,58.5044337 C69.51279,57.3288726 69.1074241,55.7986163 67.9217289,55.0917595 L56.8856422,48.7249813 L68.2637564,45.674603 C68.9098082,45.5048559 69.4494517,45.0918895 69.786412,44.509176 C70.1157718,43.934063 70.2069791,43.2500082 70.0346986,42.6343586" id="Page-1"></path>
        </g>
    </g>
</svg>