<?xml version="1.0" encoding="UTF-8"?>
<svg width="84px" height="79px" viewBox="0 0 84 79" version="1.1" xmlns="http://www.w3.org/2000/svg" xmlns:xlink="http://www.w3.org/1999/xlink">
    <!-- Generator: Sketch 48.2 (47327) - http://www.bohemiancoding.com/sketch -->
    <title>tornado</title>
    <desc>Created with Sketch.</desc>
    <defs></defs>
    <g id="Icons" stroke="none" stroke-width="1" fill="none" fill-rule="evenodd">
        <g id="tornado">
            <g id="Page-1">
                <path d="M9.00427,56.3428329 C7.89670098,56.3428329 7,55.3713514 7,54.1714164 C7,52.9714815 7.89670098,52 9.00427,52 L74.99573,52 C76.103299,52 77,52.9714815 77,54.1714164 C77,55.3713514 76.103299,56.3428329 74.99573,56.3428329 L9.00427,56.3428329 Z" id="Fill-4" fill="#BAC6D1"></path>
                <path d="M65.5683786,64.3428329 L18.4316214,64.3428329 C17.6405007,64.3428329 17,63.3713514 17,62.1714164 C17,60.9714815 17.6405007,60 18.4316214,60 L65.5683786,60 C66.3594993,60 67,60.9714815 67,62.1714164 C67,63.3713514 66.3594993,64.3428329 65.5683786,64.3428329" id="Fill-6" fill="#BAC6D1"></path>
                <path d="M55.7381853,71.3428329 L28.2618147,71.3428329 C27.56453,71.3428329 27,70.3713514 27,69.1714164 C27,67.9714815 27.56453,67 28.2618147,67 L55.7381853,67 C56.43547,67 57,67.9714815 57,69.1714164 C57,70.3713514 56.43547,71.3428329 55.7381853,71.3428329" id="Fill-8" fill="#BAC6D1"></path>
                <path d="M46.5793951,78.3428329 L37.4206049,78.3428329 C37.1881767,78.3428329 37,77.3713514 37,76.1714164 C37,74.9714815 37.1881767,74 37.4206049,74 L46.5793951,74 C46.8118233,74 47,74.9714815 47,76.1714164 C47,77.3713514 46.8118233,78.3428329 46.5793951,78.3428329" id="Fill-8" fill="#BAC6D1"></path>
                <path d="M12.621875,22.6856458 C5.6634375,22.6856458 0,28.4834829 0,35.6121166 C0,42.7363144 5.6634375,48.5363695 12.621875,48.5363695 L67.4996875,48.5363695 C76.2365625,48.5363695 83.3415625,41.2569122 83.3415625,32.3095231 C83.3415625,23.3621341 76.2365625,16.0826767 67.4996875,16.0826767 C65.874375,16.0826767 64.2578125,16.3399641 62.7003125,16.8434488 L61.6853125,17.1739299 L61.3265625,16.1447806 C57.973125,6.48763336 49.00875,0 39.0228125,0 C26.814375,0 16.681875,9.36880797 15.4525,21.7917941 L15.33875,22.9429331 L14.21875,22.8009815 C13.5975,22.7211337 13.09,22.6856458 12.621875,22.6856458" id="Fill-1" fill="#D6E3F2"></path>
            </g>
        </g>
    </g>
</svg>